<svg xmlns="http://www.w3.org/2000/svg" xmlns:xlink="http://www.w3.org/1999/xlink" width="40.742mm" height="69.977mm" viewBox="4010.2 3040 160.4 275.5"><title></title><style type="text/css">
*[layerid="1"] {stroke:#FF0000;fill:#FF0000;}
*[layerid="2"] {stroke:#0000FF;fill:#0000FF;}
*[layerid="3"] {stroke:#FFCC00;fill:#FFCC00;}
*[layerid="4"] {stroke:#66CC33;fill:#66CC33;}
*[layerid="5"] {stroke:#808080;fill:#808080;}
*[layerid="6"] {stroke:#800000;fill:#800000;}
*[layerid="7"] {stroke:#800080;fill:#800080;stroke-opacity:0.7;fill-opacity:0.7;}
*[layerid="8"] {stroke:#AA00FF;fill:#AA00FF;stroke-opacity:0.7;fill-opacity:0.7;}
*[layerid="9"] {stroke:#6464FF;fill:#6464FF;}
*[layerid="10"] {stroke:#FF00FF;fill:#FF00FF;}
*[layerid="11"] {stroke:#C0C0C0;fill:#C0C0C0;}
*[layerid="12"] {stroke:#FFFFFF;fill:#FFFFFF;}
*[layerid="13"] {stroke:#33CC99;fill:#33CC99;}
*[layerid="14"] {stroke:#5555FF;fill:#5555FF;}
*[layerid="15"] {stroke:#F022F0;fill:#F022F0;}
*[layerid="21"] {stroke:#999966;fill:#999966;}
*[layerid="22"] {stroke:#008000;fill:#008000;}
*[layerid="23"] {stroke:#00FF00;fill:#00FF00;}
*[layerid="24"] {stroke:#BC8E00;fill:#BC8E00;}
*[layerid="25"] {stroke:#70DBFA;fill:#70DBFA;}
*[layerid="26"] {stroke:#00CC66;fill:#00CC66;}
*[layerid="27"] {stroke:#9966FF;fill:#9966FF;}
*[layerid="28"] {stroke:#800080;fill:#800080;}
*[layerid="29"] {stroke:#008080;fill:#008080;}
*[layerid="30"] {stroke:#15935F;fill:#15935F;}
*[layerid="31"] {stroke:#000080;fill:#000080;}
*[layerid="32"] {stroke:#00B400;fill:#00B400;}
*[layerid="33"] {stroke:#2E4756;fill:#2E4756;}
*[layerid="34"] {stroke:#99842F;fill:#99842F;}
*[layerid="35"] {stroke:#FFFFAA;fill:#FFFFAA;}
*[layerid="36"] {stroke:#99842F;fill:#99842F;}
*[layerid="37"] {stroke:#2E4756;fill:#2E4756;}
*[layerid="38"] {stroke:#3535FF;fill:#3535FF;}
*[layerid="39"] {stroke:#8000BC;fill:#8000BC;}
*[layerid="40"] {stroke:#43AE5F;fill:#43AE5F;}
*[layerid="41"] {stroke:#C3ECCE;fill:#C3ECCE;}
*[layerid="42"] {stroke:#728978;fill:#728978;}
*[layerid="43"] {stroke:#39503F;fill:#39503F;}
*[layerid="44"] {stroke:#0C715D;fill:#0C715D;}
*[layerid="45"] {stroke:#5A8A80;fill:#5A8A80;}
*[layerid="46"] {stroke:#2B937E;fill:#2B937E;}
*[layerid="47"] {stroke:#23999D;fill:#23999D;}
*[layerid="48"] {stroke:#45B4E3;fill:#45B4E3;}
*[layerid="49"] {stroke:#215DA1;fill:#215DA1;}
*[layerid="50"] {stroke:#4564D7;fill:#4564D7;}
*[layerid="51"] {stroke:#6969E9;fill:#6969E9;}
*[layerid="52"] {stroke:#9069E9;fill:#9069E9;}
*[fill="none"] {fill: none;}
*[stroke="none"] {stroke: none;}
path, polyline, polygon, line {stroke-linecap:round;}
g[c_partid="part_pad"][layerid="1"] ellipse:not([c_padid]) {fill:#FF0000;}
g[c_partid="part_pad"][layerid="1"]  polygon:not([c_padid]) {fill:#FF0000;}
g[c_partid="part_pad"][layerid="1"]  polyline:not([c_padid]) {stroke:#FF0000;}
g[c_partid="part_pad"][layerid="1"]  circle {fill:#FF0000;}
g[c_partid="part_pad"][layerid="2"]  ellipse:not([c_padid]) {fill:#0000FF;}
g[c_partid="part_pad"][layerid="2"]  polygon:not([c_padid]) {fill:#0000FF;}
g[c_partid="part_pad"][layerid="2"]  polyline:not([c_padid]) {stroke:#0000FF;}
g[c_partid="part_pad"][layerid="2"]  circle {fill:#0000FF;}
g[c_partid="part_pad"][layerid="11"]  ellipse:not([c_padid]) {fill:#C0C0C0;}
g[c_partid="part_pad"][layerid="11"]  polygon:not([c_padid]) {fill:#C0C0C0;}
g[c_partid="part_pad"][layerid="11"]  polyline:not([c_padid]) {stroke:#C0C0C0;}
g[c_partid="part_pad"][layerid="11"]  circle {fill:#C0C0C0;}
g[c_partid="part_pad"][layerid] > circle[c_padhole] {fill: #222222;}
g[c_partid="part_pad"][layerid] > polyline[c_padhole] {stroke:#222222;}
g[c_partid="part_via"][layerid] > * + circle {fill: #222222;}
g[c_partid="part_pad"] > polygon[c_padid] {stroke-linejoin: miter;stroke-miterlimit: 100;}
g[c_partid="part_hole"] > circle {fill: #222222;}path, polyline, polygon {stroke-linejoin:round;}
rect, circle, ellipse, polyline, line, polygon, path {shape-rendering:crispEdges;}
</style>
<rect x="4010.2" y="3040" width="160.4" height="275.5" fill="#000000" stroke="none"/><g id="g1" cpara="package`IQRF_KON-SIM-01`" c_transformList="" importFlag="0" xmlns="http://www.w3.org/2000/svg"><polyline points="4070.314 3056.437 4056 3070.751 4056 3135.5" stroke-width="2" c_shapetype="line" stroke-linecap="round" fill="none" layerid="1" net="TX" id="gge916" /><polyline points="4100.35 3056.44 4086.79 3070 4070 3070 4062 3078 4062 3144 4060.5 3145.5 4056 3145.5" stroke-width="2" c_shapetype="line" stroke-linecap="round" fill="none" layerid="1" net="RX" id="gge918" /><polyline points="4145 3128 4130 3143 4130 3156.5 4141.5 3168 4145 3168" stroke-width="2" c_shapetype="line" stroke-linecap="round" fill="none" layerid="1" net="GND" id="gge999" /><polyline points="4080.314 3103.567 4080.314 3114.5 4078.012 3116.802 4078.012 3118" stroke-width="2" c_shapetype="line" stroke-linecap="round" fill="none" layerid="1" net="5V" id="gge1030" /><polyline points="4072.5 3118 4070.114 3115.614 4070.114 3103.567" stroke-width="2" c_shapetype="line" stroke-linecap="round" fill="none" layerid="1" net="GND" id="gge1044" /><polyline points="4140 3189.5 4120 3189.5 4108.5 3178 4108.5 3139.5 4087 3118 4078.012 3118" stroke-width="2" c_shapetype="line" stroke-linecap="round" fill="none" layerid="1" net="5V" id="gge1046" /><polyline points="4145 3128 4103.5 3128 4085.5 3110 4085.5 3091 4082 3087.5 4073.5 3087.5 4070.11 3090.89 4070.11 3103.57" stroke-width="2" c_shapetype="line" stroke-linecap="round" fill="none" layerid="1" net="GND" id="gge1053" /><g c_partid="part_pad" c_etype="pinpart" c_origin="4072.5,3118" layerid="1" number="1" net="GND" plated ="Y" c_shapetype="group" id="gge111" locked="0" c_rotation="0" c_width="3.937" c_height="4.3307" title="GND" c_shape="RECT" pasteExpansion="0" solderExpansion="0.4"><polygon points="4070.531 3115.835 4074.468 3115.835 4074.468 3120.165 4070.531 3120.165" stroke-width="0" /><circle c_padhole="1" cx="4072.5" cy="3118" r="0" stroke-width="0" /></g><g c_partid="part_pad" c_etype="pinpart" c_origin="4078.01,3118" layerid="1" number="2" net="5V" plated ="Y" c_shapetype="group" id="gge116" locked="0" c_rotation="0" c_width="3.937" c_height="4.3307" title="5V" c_shape="RECT" pasteExpansion="0" solderExpansion="0.4"><polygon points="4076.043 3115.835 4079.98 3115.835 4079.98 3120.165 4076.043 3120.165" stroke-width="0" /><circle c_padhole="1" cx="4078.012" cy="3118" r="0" stroke-width="0" /></g><g c_partid="part_pad" c_etype="pinpart" c_origin="4100.75,3103.57" layerid="1" number="1" net="C1/BTN1/LEFT" plated ="Y" c_shapetype="group" id="gge783" locked="0" c_rotation="180" c_width="3.937" c_height="7.4803" title="C1/BTN1/LEFT" c_shape="RECT" pasteExpansion="0" solderExpansion="0.4"><polygon points="4102.724 3107.307 4098.784 3107.307 4098.784 3099.827 4102.724 3099.827" stroke-width="0" /><circle c_padhole="1" cx="4100.754" cy="3103.567" r="0" stroke-width="0" /></g><g c_partid="part_pad" c_etype="pinpart" c_origin="4090.51,3103.57" layerid="1" number="2" net="C2/BTN2/RIGHT" plated ="Y" c_shapetype="group" id="gge788" locked="0" c_rotation="180" c_width="3.937" c_height="7.4803" title="C2/BTN2/RIGHT" c_shape="RECT" pasteExpansion="0" solderExpansion="0.4"><polygon points="4092.484 3107.307 4088.544 3107.307 4088.544 3099.827 4092.484 3099.827" stroke-width="0" /><circle c_padhole="1" cx="4090.514" cy="3103.567" r="0" stroke-width="0" /></g><g c_partid="part_pad" c_etype="pinpart" c_origin="4080.31,3103.57" layerid="1" number="3" net="5V" plated ="Y" c_shapetype="group" id="gge793" locked="0" c_rotation="180" c_width="3.937" c_height="7.4803" title="5V" c_shape="RECT" pasteExpansion="0" solderExpansion="0.4"><polygon points="4082.284 3107.307 4078.344 3107.307 4078.344 3099.827 4082.284 3099.827" stroke-width="0" /><circle c_padhole="1" cx="4080.314" cy="3103.567" r="0" stroke-width="0" /></g><g c_partid="part_pad" c_etype="pinpart" c_origin="4070.11,3103.57" layerid="1" number="4" net="GND" plated ="Y" c_shapetype="group" id="gge798" locked="0" c_rotation="180" c_width="3.937" c_height="7.4803" title="GND" c_shape="RECT" pasteExpansion="0" solderExpansion="0.4"><polygon points="4072.084 3107.307 4068.144 3107.307 4068.144 3099.827 4072.084 3099.827" stroke-width="0" /><circle c_padhole="1" cx="4070.114" cy="3103.567" r="0" stroke-width="0" /></g><g c_partid="part_pad" c_etype="pinpart" c_origin="4100.75,3056.44" layerid="1" number="5" net="RX" plated ="Y" c_shapetype="group" id="gge803" locked="0" c_rotation="180" c_width="3.937" c_height="7.4803" title="RX" c_shape="RECT" pasteExpansion="0" solderExpansion="0.4"><polygon points="4102.724 3060.177 4098.784 3060.177 4098.784 3052.697 4102.724 3052.697" stroke-width="0" /><circle c_padhole="1" cx="4100.754" cy="3056.437" r="0" stroke-width="0" /></g><g c_partid="part_pad" c_etype="pinpart" c_origin="4090.51,3056.44" layerid="1" number="6" net="C6/DATA" plated ="Y" c_shapetype="group" id="gge808" locked="0" c_rotation="180" c_width="3.937" c_height="7.4803" title="C6/DATA" c_shape="RECT" pasteExpansion="0" solderExpansion="0.4"><polygon points="4092.484 3060.177 4088.544 3060.177 4088.544 3052.697 4092.484 3052.697" stroke-width="0" /><circle c_padhole="1" cx="4090.514" cy="3056.437" r="0" stroke-width="0" /></g><g c_partid="part_pad" c_etype="pinpart" c_origin="4080.31,3056.44" layerid="1" number="7" net="C7/STROBE" plated ="Y" c_shapetype="group" id="gge813" locked="0" c_rotation="180" c_width="3.937" c_height="7.4803" title="C7/STROBE" c_shape="RECT" pasteExpansion="0" solderExpansion="0.4"><polygon points="4082.284 3060.177 4078.344 3060.177 4078.344 3052.697 4082.284 3052.697" stroke-width="0" /><circle c_padhole="1" cx="4080.314" cy="3056.437" r="0" stroke-width="0" /></g><g c_partid="part_pad" c_etype="pinpart" c_origin="4070.11,3056.44" layerid="1" number="8" net="TX" plated ="Y" c_shapetype="group" id="gge818" locked="0" c_rotation="180" c_width="3.937" c_height="7.4803" title="TX" c_shape="RECT" pasteExpansion="0" solderExpansion="0.4"><polygon points="4072.084 3060.177 4068.144 3060.177 4068.144 3052.697 4072.084 3052.697" stroke-width="0" /><circle c_padhole="1" cx="4070.114" cy="3056.437" r="0" stroke-width="0" /></g><g c_partid="part_pad" c_etype="pinpart" c_origin="4140,3220" layerid="11" number="4" net="SDA" plated ="Y" c_shapetype="group" id="gge401" locked="0" c_rotation="90" c_width="6" c_height="6" title="SDA" c_shape="OVAL" pasteExpansion="0" solderExpansion="0.4"><polyline points="4140 3220 4140 3220" stroke-width="6" /><circle c_padhole="1" cx="4140" cy="3220" r="1.4" stroke-width="0" /></g><g c_partid="part_pad" c_etype="pinpart" c_origin="4140,3210" layerid="11" number="4" net="SCL" plated ="Y" c_shapetype="group" id="gge395" locked="0" c_rotation="90" c_width="6" c_height="6" title="SCL" c_shape="OVAL" pasteExpansion="0" solderExpansion="0.4"><polyline points="4140 3210 4140 3210" stroke-width="6" /><circle c_padhole="1" cx="4140" cy="3210" r="1.4" stroke-width="0" /></g><g c_partid="part_pad" c_etype="pinpart" c_origin="4140,3199.5" layerid="11" number="4" net="GND" plated ="Y" c_shapetype="group" id="gge389" locked="0" c_rotation="90" c_width="6" c_height="6" title="GND" c_shape="OVAL" pasteExpansion="0" solderExpansion="0.4"><polyline points="4140 3199.5 4140 3199.5" stroke-width="6" /><circle c_padhole="1" cx="4140" cy="3199.5" r="1.4" stroke-width="0" /></g><g c_partid="part_pad" c_etype="pinpart" c_origin="4140,3189.5" layerid="11" number="4" net="5V" plated ="Y" c_shapetype="group" id="gge377" locked="0" c_rotation="90" c_width="6" c_height="6" title="5V" c_shape="OVAL" pasteExpansion="0" solderExpansion="0.4"><polyline points="4140 3189.5 4140 3189.5" stroke-width="6" /><circle c_padhole="1" cx="4140" cy="3189.5" r="1.4" stroke-width="0" /></g><g c_partid="part_pad" c_etype="pinpart" c_origin="4152,3067" layerid="11" number="3" net="5V-" plated ="Y" c_shapetype="group" id="gge363" locked="0" c_rotation="180" c_width="8" c_height="6" title="5V-" c_shape="OVAL" pasteExpansion="0" solderExpansion="0.4"><polyline points="4153 3067 4151 3067" stroke-width="6" /><circle c_padhole="1" cx="4152" cy="3067" r="1.4" stroke-width="0" /></g><g c_partid="part_pad" c_etype="pinpart" c_origin="4152,3075.3" layerid="11" number="3" net="0" plated ="Y" c_shapetype="group" id="gge371" locked="0" c_rotation="180" c_width="8" c_height="6" title="0" c_shape="OVAL" pasteExpansion="0" solderExpansion="0.4"><polyline points="4153 3075.3 4151 3075.3" stroke-width="6" /><circle c_padhole="1" cx="4152" cy="3075.3" r="1.4" stroke-width="0" /></g><g c_partid="part_pad" c_etype="pinpart" c_origin="4152,3083.5" layerid="11" number="3" net="5V" plated ="Y" c_shapetype="group" id="gge348" locked="0" c_rotation="180" c_width="8" c_height="6" title="5V" c_shape="OVAL" pasteExpansion="0" solderExpansion="0.4"><polyline points="4153 3083.5 4151 3083.5" stroke-width="6" /><circle c_padhole="1" cx="4152" cy="3083.5" r="1.4" stroke-width="0" /></g><g c_partid="part_pad" c_etype="pinpart" c_origin="4056,3135.5" layerid="11" number="1" net="TX" plated ="Y" c_shapetype="group" id="gge195" locked="0" c_rotation="270" c_width="7" c_height="7" title="TX" c_shape="RECT" pasteExpansion="0" solderExpansion="0.4"><polygon points="4059.5 3132 4059.5 3139 4052.5 3139 4052.5 3132" stroke-width="0" /><circle c_padhole="1" cx="4056" cy="3135.5" r="1.8" stroke-width="0" /></g><g c_partid="part_pad" c_etype="pinpart" c_origin="4056,3145.5" layerid="11" number="2" net="RX" plated ="Y" c_shapetype="group" id="gge200" locked="0" c_rotation="270" c_width="7" c_height="7" title="RX" c_shape="ELLIPSE" pasteExpansion="0" solderExpansion="0.4"><ellipse cx="4056" cy="3145.5" rx="3.5" ry="3.5" stroke-width="0" /><circle c_padhole="1" cx="4056" cy="3145.5" r="1.8" stroke-width="0" /></g><g c_partid="part_pad" c_etype="pinpart" c_origin="4056,3155.5" layerid="11" number="3" net="U1_3" plated ="Y" c_shapetype="group" id="gge205" locked="0" c_rotation="270" c_width="7" c_height="7" title="U1_3" c_shape="ELLIPSE" pasteExpansion="0" solderExpansion="0.4"><ellipse cx="4056" cy="3155.5" rx="3.5" ry="3.5" stroke-width="0" /><circle c_padhole="1" cx="4056" cy="3155.5" r="1.8" stroke-width="0" /></g><g c_partid="part_pad" c_etype="pinpart" c_origin="4056,3165.5" layerid="11" number="4" net="U1_4" plated ="Y" c_shapetype="group" id="gge210" locked="0" c_rotation="270" c_width="7" c_height="7" title="U1_4" c_shape="ELLIPSE" pasteExpansion="0" solderExpansion="0.4"><ellipse cx="4056" cy="3165.5" rx="3.5" ry="3.5" stroke-width="0" /><circle c_padhole="1" cx="4056" cy="3165.5" r="1.8" stroke-width="0" /></g><g c_partid="part_pad" c_etype="pinpart" c_origin="4056,3175.5" layerid="11" number="5" net="U1_5" plated ="Y" c_shapetype="group" id="gge215" locked="0" c_rotation="270" c_width="7" c_height="7" title="U1_5" c_shape="ELLIPSE" pasteExpansion="0" solderExpansion="0.4"><ellipse cx="4056" cy="3175.5" rx="3.5" ry="3.5" stroke-width="0" /><circle c_padhole="1" cx="4056" cy="3175.5" r="1.8" stroke-width="0" /></g><g c_partid="part_pad" c_etype="pinpart" c_origin="4056,3185.5" layerid="11" number="6" net="U1_6" plated ="Y" c_shapetype="group" id="gge220" locked="0" c_rotation="270" c_width="7" c_height="7" title="U1_6" c_shape="ELLIPSE" pasteExpansion="0" solderExpansion="0.4"><ellipse cx="4056" cy="3185.5" rx="3.5" ry="3.5" stroke-width="0" /><circle c_padhole="1" cx="4056" cy="3185.5" r="1.8" stroke-width="0" /></g><g c_partid="part_pad" c_etype="pinpart" c_origin="4056,3195.5" layerid="11" number="7" net="U1_7" plated ="Y" c_shapetype="group" id="gge225" locked="0" c_rotation="270" c_width="7" c_height="7" title="U1_7" c_shape="ELLIPSE" pasteExpansion="0" solderExpansion="0.4"><ellipse cx="4056" cy="3195.5" rx="3.5" ry="3.5" stroke-width="0" /><circle c_padhole="1" cx="4056" cy="3195.5" r="1.8" stroke-width="0" /></g><g c_partid="part_pad" c_etype="pinpart" c_origin="4056,3205.5" layerid="11" number="8" net="U1_8" plated ="Y" c_shapetype="group" id="gge230" locked="0" c_rotation="270" c_width="7" c_height="7" title="U1_8" c_shape="ELLIPSE" pasteExpansion="0" solderExpansion="0.4"><ellipse cx="4056" cy="3205.5" rx="3.5" ry="3.5" stroke-width="0" /><circle c_padhole="1" cx="4056" cy="3205.5" r="1.8" stroke-width="0" /></g><g c_partid="part_pad" c_etype="pinpart" c_origin="4056,3215.5" layerid="11" number="9" net="U1_9" plated ="Y" c_shapetype="group" id="gge235" locked="0" c_rotation="270" c_width="7" c_height="7" title="U1_9" c_shape="ELLIPSE" pasteExpansion="0" solderExpansion="0.4"><ellipse cx="4056" cy="3215.5" rx="3.5" ry="3.5" stroke-width="0" /><circle c_padhole="1" cx="4056" cy="3215.5" r="1.8" stroke-width="0" /></g><g c_partid="part_pad" c_etype="pinpart" c_origin="4056,3225.5" layerid="11" number="10" net="U1_10" plated ="Y" c_shapetype="group" id="gge240" locked="0" c_rotation="270" c_width="7" c_height="7" title="U1_10" c_shape="ELLIPSE" pasteExpansion="0" solderExpansion="0.4"><ellipse cx="4056" cy="3225.5" rx="3.5" ry="3.5" stroke-width="0" /><circle c_padhole="1" cx="4056" cy="3225.5" r="1.8" stroke-width="0" /></g><g c_partid="part_pad" c_etype="pinpart" c_origin="4056,3235.5" layerid="11" number="11" net="U1_11" plated ="Y" c_shapetype="group" id="gge245" locked="0" c_rotation="270" c_width="7" c_height="7" title="U1_11" c_shape="ELLIPSE" pasteExpansion="0" solderExpansion="0.4"><ellipse cx="4056" cy="3235.5" rx="3.5" ry="3.5" stroke-width="0" /><circle c_padhole="1" cx="4056" cy="3235.5" r="1.8" stroke-width="0" /></g><g c_partid="part_pad" c_etype="pinpart" c_origin="4056,3245.5" layerid="11" number="12" net="U1_12" plated ="Y" c_shapetype="group" id="gge250" locked="0" c_rotation="270" c_width="7" c_height="7" title="U1_12" c_shape="ELLIPSE" pasteExpansion="0" solderExpansion="0.4"><ellipse cx="4056" cy="3245.5" rx="3.5" ry="3.5" stroke-width="0" /><circle c_padhole="1" cx="4056" cy="3245.5" r="1.8" stroke-width="0" /></g><g c_partid="part_pad" c_etype="pinpart" c_origin="4056,3255.5" layerid="11" number="13" net="U1_13" plated ="Y" c_shapetype="group" id="gge255" locked="0" c_rotation="270" c_width="7" c_height="7" title="U1_13" c_shape="ELLIPSE" pasteExpansion="0" solderExpansion="0.4"><ellipse cx="4056" cy="3255.5" rx="3.5" ry="3.5" stroke-width="0" /><circle c_padhole="1" cx="4056" cy="3255.5" r="1.8" stroke-width="0" /></g><g c_partid="part_pad" c_etype="pinpart" c_origin="4056,3265.5" layerid="11" number="14" net="U1_14" plated ="Y" c_shapetype="group" id="gge260" locked="0" c_rotation="270" c_width="7" c_height="7" title="U1_14" c_shape="ELLIPSE" pasteExpansion="0" solderExpansion="0.4"><ellipse cx="4056" cy="3265.5" rx="3.5" ry="3.5" stroke-width="0" /><circle c_padhole="1" cx="4056" cy="3265.5" r="1.8" stroke-width="0" /></g><g c_partid="part_pad" c_etype="pinpart" c_origin="4056,3275.5" layerid="11" number="15" net="U1_15" plated ="Y" c_shapetype="group" id="gge265" locked="0" c_rotation="270" c_width="7" c_height="7" title="U1_15" c_shape="ELLIPSE" pasteExpansion="0" solderExpansion="0.4"><ellipse cx="4056" cy="3275.5" rx="3.5" ry="3.5" stroke-width="0" /><circle c_padhole="1" cx="4056" cy="3275.5" r="1.8" stroke-width="0" /></g><g c_partid="part_pad" c_etype="pinpart" c_origin="4116,3135.5" layerid="11" number="30" net="+12V" plated ="Y" c_shapetype="group" id="gge270" locked="0" c_rotation="270" c_width="7" c_height="7" title="+12V" c_shape="ELLIPSE" pasteExpansion="0" solderExpansion="0.4"><ellipse cx="4116" cy="3135.5" rx="3.5" ry="3.5" stroke-width="0" /><circle c_padhole="1" cx="4116" cy="3135.5" r="1.8" stroke-width="0" /></g><g c_partid="part_pad" c_etype="pinpart" c_origin="4116,3145.5" layerid="11" number="29" net="GND" plated ="Y" c_shapetype="group" id="gge275" locked="0" c_rotation="270" c_width="7" c_height="7" title="GND" c_shape="ELLIPSE" pasteExpansion="0" solderExpansion="0.4"><ellipse cx="4116" cy="3145.5" rx="3.5" ry="3.5" stroke-width="0" /><circle c_padhole="1" cx="4116" cy="3145.5" r="1.8" stroke-width="0" /></g><g c_partid="part_pad" c_etype="pinpart" c_origin="4116,3155.5" layerid="11" number="28" net="U1_28" plated ="Y" c_shapetype="group" id="gge280" locked="0" c_rotation="270" c_width="7" c_height="7" title="U1_28" c_shape="ELLIPSE" pasteExpansion="0" solderExpansion="0.4"><ellipse cx="4116" cy="3155.5" rx="3.5" ry="3.5" stroke-width="0" /><circle c_padhole="1" cx="4116" cy="3155.5" r="1.8" stroke-width="0" /></g><g c_partid="part_pad" c_etype="pinpart" c_origin="4116,3165.5" layerid="11" number="27" net="U1_27" plated ="Y" c_shapetype="group" id="gge285" locked="0" c_rotation="270" c_width="7" c_height="7" title="U1_27" c_shape="ELLIPSE" pasteExpansion="0" solderExpansion="0.4"><ellipse cx="4116" cy="3165.5" rx="3.5" ry="3.5" stroke-width="0" /><circle c_padhole="1" cx="4116" cy="3165.5" r="1.8" stroke-width="0" /></g><g c_partid="part_pad" c_etype="pinpart" c_origin="4116,3175.5" layerid="11" number="26" net="U1_26" plated ="Y" c_shapetype="group" id="gge290" locked="0" c_rotation="270" c_width="7" c_height="7" title="U1_26" c_shape="ELLIPSE" pasteExpansion="0" solderExpansion="0.4"><ellipse cx="4116" cy="3175.5" rx="3.5" ry="3.5" stroke-width="0" /><circle c_padhole="1" cx="4116" cy="3175.5" r="1.8" stroke-width="0" /></g><g c_partid="part_pad" c_etype="pinpart" c_origin="4116,3195.5" layerid="11" number="24" net="SCL" plated ="Y" c_shapetype="group" id="gge300" locked="0" c_rotation="270" c_width="7" c_height="7" title="SCL" c_shape="ELLIPSE" pasteExpansion="0" solderExpansion="0.4"><ellipse cx="4116" cy="3195.5" rx="3.5" ry="3.5" stroke-width="0" /><circle c_padhole="1" cx="4116" cy="3195.5" r="1.8" stroke-width="0" /></g><g c_partid="part_pad" c_etype="pinpart" c_origin="4116,3205.5" layerid="11" number="23" net="SDA" plated ="Y" c_shapetype="group" id="gge305" locked="0" c_rotation="270" c_width="7" c_height="7" title="SDA" c_shape="ELLIPSE" pasteExpansion="0" solderExpansion="0.4"><ellipse cx="4116" cy="3205.5" rx="3.5" ry="3.5" stroke-width="0" /><circle c_padhole="1" cx="4116" cy="3205.5" r="1.8" stroke-width="0" /></g><g c_partid="part_pad" c_etype="pinpart" c_origin="4116,3215.5" layerid="11" number="22" net="U1_22" plated ="Y" c_shapetype="group" id="gge310" locked="0" c_rotation="270" c_width="7" c_height="7" title="U1_22" c_shape="ELLIPSE" pasteExpansion="0" solderExpansion="0.4"><ellipse cx="4116" cy="3215.5" rx="3.5" ry="3.5" stroke-width="0" /><circle c_padhole="1" cx="4116" cy="3215.5" r="1.8" stroke-width="0" /></g><g c_partid="part_pad" c_etype="pinpart" c_origin="4116,3225.5" layerid="11" number="21" net="U1_21" plated ="Y" c_shapetype="group" id="gge315" locked="0" c_rotation="270" c_width="7" c_height="7" title="U1_21" c_shape="ELLIPSE" pasteExpansion="0" solderExpansion="0.4"><ellipse cx="4116" cy="3225.5" rx="3.5" ry="3.5" stroke-width="0" /><circle c_padhole="1" cx="4116" cy="3225.5" r="1.8" stroke-width="0" /></g><g c_partid="part_pad" c_etype="pinpart" c_origin="4116,3235.5" layerid="11" number="20" net="U1_20" plated ="Y" c_shapetype="group" id="gge320" locked="0" c_rotation="270" c_width="7" c_height="7" title="U1_20" c_shape="ELLIPSE" pasteExpansion="0" solderExpansion="0.4"><ellipse cx="4116" cy="3235.5" rx="3.5" ry="3.5" stroke-width="0" /><circle c_padhole="1" cx="4116" cy="3235.5" r="1.8" stroke-width="0" /></g><g c_partid="part_pad" c_etype="pinpart" c_origin="4116,3245.5" layerid="11" number="19" net="U1_19" plated ="Y" c_shapetype="group" id="gge325" locked="0" c_rotation="270" c_width="7" c_height="7" title="U1_19" c_shape="ELLIPSE" pasteExpansion="0" solderExpansion="0.4"><ellipse cx="4116" cy="3245.5" rx="3.5" ry="3.5" stroke-width="0" /><circle c_padhole="1" cx="4116" cy="3245.5" r="1.8" stroke-width="0" /></g><g c_partid="part_pad" c_etype="pinpart" c_origin="4116,3255.5" layerid="11" number="18" net="U1_18" plated ="Y" c_shapetype="group" id="gge330" locked="0" c_rotation="270" c_width="7" c_height="7" title="U1_18" c_shape="ELLIPSE" pasteExpansion="0" solderExpansion="0.4"><ellipse cx="4116" cy="3255.5" rx="3.5" ry="3.5" stroke-width="0" /><circle c_padhole="1" cx="4116" cy="3255.5" r="1.8" stroke-width="0" /></g><g c_partid="part_pad" c_etype="pinpart" c_origin="4116,3265.5" layerid="11" number="17" net="U1_17" plated ="Y" c_shapetype="group" id="gge335" locked="0" c_rotation="270" c_width="7" c_height="7" title="U1_17" c_shape="ELLIPSE" pasteExpansion="0" solderExpansion="0.4"><ellipse cx="4116" cy="3265.5" rx="3.5" ry="3.5" stroke-width="0" /><circle c_padhole="1" cx="4116" cy="3265.5" r="1.8" stroke-width="0" /></g><g c_partid="part_pad" c_etype="pinpart" c_origin="4116,3275.5" layerid="11" number="16" net="U1_16" plated ="Y" c_shapetype="group" id="gge340" locked="0" c_rotation="270" c_width="7" c_height="7" title="U1_16" c_shape="ELLIPSE" pasteExpansion="0" solderExpansion="0.4"><ellipse cx="4116" cy="3275.5" rx="3.5" ry="3.5" stroke-width="0" /><circle c_padhole="1" cx="4116" cy="3275.5" r="1.8" stroke-width="0" /></g><g c_partid="part_pad" c_etype="pinpart" c_origin="4145,3128" layerid="11" number="1" net="GND" plated ="Y" c_shapetype="group" id="gge585" locked="0" c_rotation="90" c_width="14.5669" c_height="14.5669" title="GND" c_shape="RECT" pasteExpansion="0" solderExpansion="0.4"><polygon points="4137.72 3135.28 4137.72 3120.72 4152.28 3120.72 4152.28 3135.28" stroke-width="0" /><circle c_padhole="1" cx="4145" cy="3128" r="2.5591" stroke-width="0" /></g><g c_partid="part_pad" c_etype="pinpart" c_origin="4145,3110" layerid="11" number="2" net="J4_1" plated ="Y" c_shapetype="group" id="gge590" locked="0" c_rotation="90" c_width="14.5669" c_height="14.5669" title="J4_1" c_shape="ELLIPSE" pasteExpansion="0" solderExpansion="0.4"><ellipse cx="4145" cy="3110" rx="7.28345" ry="7.28345" stroke-width="0" /><circle c_padhole="1" cx="4145" cy="3110" r="2.5591" stroke-width="0" /></g><g c_partid="part_pad" c_etype="pinpart" c_origin="4145,3168" layerid="11" number="1" net="GND" plated ="Y" c_shapetype="group" id="gge608" locked="0" c_rotation="90" c_width="14.5669" c_height="14.5669" title="GND" c_shape="RECT" pasteExpansion="0" solderExpansion="0.4"><polygon points="4137.72 3175.28 4137.72 3160.72 4152.28 3160.72 4152.28 3175.28" stroke-width="0" /><circle c_padhole="1" cx="4145" cy="3168" r="2.5591" stroke-width="0" /></g><g c_partid="part_pad" c_etype="pinpart" c_origin="4145,3150" layerid="11" number="2" net="+12V" plated ="Y" c_shapetype="group" id="gge613" locked="0" c_rotation="90" c_width="14.5669" c_height="14.5669" title="+12V" c_shape="ELLIPSE" pasteExpansion="0" solderExpansion="0.4"><ellipse cx="4145" cy="3150" rx="7.28345" ry="7.28345" stroke-width="0" /><circle c_padhole="1" cx="4145" cy="3150" r="2.5591" stroke-width="0" /></g><g c_partid="part_hole" c_etype="pinpart" c_shapetype="group" c_origin="4058,3055" layerid="11" id="gge829" ><circle cx="4058" cy="3055" r="2.4"   stroke-width="0" /></g><g c_partid="part_hole" c_etype="pinpart" c_shapetype="group" c_origin="4112.5,3109.5" layerid="11" id="gge833" ><circle cx="4112.5" cy="3109.5" r="3.35"   stroke-width="0" /></g><g c_partid="part_hole" c_etype="pinpart" c_shapetype="group" c_origin="4143.5,3272" layerid="11" id="gge837" ><circle cx="4143.5" cy="3272" r="6.1"   stroke-width="0" /></g><g c_partid="part_hole" c_etype="pinpart" c_shapetype="group" c_origin="4085.5,3146" layerid="11" id="gge1021" ><circle cx="4085.5" cy="3146" r="6.1"   stroke-width="0" /></g><polyline points="4076.83 3114.85 4081.161 3114.85 4081.161 3121.15 4076.83 3121.15" stroke-width="0.7874" c_shapetype="line" stroke-linecap="round" fill="none" layerid="3" net="S$67" id="gge121" /><polyline points="4073.681 3114.85 4069.35 3114.85 4069.35 3118.787 4069.35 3121.15 4073.681 3121.15" stroke-width="0.7874" c_shapetype="line" stroke-linecap="round" fill="none" layerid="3" net="S$69" id="gge122" /><polyline points="4051 3290.5 4121 3290.5" stroke-width="1" c_shapetype="line" stroke-linecap="round" fill="none" layerid="3" net="" id="gge130" /><polyline points="4121 3290.5 4121 3120.5" stroke-width="1" c_shapetype="line" stroke-linecap="round" fill="none" layerid="3" net="" id="gge131" /><polyline points="4121 3120.5 4051 3120.5" stroke-width="1" c_shapetype="line" stroke-linecap="round" fill="none" layerid="3" net="" id="gge132" /><polyline points="4051 3120.5 4051 3290.5" stroke-width="1" c_shapetype="line" stroke-linecap="round" fill="none" layerid="3" net="" id="gge133" /><polyline points="4071 3275.5 4071 3305.5 4101 3305.5 4101 3275.5 4071 3275.5" stroke-width="1" c_shapetype="line" stroke-linecap="round" fill="none" layerid="3" net="" id="gge134" /><polyline points="4157.811 3139.504 4157.803 3100.892" stroke-width="1" c_shapetype="line" stroke-linecap="round" fill="none" layerid="3" net="S$22" id="gge579" /><polyline points="4160.567 3139.898 4128.283 3139.898 4128.283 3100.922 4160.567 3100.922 4160.567 3139.898" stroke-width="1" c_shapetype="line" stroke-linecap="round" fill="none" layerid="3" net="" id="gge580" /><polyline points="4157.811 3179.504 4157.803 3140.892" stroke-width="1" c_shapetype="line" stroke-linecap="round" fill="none" layerid="3" net="S$22" id="gge602" /><polyline points="4160.567 3179.898 4128.283 3179.898 4128.283 3140.922 4160.567 3140.922 4160.567 3179.898" stroke-width="1" c_shapetype="line" stroke-linecap="round" fill="none" layerid="3" net="" id="gge603" /><polyline points="4050.674 3050.687 4119.334 3050.687 4119.334 3116.237 4105.434 3116.237 4105.434 3101.277 4064.564 3101.277 4064.564 3116.237 4050.674 3116.237 4050.674 3050.687" stroke-width="0.4724" c_shapetype="line" stroke-linecap="round" fill="none" layerid="3" net="" id="gge827" /><g c_partid="part_pcbtext" c_origin="4075.11,3115.71" c_rotation="0" c_mirror="" id="gge107" layerid="3" c_shapetype="group" ><path c_fontSize="4.5" c_fontFamily="" c_text="C4" d="M 4078.176 3110.58 L 4077.966 3110.17 L 4077.556 3109.76 L 4077.156 3109.56 L 4076.336 3109.56 L 4075.926 3109.76 L 4075.516 3110.17 L 4075.306 3110.58 L 4075.106 3111.19 L 4075.106 3112.21 L 4075.306 3112.83 L 4075.516 3113.24 L 4075.926 3113.65 L 4076.336 3113.85 L 4077.156 3113.85 L 4077.556 3113.65 L 4077.966 3113.24 L 4078.176 3112.83 M 4081.566 3109.56 L 4079.526 3112.42 L 4082.596 3112.42 M 4081.566 3109.56 L 4081.566 3113.85" fill="none"  stroke-width="0.6" c_note="note_pre" /></g><g c_partid="part_pcbtext" c_origin="4075.11,3110.21" c_rotation="0" c_mirror="" id="gge109" layerid="3" c_shapetype="group" display="none"><path c_fontSize="4.5" c_fontFamily="" c_text="10nF" d="M 4075.106 3104.87 L 4075.516 3104.67 L 4076.126 3104.06 L 4076.126 3108.35 M 4078.706 3104.06 L 4078.096 3104.26 L 4077.686 3104.87 L 4077.476 3105.9 L 4077.476 3106.51 L 4077.686 3107.53 L 4078.096 3108.15 L 4078.706 3108.35 L 4079.116 3108.35 L 4079.726 3108.15 L 4080.136 3107.53 L 4080.346 3106.51 L 4080.346 3105.9 L 4080.136 3104.87 L 4079.726 3104.26 L 4079.116 3104.06 L 4078.706 3104.06 M 4081.696 3105.49 L 4081.696 3108.35 M 4081.696 3106.31 L 4082.306 3105.69 L 4082.716 3105.49 L 4083.326 3105.49 L 4083.736 3105.69 L 4083.946 3106.31 L 4083.946 3108.35 M 4085.296 3104.06 L 4085.296 3108.35 M 4085.296 3104.06 L 4087.956 3104.06 M 4085.296 3106.1 L 4086.926 3106.1" fill="none"  stroke-width="0.6"  /></g><g c_partid="part_pcbtext" c_origin="4085,3121.36" c_rotation="0" c_mirror="" id="gge126" layerid="3" c_shapetype="group" ><path c_fontSize="4.5" c_fontFamily="" c_text="U1" d="M 4085 3115.21 L 4085 3118.27 L 4085.2 3118.89 L 4085.61 3119.3 L 4086.23 3119.5 L 4086.64 3119.5 L 4087.25 3119.3 L 4087.66 3118.89 L 4087.86 3118.27 L 4087.86 3115.21 M 4089.21 3116.02 L 4089.62 3115.82 L 4090.24 3115.21 L 4090.24 3119.5" fill="none"  stroke-width="0.6" c_note="note_pre" /></g><g c_partid="part_pcbtext" c_origin="4085,3115.86" c_rotation="0" c_mirror="" id="gge128" layerid="3" c_shapetype="group" display="none"><path c_fontSize="4.5" c_fontFamily="" c_text="ARDUINO_NANO" d="M 4086.64 3109.71 L 4085 3114 M 4086.64 3109.71 L 4088.27 3114 M 4085.61 3112.57 L 4087.66 3112.57 M 4089.62 3109.71 L 4089.62 3114 M 4089.62 3109.71 L 4091.46 3109.71 L 4092.08 3109.91 L 4092.28 3110.11 L 4092.49 3110.52 L 4092.49 3110.93 L 4092.28 3111.34 L 4092.08 3111.55 L 4091.46 3111.75 L 4089.62 3111.75 M 4091.05 3111.75 L 4092.49 3114 M 4093.84 3109.71 L 4093.84 3114 M 4093.84 3109.71 L 4095.27 3109.71 L 4095.88 3109.91 L 4096.29 3110.32 L 4096.5 3110.73 L 4096.7 3111.34 L 4096.7 3112.36 L 4096.5 3112.98 L 4096.29 3113.39 L 4095.88 3113.8 L 4095.27 3114 L 4093.84 3114 M 4098.05 3109.71 L 4098.05 3112.77 L 4098.25 3113.39 L 4098.66 3113.8 L 4099.28 3114 L 4099.69 3114 L 4100.3 3113.8 L 4100.71 3113.39 L 4100.91 3112.77 L 4100.91 3109.71 M 4102.26 3109.71 L 4102.26 3114 M 4103.61 3109.71 L 4103.61 3114 M 4103.61 3109.71 L 4106.48 3114 M 4106.48 3109.71 L 4106.48 3114 M 4109.05 3109.71 L 4108.65 3109.91 L 4108.24 3110.32 L 4108.03 3110.73 L 4107.83 3111.34 L 4107.83 3112.36 L 4108.03 3112.98 L 4108.24 3113.39 L 4108.65 3113.8 L 4109.05 3114 L 4109.87 3114 L 4110.28 3113.8 L 4110.69 3113.39 L 4110.9 3112.98 L 4111.1 3112.36 L 4111.1 3111.34 L 4110.9 3110.73 L 4110.69 3110.32 L 4110.28 3109.91 L 4109.87 3109.71 L 4109.05 3109.71 M 4112.45 3115.43 L 4116.13 3115.43 M 4117.48 3109.71 L 4117.48 3114 M 4117.48 3109.71 L 4120.35 3114 M 4120.35 3109.71 L 4120.35 3114 M 4123.33 3109.71 L 4121.7 3114 M 4123.33 3109.71 L 4124.97 3114 M 4122.31 3112.57 L 4124.35 3112.57 M 4126.32 3109.71 L 4126.32 3114 M 4126.32 3109.71 L 4129.18 3114 M 4129.18 3109.71 L 4129.18 3114 M 4131.76 3109.71 L 4131.35 3109.91 L 4130.94 3110.32 L 4130.74 3110.73 L 4130.53 3111.34 L 4130.53 3112.36 L 4130.74 3112.98 L 4130.94 3113.39 L 4131.35 3113.8 L 4131.76 3114 L 4132.58 3114 L 4132.99 3113.8 L 4133.4 3113.39 L 4133.6 3112.98 L 4133.8 3112.36 L 4133.8 3111.34 L 4133.6 3110.73 L 4133.4 3110.32 L 4132.99 3109.91 L 4132.58 3109.71 L 4131.76 3109.71" fill="none"  stroke-width="0.6"  /></g><g c_partid="part_pcbtext" c_origin="4029.63,3134.41" c_rotation="0" c_mirror="" id="gge135" layerid="3" c_shapetype="group" ><path c_fontSize="4" c_fontFamily="" c_text="D1/TX" d="M 4029.63 3132.23 L 4029.63 3136.05 M 4029.63 3132.23 L 4030.9 3132.23 L 4031.45 3132.41 L 4031.81 3132.77 L 4031.99 3133.14 L 4032.18 3133.68 L 4032.18 3134.59 L 4031.99 3135.14 L 4031.81 3135.5 L 4031.45 3135.86 L 4030.9 3136.05 L 4029.63 3136.05 M 4033.38 3132.96 L 4033.74 3132.77 L 4034.28 3132.23 L 4034.28 3136.05 M 4038.76 3131.5 L 4035.48 3137.32 M 4041.23 3132.23 L 4041.23 3136.05 M 4039.96 3132.23 L 4042.5 3132.23 M 4043.7 3132.23 L 4046.25 3136.05 M 4046.25 3132.23 L 4043.7 3136.05" fill="none"  stroke-width="0.8"  /></g><g c_partid="part_pcbtext" c_origin="4127,3145.5" c_rotation="0" c_mirror="none" id="gge137" layerid="3" c_shapetype="group" ><path c_fontSize="4" c_fontFamily="" c_text="GND" d="M 4129.73 3144.23 L 4129.55 3143.86 L 4129.18 3143.5 L 4128.82 3143.32 L 4128.09 3143.32 L 4127.73 3143.5 L 4127.36 3143.86 L 4127.18 3144.23 L 4127 3144.77 L 4127 3145.68 L 4127.18 3146.23 L 4127.36 3146.59 L 4127.73 3146.95 L 4128.09 3147.14 L 4128.82 3147.14 L 4129.18 3146.95 L 4129.55 3146.59 L 4129.73 3146.23 L 4129.73 3145.68 M 4128.82 3145.68 L 4129.73 3145.68 M 4130.93 3143.32 L 4130.93 3147.14 M 4130.93 3143.32 L 4133.47 3147.14 M 4133.47 3143.32 L 4133.47 3147.14 M 4134.67 3143.32 L 4134.67 3147.14 M 4134.67 3143.32 L 4135.95 3143.32 L 4136.49 3143.5 L 4136.85 3143.86 L 4137.04 3144.23 L 4137.22 3144.77 L 4137.22 3145.68 L 4137.04 3146.23 L 4136.85 3146.59 L 4136.49 3146.95 L 4135.95 3147.14 L 4134.67 3147.14" fill="none"  stroke-width="0.8"  /></g><g c_partid="part_pcbtext" c_origin="4127,3166.5" c_rotation="0" c_mirror="" id="gge139" layerid="3" c_shapetype="group" ><path c_fontSize="4" c_fontFamily="" c_text="+5V" d="M 4128.64 3164.86 L 4128.64 3168.14 M 4127 3166.5 L 4130.27 3166.5 M 4133.65 3164.32 L 4131.84 3164.32 L 4131.65 3165.95 L 4131.84 3165.77 L 4132.38 3165.59 L 4132.93 3165.59 L 4133.47 3165.77 L 4133.84 3166.14 L 4134.02 3166.68 L 4134.02 3167.05 L 4133.84 3167.59 L 4133.47 3167.95 L 4132.93 3168.14 L 4132.38 3168.14 L 4131.84 3167.95 L 4131.65 3167.77 L 4131.47 3167.41 M 4135.22 3164.32 L 4136.67 3168.14 M 4138.13 3164.32 L 4136.67 3168.14" fill="none"  stroke-width="0.8"  /></g><g c_partid="part_pcbtext" c_origin="4020.21,3275.5" c_rotation="0" c_mirror="" id="gge141" layerid="3" c_shapetype="group" ><path c_fontSize="4" c_fontFamily="" c_text="D12/MISO" d="M 4020.21 3273.32 L 4020.21 3277.14 M 4020.21 3273.32 L 4021.48 3273.32 L 4022.03 3273.5 L 4022.39 3273.86 L 4022.57 3274.23 L 4022.76 3274.77 L 4022.76 3275.68 L 4022.57 3276.23 L 4022.39 3276.59 L 4022.03 3276.95 L 4021.48 3277.14 L 4020.21 3277.14 M 4023.96 3274.05 L 4024.32 3273.86 L 4024.86 3273.32 L 4024.86 3277.14 M 4026.25 3274.23 L 4026.25 3274.05 L 4026.43 3273.68 L 4026.61 3273.5 L 4026.97 3273.32 L 4027.7 3273.32 L 4028.06 3273.5 L 4028.25 3273.68 L 4028.43 3274.05 L 4028.43 3274.41 L 4028.25 3274.77 L 4027.88 3275.32 L 4026.06 3277.14 L 4028.61 3277.14 M 4033.08 3272.59 L 4029.81 3278.41 M 4034.28 3273.32 L 4034.28 3277.14 M 4034.28 3273.32 L 4035.74 3277.14 M 4037.19 3273.32 L 4035.74 3277.14 M 4037.19 3273.32 L 4037.19 3277.14 M 4038.39 3273.32 L 4038.39 3277.14 M 4042.14 3273.86 L 4041.77 3273.5 L 4041.23 3273.32 L 4040.5 3273.32 L 4039.96 3273.5 L 4039.59 3273.86 L 4039.59 3274.23 L 4039.77 3274.59 L 4039.96 3274.77 L 4040.32 3274.95 L 4041.41 3275.32 L 4041.77 3275.5 L 4041.96 3275.68 L 4042.14 3276.05 L 4042.14 3276.59 L 4041.77 3276.95 L 4041.23 3277.14 L 4040.5 3277.14 L 4039.96 3276.95 L 4039.59 3276.59 M 4044.43 3273.32 L 4044.06 3273.5 L 4043.7 3273.86 L 4043.52 3274.23 L 4043.34 3274.77 L 4043.34 3275.68 L 4043.52 3276.23 L 4043.7 3276.59 L 4044.06 3276.95 L 4044.43 3277.14 L 4045.16 3277.14 L 4045.52 3276.95 L 4045.88 3276.59 L 4046.06 3276.23 L 4046.25 3275.68 L 4046.25 3274.77 L 4046.06 3274.23 L 4045.88 3273.86 L 4045.52 3273.5 L 4045.16 3273.32 L 4044.43 3273.32" fill="none"  stroke-width="0.8"  /></g><g c_partid="part_pcbtext" c_origin="4127,3135.5" c_rotation="0" c_mirror="" id="gge143" layerid="3" c_shapetype="group" ><path c_fontSize="4" c_fontFamily="" c_text="VIN" d="M 4127 3133.32 L 4128.45 3137.14 M 4129.91 3133.32 L 4128.45 3137.14 M 4131.11 3133.32 L 4131.11 3137.14 M 4132.31 3133.32 L 4132.31 3137.14 M 4132.31 3133.32 L 4134.85 3137.14 M 4134.85 3133.32 L 4134.85 3137.14" fill="none"  stroke-width="0.8"  /></g><g c_partid="part_pcbtext" c_origin="4127,3276.5" c_rotation="0" c_mirror="" id="gge145" layerid="3" c_shapetype="group" ><path c_fontSize="4" c_fontFamily="" c_text="D13/SCK" d="M 4127 3274.32 L 4127 3278.14 M 4127 3274.32 L 4128.27 3274.32 L 4128.82 3274.5 L 4129.18 3274.86 L 4129.36 3275.23 L 4129.55 3275.77 L 4129.55 3276.68 L 4129.36 3277.23 L 4129.18 3277.59 L 4128.82 3277.95 L 4128.27 3278.14 L 4127 3278.14 M 4130.75 3275.05 L 4131.11 3274.86 L 4131.65 3274.32 L 4131.65 3278.14 M 4133.22 3274.32 L 4135.22 3274.32 L 4134.13 3275.77 L 4134.67 3275.77 L 4135.04 3275.95 L 4135.22 3276.14 L 4135.4 3276.68 L 4135.4 3277.05 L 4135.22 3277.59 L 4134.85 3277.95 L 4134.31 3278.14 L 4133.76 3278.14 L 4133.22 3277.95 L 4133.04 3277.77 L 4132.85 3277.41 M 4139.87 3273.59 L 4136.6 3279.41 M 4143.62 3274.86 L 4143.25 3274.5 L 4142.71 3274.32 L 4141.98 3274.32 L 4141.44 3274.5 L 4141.07 3274.86 L 4141.07 3275.23 L 4141.25 3275.59 L 4141.44 3275.77 L 4141.8 3275.95 L 4142.89 3276.32 L 4143.25 3276.5 L 4143.44 3276.68 L 4143.62 3277.05 L 4143.62 3277.59 L 4143.25 3277.95 L 4142.71 3278.14 L 4141.98 3278.14 L 4141.44 3277.95 L 4141.07 3277.59 M 4147.55 3275.23 L 4147.36 3274.86 L 4147 3274.5 L 4146.64 3274.32 L 4145.91 3274.32 L 4145.55 3274.5 L 4145.18 3274.86 L 4145 3275.23 L 4144.82 3275.77 L 4144.82 3276.68 L 4145 3277.23 L 4145.18 3277.59 L 4145.55 3277.95 L 4145.91 3278.14 L 4146.64 3278.14 L 4147 3277.95 L 4147.36 3277.59 L 4147.55 3277.23 M 4148.75 3274.32 L 4148.75 3278.14 M 4151.29 3274.32 L 4148.75 3276.86 M 4149.65 3275.95 L 4151.29 3278.14" fill="none"  stroke-width="0.8"  /></g><g c_partid="part_pcbtext" c_origin="4036.03,3165.5" c_rotation="0" c_mirror="none" id="gge147" layerid="3" c_shapetype="group" ><path c_fontSize="4" c_fontFamily="" c_text="GND" d="M 4038.76 3164.23 L 4038.58 3163.86 L 4038.21 3163.5 L 4037.85 3163.32 L 4037.12 3163.32 L 4036.76 3163.5 L 4036.39 3163.86 L 4036.21 3164.23 L 4036.03 3164.77 L 4036.03 3165.68 L 4036.21 3166.23 L 4036.39 3166.59 L 4036.76 3166.95 L 4037.12 3167.14 L 4037.85 3167.14 L 4038.21 3166.95 L 4038.58 3166.59 L 4038.76 3166.23 L 4038.76 3165.68 M 4037.85 3165.68 L 4038.76 3165.68 M 4039.96 3163.32 L 4039.96 3167.14 M 4039.96 3163.32 L 4042.5 3167.14 M 4042.5 3163.32 L 4042.5 3167.14 M 4043.7 3163.32 L 4043.7 3167.14 M 4043.7 3163.32 L 4044.98 3163.32 L 4045.52 3163.5 L 4045.88 3163.86 L 4046.07 3164.23 L 4046.25 3164.77 L 4046.25 3165.68 L 4046.07 3166.23 L 4045.88 3166.59 L 4045.52 3166.95 L 4044.98 3167.14 L 4043.7 3167.14" fill="none"  stroke-width="0.8"  /></g><g c_partid="part_pcbtext" c_origin="4028,3146.41" c_rotation="0" c_mirror="" id="gge149" layerid="3" c_shapetype="group" ><path c_fontSize="4" c_fontFamily="" c_text="D0/RX" d="M 4028 3144.23 L 4028 3148.05 M 4028 3144.23 L 4029.27 3144.23 L 4029.82 3144.41 L 4030.18 3144.77 L 4030.36 3145.14 L 4030.55 3145.68 L 4030.55 3146.59 L 4030.36 3147.14 L 4030.18 3147.5 L 4029.82 3147.86 L 4029.27 3148.05 L 4028 3148.05 M 4032.84 3144.23 L 4032.29 3144.41 L 4031.93 3144.96 L 4031.75 3145.86 L 4031.75 3146.41 L 4031.93 3147.32 L 4032.29 3147.86 L 4032.84 3148.05 L 4033.2 3148.05 L 4033.75 3147.86 L 4034.11 3147.32 L 4034.29 3146.41 L 4034.29 3145.86 L 4034.11 3144.96 L 4033.75 3144.41 L 4033.2 3144.23 L 4032.84 3144.23 M 4038.76 3143.5 L 4035.49 3149.32 M 4039.96 3144.23 L 4039.96 3148.05 M 4039.96 3144.23 L 4041.6 3144.23 L 4042.15 3144.41 L 4042.33 3144.59 L 4042.51 3144.96 L 4042.51 3145.32 L 4042.33 3145.68 L 4042.15 3145.86 L 4041.6 3146.05 L 4039.96 3146.05 M 4041.24 3146.05 L 4042.51 3148.05 M 4043.71 3144.23 L 4046.25 3148.05 M 4046.25 3144.23 L 4043.71 3148.05" fill="none"  stroke-width="0.8"  /></g><g c_partid="part_pcbtext" c_origin="4029.09,3155.68" c_rotation="0" c_mirror="" id="gge151" layerid="3" c_shapetype="group" ><path c_fontSize="4" c_fontFamily="" c_text="RESET" d="M 4029.09 3153.5 L 4029.09 3157.32 M 4029.09 3153.5 L 4030.73 3153.5 L 4031.27 3153.68 L 4031.45 3153.86 L 4031.64 3154.23 L 4031.64 3154.59 L 4031.45 3154.95 L 4031.27 3155.13 L 4030.73 3155.32 L 4029.09 3155.32 M 4030.36 3155.32 L 4031.64 3157.32 M 4032.84 3153.5 L 4032.84 3157.32 M 4032.84 3153.5 L 4035.2 3153.5 M 4032.84 3155.32 L 4034.29 3155.32 M 4032.84 3157.32 L 4035.2 3157.32 M 4038.94 3154.04 L 4038.58 3153.68 L 4038.04 3153.5 L 4037.31 3153.5 L 4036.76 3153.68 L 4036.4 3154.04 L 4036.4 3154.41 L 4036.58 3154.77 L 4036.76 3154.95 L 4037.13 3155.13 L 4038.22 3155.5 L 4038.58 3155.68 L 4038.76 3155.86 L 4038.94 3156.23 L 4038.94 3156.77 L 4038.58 3157.13 L 4038.04 3157.32 L 4037.31 3157.32 L 4036.76 3157.13 L 4036.4 3156.77 M 4040.14 3153.5 L 4040.14 3157.32 M 4040.14 3153.5 L 4042.51 3153.5 M 4040.14 3155.32 L 4041.6 3155.32 M 4040.14 3157.32 L 4042.51 3157.32 M 4044.98 3153.5 L 4044.98 3157.32 M 4043.71 3153.5 L 4046.25 3153.5" fill="none"  stroke-width="0.8"  /></g><g c_partid="part_pcbtext" c_origin="4039.96,3175.5" c_rotation="0" c_mirror="none" id="gge153" layerid="3" c_shapetype="group" ><path c_fontSize="4" c_fontFamily="" c_text="D2" d="M 4039.96 3173.32 L 4039.96 3177.14 M 4039.96 3173.32 L 4041.23 3173.32 L 4041.78 3173.5 L 4042.14 3173.86 L 4042.32 3174.23 L 4042.51 3174.77 L 4042.51 3175.68 L 4042.32 3176.23 L 4042.14 3176.59 L 4041.78 3176.95 L 4041.23 3177.14 L 4039.96 3177.14 M 4043.89 3174.23 L 4043.89 3174.05 L 4044.07 3173.68 L 4044.25 3173.5 L 4044.61 3173.32 L 4045.34 3173.32 L 4045.71 3173.5 L 4045.89 3173.68 L 4046.07 3174.05 L 4046.07 3174.41 L 4045.89 3174.77 L 4045.52 3175.32 L 4043.71 3177.14 L 4046.25 3177.14" fill="none"  stroke-width="0.8"  /></g><g c_partid="part_pcbtext" c_origin="4039.96,3185.5" c_rotation="0" c_mirror="none" id="gge155" layerid="3" c_shapetype="group" ><path c_fontSize="4" c_fontFamily="" c_text="D3" d="M 4039.96 3183.32 L 4039.96 3187.14 M 4039.96 3183.32 L 4041.23 3183.32 L 4041.78 3183.5 L 4042.14 3183.86 L 4042.32 3184.23 L 4042.51 3184.77 L 4042.51 3185.68 L 4042.32 3186.23 L 4042.14 3186.59 L 4041.78 3186.95 L 4041.23 3187.14 L 4039.96 3187.14 M 4044.07 3183.32 L 4046.07 3183.32 L 4044.98 3184.77 L 4045.52 3184.77 L 4045.89 3184.95 L 4046.07 3185.14 L 4046.25 3185.68 L 4046.25 3186.05 L 4046.07 3186.59 L 4045.71 3186.95 L 4045.16 3187.14 L 4044.61 3187.14 L 4044.07 3186.95 L 4043.89 3186.77 L 4043.71 3186.41" fill="none"  stroke-width="0.8"  /></g><g c_partid="part_pcbtext" c_origin="4039.78,3195.5" c_rotation="0" c_mirror="none" id="gge157" layerid="3" c_shapetype="group" ><path c_fontSize="4" c_fontFamily="" c_text="D4" d="M 4039.78 3193.32 L 4039.78 3197.14 M 4039.78 3193.32 L 4041.05 3193.32 L 4041.6 3193.5 L 4041.96 3193.86 L 4042.14 3194.23 L 4042.33 3194.77 L 4042.33 3195.68 L 4042.14 3196.23 L 4041.96 3196.59 L 4041.6 3196.95 L 4041.05 3197.14 L 4039.78 3197.14 M 4045.34 3193.32 L 4043.53 3195.86 L 4046.25 3195.86 M 4045.34 3193.32 L 4045.34 3197.14" fill="none"  stroke-width="0.8"  /></g><g c_partid="part_pcbtext" c_origin="4039.96,3204.5" c_rotation="0" c_mirror="none" id="gge159" layerid="3" c_shapetype="group" ><path c_fontSize="4" c_fontFamily="" c_text="D5" d="M 4039.96 3202.32 L 4039.96 3206.14 M 4039.96 3202.32 L 4041.23 3202.32 L 4041.78 3202.5 L 4042.14 3202.86 L 4042.32 3203.23 L 4042.51 3203.77 L 4042.51 3204.68 L 4042.32 3205.23 L 4042.14 3205.59 L 4041.78 3205.95 L 4041.23 3206.14 L 4039.96 3206.14 M 4045.89 3202.32 L 4044.07 3202.32 L 4043.89 3203.95 L 4044.07 3203.77 L 4044.61 3203.59 L 4045.16 3203.59 L 4045.71 3203.77 L 4046.07 3204.14 L 4046.25 3204.68 L 4046.25 3205.05 L 4046.07 3205.59 L 4045.71 3205.95 L 4045.16 3206.14 L 4044.61 3206.14 L 4044.07 3205.95 L 4043.89 3205.77 L 4043.71 3205.41" fill="none"  stroke-width="0.8"  /></g><g c_partid="part_pcbtext" c_origin="4040.14,3214.5" c_rotation="0" c_mirror="none" id="gge161" layerid="3" c_shapetype="group" ><path c_fontSize="4" c_fontFamily="" c_text="D6" d="M 4040.14 3212.32 L 4040.14 3216.14 M 4040.14 3212.32 L 4041.41 3212.32 L 4041.96 3212.5 L 4042.32 3212.86 L 4042.5 3213.23 L 4042.69 3213.77 L 4042.69 3214.68 L 4042.5 3215.23 L 4042.32 3215.59 L 4041.96 3215.95 L 4041.41 3216.14 L 4040.14 3216.14 M 4046.07 3212.86 L 4045.89 3212.5 L 4045.34 3212.32 L 4044.98 3212.32 L 4044.43 3212.5 L 4044.07 3213.05 L 4043.89 3213.95 L 4043.89 3214.86 L 4044.07 3215.59 L 4044.43 3215.95 L 4044.98 3216.14 L 4045.16 3216.14 L 4045.7 3215.95 L 4046.07 3215.59 L 4046.25 3215.05 L 4046.25 3214.86 L 4046.07 3214.32 L 4045.7 3213.95 L 4045.16 3213.77 L 4044.98 3213.77 L 4044.43 3213.95 L 4044.07 3214.32 L 4043.89 3214.86" fill="none"  stroke-width="0.8"  /></g><g c_partid="part_pcbtext" c_origin="4039.96,3225.5" c_rotation="0" c_mirror="none" id="gge163" layerid="3" c_shapetype="group" ><path c_fontSize="4" c_fontFamily="" c_text="D7" d="M 4039.96 3223.32 L 4039.96 3227.14 M 4039.96 3223.32 L 4041.23 3223.32 L 4041.78 3223.5 L 4042.14 3223.86 L 4042.32 3224.23 L 4042.51 3224.77 L 4042.51 3225.68 L 4042.32 3226.23 L 4042.14 3226.59 L 4041.78 3226.95 L 4041.23 3227.14 L 4039.96 3227.14 M 4046.25 3223.32 L 4044.43 3227.14 M 4043.71 3223.32 L 4046.25 3223.32" fill="none"  stroke-width="0.8"  /></g><g c_partid="part_pcbtext" c_origin="4039.96,3234.5" c_rotation="0" c_mirror="none" id="gge165" layerid="3" c_shapetype="group" ><path c_fontSize="4" c_fontFamily="" c_text="D8" d="M 4039.96 3232.32 L 4039.96 3236.14 M 4039.96 3232.32 L 4041.23 3232.32 L 4041.78 3232.5 L 4042.14 3232.86 L 4042.32 3233.23 L 4042.51 3233.77 L 4042.51 3234.68 L 4042.32 3235.23 L 4042.14 3235.59 L 4041.78 3235.95 L 4041.23 3236.14 L 4039.96 3236.14 M 4044.61 3232.32 L 4044.07 3232.5 L 4043.89 3232.86 L 4043.89 3233.23 L 4044.07 3233.59 L 4044.43 3233.77 L 4045.16 3233.95 L 4045.71 3234.14 L 4046.07 3234.5 L 4046.25 3234.86 L 4046.25 3235.41 L 4046.07 3235.77 L 4045.89 3235.95 L 4045.34 3236.14 L 4044.61 3236.14 L 4044.07 3235.95 L 4043.89 3235.77 L 4043.71 3235.41 L 4043.71 3234.86 L 4043.89 3234.5 L 4044.25 3234.14 L 4044.8 3233.95 L 4045.52 3233.77 L 4045.89 3233.59 L 4046.07 3233.23 L 4046.07 3232.86 L 4045.89 3232.5 L 4045.34 3232.32 L 4044.61 3232.32" fill="none"  stroke-width="0.8"  /></g><g c_partid="part_pcbtext" c_origin="4040.14,3244.5" c_rotation="0" c_mirror="none" id="gge167" layerid="3" c_shapetype="group" ><path c_fontSize="4" c_fontFamily="" c_text="D9" d="M 4040.14 3242.32 L 4040.14 3246.14 M 4040.14 3242.32 L 4041.41 3242.32 L 4041.96 3242.5 L 4042.32 3242.86 L 4042.5 3243.23 L 4042.69 3243.77 L 4042.69 3244.68 L 4042.5 3245.23 L 4042.32 3245.59 L 4041.96 3245.95 L 4041.41 3246.14 L 4040.14 3246.14 M 4046.25 3243.59 L 4046.07 3244.14 L 4045.7 3244.5 L 4045.16 3244.68 L 4044.98 3244.68 L 4044.43 3244.5 L 4044.07 3244.14 L 4043.89 3243.59 L 4043.89 3243.41 L 4044.07 3242.86 L 4044.43 3242.5 L 4044.98 3242.32 L 4045.16 3242.32 L 4045.7 3242.5 L 4046.07 3242.86 L 4046.25 3243.59 L 4046.25 3244.5 L 4046.07 3245.41 L 4045.7 3245.95 L 4045.16 3246.14 L 4044.79 3246.14 L 4044.25 3245.95 L 4044.07 3245.59" fill="none"  stroke-width="0.8"  /></g><g c_partid="part_pcbtext" c_origin="4037.85,3255.5" c_rotation="0" c_mirror="none" id="gge169" layerid="3" c_shapetype="group" ><path c_fontSize="4" c_fontFamily="" c_text="D10" d="M 4037.85 3253.32 L 4037.85 3257.14 M 4037.85 3253.32 L 4039.12 3253.32 L 4039.67 3253.5 L 4040.03 3253.86 L 4040.21 3254.23 L 4040.4 3254.77 L 4040.4 3255.68 L 4040.21 3256.23 L 4040.03 3256.59 L 4039.67 3256.95 L 4039.12 3257.14 L 4037.85 3257.14 M 4041.6 3254.05 L 4041.96 3253.86 L 4042.5 3253.32 L 4042.5 3257.14 M 4044.8 3253.32 L 4044.25 3253.5 L 4043.89 3254.05 L 4043.7 3254.95 L 4043.7 3255.5 L 4043.89 3256.41 L 4044.25 3256.95 L 4044.8 3257.14 L 4045.16 3257.14 L 4045.7 3256.95 L 4046.07 3256.41 L 4046.25 3255.5 L 4046.25 3254.95 L 4046.07 3254.05 L 4045.7 3253.5 L 4045.16 3253.32 L 4044.8 3253.32" fill="none"  stroke-width="0.8"  /></g><g c_partid="part_pcbtext" c_origin="4021.85,3264.5" c_rotation="0" c_mirror="" id="gge171" layerid="3" c_shapetype="group" ><path c_fontSize="4" c_fontFamily="" c_text="D11/MOSI" d="M 4021.85 3262.32 L 4021.85 3266.14 M 4021.85 3262.32 L 4023.12 3262.32 L 4023.67 3262.5 L 4024.03 3262.86 L 4024.21 3263.23 L 4024.4 3263.77 L 4024.4 3264.68 L 4024.21 3265.23 L 4024.03 3265.59 L 4023.67 3265.95 L 4023.12 3266.14 L 4021.85 3266.14 M 4025.6 3263.05 L 4025.96 3262.86 L 4026.5 3262.32 L 4026.5 3266.14 M 4027.7 3263.05 L 4028.07 3262.86 L 4028.61 3262.32 L 4028.61 3266.14 M 4033.09 3261.59 L 4029.81 3267.41 M 4034.29 3262.32 L 4034.29 3266.14 M 4034.29 3262.32 L 4035.74 3266.14 M 4037.2 3262.32 L 4035.74 3266.14 M 4037.2 3262.32 L 4037.2 3266.14 M 4039.49 3262.32 L 4039.12 3262.5 L 4038.76 3262.86 L 4038.58 3263.23 L 4038.4 3263.77 L 4038.4 3264.68 L 4038.58 3265.23 L 4038.76 3265.59 L 4039.12 3265.95 L 4039.49 3266.14 L 4040.21 3266.14 L 4040.58 3265.95 L 4040.94 3265.59 L 4041.12 3265.23 L 4041.3 3264.68 L 4041.3 3263.77 L 4041.12 3263.23 L 4040.94 3262.86 L 4040.58 3262.5 L 4040.21 3262.32 L 4039.49 3262.32 M 4045.05 3262.86 L 4044.69 3262.5 L 4044.14 3262.32 L 4043.41 3262.32 L 4042.87 3262.5 L 4042.5 3262.86 L 4042.5 3263.23 L 4042.69 3263.59 L 4042.87 3263.77 L 4043.23 3263.95 L 4044.32 3264.32 L 4044.69 3264.5 L 4044.87 3264.68 L 4045.05 3265.05 L 4045.05 3265.59 L 4044.69 3265.95 L 4044.14 3266.14 L 4043.41 3266.14 L 4042.87 3265.95 L 4042.5 3265.59 M 4046.25 3262.32 L 4046.25 3266.14" fill="none"  stroke-width="0.8"  /></g><g c_partid="part_pcbtext" c_origin="4127,3266.5" c_rotation="0" c_mirror="none" id="gge173" layerid="3" c_shapetype="group" ><path c_fontSize="4" c_fontFamily="" c_text="3V3" d="M 4127.36 3264.32 L 4129.36 3264.32 L 4128.27 3265.77 L 4128.82 3265.77 L 4129.18 3265.95 L 4129.36 3266.14 L 4129.55 3266.68 L 4129.55 3267.05 L 4129.36 3267.59 L 4129 3267.95 L 4128.45 3268.14 L 4127.91 3268.14 L 4127.36 3267.95 L 4127.18 3267.77 L 4127 3267.41 M 4130.75 3264.32 L 4132.2 3268.14 M 4133.65 3264.32 L 4132.2 3268.14 M 4135.22 3264.32 L 4137.22 3264.32 L 4136.13 3265.77 L 4136.67 3265.77 L 4137.04 3265.95 L 4137.22 3266.14 L 4137.4 3266.68 L 4137.4 3267.05 L 4137.22 3267.59 L 4136.85 3267.95 L 4136.31 3268.14 L 4135.76 3268.14 L 4135.22 3267.95 L 4135.04 3267.77 L 4134.85 3267.41" fill="none"  stroke-width="0.8"  /></g><g c_partid="part_pcbtext" c_origin="4127,3255.5" c_rotation="0" c_mirror="" id="gge175" layerid="3" c_shapetype="group" ><path c_fontSize="4" c_fontFamily="" c_text="AREF" d="M 4128.45 3253.32 L 4127 3257.14 M 4128.45 3253.32 L 4129.91 3257.14 M 4127.55 3255.86 L 4129.36 3255.86 M 4131.11 3253.32 L 4131.11 3257.14 M 4131.11 3253.32 L 4132.75 3253.32 L 4133.29 3253.5 L 4133.47 3253.68 L 4133.65 3254.05 L 4133.65 3254.41 L 4133.47 3254.77 L 4133.29 3254.95 L 4132.75 3255.14 L 4131.11 3255.14 M 4132.38 3255.14 L 4133.65 3257.14 M 4134.85 3253.32 L 4134.85 3257.14 M 4134.85 3253.32 L 4137.22 3253.32 M 4134.85 3255.14 L 4136.31 3255.14 M 4134.85 3257.14 L 4137.22 3257.14 M 4138.42 3253.32 L 4138.42 3257.14 M 4138.42 3253.32 L 4140.78 3253.32 M 4138.42 3255.14 L 4139.87 3255.14" fill="none"  stroke-width="0.8"  /></g><g c_partid="part_pcbtext" c_origin="4127,3246.5" c_rotation="0" c_mirror="none" id="gge177" layerid="3" c_shapetype="group" ><path c_fontSize="4" c_fontFamily="" c_text="A0" d="M 4128.45 3244.32 L 4127 3248.14 M 4128.45 3244.32 L 4129.91 3248.14 M 4127.55 3246.86 L 4129.36 3246.86 M 4132.2 3244.32 L 4131.65 3244.5 L 4131.29 3245.05 L 4131.11 3245.95 L 4131.11 3246.5 L 4131.29 3247.41 L 4131.65 3247.95 L 4132.2 3248.14 L 4132.56 3248.14 L 4133.11 3247.95 L 4133.47 3247.41 L 4133.65 3246.5 L 4133.65 3245.95 L 4133.47 3245.05 L 4133.11 3244.5 L 4132.56 3244.32 L 4132.2 3244.32" fill="none"  stroke-width="0.8"  /></g><g c_partid="part_pcbtext" c_origin="4127,3235.5" c_rotation="0" c_mirror="none" id="gge179" layerid="3" c_shapetype="group" ><path c_fontSize="4" c_fontFamily="" c_text="A1" d="M 4128.45 3233.32 L 4127 3237.14 M 4128.45 3233.32 L 4129.91 3237.14 M 4127.55 3235.86 L 4129.36 3235.86 M 4131.11 3234.05 L 4131.47 3233.86 L 4132.02 3233.32 L 4132.02 3237.14" fill="none"  stroke-width="0.8"  /></g><g c_partid="part_pcbtext" c_origin="4127,3226.5" c_rotation="0" c_mirror="none" id="gge181" layerid="3" c_shapetype="group" ><path c_fontSize="4" c_fontFamily="" c_text="A2" d="M 4128.45 3224.32 L 4127 3228.14 M 4128.45 3224.32 L 4129.91 3228.14 M 4127.55 3226.86 L 4129.36 3226.86 M 4131.29 3225.23 L 4131.29 3225.05 L 4131.47 3224.68 L 4131.65 3224.5 L 4132.02 3224.32 L 4132.75 3224.32 L 4133.11 3224.5 L 4133.29 3224.68 L 4133.47 3225.05 L 4133.47 3225.41 L 4133.29 3225.77 L 4132.93 3226.32 L 4131.11 3228.14 L 4133.65 3228.14" fill="none"  stroke-width="0.8"  /></g><g c_partid="part_pcbtext" c_origin="4127,3215.5" c_rotation="0" c_mirror="none" id="gge183" layerid="3" c_shapetype="group" ><path c_fontSize="4" c_fontFamily="" c_text="A3" d="M 4128.45 3213.32 L 4127 3217.14 M 4128.45 3213.32 L 4129.91 3217.14 M 4127.55 3215.86 L 4129.36 3215.86 M 4131.47 3213.32 L 4133.47 3213.32 L 4132.38 3214.77 L 4132.93 3214.77 L 4133.29 3214.95 L 4133.47 3215.14 L 4133.65 3215.68 L 4133.65 3216.05 L 4133.47 3216.59 L 4133.11 3216.95 L 4132.56 3217.14 L 4132.02 3217.14 L 4131.47 3216.95 L 4131.29 3216.77 L 4131.11 3216.41" fill="none"  stroke-width="0.8"  /></g><g c_partid="part_pcbtext" c_origin="4127,3205.5" c_rotation="0" c_mirror="none" id="gge185" layerid="3" c_shapetype="group" ><path c_fontSize="4" c_fontFamily="" c_text="A4" d="M 4128.45 3203.32 L 4127 3207.14 M 4128.45 3203.32 L 4129.91 3207.14 M 4127.55 3205.86 L 4129.36 3205.86 M 4132.93 3203.32 L 4131.11 3205.86 L 4133.84 3205.86 M 4132.93 3203.32 L 4132.93 3207.14" fill="none"  stroke-width="0.8"  /></g><g c_partid="part_pcbtext" c_origin="4127,3195.5" c_rotation="0" c_mirror="none" id="gge187" layerid="3" c_shapetype="group" ><path c_fontSize="4" c_fontFamily="" c_text="A5" d="M 4128.45 3193.32 L 4127 3197.14 M 4128.45 3193.32 L 4129.91 3197.14 M 4127.55 3195.86 L 4129.36 3195.86 M 4133.29 3193.32 L 4131.47 3193.32 L 4131.29 3194.95 L 4131.47 3194.77 L 4132.02 3194.59 L 4132.56 3194.59 L 4133.11 3194.77 L 4133.47 3195.14 L 4133.65 3195.68 L 4133.65 3196.05 L 4133.47 3196.59 L 4133.11 3196.95 L 4132.56 3197.14 L 4132.02 3197.14 L 4131.47 3196.95 L 4131.29 3196.77 L 4131.11 3196.41" fill="none"  stroke-width="0.8"  /></g><g c_partid="part_pcbtext" c_origin="4127,3186.5" c_rotation="0" c_mirror="none" id="gge189" layerid="3" c_shapetype="group" ><path c_fontSize="4" c_fontFamily="" c_text="A6" d="M 4128.45 3184.32 L 4127 3188.14 M 4128.45 3184.32 L 4129.91 3188.14 M 4127.55 3186.86 L 4129.36 3186.86 M 4133.29 3184.86 L 4133.11 3184.5 L 4132.56 3184.32 L 4132.2 3184.32 L 4131.65 3184.5 L 4131.29 3185.05 L 4131.11 3185.95 L 4131.11 3186.86 L 4131.29 3187.59 L 4131.65 3187.95 L 4132.2 3188.14 L 4132.38 3188.14 L 4132.93 3187.95 L 4133.29 3187.59 L 4133.47 3187.05 L 4133.47 3186.86 L 4133.29 3186.32 L 4132.93 3185.95 L 4132.38 3185.77 L 4132.2 3185.77 L 4131.65 3185.95 L 4131.29 3186.32 L 4131.11 3186.86" fill="none"  stroke-width="0.8"  /></g><g c_partid="part_pcbtext" c_origin="4127,3175.5" c_rotation="0" c_mirror="none" id="gge191" layerid="3" c_shapetype="group" ><path c_fontSize="4" c_fontFamily="" c_text="A7" d="M 4128.45 3173.32 L 4127 3177.14 M 4128.45 3173.32 L 4129.91 3177.14 M 4127.55 3175.86 L 4129.36 3175.86 M 4133.65 3173.32 L 4131.84 3177.14 M 4131.11 3173.32 L 4133.65 3173.32" fill="none"  stroke-width="0.8"  /></g><g c_partid="part_pcbtext" c_origin="4127,3155.5" c_rotation="0" c_mirror="" id="gge193" layerid="3" c_shapetype="group" ><path c_fontSize="4" c_fontFamily="" c_text="RESET" d="M 4127 3153.32 L 4127 3157.14 M 4127 3153.32 L 4128.64 3153.32 L 4129.18 3153.5 L 4129.36 3153.68 L 4129.55 3154.05 L 4129.55 3154.41 L 4129.36 3154.77 L 4129.18 3154.95 L 4128.64 3155.14 L 4127 3155.14 M 4128.27 3155.14 L 4129.55 3157.14 M 4130.75 3153.32 L 4130.75 3157.14 M 4130.75 3153.32 L 4133.11 3153.32 M 4130.75 3155.14 L 4132.2 3155.14 M 4130.75 3157.14 L 4133.11 3157.14 M 4136.85 3153.86 L 4136.49 3153.5 L 4135.95 3153.32 L 4135.22 3153.32 L 4134.67 3153.5 L 4134.31 3153.86 L 4134.31 3154.23 L 4134.49 3154.59 L 4134.67 3154.77 L 4135.04 3154.95 L 4136.13 3155.32 L 4136.49 3155.5 L 4136.67 3155.68 L 4136.85 3156.05 L 4136.85 3156.59 L 4136.49 3156.95 L 4135.95 3157.14 L 4135.22 3157.14 L 4134.67 3156.95 L 4134.31 3156.59 M 4138.05 3153.32 L 4138.05 3157.14 M 4138.05 3153.32 L 4140.42 3153.32 M 4138.05 3155.14 L 4139.51 3155.14 M 4138.05 3157.14 L 4140.42 3157.14 M 4142.89 3153.32 L 4142.89 3157.14 M 4141.62 3153.32 L 4144.16 3153.32" fill="none"  stroke-width="0.8"  /></g><g c_partid="part_pcbtext" c_origin="4138.54,3147.05" c_rotation="0" c_mirror="" id="gge575" layerid="3" c_shapetype="group" ><path c_fontSize="4.5" c_fontFamily="" c_text="J4" d="M 4140.59 3140.8998 L 4140.59 3144.1698 L 4140.38 3144.7798 L 4140.18 3144.9898 L 4139.77 3145.1898 L 4139.36 3145.1898 L 4138.95 3144.9898 L 4138.74 3144.7798 L 4138.54 3144.1698 L 4138.54 3143.7598 M 4143.98 3140.8998 L 4141.94 3143.7598 L 4145 3143.7598 M 4143.98 3140.8998 L 4143.98 3145.1898" fill="none"  stroke-width="0.6" c_note="note_pre" /></g><g c_partid="part_pcbtext" c_origin="4145,3144.54" c_rotation="180" c_mirror="" id="gge577" layerid="3" c_shapetype="group" display="none"><path c_fontSize="4.5" c_fontFamily="" c_text="KF127_2P_5.08" d="M 4145 3150.69 L 4145 3146.4 M 4142.14 3150.69 L 4145 3147.83 M 4143.98 3148.85 L 4142.14 3146.4 M 4140.79 3150.69 L 4140.79 3146.4 M 4140.79 3150.69 L 4138.13 3150.69 M 4140.79 3148.65 L 4139.15 3148.65 M 4136.78 3149.87 L 4136.37 3150.08 L 4135.75 3150.69 L 4135.75 3146.4 M 4134.2 3149.67 L 4134.2 3149.87 L 4134 3150.28 L 4133.79 3150.49 L 4133.38 3150.69 L 4132.56 3150.69 L 4132.15 3150.49 L 4131.95 3150.28 L 4131.75 3149.87 L 4131.75 3149.47 L 4131.95 3149.06 L 4132.36 3148.44 L 4134.4 3146.4 L 4131.54 3146.4 M 4127.33 3150.69 L 4129.37 3146.4 M 4130.19 3150.69 L 4127.33 3150.69 M 4125.98 3144.97 L 4122.3 3144.97 M 4120.74 3149.67 L 4120.74 3149.87 L 4120.54 3150.28 L 4120.33 3150.49 L 4119.92 3150.69 L 4119.1 3150.69 L 4118.7 3150.49 L 4118.49 3150.28 L 4118.29 3149.87 L 4118.29 3149.47 L 4118.49 3149.06 L 4118.9 3148.44 L 4120.95 3146.4 L 4118.08 3146.4 M 4116.73 3150.69 L 4116.73 3146.4 M 4116.73 3150.69 L 4114.89 3150.69 L 4114.28 3150.49 L 4114.07 3150.28 L 4113.87 3149.87 L 4113.87 3149.26 L 4114.07 3148.85 L 4114.28 3148.65 L 4114.89 3148.44 L 4116.73 3148.44 M 4112.52 3144.97 L 4108.84 3144.97 M 4105.03 3150.69 L 4107.08 3150.69 L 4107.28 3148.85 L 4107.08 3149.06 L 4106.46 3149.26 L 4105.85 3149.26 L 4105.24 3149.06 L 4104.83 3148.65 L 4104.62 3148.03 L 4104.62 3147.62 L 4104.83 3147.01 L 4105.24 3146.6 L 4105.85 3146.4 L 4106.46 3146.4 L 4107.08 3146.6 L 4107.28 3146.81 L 4107.49 3147.22 M 4103.07 3147.42 L 4103.27 3147.22 L 4103.07 3147.01 L 4102.86 3147.22 L 4103.07 3147.42 M 4100.29 3150.69 L 4100.9 3150.49 L 4101.31 3149.87 L 4101.51 3148.85 L 4101.51 3148.24 L 4101.31 3147.22 L 4100.9 3146.6 L 4100.29 3146.4 L 4099.88 3146.4 L 4099.26 3146.6 L 4098.85 3147.22 L 4098.65 3148.24 L 4098.65 3148.85 L 4098.85 3149.87 L 4099.26 3150.49 L 4099.88 3150.69 L 4100.29 3150.69 M 4096.28 3150.69 L 4096.89 3150.49 L 4097.1 3150.08 L 4097.1 3149.67 L 4096.89 3149.26 L 4096.48 3149.06 L 4095.66 3148.85 L 4095.05 3148.65 L 4094.64 3148.24 L 4094.44 3147.83 L 4094.44 3147.22 L 4094.64 3146.81 L 4094.85 3146.6 L 4095.46 3146.4 L 4096.28 3146.4 L 4096.89 3146.6 L 4097.1 3146.81 L 4097.3 3147.22 L 4097.3 3147.83 L 4097.1 3148.24 L 4096.69 3148.65 L 4096.07 3148.85 L 4095.25 3149.06 L 4094.85 3149.26 L 4094.64 3149.67 L 4094.64 3150.08 L 4094.85 3150.49 L 4095.46 3150.69 L 4096.28 3150.69" fill="none"  stroke-width="0.6"  /></g><g c_partid="part_pcbtext" c_origin="4132,3131" c_rotation="90" c_mirror="none" id="gge581" layerid="3" c_shapetype="group" ><path c_fontSize="3.937" c_fontFamily="" c_text="1" d="M 4130.5699 3131 L 4130.3899 3130.64 L 4129.8499 3130.11 L 4133.6099 3130.11" fill="none"  stroke-width="0.8"  /></g><g c_partid="part_pcbtext" c_origin="4132,3111" c_rotation="90" c_mirror="none" id="gge583" layerid="3" c_shapetype="group" ><path c_fontSize="3.937" c_fontFamily="" c_text="2" d="M 4130.7497 3110.8199 L 4130.5697 3110.8199 L 4130.2097 3110.6399 L 4130.0297 3110.4599 L 4129.8497 3110.1099 L 4129.8497 3109.3899 L 4130.0297 3109.0299 L 4130.2097 3108.8499 L 4130.5697 3108.6699 L 4130.9297 3108.6699 L 4131.2797 3108.8499 L 4131.8197 3109.2099 L 4133.6097 3110.9999 L 4133.6097 3108.4899" fill="none"  stroke-width="0.8"  /></g><g c_partid="part_pcbtext" c_origin="4138.74,3187.05" c_rotation="0" c_mirror="" id="gge598" layerid="3" c_shapetype="group" ><path c_fontSize="4.5" c_fontFamily="" c_text="J5" d="M 4140.79 3180.8998 L 4140.79 3184.1698 L 4140.58 3184.7798 L 4140.38 3184.9898 L 4139.97 3185.1898 L 4139.56 3185.1898 L 4139.15 3184.9898 L 4138.94 3184.7798 L 4138.74 3184.1698 L 4138.74 3183.7598 M 4144.59 3180.8998 L 4142.54 3180.8998 L 4142.34 3182.7398 L 4142.54 3182.5298 L 4143.16 3182.3298 L 4143.77 3182.3298 L 4144.39 3182.5298 L 4144.79 3182.9398 L 4145 3183.5598 L 4145 3183.9698 L 4144.79 3184.5798 L 4144.39 3184.9898 L 4143.77 3185.1898 L 4143.16 3185.1898 L 4142.54 3184.9898 L 4142.34 3184.7798 L 4142.14 3184.3698" fill="none"  stroke-width="0.6" c_note="note_pre" /></g><g c_partid="part_pcbtext" c_origin="4145,3184.54" c_rotation="180" c_mirror="" id="gge600" layerid="3" c_shapetype="group" display="none"><path c_fontSize="4.5" c_fontFamily="" c_text="KF127_2P_5.08" d="M 4145 3190.69 L 4145 3186.4 M 4142.14 3190.69 L 4145 3187.83 M 4143.98 3188.85 L 4142.14 3186.4 M 4140.79 3190.69 L 4140.79 3186.4 M 4140.79 3190.69 L 4138.13 3190.69 M 4140.79 3188.65 L 4139.15 3188.65 M 4136.78 3189.87 L 4136.37 3190.08 L 4135.75 3190.69 L 4135.75 3186.4 M 4134.2 3189.67 L 4134.2 3189.87 L 4134 3190.28 L 4133.79 3190.49 L 4133.38 3190.69 L 4132.56 3190.69 L 4132.15 3190.49 L 4131.95 3190.28 L 4131.75 3189.87 L 4131.75 3189.47 L 4131.95 3189.06 L 4132.36 3188.44 L 4134.4 3186.4 L 4131.54 3186.4 M 4127.33 3190.69 L 4129.37 3186.4 M 4130.19 3190.69 L 4127.33 3190.69 M 4125.98 3184.97 L 4122.3 3184.97 M 4120.74 3189.67 L 4120.74 3189.87 L 4120.54 3190.28 L 4120.33 3190.49 L 4119.92 3190.69 L 4119.1 3190.69 L 4118.7 3190.49 L 4118.49 3190.28 L 4118.29 3189.87 L 4118.29 3189.47 L 4118.49 3189.06 L 4118.9 3188.44 L 4120.95 3186.4 L 4118.08 3186.4 M 4116.73 3190.69 L 4116.73 3186.4 M 4116.73 3190.69 L 4114.89 3190.69 L 4114.28 3190.49 L 4114.07 3190.28 L 4113.87 3189.87 L 4113.87 3189.26 L 4114.07 3188.85 L 4114.28 3188.65 L 4114.89 3188.44 L 4116.73 3188.44 M 4112.52 3184.97 L 4108.84 3184.97 M 4105.03 3190.69 L 4107.08 3190.69 L 4107.28 3188.85 L 4107.08 3189.06 L 4106.46 3189.26 L 4105.85 3189.26 L 4105.24 3189.06 L 4104.83 3188.65 L 4104.62 3188.03 L 4104.62 3187.62 L 4104.83 3187.01 L 4105.24 3186.6 L 4105.85 3186.4 L 4106.46 3186.4 L 4107.08 3186.6 L 4107.28 3186.81 L 4107.49 3187.22 M 4103.07 3187.42 L 4103.27 3187.22 L 4103.07 3187.01 L 4102.86 3187.22 L 4103.07 3187.42 M 4100.29 3190.69 L 4100.9 3190.49 L 4101.31 3189.87 L 4101.51 3188.85 L 4101.51 3188.24 L 4101.31 3187.22 L 4100.9 3186.6 L 4100.29 3186.4 L 4099.88 3186.4 L 4099.26 3186.6 L 4098.85 3187.22 L 4098.65 3188.24 L 4098.65 3188.85 L 4098.85 3189.87 L 4099.26 3190.49 L 4099.88 3190.69 L 4100.29 3190.69 M 4096.28 3190.69 L 4096.89 3190.49 L 4097.1 3190.08 L 4097.1 3189.67 L 4096.89 3189.26 L 4096.48 3189.06 L 4095.66 3188.85 L 4095.05 3188.65 L 4094.64 3188.24 L 4094.44 3187.83 L 4094.44 3187.22 L 4094.64 3186.81 L 4094.85 3186.6 L 4095.46 3186.4 L 4096.28 3186.4 L 4096.89 3186.6 L 4097.1 3186.81 L 4097.3 3187.22 L 4097.3 3187.83 L 4097.1 3188.24 L 4096.69 3188.65 L 4096.07 3188.85 L 4095.25 3189.06 L 4094.85 3189.26 L 4094.64 3189.67 L 4094.64 3190.08 L 4094.85 3190.49 L 4095.46 3190.69 L 4096.28 3190.69" fill="none"  stroke-width="0.6"  /></g><g c_partid="part_pcbtext" c_origin="4132,3171" c_rotation="90" c_mirror="none" id="gge604" layerid="3" c_shapetype="group" ><path c_fontSize="3.937" c_fontFamily="" c_text="1" d="M 4130.5699 3171 L 4130.3899 3170.64 L 4129.8499 3170.11 L 4133.6099 3170.11" fill="none"  stroke-width="0.8"  /></g><g c_partid="part_pcbtext" c_origin="4132,3151" c_rotation="90" c_mirror="none" id="gge606" layerid="3" c_shapetype="group" ><path c_fontSize="3.937" c_fontFamily="" c_text="2" d="M 4130.7497 3150.8199 L 4130.5697 3150.8199 L 4130.2097 3150.6399 L 4130.0297 3150.4599 L 4129.8497 3150.1099 L 4129.8497 3149.3899 L 4130.0297 3149.0299 L 4130.2097 3148.8499 L 4130.5697 3148.6699 L 4130.9297 3148.6699 L 4131.2797 3148.8499 L 4131.8197 3149.2099 L 4133.6097 3150.9999 L 4133.6097 3148.4899" fill="none"  stroke-width="0.8"  /></g><g c_partid="part_pcbtext" c_origin="4092.5,3105.96" c_rotation="0" c_mirror="" id="gge823" layerid="3" c_shapetype="group" ><path c_fontSize="4.5" c_fontFamily="" c_text="IC2" d="M 4092.5 3103.5 L 4092.5 3107.8 M 4096.92 3104.52 L 4096.72 3104.12 L 4096.31 3103.71 L 4095.9 3103.5 L 4095.08 3103.5 L 4094.67 3103.71 L 4094.26 3104.12 L 4094.06 3104.52 L 4093.85 3105.14 L 4093.85 3106.16 L 4094.06 3106.77 L 4094.26 3107.18 L 4094.67 3107.59 L 4095.08 3107.8 L 4095.9 3107.8 L 4096.31 3107.59 L 4096.72 3107.18 L 4096.92 3106.77 M 4098.47 3104.52 L 4098.47 3104.32 L 4098.68 3103.91 L 4098.88 3103.71 L 4099.29 3103.5 L 4100.11 3103.5 L 4100.52 3103.71 L 4100.72 3103.91 L 4100.93 3104.32 L 4100.93 3104.73 L 4100.72 3105.14 L 4100.32 3105.75 L 4098.27 3107.8 L 4101.13 3107.8" fill="none"  stroke-width="0.6" c_note="note_pre" /></g><g c_partid="part_pcbtext" c_origin="4085.35,3120.88" c_rotation="180" c_mirror="" id="gge825" layerid="3" c_shapetype="group" display="none"><path c_fontSize="4.5" c_fontFamily="" c_text="TR-72D" d="M 4083.924 3127.027 L 4083.924 3122.737 M 4085.354 3127.027 L 4082.494 3127.027 M 4081.144 3127.027 L 4081.144 3122.737 M 4081.144 3127.027 L 4079.304 3127.027 L 4078.684 3126.827 L 4078.484 3126.627 L 4078.274 3126.217 L 4078.274 3125.807 L 4078.484 3125.397 L 4078.684 3125.187 L 4079.304 3124.987 L 4081.144 3124.987 M 4079.704 3124.987 L 4078.274 3122.737 M 4076.924 3124.577 L 4073.244 3124.577 M 4069.034 3127.027 L 4071.074 3122.737 M 4071.894 3127.027 L 4069.034 3127.027 M 4067.474 3126.007 L 4067.474 3126.217 L 4067.274 3126.627 L 4067.064 3126.827 L 4066.654 3127.027 L 4065.844 3127.027 L 4065.434 3126.827 L 4065.224 3126.627 L 4065.024 3126.217 L 4065.024 3125.807 L 4065.224 3125.397 L 4065.634 3124.777 L 4067.684 3122.737 L 4064.814 3122.737 M 4063.464 3127.027 L 4063.464 3122.737 M 4063.464 3127.027 L 4062.034 3127.027 L 4061.424 3126.827 L 4061.014 3126.417 L 4060.804 3126.007 L 4060.604 3125.397 L 4060.604 3124.377 L 4060.804 3123.757 L 4061.014 3123.347 L 4061.424 3122.937 L 4062.034 3122.737 L 4063.464 3122.737" fill="none"  stroke-width="0.6"  /></g><polyline points="4045 3050 4159.5 3050 4159.5 3287 4045 3287 4045 3050" stroke-width="1" c_shapetype="line" stroke-linecap="round" fill="none" layerid="10" net="" id="gge654" /></g></svg>