<svg xmlns="http://www.w3.org/2000/svg" xmlns:xlink="http://www.w3.org/1999/xlink" width="54.585mm" height="25.857mm" viewBox="4028.7 3037.4 214.9 101.8"><title></title><style type="text/css">
*[layerid="1"] {stroke:#FF0000;fill:#FF0000;}
*[layerid="2"] {stroke:#0000FF;fill:#0000FF;}
*[layerid="3"] {stroke:#FFCC00;fill:#FFCC00;}
*[layerid="4"] {stroke:#66CC33;fill:#66CC33;}
*[layerid="5"] {stroke:#808080;fill:#808080;}
*[layerid="6"] {stroke:#800000;fill:#800000;}
*[layerid="7"] {stroke:#800080;fill:#800080;stroke-opacity:0.7;fill-opacity:0.7;}
*[layerid="8"] {stroke:#AA00FF;fill:#AA00FF;stroke-opacity:0.7;fill-opacity:0.7;}
*[layerid="9"] {stroke:#6464FF;fill:#6464FF;}
*[layerid="10"] {stroke:#FF00FF;fill:#FF00FF;}
*[layerid="11"] {stroke:#C0C0C0;fill:#C0C0C0;}
*[layerid="12"] {stroke:#FFFFFF;fill:#FFFFFF;}
*[layerid="13"] {stroke:#33CC99;fill:#33CC99;}
*[layerid="14"] {stroke:#5555FF;fill:#5555FF;}
*[layerid="15"] {stroke:#F022F0;fill:#F022F0;}
*[layerid="21"] {stroke:#999966;fill:#999966;}
*[layerid="22"] {stroke:#008000;fill:#008000;}
*[layerid="23"] {stroke:#00FF00;fill:#00FF00;}
*[layerid="24"] {stroke:#BC8E00;fill:#BC8E00;}
*[layerid="25"] {stroke:#70DBFA;fill:#70DBFA;}
*[layerid="26"] {stroke:#00CC66;fill:#00CC66;}
*[layerid="27"] {stroke:#9966FF;fill:#9966FF;}
*[layerid="28"] {stroke:#800080;fill:#800080;}
*[layerid="29"] {stroke:#008080;fill:#008080;}
*[layerid="30"] {stroke:#15935F;fill:#15935F;}
*[layerid="31"] {stroke:#000080;fill:#000080;}
*[layerid="32"] {stroke:#00B400;fill:#00B400;}
*[layerid="33"] {stroke:#2E4756;fill:#2E4756;}
*[layerid="34"] {stroke:#99842F;fill:#99842F;}
*[layerid="35"] {stroke:#FFFFAA;fill:#FFFFAA;}
*[layerid="36"] {stroke:#99842F;fill:#99842F;}
*[layerid="37"] {stroke:#2E4756;fill:#2E4756;}
*[layerid="38"] {stroke:#3535FF;fill:#3535FF;}
*[layerid="39"] {stroke:#8000BC;fill:#8000BC;}
*[layerid="40"] {stroke:#43AE5F;fill:#43AE5F;}
*[layerid="41"] {stroke:#C3ECCE;fill:#C3ECCE;}
*[layerid="42"] {stroke:#728978;fill:#728978;}
*[layerid="43"] {stroke:#39503F;fill:#39503F;}
*[layerid="44"] {stroke:#0C715D;fill:#0C715D;}
*[layerid="45"] {stroke:#5A8A80;fill:#5A8A80;}
*[layerid="46"] {stroke:#2B937E;fill:#2B937E;}
*[layerid="47"] {stroke:#23999D;fill:#23999D;}
*[layerid="48"] {stroke:#45B4E3;fill:#45B4E3;}
*[layerid="49"] {stroke:#215DA1;fill:#215DA1;}
*[layerid="50"] {stroke:#4564D7;fill:#4564D7;}
*[layerid="51"] {stroke:#6969E9;fill:#6969E9;}
*[layerid="52"] {stroke:#9069E9;fill:#9069E9;}
*[fill="none"] {fill: none;}
*[stroke="none"] {stroke: none;}
path, polyline, polygon, line {stroke-linecap:round;}
g[c_partid="part_pad"][layerid="1"] ellipse:not([c_padid]) {fill:#FF0000;}
g[c_partid="part_pad"][layerid="1"]  polygon:not([c_padid]) {fill:#FF0000;}
g[c_partid="part_pad"][layerid="1"]  polyline:not([c_padid]) {stroke:#FF0000;}
g[c_partid="part_pad"][layerid="1"]  circle {fill:#FF0000;}
g[c_partid="part_pad"][layerid="2"]  ellipse:not([c_padid]) {fill:#0000FF;}
g[c_partid="part_pad"][layerid="2"]  polygon:not([c_padid]) {fill:#0000FF;}
g[c_partid="part_pad"][layerid="2"]  polyline:not([c_padid]) {stroke:#0000FF;}
g[c_partid="part_pad"][layerid="2"]  circle {fill:#0000FF;}
g[c_partid="part_pad"][layerid="11"]  ellipse:not([c_padid]) {fill:#C0C0C0;}
g[c_partid="part_pad"][layerid="11"]  polygon:not([c_padid]) {fill:#C0C0C0;}
g[c_partid="part_pad"][layerid="11"]  polyline:not([c_padid]) {stroke:#C0C0C0;}
g[c_partid="part_pad"][layerid="11"]  circle {fill:#C0C0C0;}
g[c_partid="part_pad"][layerid] > circle[c_padhole] {fill: #222222;}
g[c_partid="part_pad"][layerid] > polyline[c_padhole] {stroke:#222222;}
g[c_partid="part_via"][layerid] > * + circle {fill: #222222;}
g[c_partid="part_pad"] > polygon[c_padid] {stroke-linejoin: miter;stroke-miterlimit: 100;}
g[c_partid="part_hole"] > circle {fill: #222222;}path, polyline, polygon {stroke-linejoin:round;}
rect, circle, ellipse, polyline, line, polygon, path {shape-rendering:crispEdges;}
</style>
<rect x="4028.7" y="3037.4" width="214.9" height="101.8" fill="#000000" stroke="none"/><g id="g1" cpara="package`IQRF_KON-SIM-01`" c_transformList="" importFlag="0" xmlns="http://www.w3.org/2000/svg"><g c_partid="part_pad" c_etype="pinpart" c_origin="4078.21,3059.63" layerid="2" number="9" net="" plated ="N" c_shapetype="group" id="gge539" locked="0" c_rotation="270" c_width="6.6929" c_height="17.7165" title="" c_shape="RECT" pasteExpansion="0" solderExpansion="0.4"><polygon points="4087.067 3056.276 4087.067 3062.976 4069.357 3062.976 4069.357 3056.276" stroke-width="0" /><circle c_padhole="1" cx="4078.212" cy="3059.626" r="0" stroke-width="0" /></g><g c_partid="part_pad" c_etype="pinpart" c_origin="4078.21,3115.37" layerid="2" number="9" net="" plated ="N" c_shapetype="group" id="gge544" locked="0" c_rotation="270" c_width="6.6929" c_height="17.7165" title="" c_shape="RECT" pasteExpansion="0" solderExpansion="0.4"><polygon points="4087.067 3112.026 4087.067 3118.716 4069.357 3118.716 4069.357 3112.026" stroke-width="0" /><circle c_padhole="1" cx="4078.212" cy="3115.371" r="0" stroke-width="0" /></g><polyline points="4135 3099.5 4145.5 3099.5 4148.5 3096.5 4148.5 3089" stroke-width="2" c_shapetype="line" stroke-linecap="round" fill="none" layerid="1" net="+5V" id="gge811" /><polyline points="4127 3099.5 4123 3095.5 4123 3089" stroke-width="2" c_shapetype="line" stroke-linecap="round" fill="none" layerid="1" net="SIG" id="gge812" /><polyline points="4148.5 3089 4168.5 3069 4168.5 3065" stroke-width="2" c_shapetype="line" stroke-linecap="round" fill="none" layerid="1" net="+5V" id="gge813" /><polyline points="4131 3089 4140.5 3089" stroke-width="2" c_shapetype="line" stroke-linecap="round" fill="none" layerid="1" net="GND" id="gge815" /><polyline points="4128.5 3065 4116.5 3077 4063.5 3077 4058.314 3082.186 4044.437 3082.186" stroke-width="2" c_shapetype="line" stroke-linecap="round" fill="none" layerid="1" net="SIG" id="gge817" /><polyline points="4189 3092 4216 3092" stroke-width="2" c_shapetype="line" stroke-linecap="round" fill="none" layerid="1" net="F1_2" id="gge818" /><polyline points="4093.57 3102.19 4103.64 3102.19 4105.33 3100.5" stroke-width="2" c_shapetype="line" stroke-linecap="round" fill="none" layerid="1" net="GND" id="gge820" /><polyline points="4109.5 3100.5 4105.33 3100.5" stroke-width="2" c_shapetype="line" stroke-linecap="round" fill="none" layerid="1" net="GND" id="gge821" /><polyline points="4093.57 3092.19 4102.53 3092.19 4105.33 3094.99" stroke-width="2" c_shapetype="line" stroke-linecap="round" fill="none" layerid="1" net="+5V" id="gge823" /><polyline points="4109.5 3094.99 4105.33 3094.99" stroke-width="2" c_shapetype="line" stroke-linecap="round" fill="none" layerid="1" net="+5V" id="gge824" /><polyline points="4109.5 3100.5 4115.5 3106.5 4128.5 3106.5 4131 3104 4131 3089" stroke-width="1.4" c_shapetype="line" stroke-linecap="round" fill="none" layerid="1" net="GND" id="gge825" /><polyline points="4216 3110 4227 3099 4227 3060.5 4218.5 3052 4159.5 3052 4148.5 3063 4146.5 3065" stroke-width="2" c_shapetype="line" stroke-linecap="round" fill="none" layerid="1" net="GND" id="gge809" /><polyline points="4123 3089 4122.985 3088.985 4122.985 3070.515" stroke-width="2" c_shapetype="line" stroke-linecap="round" fill="none" layerid="1" net="SIG" id="gge828" /><polyline points="4140.5 3089 4140.5 3071 4146.5 3065" stroke-width="2" c_shapetype="line" stroke-linecap="round" fill="none" layerid="1" net="GND" id="gge814" /><polyline points="4156.5 3119 4152.5 3119 4142.5 3109 4087.5 3109 4085 3106.5 4085 3096.5 4089.31 3092.19 4093.57 3092.19" stroke-width="2" c_shapetype="line" stroke-linecap="round" fill="none" layerid="1" net="+5V" id="gge859" /><polyline points="4142.5 3109 4142.5 3102.5 4145.5 3099.5" stroke-width="2" c_shapetype="line" stroke-linecap="round" fill="none" layerid="1" net="+5V" id="gge860" /><polyline points="4173 3119 4163 3109 4163 3092" stroke-width="2" c_shapetype="line" stroke-linecap="round" fill="none" layerid="1" net="F1_1" id="gge862" /><g c_partid="part_pad" c_etype="pinpart" c_origin="4127,3099.5" layerid="1" number="1" net="SIG" plated ="Y" c_shapetype="group" id="gge47" locked="0" c_rotation="0" c_width="4.567" c_height="5.7087" title="SIG" c_shape="RECT" pasteExpansion="0" solderExpansion="0.4"><polygon points="4124.717 3096.646 4129.283 3096.646 4129.283 3102.354 4124.717 3102.354" stroke-width="0" /><circle c_padhole="1" cx="4127" cy="3099.5" r="0" stroke-width="0" /></g><g c_partid="part_pad" c_etype="pinpart" c_origin="4135,3099.5" layerid="1" number="2" net="+5V" plated ="Y" c_shapetype="group" id="gge52" locked="0" c_rotation="0" c_width="4.567" c_height="5.7087" title="+5V" c_shape="RECT" pasteExpansion="0" solderExpansion="0.4"><polygon points="4132.717 3096.646 4137.283 3096.646 4137.283 3102.354 4132.717 3102.354" stroke-width="0" /><circle c_padhole="1" cx="4135" cy="3099.5" r="0" stroke-width="0" /></g><g c_partid="part_pad" c_etype="pinpart" c_origin="4109.5,3100.5" layerid="1" number="1" net="GND" plated ="Y" c_shapetype="group" id="gge114" locked="0" c_rotation="90" c_width="3.937" c_height="4.3307" title="GND" c_shape="RECT" pasteExpansion="0" solderExpansion="0.4"><polygon points="4107.335 3102.469 4107.335 3098.532 4111.665 3098.532 4111.665 3102.469" stroke-width="0" /><circle c_padhole="1" cx="4109.5" cy="3100.5" r="0" stroke-width="0" /></g><g c_partid="part_pad" c_etype="pinpart" c_origin="4109.5,3094.99" layerid="1" number="2" net="+5V" plated ="Y" c_shapetype="group" id="gge119" locked="0" c_rotation="90" c_width="3.937" c_height="4.3307" title="+5V" c_shape="RECT" pasteExpansion="0" solderExpansion="0.4"><polygon points="4107.335 3096.957 4107.335 3093.02 4111.665 3093.02 4111.665 3096.957" stroke-width="0" /><circle c_padhole="1" cx="4109.5" cy="3094.988" r="0" stroke-width="0" /></g><g c_partid="part_pad" c_etype="pinpart" c_origin="4140.5,3089" layerid="1" number="1" net="GND" plated ="Y" c_shapetype="group" id="gge131" locked="0" c_rotation="0" c_width="4.567" c_height="5.7087" title="GND" c_shape="RECT" pasteExpansion="0" solderExpansion="0.4"><polygon points="4138.217 3086.146 4142.783 3086.146 4142.783 3091.854 4138.217 3091.854" stroke-width="0" /><circle c_padhole="1" cx="4140.5" cy="3089" r="0" stroke-width="0" /></g><g c_partid="part_pad" c_etype="pinpart" c_origin="4148.5,3089" layerid="1" number="2" net="+5V" plated ="Y" c_shapetype="group" id="gge136" locked="0" c_rotation="0" c_width="4.567" c_height="5.7087" title="+5V" c_shape="RECT" pasteExpansion="0" solderExpansion="0.4"><polygon points="4146.217 3086.146 4150.783 3086.146 4150.783 3091.854 4146.217 3091.854" stroke-width="0" /><circle c_padhole="1" cx="4148.5" cy="3089" r="0" stroke-width="0" /></g><g c_partid="part_pad" c_etype="pinpart" c_origin="4123,3089" layerid="1" number="1" net="SIG" plated ="Y" c_shapetype="group" id="gge148" locked="0" c_rotation="0" c_width="4.567" c_height="5.7087" title="SIG" c_shape="RECT" pasteExpansion="0" solderExpansion="0.4"><polygon points="4120.717 3086.146 4125.283 3086.146 4125.283 3091.854 4120.717 3091.854" stroke-width="0" /><circle c_padhole="1" cx="4123" cy="3089" r="0" stroke-width="0" /></g><g c_partid="part_pad" c_etype="pinpart" c_origin="4131,3089" layerid="1" number="2" net="GND" plated ="Y" c_shapetype="group" id="gge153" locked="0" c_rotation="0" c_width="4.567" c_height="5.7087" title="GND" c_shape="RECT" pasteExpansion="0" solderExpansion="0.4"><polygon points="4128.717 3086.146 4133.283 3086.146 4133.283 3091.854 4128.717 3091.854" stroke-width="0" /><circle c_padhole="1" cx="4131" cy="3089" r="0" stroke-width="0" /></g><g c_partid="part_pad" c_etype="pinpart" c_origin="4163,3092" layerid="1" number="1" net="F1_1" plated ="Y" c_shapetype="group" id="gge186" locked="0" c_rotation="0" c_width="11.811" c_height="11.0236" title="F1_1" c_shape="RECT" pasteExpansion="0" solderExpansion="0.4"><polygon points="4157.095 3086.488 4168.906 3086.488 4168.906 3097.512 4157.095 3097.512" stroke-width="0" /><circle c_padhole="1" cx="4163" cy="3092" r="0" stroke-width="0" /></g><g c_partid="part_pad" c_etype="pinpart" c_origin="4189,3092" layerid="1" number="2" net="F1_2" plated ="Y" c_shapetype="group" id="gge191" locked="0" c_rotation="0" c_width="11.811" c_height="11.0236" title="F1_2" c_shape="RECT" pasteExpansion="0" solderExpansion="0.4"><polygon points="4183.094 3086.488 4194.905 3086.488 4194.905 3097.512 4183.094 3097.512" stroke-width="0" /><circle c_padhole="1" cx="4189" cy="3092" r="0" stroke-width="0" /></g><g c_partid="part_pad" c_etype="pinpart" c_origin="4093.57,3071.95" layerid="1" number="1" net="C1/BTN1/LEFT" plated ="Y" c_shapetype="group" id="gge549" locked="0" c_rotation="270" c_width="3.937" c_height="7.4803" title="C1/BTN1/LEFT" c_shape="RECT" pasteExpansion="0" solderExpansion="0.4"><polygon points="4097.307 3069.976 4097.307 3073.916 4089.827 3073.916 4089.827 3069.976" stroke-width="0" /><circle c_padhole="1" cx="4093.567" cy="3071.946" r="0" stroke-width="0" /></g><g c_partid="part_pad" c_etype="pinpart" c_origin="4093.57,3082.19" layerid="1" number="2" net="C2/BTN2/RIGHT" plated ="Y" c_shapetype="group" id="gge554" locked="0" c_rotation="270" c_width="3.937" c_height="7.4803" title="C2/BTN2/RIGHT" c_shape="RECT" pasteExpansion="0" solderExpansion="0.4"><polygon points="4097.307 3080.216 4097.307 3084.156 4089.827 3084.156 4089.827 3080.216" stroke-width="0" /><circle c_padhole="1" cx="4093.567" cy="3082.186" r="0" stroke-width="0" /></g><g c_partid="part_pad" c_etype="pinpart" c_origin="4093.57,3092.39" layerid="1" number="3" net="+5V" plated ="Y" c_shapetype="group" id="gge559" locked="0" c_rotation="270" c_width="3.937" c_height="7.4803" title="+5V" c_shape="RECT" pasteExpansion="0" solderExpansion="0.4"><polygon points="4097.307 3090.416 4097.307 3094.356 4089.827 3094.356 4089.827 3090.416" stroke-width="0" /><circle c_padhole="1" cx="4093.567" cy="3092.386" r="0" stroke-width="0" /></g><g c_partid="part_pad" c_etype="pinpart" c_origin="4093.57,3102.59" layerid="1" number="4" net="GND" plated ="Y" c_shapetype="group" id="gge564" locked="0" c_rotation="270" c_width="3.937" c_height="7.4803" title="GND" c_shape="RECT" pasteExpansion="0" solderExpansion="0.4"><polygon points="4097.307 3100.616 4097.307 3104.556 4089.827 3104.556 4089.827 3100.616" stroke-width="0" /><circle c_padhole="1" cx="4093.567" cy="3102.586" r="0" stroke-width="0" /></g><g c_partid="part_pad" c_etype="pinpart" c_origin="4044.44,3071.95" layerid="1" number="5" net="R2_1" plated ="Y" c_shapetype="group" id="gge569" locked="0" c_rotation="270" c_width="3.937" c_height="7.4803" title="R2_1" c_shape="RECT" pasteExpansion="0" solderExpansion="0.4"><polygon points="4048.177 3069.976 4048.177 3073.916 4040.697 3073.916 4040.697 3069.976" stroke-width="0" /><circle c_padhole="1" cx="4044.437" cy="3071.946" r="0" stroke-width="0" /></g><g c_partid="part_pad" c_etype="pinpart" c_origin="4044.44,3082.19" layerid="1" number="6" net="SIG" plated ="Y" c_shapetype="group" id="gge574" locked="0" c_rotation="270" c_width="3.937" c_height="7.4803" title="SIG" c_shape="RECT" pasteExpansion="0" solderExpansion="0.4"><polygon points="4048.177 3080.216 4048.177 3084.156 4040.697 3084.156 4040.697 3080.216" stroke-width="0" /><circle c_padhole="1" cx="4044.437" cy="3082.186" r="0" stroke-width="0" /></g><g c_partid="part_pad" c_etype="pinpart" c_origin="4044.44,3092.39" layerid="1" number="7" net="C7/STROBE" plated ="Y" c_shapetype="group" id="gge579" locked="0" c_rotation="270" c_width="3.937" c_height="7.4803" title="C7/STROBE" c_shape="RECT" pasteExpansion="0" solderExpansion="0.4"><polygon points="4048.177 3090.416 4048.177 3094.356 4040.697 3094.356 4040.697 3090.416" stroke-width="0" /><circle c_padhole="1" cx="4044.437" cy="3092.386" r="0" stroke-width="0" /></g><g c_partid="part_pad" c_etype="pinpart" c_origin="4044.44,3102.59" layerid="1" number="8" net="C8/CLK" plated ="Y" c_shapetype="group" id="gge584" locked="0" c_rotation="270" c_width="3.937" c_height="7.4803" title="C8/CLK" c_shape="RECT" pasteExpansion="0" solderExpansion="0.4"><polygon points="4048.177 3100.616 4048.177 3104.556 4040.697 3104.556 4040.697 3100.616" stroke-width="0" /><circle c_padhole="1" cx="4044.437" cy="3102.586" r="0" stroke-width="0" /></g><g c_partid="part_pad" c_etype="pinpart" c_origin="4173,3119" layerid="11" number="3" net="F1_1" plated ="Y" c_shapetype="group" id="gge363" locked="0" c_rotation="90" c_width="8" c_height="6" title="F1_1" c_shape="OVAL" pasteExpansion="0" solderExpansion="0.4"><polyline points="4173 3120 4173 3118" stroke-width="6" /><circle c_padhole="1" cx="4173" cy="3119" r="1.4" stroke-width="0" /></g><g c_partid="part_pad" c_etype="pinpart" c_origin="4164.7,3119" layerid="11" number="3" net="0" plated ="Y" c_shapetype="group" id="gge371" locked="0" c_rotation="90" c_width="8" c_height="6" title="0" c_shape="OVAL" pasteExpansion="0" solderExpansion="0.4"><polyline points="4164.7 3120 4164.7 3118" stroke-width="6" /><circle c_padhole="1" cx="4164.7" cy="3119" r="1.4" stroke-width="0" /></g><g c_partid="part_pad" c_etype="pinpart" c_origin="4156.5,3119" layerid="11" number="3" net="+5V" plated ="Y" c_shapetype="group" id="gge348" locked="0" c_rotation="90" c_width="8" c_height="6" title="+5V" c_shape="OVAL" pasteExpansion="0" solderExpansion="0.4"><polyline points="4156.5 3120 4156.5 3118" stroke-width="6" /><circle c_padhole="1" cx="4156.5" cy="3119" r="1.4" stroke-width="0" /></g><g c_partid="part_pad" c_etype="pinpart" c_origin="4216,3110" layerid="11" number="1" net="GND" plated ="Y" c_shapetype="group" id="gge171" locked="0" c_rotation="90" c_width="14.5669" c_height="14.5669" title="GND" c_shape="RECT" pasteExpansion="0" solderExpansion="0.4"><polygon points="4208.72 3117.28 4208.72 3102.72 4223.28 3102.72 4223.28 3117.28" stroke-width="0" /><circle c_padhole="1" cx="4216" cy="3110" r="2.5591" stroke-width="0" /></g><g c_partid="part_pad" c_etype="pinpart" c_origin="4216,3092" layerid="11" number="2" net="F1_2" plated ="Y" c_shapetype="group" id="gge176" locked="0" c_rotation="90" c_width="14.5669" c_height="14.5669" title="F1_2" c_shape="ELLIPSE" pasteExpansion="0" solderExpansion="0.4"><ellipse cx="4216" cy="3092" rx="7.28345" ry="7.28345" stroke-width="0" /><circle c_padhole="1" cx="4216" cy="3092" r="2.5591" stroke-width="0" /></g><g c_partid="part_pad" c_etype="pinpart" c_origin="4186.5,3065" layerid="11" number="1" net="" plated ="Y" c_shapetype="group" id="gge208" locked="0" c_rotation="180" c_width="14.5669" c_height="14.5669" title="" c_shape="RECT" pasteExpansion="0" solderExpansion="0.4"><polygon points="4193.78 3072.28 4179.22 3072.28 4179.22 3057.72 4193.78 3057.72" stroke-width="0" /><circle c_padhole="1" cx="4186.5" cy="3065" r="2.5591" stroke-width="0" /></g><g c_partid="part_pad" c_etype="pinpart" c_origin="4168.5,3065" layerid="11" number="2" net="+5V" plated ="Y" c_shapetype="group" id="gge211" locked="0" c_rotation="180" c_width="14.5669" c_height="14.5669" title="+5V" c_shape="ELLIPSE" pasteExpansion="0" solderExpansion="0.4"><ellipse cx="4168.5" cy="3065" rx="7.28345" ry="7.28345" stroke-width="0" /><circle c_padhole="1" cx="4168.5" cy="3065" r="2.5591" stroke-width="0" /></g><g c_partid="part_pad" c_etype="pinpart" c_origin="4146.5,3065" layerid="11" number="1" net="GND" plated ="Y" c_shapetype="group" id="gge227" locked="0" c_rotation="180" c_width="14.5669" c_height="14.5669" title="GND" c_shape="RECT" pasteExpansion="0" solderExpansion="0.4"><polygon points="4153.78 3072.28 4139.22 3072.28 4139.22 3057.72 4153.78 3057.72" stroke-width="0" /><circle c_padhole="1" cx="4146.5" cy="3065" r="2.5591" stroke-width="0" /></g><g c_partid="part_pad" c_etype="pinpart" c_origin="4128.5,3065" layerid="11" number="2" net="SIG" plated ="Y" c_shapetype="group" id="gge230" locked="0" c_rotation="180" c_width="14.5669" c_height="14.5669" title="SIG" c_shape="ELLIPSE" pasteExpansion="0" solderExpansion="0.4"><ellipse cx="4128.5" cy="3065" rx="7.28345" ry="7.28345" stroke-width="0" /><circle c_padhole="1" cx="4128.5" cy="3065" r="2.5591" stroke-width="0" /></g><g c_partid="part_hole" c_etype="pinpart" c_shapetype="group" c_origin="4212.5,3067.5" layerid="11" id="gge1404" ><circle cx="4212.5" cy="3067.5" r="6.1"   stroke-width="0" /></g><g c_partid="part_hole" c_etype="pinpart" c_shapetype="group" c_origin="4130,3120" layerid="11" id="gge837" ><circle cx="4130" cy="3120" r="6.1"   stroke-width="0" /></g><polyline points="4133.184 3103.574 4138.381 3103.574 4138.381 3095.424 4133.184 3095.424" stroke-width="0.787" c_shapetype="line" stroke-linecap="round" fill="none" layerid="3" net="" id="gge57" /><polyline points="4128.727 3103.574 4123.53 3103.574 4123.53 3095.424 4128.727 3095.424" stroke-width="0.787" c_shapetype="line" stroke-linecap="round" fill="none" layerid="3" net="" id="gge58" /><polyline points="4106.35 3096.17 4106.35 3091.839 4112.65 3091.839 4112.65 3096.17" stroke-width="0.7874" c_shapetype="line" stroke-linecap="round" fill="none" layerid="3" net="S$67" id="gge124" /><polyline points="4106.35 3099.319 4106.35 3103.65 4110.287 3103.65 4112.65 3103.65 4112.65 3099.319" stroke-width="0.7874" c_shapetype="line" stroke-linecap="round" fill="none" layerid="3" net="S$69" id="gge125" /><polyline points="4146.684 3093.074 4151.881 3093.074 4151.881 3084.924 4146.684 3084.924" stroke-width="0.787" c_shapetype="line" stroke-linecap="round" fill="none" layerid="3" net="" id="gge141" /><polyline points="4142.227 3093.074 4137.03 3093.074 4137.03 3084.924 4142.227 3084.924" stroke-width="0.787" c_shapetype="line" stroke-linecap="round" fill="none" layerid="3" net="" id="gge142" /><polyline points="4129.184 3093.074 4134.381 3093.074 4134.381 3084.924 4129.184 3084.924" stroke-width="0.787" c_shapetype="line" stroke-linecap="round" fill="none" layerid="3" net="" id="gge158" /><polyline points="4124.727 3093.074 4119.53 3093.074 4119.53 3084.924 4124.727 3084.924" stroke-width="0.787" c_shapetype="line" stroke-linecap="round" fill="none" layerid="3" net="" id="gge159" /><polyline points="4228.811 3121.504 4228.803 3082.892" stroke-width="1" c_shapetype="line" stroke-linecap="round" fill="none" layerid="3" net="S$22" id="gge165" /><polyline points="4231.567 3121.898 4199.283 3121.898 4199.283 3082.922 4231.567 3082.922 4231.567 3121.898" stroke-width="1" c_shapetype="line" stroke-linecap="round" fill="none" layerid="3" net="" id="gge166" /><polyline points="4155.5 3085 4196.5 3085 4196.5 3099 4155.5 3099 4155.5 3085" stroke-width="1" c_shapetype="line" stroke-linecap="round" fill="none" layerid="3" net="" id="gge196" /><polyline points="4198.004 3052.189 4159.392 3052.197" stroke-width="1" c_shapetype="line" stroke-linecap="round" fill="none" layerid="3" net="S$22" id="gge202" /><polyline points="4198.398 3049.433 4198.398 3081.717 4159.422 3081.717 4159.422 3049.433 4198.398 3049.433" stroke-width="1" c_shapetype="line" stroke-linecap="round" fill="none" layerid="3" net="" id="gge203" /><polyline points="4158.004 3052.189 4119.392 3052.197" stroke-width="1" c_shapetype="line" stroke-linecap="round" fill="none" layerid="3" net="S$22" id="gge221" /><polyline points="4158.398 3049.433 4158.398 3081.717 4119.422 3081.717 4119.422 3049.433 4158.398 3049.433" stroke-width="1" c_shapetype="line" stroke-linecap="round" fill="none" layerid="3" net="" id="gge222" /><polyline points="4048.687 3121.826 4048.687 3053.166 4114.237 3053.166 4114.237 3067.066 4099.277 3067.066 4099.277 3107.936 4114.237 3107.936 4114.237 3121.826 4048.687 3121.826" stroke-width="0.4724" c_shapetype="line" stroke-linecap="round" fill="none" layerid="3" net="" id="gge593" /><g c_partid="part_pcbtext" c_origin="4130,3096.28" c_rotation="0" c_mirror="" id="gge43" layerid="3" c_shapetype="group" ><path c_fontSize="4.5" c_fontFamily="" c_text="R1" d="M 4129.9988 3090.1292 L 4129.9988 3094.4292 M 4129.9988 3090.1292 L 4131.8388 3090.1292 L 4132.4488 3090.3292 L 4132.6588 3090.5392 L 4132.8588 3090.9492 L 4132.8588 3091.3592 L 4132.6588 3091.7692 L 4132.4488 3091.9692 L 4131.8388 3092.1792 L 4129.9988 3092.1792 M 4131.4288 3092.1792 L 4132.8588 3094.4292 M 4134.2088 3090.9492 L 4134.6188 3090.7392 L 4135.2388 3090.1292 L 4135.2388 3094.4292" fill="none"  stroke-width="0.6" c_note="note_pre" /></g><g c_partid="part_pcbtext" c_origin="4130,3090.78" c_rotation="0" c_mirror="" id="gge45" layerid="3" c_shapetype="group" display="none"><path c_fontSize="4.5" c_fontFamily="" c_text="1K" d="M 4129.999 3085.449 L 4130.409 3085.239 L 4131.019 3084.629 L 4131.019 3088.929 M 4132.369 3084.629 L 4132.369 3088.929 M 4135.239 3084.629 L 4132.369 3087.489 M 4133.399 3086.469 L 4135.239 3088.929" fill="none"  stroke-width="0.6"  /></g><g c_partid="part_pcbtext" c_origin="4107.21,3097.89" c_rotation="90" c_mirror="" id="gge110" layerid="3" c_shapetype="group" ><path c_fontSize="4.5" c_fontFamily="" c_text="C3" d="M 4102.08 3094.824 L 4101.67 3095.034 L 4101.26 3095.444 L 4101.06 3095.844 L 4101.06 3096.664 L 4101.26 3097.074 L 4101.67 3097.484 L 4102.08 3097.694 L 4102.69 3097.894 L 4103.71 3097.894 L 4104.33 3097.694 L 4104.74 3097.484 L 4105.15 3097.074 L 4105.35 3096.664 L 4105.35 3095.844 L 4105.15 3095.444 L 4104.74 3095.034 L 4104.33 3094.824 M 4101.06 3093.064 L 4101.06 3090.814 L 4102.69 3092.044 L 4102.69 3091.434 L 4102.9 3091.024 L 4103.1 3090.814 L 4103.71 3090.614 L 4104.12 3090.614 L 4104.74 3090.814 L 4105.15 3091.224 L 4105.35 3091.844 L 4105.35 3092.454 L 4105.15 3093.064 L 4104.94 3093.274 L 4104.53 3093.474" fill="none"  stroke-width="0.6" c_note="note_pre" /></g><g c_partid="part_pcbtext" c_origin="4101.71,3097.89" c_rotation="90" c_mirror="" id="gge112" layerid="3" c_shapetype="group" display="none"><path c_fontSize="4.5" c_fontFamily="" c_text="10nF" d="M 4096.37 3097.894 L 4096.17 3097.484 L 4095.56 3096.874 L 4099.85 3096.874 M 4095.56 3094.294 L 4095.76 3094.904 L 4096.37 3095.314 L 4097.4 3095.524 L 4098.01 3095.524 L 4099.03 3095.314 L 4099.65 3094.904 L 4099.85 3094.294 L 4099.85 3093.884 L 4099.65 3093.274 L 4099.03 3092.864 L 4098.01 3092.654 L 4097.4 3092.654 L 4096.37 3092.864 L 4095.76 3093.274 L 4095.56 3093.884 L 4095.56 3094.294 M 4096.99 3091.304 L 4099.85 3091.304 M 4097.81 3091.304 L 4097.19 3090.694 L 4096.99 3090.284 L 4096.99 3089.674 L 4097.19 3089.264 L 4097.81 3089.054 L 4099.85 3089.054 M 4095.56 3087.704 L 4099.85 3087.704 M 4095.56 3087.704 L 4095.56 3085.044 M 4097.6 3087.704 L 4097.6 3086.074" fill="none"  stroke-width="0.6"  /></g><g c_partid="part_pcbtext" c_origin="4143.5,3085.78" c_rotation="0" c_mirror="" id="gge127" layerid="3" c_shapetype="group" ><path c_fontSize="4.5" c_fontFamily="" c_text="C1" d="M 4146.569 3080.6487 L 4146.359 3080.2387 L 4145.949 3079.8287 L 4145.549 3079.6287 L 4144.729 3079.6287 L 4144.319 3079.8287 L 4143.909 3080.2387 L 4143.699 3080.6487 L 4143.499 3081.2687 L 4143.499 3082.2887 L 4143.699 3082.8987 L 4143.909 3083.3087 L 4144.319 3083.7187 L 4144.729 3083.9287 L 4145.549 3083.9287 L 4145.949 3083.7187 L 4146.359 3083.3087 L 4146.569 3082.8987 M 4147.919 3080.4487 L 4148.329 3080.2387 L 4148.939 3079.6287 L 4148.939 3083.9287" fill="none"  stroke-width="0.6" c_note="note_pre" /></g><g c_partid="part_pcbtext" c_origin="4143.5,3080.28" c_rotation="0" c_mirror="" id="gge129" layerid="3" c_shapetype="group" display="none"><path c_fontSize="4.5" c_fontFamily="" c_text="4.7nF" d="M 4145.549 3074.129 L 4143.499 3076.989 L 4146.569 3076.989 M 4145.549 3074.129 L 4145.549 3078.429 M 4148.119 3077.399 L 4147.919 3077.609 L 4148.119 3077.809 L 4148.329 3077.609 L 4148.119 3077.399 M 4152.539 3074.129 L 4150.499 3078.429 M 4149.679 3074.129 L 4152.539 3074.129 M 4153.889 3075.559 L 4153.889 3078.429 M 4153.889 3076.379 L 4154.499 3075.769 L 4154.909 3075.559 L 4155.529 3075.559 L 4155.939 3075.769 L 4156.139 3076.379 L 4156.139 3078.429 M 4157.489 3074.129 L 4157.489 3078.429 M 4157.489 3074.129 L 4160.149 3074.129 M 4157.489 3076.179 L 4159.129 3076.179" fill="none"  stroke-width="0.6"  /></g><g c_partid="part_pcbtext" c_origin="4126,3085.78" c_rotation="0" c_mirror="" id="gge144" layerid="3" c_shapetype="group" ><path c_fontSize="4.5" c_fontFamily="" c_text="C2" d="M 4129.0688 3080.6487 L 4128.8588 3080.2387 L 4128.4488 3079.8287 L 4128.0488 3079.6287 L 4127.2288 3079.6287 L 4126.8188 3079.8287 L 4126.4088 3080.2387 L 4126.1988 3080.6487 L 4125.9988 3081.2687 L 4125.9988 3082.2887 L 4126.1988 3082.8987 L 4126.4088 3083.3087 L 4126.8188 3083.7187 L 4127.2288 3083.9287 L 4128.0488 3083.9287 L 4128.4488 3083.7187 L 4128.8588 3083.3087 L 4129.0688 3082.8987 M 4130.6188 3080.6487 L 4130.6188 3080.4487 L 4130.8288 3080.0387 L 4131.0288 3079.8287 L 4131.4388 3079.6287 L 4132.2588 3079.6287 L 4132.6688 3079.8287 L 4132.8688 3080.0387 L 4133.0788 3080.4487 L 4133.0788 3080.8587 L 4132.8688 3081.2687 L 4132.4588 3081.8787 L 4130.4188 3083.9287 L 4133.2788 3083.9287" fill="none"  stroke-width="0.6" c_note="note_pre" /></g><g c_partid="part_pcbtext" c_origin="4126,3080.28" c_rotation="0" c_mirror="" id="gge146" layerid="3" c_shapetype="group" display="none"><path c_fontSize="4.5" c_fontFamily="" c_text="4.7nF" d="M 4128.049 3074.129 L 4125.999 3076.989 L 4129.069 3076.989 M 4128.049 3074.129 L 4128.049 3078.429 M 4130.619 3077.399 L 4130.419 3077.609 L 4130.619 3077.809 L 4130.829 3077.609 L 4130.619 3077.399 M 4135.039 3074.129 L 4132.999 3078.429 M 4132.179 3074.129 L 4135.039 3074.129 M 4136.389 3075.559 L 4136.389 3078.429 M 4136.389 3076.379 L 4136.999 3075.769 L 4137.409 3075.559 L 4138.029 3075.559 L 4138.439 3075.769 L 4138.639 3076.379 L 4138.639 3078.429 M 4139.989 3074.129 L 4139.989 3078.429 M 4139.989 3074.129 L 4142.649 3074.129 M 4139.989 3076.179 L 4141.629 3076.179" fill="none"  stroke-width="0.6"  /></g><g c_partid="part_pcbtext" c_origin="4211.58,3129.05" c_rotation="0" c_mirror="" id="gge161" layerid="3" c_shapetype="group" ><path c_fontSize="4.5" c_fontFamily="" c_text="J1" d="M 4213.6301 3122.8998 L 4213.6301 3126.1698 L 4213.4201 3126.7798 L 4213.2201 3126.9898 L 4212.8101 3127.1898 L 4212.4001 3127.1898 L 4211.9901 3126.9898 L 4211.7801 3126.7798 L 4211.5801 3126.1698 L 4211.5801 3125.7598 M 4214.9801 3123.7198 L 4215.3801 3123.5098 L 4216.0001 3122.8998 L 4216.0001 3127.1898" fill="none"  stroke-width="0.6" c_note="note_pre" /></g><g c_partid="part_pcbtext" c_origin="4216,3126.54" c_rotation="180" c_mirror="" id="gge163" layerid="3" c_shapetype="group" display="none"><path c_fontSize="4.5" c_fontFamily="" c_text="KF127_2P_5.08" d="M 4216 3132.69 L 4216 3128.4 M 4213.14 3132.69 L 4216 3129.83 M 4214.98 3130.85 L 4213.14 3128.4 M 4211.79 3132.69 L 4211.79 3128.4 M 4211.79 3132.69 L 4209.13 3132.69 M 4211.79 3130.65 L 4210.15 3130.65 M 4207.78 3131.87 L 4207.37 3132.08 L 4206.75 3132.69 L 4206.75 3128.4 M 4205.2 3131.67 L 4205.2 3131.87 L 4205 3132.28 L 4204.79 3132.49 L 4204.38 3132.69 L 4203.56 3132.69 L 4203.15 3132.49 L 4202.95 3132.28 L 4202.75 3131.87 L 4202.75 3131.47 L 4202.95 3131.06 L 4203.36 3130.44 L 4205.4 3128.4 L 4202.54 3128.4 M 4198.33 3132.69 L 4200.37 3128.4 M 4201.19 3132.69 L 4198.33 3132.69 M 4196.98 3126.97 L 4193.3 3126.97 M 4191.74 3131.67 L 4191.74 3131.87 L 4191.54 3132.28 L 4191.33 3132.49 L 4190.92 3132.69 L 4190.1 3132.69 L 4189.7 3132.49 L 4189.49 3132.28 L 4189.29 3131.87 L 4189.29 3131.47 L 4189.49 3131.06 L 4189.9 3130.44 L 4191.95 3128.4 L 4189.08 3128.4 M 4187.73 3132.69 L 4187.73 3128.4 M 4187.73 3132.69 L 4185.89 3132.69 L 4185.28 3132.49 L 4185.07 3132.28 L 4184.87 3131.87 L 4184.87 3131.26 L 4185.07 3130.85 L 4185.28 3130.65 L 4185.89 3130.44 L 4187.73 3130.44 M 4183.52 3126.97 L 4179.84 3126.97 M 4176.03 3132.69 L 4178.08 3132.69 L 4178.28 3130.85 L 4178.08 3131.06 L 4177.46 3131.26 L 4176.85 3131.26 L 4176.24 3131.06 L 4175.83 3130.65 L 4175.62 3130.03 L 4175.62 3129.62 L 4175.83 3129.01 L 4176.24 3128.6 L 4176.85 3128.4 L 4177.46 3128.4 L 4178.08 3128.6 L 4178.28 3128.81 L 4178.49 3129.22 M 4174.07 3129.42 L 4174.27 3129.22 L 4174.07 3129.01 L 4173.86 3129.22 L 4174.07 3129.42 M 4171.29 3132.69 L 4171.9 3132.49 L 4172.31 3131.87 L 4172.51 3130.85 L 4172.51 3130.24 L 4172.31 3129.22 L 4171.9 3128.6 L 4171.29 3128.4 L 4170.88 3128.4 L 4170.26 3128.6 L 4169.85 3129.22 L 4169.65 3130.24 L 4169.65 3130.85 L 4169.85 3131.87 L 4170.26 3132.49 L 4170.88 3132.69 L 4171.29 3132.69 M 4167.28 3132.69 L 4167.89 3132.49 L 4168.1 3132.08 L 4168.1 3131.67 L 4167.89 3131.26 L 4167.48 3131.06 L 4166.66 3130.85 L 4166.05 3130.65 L 4165.64 3130.24 L 4165.44 3129.83 L 4165.44 3129.22 L 4165.64 3128.81 L 4165.85 3128.6 L 4166.46 3128.4 L 4167.28 3128.4 L 4167.89 3128.6 L 4168.1 3128.81 L 4168.3 3129.22 L 4168.3 3129.83 L 4168.1 3130.24 L 4167.69 3130.65 L 4167.07 3130.85 L 4166.25 3131.06 L 4165.85 3131.26 L 4165.64 3131.67 L 4165.64 3132.08 L 4165.85 3132.49 L 4166.46 3132.69 L 4167.28 3132.69" fill="none"  stroke-width="0.6"  /></g><g c_partid="part_pcbtext" c_origin="4203,3113" c_rotation="90" c_mirror="none" id="gge167" layerid="3" c_shapetype="group" ><path c_fontSize="3.937" c_fontFamily="" c_text="1" d="M 4201.5699 3113 L 4201.3899 3112.64 L 4200.8499 3112.11 L 4204.6099 3112.11" fill="none"  stroke-width="0.8"  /></g><g c_partid="part_pcbtext" c_origin="4204.15,3093.51" c_rotation="90" c_mirror="none" id="gge169" layerid="3" c_shapetype="group" ><path c_fontSize="3.937" c_fontFamily="" c_text="2" d="M 4202.9001 3093.3299 L 4202.7201 3093.3299 L 4202.3601 3093.1499 L 4202.1801 3092.9699 L 4202.0001 3092.6199 L 4202.0001 3091.8999 L 4202.1801 3091.5399 L 4202.3601 3091.3599 L 4202.7201 3091.1799 L 4203.0801 3091.1799 L 4203.4301 3091.3599 L 4203.9701 3091.7199 L 4205.7601 3093.5099 L 4205.7601 3090.9999" fill="none"  stroke-width="0.8"  /></g><g c_partid="part_pcbtext" c_origin="4176,3085.86" c_rotation="0" c_mirror="" id="gge182" layerid="3" c_shapetype="group" ><path c_fontSize="4.5" c_fontFamily="" c_text="F1" d="M 4176 3079.71 L 4176 3084 M 4176 3079.71 L 4178.66 3079.71 M 4176 3081.75 L 4177.64 3081.75 M 4180.01 3080.52 L 4180.42 3080.32 L 4181.03 3079.71 L 4181.03 3084" fill="none"  stroke-width="0.6" c_note="note_pre" /></g><g c_partid="part_pcbtext" c_origin="4176,3080.36" c_rotation="0" c_mirror="" id="gge184" layerid="3" c_shapetype="group" display="none"><path c_fontSize="4.5" c_fontFamily="" c_text="NO" d="M 4176 3074.21 L 4176 3078.5 M 4176 3074.21 L 4178.86 3078.5 M 4178.86 3074.21 L 4178.86 3078.5 M 4181.44 3074.21 L 4181.03 3074.41 L 4180.62 3074.82 L 4180.42 3075.23 L 4180.21 3075.84 L 4180.21 3076.86 L 4180.42 3077.48 L 4180.62 3077.89 L 4181.03 3078.3 L 4181.44 3078.5 L 4182.26 3078.5 L 4182.67 3078.3 L 4183.08 3077.89 L 4183.28 3077.48 L 4183.49 3076.86 L 4183.49 3075.84 L 4183.28 3075.23 L 4183.08 3074.82 L 4182.67 3074.41 L 4182.26 3074.21 L 4181.44 3074.21" fill="none"  stroke-width="0.6"  /></g><g c_partid="part_pcbtext" c_origin="4205.55,3071.26" c_rotation="90" c_mirror="" id="gge198" layerid="3" c_shapetype="group" ><path c_fontSize="4.5" c_fontFamily="" c_text="J2" d="M 4199.3998 3069.21 L 4202.6698 3069.21 L 4203.2798 3069.42 L 4203.4898 3069.62 L 4203.6898 3070.03 L 4203.6898 3070.44 L 4203.4898 3070.85 L 4203.2798 3071.06 L 4202.6698 3071.26 L 4202.2598 3071.26 M 4200.4198 3067.66 L 4200.2198 3067.66 L 4199.8098 3067.46 L 4199.5998 3067.25 L 4199.3998 3066.84 L 4199.3998 3066.02 L 4199.5998 3065.61 L 4199.8098 3065.41 L 4200.2198 3065.21 L 4200.6198 3065.21 L 4201.0298 3065.41 L 4201.6498 3065.82 L 4203.6898 3067.86 L 4203.6898 3065" fill="none"  stroke-width="0.6" c_note="note_pre" /></g><g c_partid="part_pcbtext" c_origin="4203.04,3065" c_rotation="270" c_mirror="" id="gge200" layerid="3" c_shapetype="group" display="none"><path c_fontSize="4.5" c_fontFamily="" c_text="KF127_2P_5.08" d="M 4209.19 3065 L 4204.9 3065 M 4209.19 3067.86 L 4206.33 3065 M 4207.35 3066.02 L 4204.9 3067.86 M 4209.19 3069.21 L 4204.9 3069.21 M 4209.19 3069.21 L 4209.19 3071.87 M 4207.15 3069.21 L 4207.15 3070.85 M 4208.37 3073.22 L 4208.58 3073.63 L 4209.19 3074.25 L 4204.9 3074.25 M 4208.17 3075.8 L 4208.37 3075.8 L 4208.78 3076 L 4208.99 3076.21 L 4209.19 3076.62 L 4209.19 3077.44 L 4208.99 3077.85 L 4208.78 3078.05 L 4208.37 3078.25 L 4207.97 3078.25 L 4207.56 3078.05 L 4206.94 3077.64 L 4204.9 3075.6 L 4204.9 3078.46 M 4209.19 3082.67 L 4204.9 3080.63 M 4209.19 3079.81 L 4209.19 3082.67 M 4203.47 3084.02 L 4203.47 3087.7 M 4208.17 3089.26 L 4208.37 3089.26 L 4208.78 3089.46 L 4208.99 3089.67 L 4209.19 3090.08 L 4209.19 3090.9 L 4208.99 3091.3 L 4208.78 3091.51 L 4208.37 3091.71 L 4207.97 3091.71 L 4207.56 3091.51 L 4206.94 3091.1 L 4204.9 3089.05 L 4204.9 3091.92 M 4209.19 3093.27 L 4204.9 3093.27 M 4209.19 3093.27 L 4209.19 3095.11 L 4208.99 3095.72 L 4208.78 3095.93 L 4208.37 3096.13 L 4207.76 3096.13 L 4207.35 3095.93 L 4207.15 3095.72 L 4206.94 3095.11 L 4206.94 3093.27 M 4203.47 3097.48 L 4203.47 3101.16 M 4209.19 3104.97 L 4209.19 3102.92 L 4207.35 3102.72 L 4207.56 3102.92 L 4207.76 3103.54 L 4207.76 3104.15 L 4207.56 3104.76 L 4207.15 3105.17 L 4206.53 3105.38 L 4206.12 3105.38 L 4205.51 3105.17 L 4205.1 3104.76 L 4204.9 3104.15 L 4204.9 3103.54 L 4205.1 3102.92 L 4205.31 3102.72 L 4205.72 3102.51 M 4205.92 3106.93 L 4205.72 3106.73 L 4205.51 3106.93 L 4205.72 3107.14 L 4205.92 3106.93 M 4209.19 3109.71 L 4208.99 3109.1 L 4208.37 3108.69 L 4207.35 3108.49 L 4206.74 3108.49 L 4205.72 3108.69 L 4205.1 3109.1 L 4204.9 3109.71 L 4204.9 3110.12 L 4205.1 3110.74 L 4205.72 3111.15 L 4206.74 3111.35 L 4207.35 3111.35 L 4208.37 3111.15 L 4208.99 3110.74 L 4209.19 3110.12 L 4209.19 3109.71 M 4209.19 3113.72 L 4208.99 3113.11 L 4208.58 3112.9 L 4208.17 3112.9 L 4207.76 3113.11 L 4207.56 3113.52 L 4207.35 3114.34 L 4207.15 3114.95 L 4206.74 3115.36 L 4206.33 3115.56 L 4205.72 3115.56 L 4205.31 3115.36 L 4205.1 3115.15 L 4204.9 3114.54 L 4204.9 3113.72 L 4205.1 3113.11 L 4205.31 3112.9 L 4205.72 3112.7 L 4206.33 3112.7 L 4206.74 3112.9 L 4207.15 3113.31 L 4207.35 3113.93 L 4207.56 3114.75 L 4207.76 3115.15 L 4208.17 3115.36 L 4208.58 3115.36 L 4208.99 3115.15 L 4209.19 3114.54 L 4209.19 3113.72" fill="none"  stroke-width="0.6"  /></g><g c_partid="part_pcbtext" c_origin="4189.5,3078" c_rotation="180" c_mirror="none" id="gge204" layerid="3" c_shapetype="group" ><path c_fontSize="3.937" c_fontFamily="" c_text="1" d="M 4189.5 3079.4301 L 4189.14 3079.6101 L 4188.61 3080.1501 L 4188.61 3076.3901" fill="none"  stroke-width="0.8"  /></g><g c_partid="part_pcbtext" c_origin="4169.5,3078" c_rotation="180" c_mirror="none" id="gge206" layerid="3" c_shapetype="group" ><path c_fontSize="3.937" c_fontFamily="" c_text="2" d="M 4169.3199 3079.2503 L 4169.3199 3079.4303 L 4169.1399 3079.7903 L 4168.9599 3079.9703 L 4168.6099 3080.1503 L 4167.8899 3080.1503 L 4167.5299 3079.9703 L 4167.3499 3079.7903 L 4167.1699 3079.4303 L 4167.1699 3079.0703 L 4167.3499 3078.7203 L 4167.7099 3078.1803 L 4169.4999 3076.3903 L 4166.9899 3076.3903" fill="none"  stroke-width="0.8"  /></g><g c_partid="part_pcbtext" c_origin="4165.55,3071.26" c_rotation="90" c_mirror="" id="gge217" layerid="3" c_shapetype="group" ><path c_fontSize="4.5" c_fontFamily="" c_text="J3" d="M 4159.3998 3069.21 L 4162.6698 3069.21 L 4163.2798 3069.42 L 4163.4898 3069.62 L 4163.6898 3070.03 L 4163.6898 3070.44 L 4163.4898 3070.85 L 4163.2798 3071.06 L 4162.6698 3071.26 L 4162.2598 3071.26 M 4159.3998 3067.46 L 4159.3998 3065.21 L 4161.0298 3066.43 L 4161.0298 3065.82 L 4161.2398 3065.41 L 4161.4398 3065.21 L 4162.0598 3065 L 4162.4698 3065 L 4163.0798 3065.21 L 4163.4898 3065.61 L 4163.6898 3066.23 L 4163.6898 3066.84 L 4163.4898 3067.46 L 4163.2798 3067.66 L 4162.8698 3067.86" fill="none"  stroke-width="0.6" c_note="note_pre" /></g><g c_partid="part_pcbtext" c_origin="4163.04,3065" c_rotation="270" c_mirror="" id="gge219" layerid="3" c_shapetype="group" display="none"><path c_fontSize="4.5" c_fontFamily="" c_text="KF127_2P_5.08" d="M 4169.19 3065 L 4164.9 3065 M 4169.19 3067.86 L 4166.33 3065 M 4167.35 3066.02 L 4164.9 3067.86 M 4169.19 3069.21 L 4164.9 3069.21 M 4169.19 3069.21 L 4169.19 3071.87 M 4167.15 3069.21 L 4167.15 3070.85 M 4168.37 3073.22 L 4168.58 3073.63 L 4169.19 3074.25 L 4164.9 3074.25 M 4168.17 3075.8 L 4168.37 3075.8 L 4168.78 3076 L 4168.99 3076.21 L 4169.19 3076.62 L 4169.19 3077.44 L 4168.99 3077.85 L 4168.78 3078.05 L 4168.37 3078.25 L 4167.97 3078.25 L 4167.56 3078.05 L 4166.94 3077.64 L 4164.9 3075.6 L 4164.9 3078.46 M 4169.19 3082.67 L 4164.9 3080.63 M 4169.19 3079.81 L 4169.19 3082.67 M 4163.47 3084.02 L 4163.47 3087.7 M 4168.17 3089.26 L 4168.37 3089.26 L 4168.78 3089.46 L 4168.99 3089.67 L 4169.19 3090.08 L 4169.19 3090.9 L 4168.99 3091.3 L 4168.78 3091.51 L 4168.37 3091.71 L 4167.97 3091.71 L 4167.56 3091.51 L 4166.94 3091.1 L 4164.9 3089.05 L 4164.9 3091.92 M 4169.19 3093.27 L 4164.9 3093.27 M 4169.19 3093.27 L 4169.19 3095.11 L 4168.99 3095.72 L 4168.78 3095.93 L 4168.37 3096.13 L 4167.76 3096.13 L 4167.35 3095.93 L 4167.15 3095.72 L 4166.94 3095.11 L 4166.94 3093.27 M 4163.47 3097.48 L 4163.47 3101.16 M 4169.19 3104.97 L 4169.19 3102.92 L 4167.35 3102.72 L 4167.56 3102.92 L 4167.76 3103.54 L 4167.76 3104.15 L 4167.56 3104.76 L 4167.15 3105.17 L 4166.53 3105.38 L 4166.12 3105.38 L 4165.51 3105.17 L 4165.1 3104.76 L 4164.9 3104.15 L 4164.9 3103.54 L 4165.1 3102.92 L 4165.31 3102.72 L 4165.72 3102.51 M 4165.92 3106.93 L 4165.72 3106.73 L 4165.51 3106.93 L 4165.72 3107.14 L 4165.92 3106.93 M 4169.19 3109.71 L 4168.99 3109.1 L 4168.37 3108.69 L 4167.35 3108.49 L 4166.74 3108.49 L 4165.72 3108.69 L 4165.1 3109.1 L 4164.9 3109.71 L 4164.9 3110.12 L 4165.1 3110.74 L 4165.72 3111.15 L 4166.74 3111.35 L 4167.35 3111.35 L 4168.37 3111.15 L 4168.99 3110.74 L 4169.19 3110.12 L 4169.19 3109.71 M 4169.19 3113.72 L 4168.99 3113.11 L 4168.58 3112.9 L 4168.17 3112.9 L 4167.76 3113.11 L 4167.56 3113.52 L 4167.35 3114.34 L 4167.15 3114.95 L 4166.74 3115.36 L 4166.33 3115.56 L 4165.72 3115.56 L 4165.31 3115.36 L 4165.1 3115.15 L 4164.9 3114.54 L 4164.9 3113.72 L 4165.1 3113.11 L 4165.31 3112.9 L 4165.72 3112.7 L 4166.33 3112.7 L 4166.74 3112.9 L 4167.15 3113.31 L 4167.35 3113.93 L 4167.56 3114.75 L 4167.76 3115.15 L 4168.17 3115.36 L 4168.58 3115.36 L 4168.99 3115.15 L 4169.19 3114.54 L 4169.19 3113.72" fill="none"  stroke-width="0.6"  /></g><g c_partid="part_pcbtext" c_origin="4149.5,3078" c_rotation="180" c_mirror="none" id="gge223" layerid="3" c_shapetype="group" ><path c_fontSize="3.937" c_fontFamily="" c_text="1" d="M 4149.5 3079.4301 L 4149.14 3079.6101 L 4148.61 3080.1501 L 4148.61 3076.3901" fill="none"  stroke-width="0.8"  /></g><g c_partid="part_pcbtext" c_origin="4129.5,3078" c_rotation="180" c_mirror="none" id="gge225" layerid="3" c_shapetype="group" ><path c_fontSize="3.937" c_fontFamily="" c_text="2" d="M 4129.3199 3079.2503 L 4129.3199 3079.4303 L 4129.1399 3079.7903 L 4128.9599 3079.9703 L 4128.6099 3080.1503 L 4127.8899 3080.1503 L 4127.5299 3079.9703 L 4127.3499 3079.7903 L 4127.1699 3079.4303 L 4127.1699 3079.0703 L 4127.3499 3078.7203 L 4127.7099 3078.1803 L 4129.4999 3076.3903 L 4126.9899 3076.3903" fill="none"  stroke-width="0.8"  /></g><g c_partid="part_pcbtext" c_origin="4103.96,3080" c_rotation="90" c_mirror="" id="gge589" layerid="3" c_shapetype="group" ><path c_fontSize="4.5" c_fontFamily="" c_text="IC2" d="M 4101.5 3080 L 4105.8 3080 M 4102.52 3075.58 L 4102.12 3075.78 L 4101.71 3076.19 L 4101.5 3076.6 L 4101.5 3077.42 L 4101.71 3077.83 L 4102.12 3078.24 L 4102.52 3078.44 L 4103.14 3078.65 L 4104.16 3078.65 L 4104.77 3078.44 L 4105.18 3078.24 L 4105.59 3077.83 L 4105.8 3077.42 L 4105.8 3076.6 L 4105.59 3076.19 L 4105.18 3075.78 L 4104.77 3075.58 M 4102.52 3074.03 L 4102.32 3074.03 L 4101.91 3073.82 L 4101.71 3073.62 L 4101.5 3073.21 L 4101.5 3072.39 L 4101.71 3071.98 L 4101.91 3071.78 L 4102.32 3071.57 L 4102.73 3071.57 L 4103.14 3071.78 L 4103.75 3072.18 L 4105.8 3074.23 L 4105.8 3071.37" fill="none"  stroke-width="0.6" c_note="note_pre" /></g><g c_partid="part_pcbtext" c_origin="4118.88,3087.15" c_rotation="270" c_mirror="" id="gge591" layerid="3" c_shapetype="group" display="none"><path c_fontSize="4.5" c_fontFamily="" c_text="TR-72D" d="M 4125.027 3088.576 L 4120.737 3088.576 M 4125.027 3087.146 L 4125.027 3090.006 M 4125.027 3091.356 L 4120.737 3091.356 M 4125.027 3091.356 L 4125.027 3093.196 L 4124.827 3093.816 L 4124.627 3094.016 L 4124.217 3094.226 L 4123.807 3094.226 L 4123.397 3094.016 L 4123.187 3093.816 L 4122.987 3093.196 L 4122.987 3091.356 M 4122.987 3092.796 L 4120.737 3094.226 M 4122.577 3095.576 L 4122.577 3099.256 M 4125.027 3103.466 L 4120.737 3101.426 M 4125.027 3100.606 L 4125.027 3103.466 M 4124.007 3105.026 L 4124.217 3105.026 L 4124.627 3105.226 L 4124.827 3105.436 L 4125.027 3105.846 L 4125.027 3106.656 L 4124.827 3107.066 L 4124.627 3107.276 L 4124.217 3107.476 L 4123.807 3107.476 L 4123.397 3107.276 L 4122.777 3106.866 L 4120.737 3104.816 L 4120.737 3107.686 M 4125.027 3109.036 L 4120.737 3109.036 M 4125.027 3109.036 L 4125.027 3110.466 L 4124.827 3111.076 L 4124.417 3111.486 L 4124.007 3111.696 L 4123.397 3111.896 L 4122.377 3111.896 L 4121.757 3111.696 L 4121.347 3111.486 L 4120.937 3111.076 L 4120.737 3110.466 L 4120.737 3109.036" fill="none"  stroke-width="0.6"  /></g><polyline points="4038.7 3047.4 4233.6 3047.4 4233.6 3129.2 4038.7 3129.2 4038.7 3047.4" stroke-width="1" c_shapetype="line" stroke-linecap="round" fill="none" layerid="10" net="" id="gge1409" /></g></svg>