<svg xmlns="http://www.w3.org/2000/svg" xmlns:xlink="http://www.w3.org/1999/xlink" width="38.481mm" height="24.46mm" viewBox="4040 3040 151.5 96.3"><title></title><style type="text/css">
*[layerid="1"] {stroke:#FF0000;fill:#FF0000;}
*[layerid="2"] {stroke:#0000FF;fill:#0000FF;}
*[layerid="3"] {stroke:#FFCC00;fill:#FFCC00;}
*[layerid="4"] {stroke:#66CC33;fill:#66CC33;}
*[layerid="5"] {stroke:#808080;fill:#808080;}
*[layerid="6"] {stroke:#800000;fill:#800000;}
*[layerid="7"] {stroke:#800080;fill:#800080;stroke-opacity:0.7;fill-opacity:0.7;}
*[layerid="8"] {stroke:#AA00FF;fill:#AA00FF;stroke-opacity:0.7;fill-opacity:0.7;}
*[layerid="9"] {stroke:#6464FF;fill:#6464FF;}
*[layerid="10"] {stroke:#FF00FF;fill:#FF00FF;}
*[layerid="11"] {stroke:#C0C0C0;fill:#C0C0C0;}
*[layerid="12"] {stroke:#FFFFFF;fill:#FFFFFF;}
*[layerid="13"] {stroke:#33CC99;fill:#33CC99;}
*[layerid="14"] {stroke:#5555FF;fill:#5555FF;}
*[layerid="15"] {stroke:#F022F0;fill:#F022F0;}
*[layerid="21"] {stroke:#999966;fill:#999966;}
*[layerid="22"] {stroke:#008000;fill:#008000;}
*[layerid="23"] {stroke:#00FF00;fill:#00FF00;}
*[layerid="24"] {stroke:#BC8E00;fill:#BC8E00;}
*[layerid="25"] {stroke:#70DBFA;fill:#70DBFA;}
*[layerid="26"] {stroke:#00CC66;fill:#00CC66;}
*[layerid="27"] {stroke:#9966FF;fill:#9966FF;}
*[layerid="28"] {stroke:#800080;fill:#800080;}
*[layerid="29"] {stroke:#008080;fill:#008080;}
*[layerid="30"] {stroke:#15935F;fill:#15935F;}
*[layerid="31"] {stroke:#000080;fill:#000080;}
*[layerid="32"] {stroke:#00B400;fill:#00B400;}
*[layerid="33"] {stroke:#2E4756;fill:#2E4756;}
*[layerid="34"] {stroke:#99842F;fill:#99842F;}
*[layerid="35"] {stroke:#FFFFAA;fill:#FFFFAA;}
*[layerid="36"] {stroke:#99842F;fill:#99842F;}
*[layerid="37"] {stroke:#2E4756;fill:#2E4756;}
*[layerid="38"] {stroke:#3535FF;fill:#3535FF;}
*[layerid="39"] {stroke:#8000BC;fill:#8000BC;}
*[layerid="40"] {stroke:#43AE5F;fill:#43AE5F;}
*[layerid="41"] {stroke:#C3ECCE;fill:#C3ECCE;}
*[layerid="42"] {stroke:#728978;fill:#728978;}
*[layerid="43"] {stroke:#39503F;fill:#39503F;}
*[layerid="44"] {stroke:#0C715D;fill:#0C715D;}
*[layerid="45"] {stroke:#5A8A80;fill:#5A8A80;}
*[layerid="46"] {stroke:#2B937E;fill:#2B937E;}
*[layerid="47"] {stroke:#23999D;fill:#23999D;}
*[layerid="48"] {stroke:#45B4E3;fill:#45B4E3;}
*[layerid="49"] {stroke:#215DA1;fill:#215DA1;}
*[layerid="50"] {stroke:#4564D7;fill:#4564D7;}
*[layerid="51"] {stroke:#6969E9;fill:#6969E9;}
*[layerid="52"] {stroke:#9069E9;fill:#9069E9;}
*[fill="none"] {fill: none;}
*[stroke="none"] {stroke: none;}
path, polyline, polygon, line {stroke-linecap:round;}
g[c_partid="part_pad"][layerid="1"] ellipse:not([c_padid]) {fill:#FF0000;}
g[c_partid="part_pad"][layerid="1"]  polygon:not([c_padid]) {fill:#FF0000;}
g[c_partid="part_pad"][layerid="1"]  polyline:not([c_padid]) {stroke:#FF0000;}
g[c_partid="part_pad"][layerid="1"]  circle {fill:#FF0000;}
g[c_partid="part_pad"][layerid="2"]  ellipse:not([c_padid]) {fill:#0000FF;}
g[c_partid="part_pad"][layerid="2"]  polygon:not([c_padid]) {fill:#0000FF;}
g[c_partid="part_pad"][layerid="2"]  polyline:not([c_padid]) {stroke:#0000FF;}
g[c_partid="part_pad"][layerid="2"]  circle {fill:#0000FF;}
g[c_partid="part_pad"][layerid="11"]  ellipse:not([c_padid]) {fill:#C0C0C0;}
g[c_partid="part_pad"][layerid="11"]  polygon:not([c_padid]) {fill:#C0C0C0;}
g[c_partid="part_pad"][layerid="11"]  polyline:not([c_padid]) {stroke:#C0C0C0;}
g[c_partid="part_pad"][layerid="11"]  circle {fill:#C0C0C0;}
g[c_partid="part_pad"][layerid] > circle[c_padhole] {fill: #222222;}
g[c_partid="part_pad"][layerid] > polyline[c_padhole] {stroke:#222222;}
g[c_partid="part_via"][layerid] > * + circle {fill: #222222;}
g[c_partid="part_pad"] > polygon[c_padid] {stroke-linejoin: miter;stroke-miterlimit: 100;}
g[c_partid="part_hole"] > circle {fill: #222222;}path, polyline, polygon {stroke-linejoin:round;}
rect, circle, ellipse, polyline, line, polygon, path {shape-rendering:crispEdges;}
</style>
<rect x="4040" y="3040" width="151.5" height="96.3" fill="#000000" stroke="none"/><g id="g1" cpara="package`IQRF_KON-SIM-01`" c_transformList="" importFlag="0" xmlns="http://www.w3.org/2000/svg"><polyline points="4073.488 3116 4073.5 3116" stroke-width="2" c_shapetype="line" stroke-linecap="round" fill="none" layerid="1" net="GND" id="gge425" /><polyline points="4090.814 3057.437 4096.877 3063.5 4107.5 3063.5 4119 3052 4157 3052 4165 3060" stroke-width="2" c_shapetype="line" stroke-linecap="round" fill="none" layerid="1" net="SCL" id="gge411" /><polyline points="4080.814 3057.437 4090.877 3067.5 4115 3067.5 4127.5 3055 4150 3055 4155 3060" stroke-width="2" c_shapetype="line" stroke-linecap="round" fill="none" layerid="1" net="SDA" id="gge413" /><polyline points="4070.614 3104.567 4073.488 3107.441 4073.488 3116" stroke-width="2" c_shapetype="line" stroke-linecap="round" fill="none" layerid="1" net="GND" id="gge430" /><polyline points="4073.488 3116 4073.488 3119.488 4074.5 3120.5 4119 3120.5 4132.5 3107 4140 3107" stroke-width="2" c_shapetype="line" stroke-linecap="round" fill="none" layerid="1" net="GND" id="gge431" /><polyline points="4070.614 3104.567 4070.614 3089.686 4080.5 3080 4114.5 3080 4134.5 3060" stroke-width="2" c_shapetype="line" stroke-linecap="round" fill="none" layerid="1" net="GND" id="gge436" /><polyline points="4080.814 3104.567 4079 3106.381 4079 3116" stroke-width="2" c_shapetype="line" stroke-linecap="round" fill="none" layerid="1" net="+5V" id="gge438" /><polyline points="4144.5 3060 4137.5 3067 4134.5 3067 4115 3086.5 4085 3086.5 4080.81 3090.69 4080.81 3104.57" stroke-width="2" c_shapetype="line" stroke-linecap="round" fill="none" layerid="1" net="+5V" id="gge471" /><g c_partid="part_pad" c_etype="pinpart" c_origin="4073.49,3116" layerid="1" number="1" net="GND" plated ="Y" c_shapetype="group" id="gge7" locked="0" c_rotation="0" c_width="3.937" c_height="4.3307" title="GND" c_shape="RECT" pasteExpansion="0" solderExpansion="0.4"><polygon points="4071.519 3113.835 4075.456 3113.835 4075.456 3118.165 4071.519 3118.165" stroke-width="0" /><circle c_padhole="1" cx="4073.488" cy="3116" r="0" stroke-width="0" /></g><g c_partid="part_pad" c_etype="pinpart" c_origin="4079,3116" layerid="1" number="2" net="+5V" plated ="Y" c_shapetype="group" id="gge12" locked="0" c_rotation="0" c_width="3.937" c_height="4.3307" title="+5V" c_shape="RECT" pasteExpansion="0" solderExpansion="0.4"><polygon points="4077.031 3113.835 4080.968 3113.835 4080.968 3118.165 4077.031 3118.165" stroke-width="0" /><circle c_padhole="1" cx="4079" cy="3116" r="0" stroke-width="0" /></g><g c_partid="part_pad" c_etype="pinpart" c_origin="4101.25,3104.57" layerid="1" number="1" net="C1/BTN1/LEFT" plated ="Y" c_shapetype="group" id="gge180" locked="0" c_rotation="180" c_width="3.937" c_height="7.4803" title="C1/BTN1/LEFT" c_shape="RECT" pasteExpansion="0" solderExpansion="0.4"><polygon points="4103.224 3108.307 4099.284 3108.307 4099.284 3100.827 4103.224 3100.827" stroke-width="0" /><circle c_padhole="1" cx="4101.254" cy="3104.567" r="0" stroke-width="0" /></g><g c_partid="part_pad" c_etype="pinpart" c_origin="4091.01,3104.57" layerid="1" number="2" net="C2/BTN2/RIGHT" plated ="Y" c_shapetype="group" id="gge185" locked="0" c_rotation="180" c_width="3.937" c_height="7.4803" title="C2/BTN2/RIGHT" c_shape="RECT" pasteExpansion="0" solderExpansion="0.4"><polygon points="4092.984 3108.307 4089.044 3108.307 4089.044 3100.827 4092.984 3100.827" stroke-width="0" /><circle c_padhole="1" cx="4091.014" cy="3104.567" r="0" stroke-width="0" /></g><g c_partid="part_pad" c_etype="pinpart" c_origin="4080.81,3104.57" layerid="1" number="3" net="+5V" plated ="Y" c_shapetype="group" id="gge190" locked="0" c_rotation="180" c_width="3.937" c_height="7.4803" title="+5V" c_shape="RECT" pasteExpansion="0" solderExpansion="0.4"><polygon points="4082.784 3108.307 4078.844 3108.307 4078.844 3100.827 4082.784 3100.827" stroke-width="0" /><circle c_padhole="1" cx="4080.814" cy="3104.567" r="0" stroke-width="0" /></g><g c_partid="part_pad" c_etype="pinpart" c_origin="4070.61,3104.57" layerid="1" number="4" net="GND" plated ="Y" c_shapetype="group" id="gge195" locked="0" c_rotation="180" c_width="3.937" c_height="7.4803" title="GND" c_shape="RECT" pasteExpansion="0" solderExpansion="0.4"><polygon points="4072.584 3108.307 4068.644 3108.307 4068.644 3100.827 4072.584 3100.827" stroke-width="0" /><circle c_padhole="1" cx="4070.614" cy="3104.567" r="0" stroke-width="0" /></g><g c_partid="part_pad" c_etype="pinpart" c_origin="4101.25,3057.44" layerid="1" number="5" net="R2_1" plated ="Y" c_shapetype="group" id="gge200" locked="0" c_rotation="180" c_width="3.937" c_height="7.4803" title="R2_1" c_shape="RECT" pasteExpansion="0" solderExpansion="0.4"><polygon points="4103.224 3061.177 4099.284 3061.177 4099.284 3053.697 4103.224 3053.697" stroke-width="0" /><circle c_padhole="1" cx="4101.254" cy="3057.437" r="0" stroke-width="0" /></g><g c_partid="part_pad" c_etype="pinpart" c_origin="4091.01,3057.44" layerid="1" number="6" net="SCL" plated ="Y" c_shapetype="group" id="gge205" locked="0" c_rotation="180" c_width="3.937" c_height="7.4803" title="SCL" c_shape="RECT" pasteExpansion="0" solderExpansion="0.4"><polygon points="4092.984 3061.177 4089.044 3061.177 4089.044 3053.697 4092.984 3053.697" stroke-width="0" /><circle c_padhole="1" cx="4091.014" cy="3057.437" r="0" stroke-width="0" /></g><g c_partid="part_pad" c_etype="pinpart" c_origin="4080.81,3057.44" layerid="1" number="7" net="SDA" plated ="Y" c_shapetype="group" id="gge210" locked="0" c_rotation="180" c_width="3.937" c_height="7.4803" title="SDA" c_shape="RECT" pasteExpansion="0" solderExpansion="0.4"><polygon points="4082.784 3061.177 4078.844 3061.177 4078.844 3053.697 4082.784 3053.697" stroke-width="0" /><circle c_padhole="1" cx="4080.814" cy="3057.437" r="0" stroke-width="0" /></g><g c_partid="part_pad" c_etype="pinpart" c_origin="4070.61,3057.44" layerid="1" number="8" net="C8/CLK" plated ="Y" c_shapetype="group" id="gge215" locked="0" c_rotation="180" c_width="3.937" c_height="7.4803" title="C8/CLK" c_shape="RECT" pasteExpansion="0" solderExpansion="0.4"><polygon points="4072.584 3061.177 4068.644 3061.177 4068.644 3053.697 4072.584 3053.697" stroke-width="0" /><circle c_padhole="1" cx="4070.614" cy="3057.437" r="0" stroke-width="0" /></g><g c_partid="part_pad" c_etype="pinpart" c_origin="4175,3101" layerid="11" number="3" net="5V-" plated ="Y" c_shapetype="group" id="gge348" locked="0" c_rotation="180" c_width="8" c_height="6" title="5V-" c_shape="OVAL" pasteExpansion="0" solderExpansion="0.4"><polyline points="4176 3101 4174 3101" stroke-width="6" /><circle c_padhole="1" cx="4175" cy="3101" r="1.4" stroke-width="0" /></g><g c_partid="part_pad" c_etype="pinpart" c_origin="4175,3084.5" layerid="11" number="3" net="+5V" plated ="Y" c_shapetype="group" id="gge363" locked="0" c_rotation="180" c_width="8" c_height="6" title="+5V" c_shape="OVAL" pasteExpansion="0" solderExpansion="0.4"><polyline points="4176 3084.5 4174 3084.5" stroke-width="6" /><circle c_padhole="1" cx="4175" cy="3084.5" r="1.4" stroke-width="0" /></g><g c_partid="part_pad" c_etype="pinpart" c_origin="4175,3092.8" layerid="11" number="3" net="0" plated ="Y" c_shapetype="group" id="gge371" locked="0" c_rotation="180" c_width="8" c_height="6" title="0" c_shape="OVAL" pasteExpansion="0" solderExpansion="0.4"><polyline points="4176 3092.8 4174 3092.8" stroke-width="6" /><circle c_padhole="1" cx="4175" cy="3092.8" r="1.4" stroke-width="0" /></g><g c_partid="part_pad" c_etype="pinpart" c_origin="4134.5,3060" layerid="11" number="4" net="GND" plated ="Y" c_shapetype="group" id="gge377" locked="0" c_rotation="180" c_width="6" c_height="6" title="GND" c_shape="OVAL" pasteExpansion="0" solderExpansion="0.4"><polyline points="4134.5 3060 4134.5 3060" stroke-width="6" /><circle c_padhole="1" cx="4134.5" cy="3060" r="1.4" stroke-width="0" /></g><g c_partid="part_pad" c_etype="pinpart" c_origin="4144.5,3060" layerid="11" number="4" net="+5V" plated ="Y" c_shapetype="group" id="gge389" locked="0" c_rotation="180" c_width="6" c_height="6" title="+5V" c_shape="OVAL" pasteExpansion="0" solderExpansion="0.4"><polyline points="4144.5 3060 4144.5 3060" stroke-width="6" /><circle c_padhole="1" cx="4144.5" cy="3060" r="1.4" stroke-width="0" /></g><g c_partid="part_pad" c_etype="pinpart" c_origin="4155,3060" layerid="11" number="4" net="SDA" plated ="Y" c_shapetype="group" id="gge395" locked="0" c_rotation="180" c_width="6" c_height="6" title="SDA" c_shape="OVAL" pasteExpansion="0" solderExpansion="0.4"><polyline points="4155 3060 4155 3060" stroke-width="6" /><circle c_padhole="1" cx="4155" cy="3060" r="1.4" stroke-width="0" /></g><g c_partid="part_pad" c_etype="pinpart" c_origin="4165,3060" layerid="11" number="4" net="SCL" plated ="Y" c_shapetype="group" id="gge401" locked="0" c_rotation="180" c_width="6" c_height="6" title="SCL" c_shape="OVAL" pasteExpansion="0" solderExpansion="0.4"><polyline points="4165 3060 4165 3060" stroke-width="6" /><circle c_padhole="1" cx="4165" cy="3060" r="1.4" stroke-width="0" /></g><g c_partid="part_pad" c_etype="pinpart" c_origin="4140,3107" layerid="11" number="1" net="GND" plated ="Y" c_shapetype="group" id="gge88" locked="0" c_rotation="0" c_width="14.5669" c_height="14.5669" title="GND" c_shape="RECT" pasteExpansion="0" solderExpansion="0.4"><polygon points="4132.72 3099.72 4147.28 3099.72 4147.28 3114.28 4132.72 3114.28" stroke-width="0" /><circle c_padhole="1" cx="4140" cy="3107" r="2.5591" stroke-width="0" /></g><g c_partid="part_pad" c_etype="pinpart" c_origin="4158,3107" layerid="11" number="2" net="5V" plated ="Y" c_shapetype="group" id="gge91" locked="0" c_rotation="0" c_width="14.5669" c_height="14.5669" title="5V" c_shape="ELLIPSE" pasteExpansion="0" solderExpansion="0.4"><ellipse cx="4158" cy="3107" rx="7.28345" ry="7.28345" stroke-width="0" /><circle c_padhole="1" cx="4158" cy="3107" r="2.5591" stroke-width="0" /></g><g c_partid="part_hole" c_etype="pinpart" c_shapetype="group" c_origin="4058.5,3056" layerid="11" id="gge226" ><circle cx="4058.5" cy="3056" r="2.4"   stroke-width="0" /></g><g c_partid="part_hole" c_etype="pinpart" c_shapetype="group" c_origin="4113,3110.5" layerid="11" id="gge230" ><circle cx="4113" cy="3110.5" r="3.35"   stroke-width="0" /></g><polyline points="4077.818 3112.85 4082.149 3112.85 4082.149 3119.15 4077.818 3119.15" stroke-width="0.7874" c_shapetype="line" stroke-linecap="round" fill="none" layerid="3" net="S$67" id="gge17" /><polyline points="4074.669 3112.85 4070.338 3112.85 4070.338 3116.787 4070.338 3119.15 4074.669 3119.15" stroke-width="0.7874" c_shapetype="line" stroke-linecap="round" fill="none" layerid="3" net="S$69" id="gge18" /><polyline points="4128.496 3119.811 4167.108 3119.803" stroke-width="1" c_shapetype="line" stroke-linecap="round" fill="none" layerid="3" net="S$22" id="gge82" /><polyline points="4128.102 3122.567 4128.102 3090.283 4167.078 3090.283 4167.078 3122.567 4128.102 3122.567" stroke-width="1" c_shapetype="line" stroke-linecap="round" fill="none" layerid="3" net="" id="gge83" /><polyline points="4051.174 3051.687 4119.834 3051.687 4119.834 3117.237 4105.934 3117.237 4105.934 3102.277 4065.064 3102.277 4065.064 3117.237 4051.174 3117.237 4051.174 3051.687" stroke-width="0.4724" c_shapetype="line" stroke-linecap="round" fill="none" layerid="3" net="" id="gge224" /><g c_partid="part_pcbtext" c_origin="4066,3128.15" c_rotation="0" c_mirror="" id="gge3" layerid="3" c_shapetype="group" ><path c_fontSize="4.5" c_fontFamily="" c_text="C3" d="M 4069.07 3123.0199 L 4068.86 3122.6099 L 4068.45 3122.1999 L 4068.05 3121.9999 L 4067.23 3121.9999 L 4066.82 3122.1999 L 4066.41 3122.6099 L 4066.2 3123.0199 L 4066 3123.6299 L 4066 3124.6499 L 4066.2 3125.2699 L 4066.41 3125.6799 L 4066.82 3126.0899 L 4067.23 3126.2899 L 4068.05 3126.2899 L 4068.45 3126.0899 L 4068.86 3125.6799 L 4069.07 3125.2699 M 4070.83 3121.9999 L 4073.08 3121.9999 L 4071.85 3123.6299 L 4072.46 3123.6299 L 4072.87 3123.8399 L 4073.08 3124.0399 L 4073.28 3124.6499 L 4073.28 3125.0599 L 4073.08 3125.6799 L 4072.67 3126.0899 L 4072.05 3126.2899 L 4071.44 3126.2899 L 4070.83 3126.0899 L 4070.62 3125.8799 L 4070.42 3125.4699" fill="none"  stroke-width="0.6" c_note="note_pre" /></g><g c_partid="part_pcbtext" c_origin="4076.09,3108.21" c_rotation="0" c_mirror="" id="gge5" layerid="3" c_shapetype="group" display="none"><path c_fontSize="4.5" c_fontFamily="" c_text="10nF" d="M 4076.094 3102.87 L 4076.504 3102.67 L 4077.114 3102.06 L 4077.114 3106.35 M 4079.694 3102.06 L 4079.084 3102.26 L 4078.674 3102.87 L 4078.464 3103.9 L 4078.464 3104.51 L 4078.674 3105.53 L 4079.084 3106.15 L 4079.694 3106.35 L 4080.104 3106.35 L 4080.714 3106.15 L 4081.124 3105.53 L 4081.334 3104.51 L 4081.334 3103.9 L 4081.124 3102.87 L 4080.714 3102.26 L 4080.104 3102.06 L 4079.694 3102.06 M 4082.684 3103.49 L 4082.684 3106.35 M 4082.684 3104.31 L 4083.294 3103.69 L 4083.704 3103.49 L 4084.314 3103.49 L 4084.724 3103.69 L 4084.934 3104.31 L 4084.934 3106.35 M 4086.284 3102.06 L 4086.284 3106.35 M 4086.284 3102.06 L 4088.944 3102.06 M 4086.284 3104.1 L 4087.914 3104.1" fill="none"  stroke-width="0.6"  /></g><g c_partid="part_pcbtext" c_origin="4169.5,3121.5" c_rotation="0" c_mirror="" id="gge78" layerid="3" c_shapetype="group" ><path c_fontSize="4.5" c_fontFamily="" c_text="J1" d="M 4171.5498 3115.3481 L 4171.5498 3118.6181 L 4171.3398 3119.2281 L 4171.1398 3119.4381 L 4170.7298 3119.6381 L 4170.3198 3119.6381 L 4169.9098 3119.4381 L 4169.6998 3119.2281 L 4169.4998 3118.6181 L 4169.4998 3118.2081 M 4172.8998 3116.1681 L 4173.2998 3115.9581 L 4173.9198 3115.3481 L 4173.9198 3119.6381" fill="none"  stroke-width="0.6" c_note="note_pre" /></g><g c_partid="part_pcbtext" c_origin="4123.46,3107" c_rotation="90" c_mirror="" id="gge80" layerid="3" c_shapetype="group" display="none"><path c_fontSize="4.5" c_fontFamily="" c_text="KF127_2P_5.08" d="M 4117.31 3107 L 4121.6 3107 M 4117.31 3104.14 L 4120.17 3107 M 4119.15 3105.98 L 4121.6 3104.14 M 4117.31 3102.79 L 4121.6 3102.79 M 4117.31 3102.79 L 4117.31 3100.13 M 4119.35 3102.79 L 4119.35 3101.15 M 4118.13 3098.78 L 4117.92 3098.37 L 4117.31 3097.75 L 4121.6 3097.75 M 4118.33 3096.2 L 4118.13 3096.2 L 4117.72 3096 L 4117.51 3095.79 L 4117.31 3095.38 L 4117.31 3094.56 L 4117.51 3094.15 L 4117.72 3093.95 L 4118.13 3093.75 L 4118.53 3093.75 L 4118.94 3093.95 L 4119.56 3094.36 L 4121.6 3096.4 L 4121.6 3093.54 M 4117.31 3089.33 L 4121.6 3091.37 M 4117.31 3092.19 L 4117.31 3089.33 M 4123.03 3087.98 L 4123.03 3084.3 M 4118.33 3082.74 L 4118.13 3082.74 L 4117.72 3082.54 L 4117.51 3082.33 L 4117.31 3081.92 L 4117.31 3081.1 L 4117.51 3080.7 L 4117.72 3080.49 L 4118.13 3080.29 L 4118.53 3080.29 L 4118.94 3080.49 L 4119.56 3080.9 L 4121.6 3082.95 L 4121.6 3080.08 M 4117.31 3078.73 L 4121.6 3078.73 M 4117.31 3078.73 L 4117.31 3076.89 L 4117.51 3076.28 L 4117.72 3076.07 L 4118.13 3075.87 L 4118.74 3075.87 L 4119.15 3076.07 L 4119.35 3076.28 L 4119.56 3076.89 L 4119.56 3078.73 M 4123.03 3074.52 L 4123.03 3070.84 M 4117.31 3067.03 L 4117.31 3069.08 L 4119.15 3069.28 L 4118.94 3069.08 L 4118.74 3068.46 L 4118.74 3067.85 L 4118.94 3067.24 L 4119.35 3066.83 L 4119.97 3066.62 L 4120.38 3066.62 L 4120.99 3066.83 L 4121.4 3067.24 L 4121.6 3067.85 L 4121.6 3068.46 L 4121.4 3069.08 L 4121.19 3069.28 L 4120.78 3069.49 M 4120.58 3065.07 L 4120.78 3065.27 L 4120.99 3065.07 L 4120.78 3064.86 L 4120.58 3065.07 M 4117.31 3062.29 L 4117.51 3062.9 L 4118.13 3063.31 L 4119.15 3063.51 L 4119.76 3063.51 L 4120.78 3063.31 L 4121.4 3062.9 L 4121.6 3062.29 L 4121.6 3061.88 L 4121.4 3061.26 L 4120.78 3060.85 L 4119.76 3060.65 L 4119.15 3060.65 L 4118.13 3060.85 L 4117.51 3061.26 L 4117.31 3061.88 L 4117.31 3062.29 M 4117.31 3058.28 L 4117.51 3058.89 L 4117.92 3059.1 L 4118.33 3059.1 L 4118.74 3058.89 L 4118.94 3058.48 L 4119.15 3057.66 L 4119.35 3057.05 L 4119.76 3056.64 L 4120.17 3056.44 L 4120.78 3056.44 L 4121.19 3056.64 L 4121.4 3056.85 L 4121.6 3057.46 L 4121.6 3058.28 L 4121.4 3058.89 L 4121.19 3059.1 L 4120.78 3059.3 L 4120.17 3059.3 L 4119.76 3059.1 L 4119.35 3058.69 L 4119.15 3058.07 L 4118.94 3057.25 L 4118.74 3056.85 L 4118.33 3056.64 L 4117.92 3056.64 L 4117.51 3056.85 L 4117.31 3057.46 L 4117.31 3058.28" fill="none"  stroke-width="0.6"  /></g><g c_partid="part_pcbtext" c_origin="4137,3094" c_rotation="0" c_mirror="none" id="gge84" layerid="3" c_shapetype="group" ><path c_fontSize="3.937" c_fontFamily="" c_text="1" d="M 4137 3092.5699 L 4137.36 3092.3899 L 4137.89 3091.8499 L 4137.89 3095.6099" fill="none"  stroke-width="0.8"  /></g><g c_partid="part_pcbtext" c_origin="4157,3094" c_rotation="0" c_mirror="none" id="gge86" layerid="3" c_shapetype="group" ><path c_fontSize="3.937" c_fontFamily="" c_text="2" d="M 4157.1801 3092.7497 L 4157.1801 3092.5697 L 4157.3601 3092.2097 L 4157.5401 3092.0297 L 4157.8901 3091.8497 L 4158.6101 3091.8497 L 4158.9701 3092.0297 L 4159.1501 3092.2097 L 4159.3301 3092.5697 L 4159.3301 3092.9297 L 4159.1501 3093.2797 L 4158.7901 3093.8197 L 4157.0001 3095.6097 L 4159.5101 3095.6097" fill="none"  stroke-width="0.8"  /></g><g c_partid="part_pcbtext" c_origin="4089,3107" c_rotation="0" c_mirror="" id="gge220" layerid="3" c_shapetype="group" ><path c_fontSize="4.5" c_fontFamily="" c_text="IC2" d="M 4088.998 3104.544 L 4088.998 3108.844 M 4093.418 3105.564 L 4093.218 3105.164 L 4092.808 3104.754 L 4092.398 3104.544 L 4091.578 3104.544 L 4091.168 3104.754 L 4090.758 3105.164 L 4090.558 3105.564 L 4090.348 3106.184 L 4090.348 3107.204 L 4090.558 3107.814 L 4090.758 3108.224 L 4091.168 3108.634 L 4091.578 3108.844 L 4092.398 3108.844 L 4092.808 3108.634 L 4093.218 3108.224 L 4093.418 3107.814 M 4094.968 3105.564 L 4094.968 3105.364 L 4095.178 3104.954 L 4095.378 3104.754 L 4095.788 3104.544 L 4096.608 3104.544 L 4097.018 3104.754 L 4097.218 3104.954 L 4097.428 3105.364 L 4097.428 3105.774 L 4097.218 3106.184 L 4096.818 3106.794 L 4094.768 3108.844 L 4097.628 3108.844" fill="none"  stroke-width="0.6" c_note="note_pre" /></g><g c_partid="part_pcbtext" c_origin="4085.85,3121.88" c_rotation="180" c_mirror="" id="gge222" layerid="3" c_shapetype="group" display="none"><path c_fontSize="4.5" c_fontFamily="" c_text="TR-72D" d="M 4084.424 3128.027 L 4084.424 3123.737 M 4085.854 3128.027 L 4082.994 3128.027 M 4081.644 3128.027 L 4081.644 3123.737 M 4081.644 3128.027 L 4079.804 3128.027 L 4079.184 3127.827 L 4078.984 3127.627 L 4078.774 3127.217 L 4078.774 3126.807 L 4078.984 3126.397 L 4079.184 3126.187 L 4079.804 3125.987 L 4081.644 3125.987 M 4080.204 3125.987 L 4078.774 3123.737 M 4077.424 3125.577 L 4073.744 3125.577 M 4069.534 3128.027 L 4071.574 3123.737 M 4072.394 3128.027 L 4069.534 3128.027 M 4067.974 3127.007 L 4067.974 3127.217 L 4067.774 3127.627 L 4067.564 3127.827 L 4067.154 3128.027 L 4066.344 3128.027 L 4065.934 3127.827 L 4065.724 3127.627 L 4065.524 3127.217 L 4065.524 3126.807 L 4065.724 3126.397 L 4066.134 3125.777 L 4068.184 3123.737 L 4065.314 3123.737 M 4063.964 3128.027 L 4063.964 3123.737 M 4063.964 3128.027 L 4062.534 3128.027 L 4061.924 3127.827 L 4061.514 3127.417 L 4061.304 3127.007 L 4061.104 3126.397 L 4061.104 3125.377 L 4061.304 3124.757 L 4061.514 3124.347 L 4061.924 3123.937 L 4062.534 3123.737 L 4063.964 3123.737" fill="none"  stroke-width="0.6"  /></g><polyline points="4050 3050 4181.5 3050 4181.5 3123 4050 3123 4050 3050" stroke-width="1" c_shapetype="line" stroke-linecap="round" fill="none" layerid="10" net="" id="gge96" /></g></svg>