<svg xmlns="http://www.w3.org/2000/svg" xmlns:xlink="http://www.w3.org/1999/xlink" width="42.545mm" height="72.136mm" viewBox="4013.7 3040 167.5 284"><title></title><style type="text/css">
*[layerid="1"] {stroke:#FF0000;fill:#FF0000;}
*[layerid="2"] {stroke:#0000FF;fill:#0000FF;}
*[layerid="3"] {stroke:#FFCC00;fill:#FFCC00;}
*[layerid="4"] {stroke:#66CC33;fill:#66CC33;}
*[layerid="5"] {stroke:#808080;fill:#808080;}
*[layerid="6"] {stroke:#800000;fill:#800000;}
*[layerid="7"] {stroke:#800080;fill:#800080;stroke-opacity:0.7;fill-opacity:0.7;}
*[layerid="8"] {stroke:#AA00FF;fill:#AA00FF;stroke-opacity:0.7;fill-opacity:0.7;}
*[layerid="9"] {stroke:#6464FF;fill:#6464FF;}
*[layerid="10"] {stroke:#FF00FF;fill:#FF00FF;}
*[layerid="11"] {stroke:#C0C0C0;fill:#C0C0C0;}
*[layerid="12"] {stroke:#FFFFFF;fill:#FFFFFF;}
*[layerid="13"] {stroke:#33CC99;fill:#33CC99;}
*[layerid="14"] {stroke:#5555FF;fill:#5555FF;}
*[layerid="15"] {stroke:#F022F0;fill:#F022F0;}
*[layerid="21"] {stroke:#999966;fill:#999966;}
*[layerid="22"] {stroke:#008000;fill:#008000;}
*[layerid="23"] {stroke:#00FF00;fill:#00FF00;}
*[layerid="24"] {stroke:#BC8E00;fill:#BC8E00;}
*[layerid="25"] {stroke:#70DBFA;fill:#70DBFA;}
*[layerid="26"] {stroke:#00CC66;fill:#00CC66;}
*[layerid="27"] {stroke:#9966FF;fill:#9966FF;}
*[layerid="28"] {stroke:#800080;fill:#800080;}
*[layerid="29"] {stroke:#008080;fill:#008080;}
*[layerid="30"] {stroke:#15935F;fill:#15935F;}
*[layerid="31"] {stroke:#000080;fill:#000080;}
*[layerid="32"] {stroke:#00B400;fill:#00B400;}
*[layerid="33"] {stroke:#2E4756;fill:#2E4756;}
*[layerid="34"] {stroke:#99842F;fill:#99842F;}
*[layerid="35"] {stroke:#FFFFAA;fill:#FFFFAA;}
*[layerid="36"] {stroke:#99842F;fill:#99842F;}
*[layerid="37"] {stroke:#2E4756;fill:#2E4756;}
*[layerid="38"] {stroke:#3535FF;fill:#3535FF;}
*[layerid="39"] {stroke:#8000BC;fill:#8000BC;}
*[layerid="40"] {stroke:#43AE5F;fill:#43AE5F;}
*[layerid="41"] {stroke:#C3ECCE;fill:#C3ECCE;}
*[layerid="42"] {stroke:#728978;fill:#728978;}
*[layerid="43"] {stroke:#39503F;fill:#39503F;}
*[layerid="44"] {stroke:#0C715D;fill:#0C715D;}
*[layerid="45"] {stroke:#5A8A80;fill:#5A8A80;}
*[layerid="46"] {stroke:#2B937E;fill:#2B937E;}
*[layerid="47"] {stroke:#23999D;fill:#23999D;}
*[layerid="48"] {stroke:#45B4E3;fill:#45B4E3;}
*[layerid="49"] {stroke:#215DA1;fill:#215DA1;}
*[layerid="50"] {stroke:#4564D7;fill:#4564D7;}
*[layerid="51"] {stroke:#6969E9;fill:#6969E9;}
*[layerid="52"] {stroke:#9069E9;fill:#9069E9;}
*[fill="none"] {fill: none;}
*[stroke="none"] {stroke: none;}
path, polyline, polygon, line {stroke-linecap:round;}
g[c_partid="part_pad"][layerid="1"] ellipse:not([c_padid]) {fill:#FF0000;}
g[c_partid="part_pad"][layerid="1"]  polygon:not([c_padid]) {fill:#FF0000;}
g[c_partid="part_pad"][layerid="1"]  polyline:not([c_padid]) {stroke:#FF0000;}
g[c_partid="part_pad"][layerid="1"]  circle {fill:#FF0000;}
g[c_partid="part_pad"][layerid="2"]  ellipse:not([c_padid]) {fill:#0000FF;}
g[c_partid="part_pad"][layerid="2"]  polygon:not([c_padid]) {fill:#0000FF;}
g[c_partid="part_pad"][layerid="2"]  polyline:not([c_padid]) {stroke:#0000FF;}
g[c_partid="part_pad"][layerid="2"]  circle {fill:#0000FF;}
g[c_partid="part_pad"][layerid="11"]  ellipse:not([c_padid]) {fill:#C0C0C0;}
g[c_partid="part_pad"][layerid="11"]  polygon:not([c_padid]) {fill:#C0C0C0;}
g[c_partid="part_pad"][layerid="11"]  polyline:not([c_padid]) {stroke:#C0C0C0;}
g[c_partid="part_pad"][layerid="11"]  circle {fill:#C0C0C0;}
g[c_partid="part_pad"][layerid] > circle[c_padhole] {fill: #222222;}
g[c_partid="part_pad"][layerid] > polyline[c_padhole] {stroke:#222222;}
g[c_partid="part_via"][layerid] > * + circle {fill: #222222;}
g[c_partid="part_pad"] > polygon[c_padid] {stroke-linejoin: miter;stroke-miterlimit: 100;}
g[c_partid="part_hole"] > circle {fill: #222222;}path, polyline, polygon {stroke-linejoin:round;}
rect, circle, ellipse, polyline, line, polygon, path {shape-rendering:crispEdges;}
</style>
<rect x="4013.7" y="3040" width="167.5" height="284" fill="#000000" stroke="none"/><g id="g1" cpara="package`OMF_125`" c_transformList="" importFlag="0" xmlns="http://www.w3.org/2000/svg"><polyline points="4154.5 3175.5 4151 3175.5 4119.5 3144" stroke-width="2" c_shapetype="line" stroke-linecap="round" fill="none" layerid="2" net="+12V" id="gge400" /><polyline points="4154.5 3154 4142.5 3154 4124.5 3136 4116 3136 4110 3142 4110 3149 4115 3154 4119.5 3154" stroke-width="2" c_shapetype="line" stroke-linecap="round" fill="none" layerid="2" net="GND" id="gge402" /><polyline points="4154.5 3194.5 4060 3194.5 4059.5 3194" stroke-width="2" c_shapetype="line" stroke-linecap="round" fill="none" layerid="2" net="SIG" id="gge443" /><g c_partid="part_pad" c_etype="pinpart" c_origin="4057.13,3080.21" layerid="2" number="9" net="" plated ="Y" c_shapetype="group" id="gge308" locked="0" c_rotation="180" c_width="6.6929" c_height="17.7165" title="" c_shape="RECT" pasteExpansion="0" solderExpansion="0.4"><polygon points="4060.474 3089.067 4053.784 3089.067 4053.784 3071.357 4060.474 3071.357" stroke-width="0" /><circle c_padhole="1" cx="4057.129" cy="3080.212" r="0" stroke-width="0" /></g><g c_partid="part_pad" c_etype="pinpart" c_origin="4112.87,3080.21" layerid="2" number="9" net="" plated ="Y" c_shapetype="group" id="gge303" locked="0" c_rotation="180" c_width="6.6929" c_height="17.7165" title="" c_shape="RECT" pasteExpansion="0" solderExpansion="0.4"><polygon points="4116.224 3089.067 4109.524 3089.067 4109.524 3071.357 4116.224 3071.357" stroke-width="0" /><circle c_padhole="1" cx="4112.874" cy="3080.212" r="0" stroke-width="0" /></g><polyline points="4072.488 3119 4072.488 3135.488 4091 3154 4119.5 3154" stroke-width="2" c_shapetype="line" stroke-linecap="round" fill="none" layerid="1" net="GND" id="gge420" /><polyline points="4072.488 3119 4070.114 3116.626 4070.114 3103.567" stroke-width="2" c_shapetype="line" stroke-linecap="round" fill="none" layerid="1" net="GND" id="gge423" /><polyline points="4059.5 3144 4059.5 3067.051 4070.114 3056.437" stroke-width="2" c_shapetype="line" stroke-linecap="round" fill="none" layerid="1" net="TX" id="gge427" /><polyline points="4059.5 3154 4063 3154 4065.5 3151.5 4065.5 3091.5 4100.563 3056.437 4100.754 3056.437" stroke-width="2" c_shapetype="line" stroke-linecap="round" fill="none" layerid="1" net="RX" id="gge429" /><polyline points="4154.5 3135 4137 3117.5 4137 3104.5" stroke-width="2" c_shapetype="line" stroke-linecap="round" fill="none" layerid="1" net="F2_2" id="gge432" /><polyline points="4078 3119 4080.314 3116.686 4080.314 3103.567" stroke-width="2" c_shapetype="line" stroke-linecap="round" fill="none" layerid="1" net="5V+" id="gge438" /><polyline points="4080.314 3103.567 4080.314 3097 4085.5 3092 4147 3092 4153.5 3098.5 4153.5 3104 4157 3107.5 4157 3107.7 4162 3107.7" stroke-width="2" c_shapetype="line" stroke-linecap="round" fill="none" layerid="1" net="5V+" id="gge439" /><polyline points="4162 3091.2 4149.3 3078.5 4137 3078.5" stroke-width="2" c_shapetype="line" stroke-linecap="round" fill="none" layerid="1" net="5V-" id="gge441" /><g c_partid="part_pad" c_etype="pinpart" c_origin="4072.49,3119" layerid="1" number="1" net="GND" plated ="Y" c_shapetype="group" id="gge8" locked="0" c_rotation="0" c_width="3.937" c_height="4.3307" title="GND" c_shape="RECT" pasteExpansion="0" solderExpansion="0.4"><polygon points="4070.519 3116.835 4074.456 3116.835 4074.456 3121.165 4070.519 3121.165" stroke-width="0" /><circle c_padhole="1" cx="4072.488" cy="3119" r="0" stroke-width="0" /></g><g c_partid="part_pad" c_etype="pinpart" c_origin="4078,3119" layerid="1" number="2" net="5V+" plated ="Y" c_shapetype="group" id="gge14" locked="0" c_rotation="0" c_width="3.937" c_height="4.3307" title="5V+" c_shape="RECT" pasteExpansion="0" solderExpansion="0.4"><polygon points="4076.031 3116.835 4079.968 3116.835 4079.968 3121.165 4076.031 3121.165" stroke-width="0" /><circle c_padhole="1" cx="4078" cy="3119" r="0" stroke-width="0" /></g><g c_partid="part_pad" c_etype="pinpart" c_origin="4119.5,3194" layerid="1" number="25" net="U1_25" plated ="Y" c_shapetype="group" id="gge205" locked="0" c_rotation="270" c_width="7" c_height="7" title="U1_25" c_shape="ELLIPSE" pasteExpansion="0" solderExpansion="0.4"><ellipse cx="4119.5" cy="3194" rx="3.5" ry="3.5" stroke-width="0" /><circle c_padhole="1" cx="4119.5" cy="3194" r="0" stroke-width="0" /></g><g c_partid="part_pad" c_etype="pinpart" c_origin="4100.75,3103.57" layerid="1" number="1" net="IC2_1" plated ="Y" c_shapetype="group" id="gge263" locked="0" c_rotation="180" c_width="3.937" c_height="7.4803" title="IC2_1" c_shape="RECT" pasteExpansion="0" solderExpansion="0.4"><polygon points="4102.724 3107.307 4098.784 3107.307 4098.784 3099.827 4102.724 3099.827" stroke-width="0" /><circle c_padhole="1" cx="4100.754" cy="3103.567" r="0" stroke-width="0" /></g><g c_partid="part_pad" c_etype="pinpart" c_origin="4090.51,3103.57" layerid="1" number="2" net="IC2_2" plated ="Y" c_shapetype="group" id="gge268" locked="0" c_rotation="180" c_width="3.937" c_height="7.4803" title="IC2_2" c_shape="RECT" pasteExpansion="0" solderExpansion="0.4"><polygon points="4092.484 3107.307 4088.544 3107.307 4088.544 3099.827 4092.484 3099.827" stroke-width="0" /><circle c_padhole="1" cx="4090.514" cy="3103.567" r="0" stroke-width="0" /></g><g c_partid="part_pad" c_etype="pinpart" c_origin="4080.31,3103.57" layerid="1" number="3" net="5V+" plated ="Y" c_shapetype="group" id="gge273" locked="0" c_rotation="180" c_width="3.937" c_height="7.4803" title="5V+" c_shape="RECT" pasteExpansion="0" solderExpansion="0.4"><polygon points="4082.284 3107.307 4078.344 3107.307 4078.344 3099.827 4082.284 3099.827" stroke-width="0" /><circle c_padhole="1" cx="4080.314" cy="3103.567" r="0" stroke-width="0" /></g><g c_partid="part_pad" c_etype="pinpart" c_origin="4070.11,3103.57" layerid="1" number="4" net="GND" plated ="Y" c_shapetype="group" id="gge278" locked="0" c_rotation="180" c_width="3.937" c_height="7.4803" title="GND" c_shape="RECT" pasteExpansion="0" solderExpansion="0.4"><polygon points="4072.084 3107.307 4068.144 3107.307 4068.144 3099.827 4072.084 3099.827" stroke-width="0" /><circle c_padhole="1" cx="4070.114" cy="3103.567" r="0" stroke-width="0" /></g><g c_partid="part_pad" c_etype="pinpart" c_origin="4100.75,3056.44" layerid="1" number="5" net="RX" plated ="Y" c_shapetype="group" id="gge283" locked="0" c_rotation="180" c_width="3.937" c_height="7.4803" title="RX" c_shape="RECT" pasteExpansion="0" solderExpansion="0.4"><polygon points="4102.724 3060.177 4098.784 3060.177 4098.784 3052.697 4102.724 3052.697" stroke-width="0" /><circle c_padhole="1" cx="4100.754" cy="3056.437" r="0" stroke-width="0" /></g><g c_partid="part_pad" c_etype="pinpart" c_origin="4090.51,3056.44" layerid="1" number="6" net="IC2_6" plated ="Y" c_shapetype="group" id="gge288" locked="0" c_rotation="180" c_width="3.937" c_height="7.4803" title="IC2_6" c_shape="RECT" pasteExpansion="0" solderExpansion="0.4"><polygon points="4092.484 3060.177 4088.544 3060.177 4088.544 3052.697 4092.484 3052.697" stroke-width="0" /><circle c_padhole="1" cx="4090.514" cy="3056.437" r="0" stroke-width="0" /></g><g c_partid="part_pad" c_etype="pinpart" c_origin="4080.31,3056.44" layerid="1" number="7" net="IC2_7" plated ="Y" c_shapetype="group" id="gge293" locked="0" c_rotation="180" c_width="3.937" c_height="7.4803" title="IC2_7" c_shape="RECT" pasteExpansion="0" solderExpansion="0.4"><polygon points="4082.284 3060.177 4078.344 3060.177 4078.344 3052.697 4082.284 3052.697" stroke-width="0" /><circle c_padhole="1" cx="4080.314" cy="3056.437" r="0" stroke-width="0" /></g><g c_partid="part_pad" c_etype="pinpart" c_origin="4070.11,3056.44" layerid="1" number="8" net="TX" plated ="Y" c_shapetype="group" id="gge298" locked="0" c_rotation="180" c_width="3.937" c_height="7.4803" title="TX" c_shape="RECT" pasteExpansion="0" solderExpansion="0.4"><polygon points="4072.084 3060.177 4068.144 3060.177 4068.144 3052.697 4072.084 3052.697" stroke-width="0" /><circle c_padhole="1" cx="4070.114" cy="3056.437" r="0" stroke-width="0" /></g><g c_partid="part_pad" c_etype="pinpart" c_origin="4137,3078.5" layerid="1" number="1" net="5V-" plated ="Y" c_shapetype="group" id="gge368" locked="0" c_rotation="270" c_width="11.811" c_height="11.0236" title="5V-" c_shape="RECT" pasteExpansion="0" solderExpansion="0.4"><polygon points="4142.512 3072.595 4142.512 3084.406 4131.488 3084.406 4131.488 3072.595" stroke-width="0" /><circle c_padhole="1" cx="4137" cy="3078.5" r="0" stroke-width="0" /></g><g c_partid="part_pad" c_etype="pinpart" c_origin="4137,3104.5" layerid="1" number="2" net="F2_2" plated ="Y" c_shapetype="group" id="gge373" locked="0" c_rotation="270" c_width="11.811" c_height="11.0236" title="F2_2" c_shape="RECT" pasteExpansion="0" solderExpansion="0.4"><polygon points="4142.512 3098.594 4142.512 3110.405 4131.488 3110.405 4131.488 3098.594" stroke-width="0" /><circle c_padhole="1" cx="4137" cy="3104.5" r="0" stroke-width="0" /></g><g c_partid="part_pad" c_etype="pinpart" c_origin="4162,3091.2" layerid="11" number="3" net="5V-" plated ="Y" c_shapetype="group" id="gge404" locked="0" c_rotation="180" c_width="8" c_height="6" title="5V-" c_shape="OVAL" pasteExpansion="0" solderExpansion="0.4"><polyline points="4163 3091.2 4161 3091.2" stroke-width="6" /><circle c_padhole="1" cx="4162" cy="3091.2" r="1.4" stroke-width="0" /></g><g c_partid="part_pad" c_etype="pinpart" c_origin="4162,3099.5" layerid="11" number="3" net="0" plated ="Y" c_shapetype="group" id="gge409" locked="0" c_rotation="180" c_width="8" c_height="6" title="0" c_shape="OVAL" pasteExpansion="0" solderExpansion="0.4"><polyline points="4163 3099.5 4161 3099.5" stroke-width="6" /><circle c_padhole="1" cx="4162" cy="3099.5" r="1.4" stroke-width="0" /></g><g c_partid="part_pad" c_etype="pinpart" c_origin="4162,3107.7" layerid="11" number="3" net="5V+" plated ="Y" c_shapetype="group" id="gge414" locked="0" c_rotation="180" c_width="8" c_height="6" title="5V+" c_shape="OVAL" pasteExpansion="0" solderExpansion="0.4"><polyline points="4163 3107.7 4161 3107.7" stroke-width="6" /><circle c_padhole="1" cx="4162" cy="3107.7" r="1.4" stroke-width="0" /></g><g c_partid="part_pad" c_etype="pinpart" c_origin="4059.5,3144" layerid="11" number="1" net="TX" plated ="Y" c_shapetype="group" id="gge105" locked="0" c_rotation="270" c_width="7" c_height="7" title="TX" c_shape="RECT" pasteExpansion="0" solderExpansion="0.4"><polygon points="4063 3140.5 4063 3147.5 4056 3147.5 4056 3140.5" stroke-width="0" /><circle c_padhole="1" cx="4059.5" cy="3144" r="1.8" stroke-width="0" /></g><g c_partid="part_pad" c_etype="pinpart" c_origin="4059.5,3154" layerid="11" number="2" net="RX" plated ="Y" c_shapetype="group" id="gge110" locked="0" c_rotation="270" c_width="7" c_height="7" title="RX" c_shape="ELLIPSE" pasteExpansion="0" solderExpansion="0.4"><ellipse cx="4059.5" cy="3154" rx="3.5" ry="3.5" stroke-width="0" /><circle c_padhole="1" cx="4059.5" cy="3154" r="1.8" stroke-width="0" /></g><g c_partid="part_pad" c_etype="pinpart" c_origin="4059.5,3164" layerid="11" number="3" net="U1_3" plated ="Y" c_shapetype="group" id="gge115" locked="0" c_rotation="270" c_width="7" c_height="7" title="U1_3" c_shape="ELLIPSE" pasteExpansion="0" solderExpansion="0.4"><ellipse cx="4059.5" cy="3164" rx="3.5" ry="3.5" stroke-width="0" /><circle c_padhole="1" cx="4059.5" cy="3164" r="1.8" stroke-width="0" /></g><g c_partid="part_pad" c_etype="pinpart" c_origin="4059.5,3174" layerid="11" number="4" net="U1_4" plated ="Y" c_shapetype="group" id="gge120" locked="0" c_rotation="270" c_width="7" c_height="7" title="U1_4" c_shape="ELLIPSE" pasteExpansion="0" solderExpansion="0.4"><ellipse cx="4059.5" cy="3174" rx="3.5" ry="3.5" stroke-width="0" /><circle c_padhole="1" cx="4059.5" cy="3174" r="1.8" stroke-width="0" /></g><g c_partid="part_pad" c_etype="pinpart" c_origin="4059.5,3184" layerid="11" number="5" net="U1_5" plated ="Y" c_shapetype="group" id="gge125" locked="0" c_rotation="270" c_width="7" c_height="7" title="U1_5" c_shape="ELLIPSE" pasteExpansion="0" solderExpansion="0.4"><ellipse cx="4059.5" cy="3184" rx="3.5" ry="3.5" stroke-width="0" /><circle c_padhole="1" cx="4059.5" cy="3184" r="1.8" stroke-width="0" /></g><g c_partid="part_pad" c_etype="pinpart" c_origin="4059.5,3194" layerid="11" number="6" net="SIG" plated ="Y" c_shapetype="group" id="gge130" locked="0" c_rotation="270" c_width="7" c_height="7" title="SIG" c_shape="ELLIPSE" pasteExpansion="0" solderExpansion="0.4"><ellipse cx="4059.5" cy="3194" rx="3.5" ry="3.5" stroke-width="0" /><circle c_padhole="1" cx="4059.5" cy="3194" r="1.8" stroke-width="0" /></g><g c_partid="part_pad" c_etype="pinpart" c_origin="4059.5,3204" layerid="11" number="7" net="U1_7" plated ="Y" c_shapetype="group" id="gge135" locked="0" c_rotation="270" c_width="7" c_height="7" title="U1_7" c_shape="ELLIPSE" pasteExpansion="0" solderExpansion="0.4"><ellipse cx="4059.5" cy="3204" rx="3.5" ry="3.5" stroke-width="0" /><circle c_padhole="1" cx="4059.5" cy="3204" r="1.8" stroke-width="0" /></g><g c_partid="part_pad" c_etype="pinpart" c_origin="4059.5,3214" layerid="11" number="8" net="U1_8" plated ="Y" c_shapetype="group" id="gge140" locked="0" c_rotation="270" c_width="7" c_height="7" title="U1_8" c_shape="ELLIPSE" pasteExpansion="0" solderExpansion="0.4"><ellipse cx="4059.5" cy="3214" rx="3.5" ry="3.5" stroke-width="0" /><circle c_padhole="1" cx="4059.5" cy="3214" r="1.8" stroke-width="0" /></g><g c_partid="part_pad" c_etype="pinpart" c_origin="4059.5,3224" layerid="11" number="9" net="U1_9" plated ="Y" c_shapetype="group" id="gge145" locked="0" c_rotation="270" c_width="7" c_height="7" title="U1_9" c_shape="ELLIPSE" pasteExpansion="0" solderExpansion="0.4"><ellipse cx="4059.5" cy="3224" rx="3.5" ry="3.5" stroke-width="0" /><circle c_padhole="1" cx="4059.5" cy="3224" r="1.8" stroke-width="0" /></g><g c_partid="part_pad" c_etype="pinpart" c_origin="4059.5,3234" layerid="11" number="10" net="U1_10" plated ="Y" c_shapetype="group" id="gge150" locked="0" c_rotation="270" c_width="7" c_height="7" title="U1_10" c_shape="ELLIPSE" pasteExpansion="0" solderExpansion="0.4"><ellipse cx="4059.5" cy="3234" rx="3.5" ry="3.5" stroke-width="0" /><circle c_padhole="1" cx="4059.5" cy="3234" r="1.8" stroke-width="0" /></g><g c_partid="part_pad" c_etype="pinpart" c_origin="4059.5,3244" layerid="11" number="11" net="U1_11" plated ="Y" c_shapetype="group" id="gge155" locked="0" c_rotation="270" c_width="7" c_height="7" title="U1_11" c_shape="ELLIPSE" pasteExpansion="0" solderExpansion="0.4"><ellipse cx="4059.5" cy="3244" rx="3.5" ry="3.5" stroke-width="0" /><circle c_padhole="1" cx="4059.5" cy="3244" r="1.8" stroke-width="0" /></g><g c_partid="part_pad" c_etype="pinpart" c_origin="4059.5,3254" layerid="11" number="12" net="U1_12" plated ="Y" c_shapetype="group" id="gge160" locked="0" c_rotation="270" c_width="7" c_height="7" title="U1_12" c_shape="ELLIPSE" pasteExpansion="0" solderExpansion="0.4"><ellipse cx="4059.5" cy="3254" rx="3.5" ry="3.5" stroke-width="0" /><circle c_padhole="1" cx="4059.5" cy="3254" r="1.8" stroke-width="0" /></g><g c_partid="part_pad" c_etype="pinpart" c_origin="4059.5,3264" layerid="11" number="13" net="U1_13" plated ="Y" c_shapetype="group" id="gge165" locked="0" c_rotation="270" c_width="7" c_height="7" title="U1_13" c_shape="ELLIPSE" pasteExpansion="0" solderExpansion="0.4"><ellipse cx="4059.5" cy="3264" rx="3.5" ry="3.5" stroke-width="0" /><circle c_padhole="1" cx="4059.5" cy="3264" r="1.8" stroke-width="0" /></g><g c_partid="part_pad" c_etype="pinpart" c_origin="4059.5,3274" layerid="11" number="14" net="U1_14" plated ="Y" c_shapetype="group" id="gge170" locked="0" c_rotation="270" c_width="7" c_height="7" title="U1_14" c_shape="ELLIPSE" pasteExpansion="0" solderExpansion="0.4"><ellipse cx="4059.5" cy="3274" rx="3.5" ry="3.5" stroke-width="0" /><circle c_padhole="1" cx="4059.5" cy="3274" r="1.8" stroke-width="0" /></g><g c_partid="part_pad" c_etype="pinpart" c_origin="4059.5,3284" layerid="11" number="15" net="U1_15" plated ="Y" c_shapetype="group" id="gge175" locked="0" c_rotation="270" c_width="7" c_height="7" title="U1_15" c_shape="ELLIPSE" pasteExpansion="0" solderExpansion="0.4"><ellipse cx="4059.5" cy="3284" rx="3.5" ry="3.5" stroke-width="0" /><circle c_padhole="1" cx="4059.5" cy="3284" r="1.8" stroke-width="0" /></g><g c_partid="part_pad" c_etype="pinpart" c_origin="4119.5,3144" layerid="11" number="30" net="+12V" plated ="Y" c_shapetype="group" id="gge180" locked="0" c_rotation="270" c_width="7" c_height="7" title="+12V" c_shape="ELLIPSE" pasteExpansion="0" solderExpansion="0.4"><ellipse cx="4119.5" cy="3144" rx="3.5" ry="3.5" stroke-width="0" /><circle c_padhole="1" cx="4119.5" cy="3144" r="1.8" stroke-width="0" /></g><g c_partid="part_pad" c_etype="pinpart" c_origin="4119.5,3154" layerid="11" number="29" net="GND" plated ="Y" c_shapetype="group" id="gge185" locked="0" c_rotation="270" c_width="7" c_height="7" title="GND" c_shape="ELLIPSE" pasteExpansion="0" solderExpansion="0.4"><ellipse cx="4119.5" cy="3154" rx="3.5" ry="3.5" stroke-width="0" /><circle c_padhole="1" cx="4119.5" cy="3154" r="1.8" stroke-width="0" /></g><g c_partid="part_pad" c_etype="pinpart" c_origin="4119.5,3164" layerid="11" number="28" net="U1_28" plated ="Y" c_shapetype="group" id="gge190" locked="0" c_rotation="270" c_width="7" c_height="7" title="U1_28" c_shape="ELLIPSE" pasteExpansion="0" solderExpansion="0.4"><ellipse cx="4119.5" cy="3164" rx="3.5" ry="3.5" stroke-width="0" /><circle c_padhole="1" cx="4119.5" cy="3164" r="1.8" stroke-width="0" /></g><g c_partid="part_pad" c_etype="pinpart" c_origin="4119.5,3174" layerid="11" number="27" net="U1_27" plated ="Y" c_shapetype="group" id="gge195" locked="0" c_rotation="270" c_width="7" c_height="7" title="U1_27" c_shape="ELLIPSE" pasteExpansion="0" solderExpansion="0.4"><ellipse cx="4119.5" cy="3174" rx="3.5" ry="3.5" stroke-width="0" /><circle c_padhole="1" cx="4119.5" cy="3174" r="1.8" stroke-width="0" /></g><g c_partid="part_pad" c_etype="pinpart" c_origin="4119.5,3184" layerid="11" number="26" net="U1_26" plated ="Y" c_shapetype="group" id="gge200" locked="0" c_rotation="270" c_width="7" c_height="7" title="U1_26" c_shape="ELLIPSE" pasteExpansion="0" solderExpansion="0.4"><ellipse cx="4119.5" cy="3184" rx="3.5" ry="3.5" stroke-width="0" /><circle c_padhole="1" cx="4119.5" cy="3184" r="1.8" stroke-width="0" /></g><g c_partid="part_pad" c_etype="pinpart" c_origin="4119.5,3204" layerid="11" number="24" net="U1_24" plated ="Y" c_shapetype="group" id="gge210" locked="0" c_rotation="270" c_width="7" c_height="7" title="U1_24" c_shape="ELLIPSE" pasteExpansion="0" solderExpansion="0.4"><ellipse cx="4119.5" cy="3204" rx="3.5" ry="3.5" stroke-width="0" /><circle c_padhole="1" cx="4119.5" cy="3204" r="1.8" stroke-width="0" /></g><g c_partid="part_pad" c_etype="pinpart" c_origin="4119.5,3214" layerid="11" number="23" net="U1_23" plated ="Y" c_shapetype="group" id="gge215" locked="0" c_rotation="270" c_width="7" c_height="7" title="U1_23" c_shape="ELLIPSE" pasteExpansion="0" solderExpansion="0.4"><ellipse cx="4119.5" cy="3214" rx="3.5" ry="3.5" stroke-width="0" /><circle c_padhole="1" cx="4119.5" cy="3214" r="1.8" stroke-width="0" /></g><g c_partid="part_pad" c_etype="pinpart" c_origin="4119.5,3224" layerid="11" number="22" net="U1_22" plated ="Y" c_shapetype="group" id="gge220" locked="0" c_rotation="270" c_width="7" c_height="7" title="U1_22" c_shape="ELLIPSE" pasteExpansion="0" solderExpansion="0.4"><ellipse cx="4119.5" cy="3224" rx="3.5" ry="3.5" stroke-width="0" /><circle c_padhole="1" cx="4119.5" cy="3224" r="1.8" stroke-width="0" /></g><g c_partid="part_pad" c_etype="pinpart" c_origin="4119.5,3234" layerid="11" number="21" net="U1_21" plated ="Y" c_shapetype="group" id="gge225" locked="0" c_rotation="270" c_width="7" c_height="7" title="U1_21" c_shape="ELLIPSE" pasteExpansion="0" solderExpansion="0.4"><ellipse cx="4119.5" cy="3234" rx="3.5" ry="3.5" stroke-width="0" /><circle c_padhole="1" cx="4119.5" cy="3234" r="1.8" stroke-width="0" /></g><g c_partid="part_pad" c_etype="pinpart" c_origin="4119.5,3244" layerid="11" number="20" net="U1_20" plated ="Y" c_shapetype="group" id="gge230" locked="0" c_rotation="270" c_width="7" c_height="7" title="U1_20" c_shape="ELLIPSE" pasteExpansion="0" solderExpansion="0.4"><ellipse cx="4119.5" cy="3244" rx="3.5" ry="3.5" stroke-width="0" /><circle c_padhole="1" cx="4119.5" cy="3244" r="1.8" stroke-width="0" /></g><g c_partid="part_pad" c_etype="pinpart" c_origin="4119.5,3254" layerid="11" number="19" net="U1_19" plated ="Y" c_shapetype="group" id="gge235" locked="0" c_rotation="270" c_width="7" c_height="7" title="U1_19" c_shape="ELLIPSE" pasteExpansion="0" solderExpansion="0.4"><ellipse cx="4119.5" cy="3254" rx="3.5" ry="3.5" stroke-width="0" /><circle c_padhole="1" cx="4119.5" cy="3254" r="1.8" stroke-width="0" /></g><g c_partid="part_pad" c_etype="pinpart" c_origin="4119.5,3264" layerid="11" number="18" net="U1_18" plated ="Y" c_shapetype="group" id="gge240" locked="0" c_rotation="270" c_width="7" c_height="7" title="U1_18" c_shape="ELLIPSE" pasteExpansion="0" solderExpansion="0.4"><ellipse cx="4119.5" cy="3264" rx="3.5" ry="3.5" stroke-width="0" /><circle c_padhole="1" cx="4119.5" cy="3264" r="1.8" stroke-width="0" /></g><g c_partid="part_pad" c_etype="pinpart" c_origin="4119.5,3274" layerid="11" number="17" net="U1_17" plated ="Y" c_shapetype="group" id="gge245" locked="0" c_rotation="270" c_width="7" c_height="7" title="U1_17" c_shape="ELLIPSE" pasteExpansion="0" solderExpansion="0.4"><ellipse cx="4119.5" cy="3274" rx="3.5" ry="3.5" stroke-width="0" /><circle c_padhole="1" cx="4119.5" cy="3274" r="1.8" stroke-width="0" /></g><g c_partid="part_pad" c_etype="pinpart" c_origin="4119.5,3284" layerid="11" number="16" net="U1_16" plated ="Y" c_shapetype="group" id="gge250" locked="0" c_rotation="270" c_width="7" c_height="7" title="U1_16" c_shape="ELLIPSE" pasteExpansion="0" solderExpansion="0.4"><ellipse cx="4119.5" cy="3284" rx="3.5" ry="3.5" stroke-width="0" /><circle c_padhole="1" cx="4119.5" cy="3284" r="1.8" stroke-width="0" /></g><g c_partid="part_pad" c_etype="pinpart" c_origin="4154.5,3175.5" layerid="11" number="1" net="+12V" plated ="Y" c_shapetype="group" id="gge328" locked="0" c_rotation="270" c_width="14.5669" c_height="14.5669" title="+12V" c_shape="RECT" pasteExpansion="0" solderExpansion="0.4"><polygon points="4161.78 3168.22 4161.78 3182.78 4147.22 3182.78 4147.22 3168.22" stroke-width="0" /><circle c_padhole="1" cx="4154.5" cy="3175.5" r="2.5591" stroke-width="0" /></g><g c_partid="part_pad" c_etype="pinpart" c_origin="4154.5,3194.5" layerid="11" number="2" net="SIG" plated ="Y" c_shapetype="group" id="gge333" locked="0" c_rotation="270" c_width="14.5669" c_height="14.5669" title="SIG" c_shape="ELLIPSE" pasteExpansion="0" solderExpansion="0.4"><ellipse cx="4154.5" cy="3194.5" rx="7.28345" ry="7.28345" stroke-width="0" /><circle c_padhole="1" cx="4154.5" cy="3194.5" r="2.5591" stroke-width="0" /></g><g c_partid="part_pad" c_etype="pinpart" c_origin="4154.5,3135" layerid="11" number="1" net="F2_2" plated ="Y" c_shapetype="group" id="gge351" locked="0" c_rotation="270" c_width="14.5669" c_height="14.5669" title="F2_2" c_shape="RECT" pasteExpansion="0" solderExpansion="0.4"><polygon points="4161.78 3127.72 4161.78 3142.28 4147.22 3142.28 4147.22 3127.72" stroke-width="0" /><circle c_padhole="1" cx="4154.5" cy="3135" r="2.5591" stroke-width="0" /></g><g c_partid="part_pad" c_etype="pinpart" c_origin="4154.5,3154" layerid="11" number="2" net="GND" plated ="Y" c_shapetype="group" id="gge356" locked="0" c_rotation="270" c_width="14.5669" c_height="14.5669" title="GND" c_shape="ELLIPSE" pasteExpansion="0" solderExpansion="0.4"><ellipse cx="4154.5" cy="3154" rx="7.28345" ry="7.28345" stroke-width="0" /><circle c_padhole="1" cx="4154.5" cy="3154" r="2.5591" stroke-width="0" /></g><g c_partid="part_hole" c_etype="pinpart" c_shapetype="group" c_origin="4090,3170.5" layerid="11" id="gge1021" ><circle cx="4090" cy="3170.5" r="6.1"   stroke-width="0" /></g><g c_partid="part_hole" c_etype="pinpart" c_shapetype="group" c_origin="4150,3280" layerid="11" id="gge448" ><circle cx="4150" cy="3280" r="6.1"   stroke-width="0" /></g><polyline points="4076.818 3115.85 4081.149 3115.85 4081.149 3122.15 4076.818 3122.15" stroke-width="0.7874" c_shapetype="line" stroke-linecap="round" fill="none" layerid="3" net="S$67" id="gge24" /><polyline points="4073.669 3115.85 4069.338 3115.85 4069.338 3119.787 4069.338 3122.15 4073.669 3122.15" stroke-width="0.7874" c_shapetype="line" stroke-linecap="round" fill="none" layerid="3" net="S$69" id="gge25" /><polyline points="4054.5 3299 4124.5 3299" stroke-width="1" c_shapetype="line" stroke-linecap="round" fill="none" layerid="3" net="" id="gge33" /><polyline points="4124.5 3299 4124.5 3129" stroke-width="1" c_shapetype="line" stroke-linecap="round" fill="none" layerid="3" net="" id="gge34" /><polyline points="4124.5 3129 4054.5 3129" stroke-width="1" c_shapetype="line" stroke-linecap="round" fill="none" layerid="3" net="" id="gge35" /><polyline points="4054.5 3129 4054.5 3299" stroke-width="1" c_shapetype="line" stroke-linecap="round" fill="none" layerid="3" net="" id="gge36" /><polyline points="4074.5 3284 4074.5 3314 4104.5 3314 4104.5 3284 4074.5 3284" stroke-width="1" c_shapetype="line" stroke-linecap="round" fill="none" layerid="3" net="" id="gge38" /><polyline points="4050.674 3050.687 4119.334 3050.687 4119.334 3116.237 4105.434 3116.237 4105.434 3101.277 4064.564 3101.277 4064.564 3116.237 4050.674 3116.237 4050.674 3050.687" stroke-width="0.4724" c_shapetype="line" stroke-linecap="round" fill="none" layerid="3" net="" id="gge313" /><polyline points="4141.689 3165.996 4141.697 3204.608" stroke-width="1" c_shapetype="line" stroke-linecap="round" fill="none" layerid="3" net="S$22" id="gge322" /><polyline points="4138.933 3165.602 4171.217 3165.602 4171.217 3204.578 4138.933 3204.578 4138.933 3165.602" stroke-width="1" c_shapetype="line" stroke-linecap="round" fill="none" layerid="3" net="" id="gge323" /><polyline points="4141.689 3125.496 4141.697 3164.108" stroke-width="1" c_shapetype="line" stroke-linecap="round" fill="none" layerid="3" net="S$22" id="gge345" /><polyline points="4138.933 3125.102 4171.217 3125.102 4171.217 3164.078 4138.933 3164.078 4138.933 3125.102" stroke-width="1" c_shapetype="line" stroke-linecap="round" fill="none" layerid="3" net="" id="gge346" /><polyline points="4144 3071 4144 3112 4130 3112 4130 3071 4144 3071" stroke-width="1" c_shapetype="line" stroke-linecap="round" fill="none" layerid="3" net="" id="gge378" /><g c_partid="part_pcbtext" c_origin="4075.09,3116.71" c_rotation="0" c_mirror="" id="gge4" layerid="3" c_shapetype="group" ><path c_fontSize="4.5" c_fontFamily="" c_text="C4" d="M 4078.164 3111.58 L 4077.954 3111.17 L 4077.544 3110.76 L 4077.144 3110.56 L 4076.324 3110.56 L 4075.914 3110.76 L 4075.504 3111.17 L 4075.294 3111.58 L 4075.094 3112.19 L 4075.094 3113.21 L 4075.294 3113.83 L 4075.504 3114.24 L 4075.914 3114.65 L 4076.324 3114.85 L 4077.144 3114.85 L 4077.544 3114.65 L 4077.954 3114.24 L 4078.164 3113.83 M 4081.554 3110.56 L 4079.514 3113.42 L 4082.584 3113.42 M 4081.554 3110.56 L 4081.554 3114.85" fill="none"  stroke-width="0.6" c_note="note_pre" /></g><g c_partid="part_pcbtext" c_origin="4075.09,3111.21" c_rotation="0" c_mirror="" id="gge6" layerid="3" c_shapetype="group" display="none"><path c_fontSize="4.5" c_fontFamily="" c_text="10nF" d="M 4075.094 3105.87 L 4075.504 3105.67 L 4076.114 3105.06 L 4076.114 3109.35 M 4078.694 3105.06 L 4078.084 3105.26 L 4077.674 3105.87 L 4077.464 3106.9 L 4077.464 3107.51 L 4077.674 3108.53 L 4078.084 3109.15 L 4078.694 3109.35 L 4079.104 3109.35 L 4079.714 3109.15 L 4080.124 3108.53 L 4080.334 3107.51 L 4080.334 3106.9 L 4080.124 3105.87 L 4079.714 3105.26 L 4079.104 3105.06 L 4078.694 3105.06 M 4081.684 3106.49 L 4081.684 3109.35 M 4081.684 3107.31 L 4082.294 3106.69 L 4082.704 3106.49 L 4083.314 3106.49 L 4083.724 3106.69 L 4083.934 3107.31 L 4083.934 3109.35 M 4085.284 3105.06 L 4085.284 3109.35 M 4085.284 3105.06 L 4087.944 3105.06 M 4085.284 3107.1 L 4086.914 3107.1" fill="none"  stroke-width="0.6"  /></g><g c_partid="part_pcbtext" c_origin="4088.5,3129.86" c_rotation="0" c_mirror="" id="gge29" layerid="3" c_shapetype="group" ><path c_fontSize="4.5" c_fontFamily="" c_text="U1" d="M 4088.5 3123.71 L 4088.5 3126.77 L 4088.7 3127.39 L 4089.11 3127.8 L 4089.73 3128 L 4090.14 3128 L 4090.75 3127.8 L 4091.16 3127.39 L 4091.36 3126.77 L 4091.36 3123.71 M 4092.71 3124.52 L 4093.12 3124.32 L 4093.74 3123.71 L 4093.74 3128" fill="none"  stroke-width="0.6" c_note="note_pre" /></g><g c_partid="part_pcbtext" c_origin="4088.5,3124.36" c_rotation="0" c_mirror="" id="gge31" layerid="3" c_shapetype="group" display="none"><path c_fontSize="4.5" c_fontFamily="" c_text="ARDUINO_NANO" d="M 4090.14 3118.21 L 4088.5 3122.5 M 4090.14 3118.21 L 4091.77 3122.5 M 4089.11 3121.07 L 4091.16 3121.07 M 4093.12 3118.21 L 4093.12 3122.5 M 4093.12 3118.21 L 4094.96 3118.21 L 4095.58 3118.41 L 4095.78 3118.61 L 4095.99 3119.02 L 4095.99 3119.43 L 4095.78 3119.84 L 4095.58 3120.05 L 4094.96 3120.25 L 4093.12 3120.25 M 4094.55 3120.25 L 4095.99 3122.5 M 4097.34 3118.21 L 4097.34 3122.5 M 4097.34 3118.21 L 4098.77 3118.21 L 4099.38 3118.41 L 4099.79 3118.82 L 4100 3119.23 L 4100.2 3119.84 L 4100.2 3120.86 L 4100 3121.48 L 4099.79 3121.89 L 4099.38 3122.3 L 4098.77 3122.5 L 4097.34 3122.5 M 4101.55 3118.21 L 4101.55 3121.27 L 4101.75 3121.89 L 4102.16 3122.3 L 4102.78 3122.5 L 4103.19 3122.5 L 4103.8 3122.3 L 4104.21 3121.89 L 4104.41 3121.27 L 4104.41 3118.21 M 4105.76 3118.21 L 4105.76 3122.5 M 4107.11 3118.21 L 4107.11 3122.5 M 4107.11 3118.21 L 4109.98 3122.5 M 4109.98 3118.21 L 4109.98 3122.5 M 4112.55 3118.21 L 4112.15 3118.41 L 4111.74 3118.82 L 4111.53 3119.23 L 4111.33 3119.84 L 4111.33 3120.86 L 4111.53 3121.48 L 4111.74 3121.89 L 4112.15 3122.3 L 4112.55 3122.5 L 4113.37 3122.5 L 4113.78 3122.3 L 4114.19 3121.89 L 4114.4 3121.48 L 4114.6 3120.86 L 4114.6 3119.84 L 4114.4 3119.23 L 4114.19 3118.82 L 4113.78 3118.41 L 4113.37 3118.21 L 4112.55 3118.21 M 4115.95 3123.93 L 4119.63 3123.93 M 4120.98 3118.21 L 4120.98 3122.5 M 4120.98 3118.21 L 4123.85 3122.5 M 4123.85 3118.21 L 4123.85 3122.5 M 4126.83 3118.21 L 4125.2 3122.5 M 4126.83 3118.21 L 4128.47 3122.5 M 4125.81 3121.07 L 4127.85 3121.07 M 4129.82 3118.21 L 4129.82 3122.5 M 4129.82 3118.21 L 4132.68 3122.5 M 4132.68 3118.21 L 4132.68 3122.5 M 4135.26 3118.21 L 4134.85 3118.41 L 4134.44 3118.82 L 4134.24 3119.23 L 4134.03 3119.84 L 4134.03 3120.86 L 4134.24 3121.48 L 4134.44 3121.89 L 4134.85 3122.3 L 4135.26 3122.5 L 4136.08 3122.5 L 4136.49 3122.3 L 4136.9 3121.89 L 4137.1 3121.48 L 4137.3 3120.86 L 4137.3 3119.84 L 4137.1 3119.23 L 4136.9 3118.82 L 4136.49 3118.41 L 4136.08 3118.21 L 4135.26 3118.21" fill="none"  stroke-width="0.6"  /></g><g c_partid="part_pcbtext" c_origin="4033.13,3142.91" c_rotation="0" c_mirror="" id="gge39" layerid="3" c_shapetype="group" ><path c_fontSize="4" c_fontFamily="" c_text="D1/TX" d="M 4033.13 3140.73 L 4033.13 3144.55 M 4033.13 3140.73 L 4034.4 3140.73 L 4034.95 3140.91 L 4035.31 3141.27 L 4035.49 3141.64 L 4035.68 3142.18 L 4035.68 3143.09 L 4035.49 3143.64 L 4035.31 3144 L 4034.95 3144.36 L 4034.4 3144.55 L 4033.13 3144.55 M 4036.88 3141.46 L 4037.24 3141.27 L 4037.78 3140.73 L 4037.78 3144.55 M 4042.26 3140 L 4038.98 3145.82 M 4044.73 3140.73 L 4044.73 3144.55 M 4043.46 3140.73 L 4046 3140.73 M 4047.2 3140.73 L 4049.75 3144.55 M 4049.75 3140.73 L 4047.2 3144.55" fill="none"  stroke-width="0.8"  /></g><g c_partid="part_pcbtext" c_origin="4130.5,3154" c_rotation="0" c_mirror="none" id="gge42" layerid="3" c_shapetype="group" ><path c_fontSize="4" c_fontFamily="" c_text="GND" d="M 4133.23 3152.73 L 4133.05 3152.36 L 4132.68 3152 L 4132.32 3151.82 L 4131.59 3151.82 L 4131.23 3152 L 4130.86 3152.36 L 4130.68 3152.73 L 4130.5 3153.27 L 4130.5 3154.18 L 4130.68 3154.73 L 4130.86 3155.09 L 4131.23 3155.45 L 4131.59 3155.64 L 4132.32 3155.64 L 4132.68 3155.45 L 4133.05 3155.09 L 4133.23 3154.73 L 4133.23 3154.18 M 4132.32 3154.18 L 4133.23 3154.18 M 4134.43 3151.82 L 4134.43 3155.64 M 4134.43 3151.82 L 4136.97 3155.64 M 4136.97 3151.82 L 4136.97 3155.64 M 4138.17 3151.82 L 4138.17 3155.64 M 4138.17 3151.82 L 4139.45 3151.82 L 4139.99 3152 L 4140.35 3152.36 L 4140.54 3152.73 L 4140.72 3153.27 L 4140.72 3154.18 L 4140.54 3154.73 L 4140.35 3155.09 L 4139.99 3155.45 L 4139.45 3155.64 L 4138.17 3155.64" fill="none"  stroke-width="0.8"  /></g><g c_partid="part_pcbtext" c_origin="4130.5,3175" c_rotation="0" c_mirror="" id="gge44" layerid="3" c_shapetype="group" ><path c_fontSize="4" c_fontFamily="" c_text="+5V" d="M 4132.14 3173.36 L 4132.14 3176.64 M 4130.5 3175 L 4133.77 3175 M 4137.15 3172.82 L 4135.34 3172.82 L 4135.15 3174.45 L 4135.34 3174.27 L 4135.88 3174.09 L 4136.43 3174.09 L 4136.97 3174.27 L 4137.34 3174.64 L 4137.52 3175.18 L 4137.52 3175.55 L 4137.34 3176.09 L 4136.97 3176.45 L 4136.43 3176.64 L 4135.88 3176.64 L 4135.34 3176.45 L 4135.15 3176.27 L 4134.97 3175.91 M 4138.72 3172.82 L 4140.17 3176.64 M 4141.63 3172.82 L 4140.17 3176.64" fill="none"  stroke-width="0.8"  /></g><g c_partid="part_pcbtext" c_origin="4023.71,3284" c_rotation="0" c_mirror="" id="gge48" layerid="3" c_shapetype="group" ><path c_fontSize="4" c_fontFamily="" c_text="D12/MISO" d="M 4023.71 3281.82 L 4023.71 3285.64 M 4023.71 3281.82 L 4024.98 3281.82 L 4025.53 3282 L 4025.89 3282.36 L 4026.07 3282.73 L 4026.26 3283.27 L 4026.26 3284.18 L 4026.07 3284.73 L 4025.89 3285.09 L 4025.53 3285.45 L 4024.98 3285.64 L 4023.71 3285.64 M 4027.46 3282.55 L 4027.82 3282.36 L 4028.36 3281.82 L 4028.36 3285.64 M 4029.75 3282.73 L 4029.75 3282.55 L 4029.93 3282.18 L 4030.11 3282 L 4030.47 3281.82 L 4031.2 3281.82 L 4031.56 3282 L 4031.75 3282.18 L 4031.93 3282.55 L 4031.93 3282.91 L 4031.75 3283.27 L 4031.38 3283.82 L 4029.56 3285.64 L 4032.11 3285.64 M 4036.58 3281.09 L 4033.31 3286.91 M 4037.78 3281.82 L 4037.78 3285.64 M 4037.78 3281.82 L 4039.24 3285.64 M 4040.69 3281.82 L 4039.24 3285.64 M 4040.69 3281.82 L 4040.69 3285.64 M 4041.89 3281.82 L 4041.89 3285.64 M 4045.64 3282.36 L 4045.27 3282 L 4044.73 3281.82 L 4044 3281.82 L 4043.46 3282 L 4043.09 3282.36 L 4043.09 3282.73 L 4043.27 3283.09 L 4043.46 3283.27 L 4043.82 3283.45 L 4044.91 3283.82 L 4045.27 3284 L 4045.46 3284.18 L 4045.64 3284.55 L 4045.64 3285.09 L 4045.27 3285.45 L 4044.73 3285.64 L 4044 3285.64 L 4043.46 3285.45 L 4043.09 3285.09 M 4047.93 3281.82 L 4047.56 3282 L 4047.2 3282.36 L 4047.02 3282.73 L 4046.84 3283.27 L 4046.84 3284.18 L 4047.02 3284.73 L 4047.2 3285.09 L 4047.56 3285.45 L 4047.93 3285.64 L 4048.66 3285.64 L 4049.02 3285.45 L 4049.38 3285.09 L 4049.56 3284.73 L 4049.75 3284.18 L 4049.75 3283.27 L 4049.56 3282.73 L 4049.38 3282.36 L 4049.02 3282 L 4048.66 3281.82 L 4047.93 3281.82" fill="none"  stroke-width="0.8"  /></g><g c_partid="part_pcbtext" c_origin="4130.5,3144" c_rotation="0" c_mirror="" id="gge50" layerid="3" c_shapetype="group" ><path c_fontSize="4" c_fontFamily="" c_text="VIN" d="M 4130.5 3141.82 L 4131.95 3145.64 M 4133.41 3141.82 L 4131.95 3145.64 M 4134.61 3141.82 L 4134.61 3145.64 M 4135.81 3141.82 L 4135.81 3145.64 M 4135.81 3141.82 L 4138.35 3145.64 M 4138.35 3141.82 L 4138.35 3145.64" fill="none"  stroke-width="0.8"  /></g><g c_partid="part_pcbtext" c_origin="4130.5,3285" c_rotation="0" c_mirror="" id="gge53" layerid="3" c_shapetype="group" ><path c_fontSize="4" c_fontFamily="" c_text="D13/SCK" d="M 4130.5 3282.82 L 4130.5 3286.64 M 4130.5 3282.82 L 4131.77 3282.82 L 4132.32 3283 L 4132.68 3283.36 L 4132.86 3283.73 L 4133.05 3284.27 L 4133.05 3285.18 L 4132.86 3285.73 L 4132.68 3286.09 L 4132.32 3286.45 L 4131.77 3286.64 L 4130.5 3286.64 M 4134.25 3283.55 L 4134.61 3283.36 L 4135.15 3282.82 L 4135.15 3286.64 M 4136.72 3282.82 L 4138.72 3282.82 L 4137.63 3284.27 L 4138.17 3284.27 L 4138.54 3284.45 L 4138.72 3284.64 L 4138.9 3285.18 L 4138.9 3285.55 L 4138.72 3286.09 L 4138.35 3286.45 L 4137.81 3286.64 L 4137.26 3286.64 L 4136.72 3286.45 L 4136.54 3286.27 L 4136.35 3285.91 M 4143.37 3282.09 L 4140.1 3287.91 M 4147.12 3283.36 L 4146.75 3283 L 4146.21 3282.82 L 4145.48 3282.82 L 4144.94 3283 L 4144.57 3283.36 L 4144.57 3283.73 L 4144.75 3284.09 L 4144.94 3284.27 L 4145.3 3284.45 L 4146.39 3284.82 L 4146.75 3285 L 4146.94 3285.18 L 4147.12 3285.55 L 4147.12 3286.09 L 4146.75 3286.45 L 4146.21 3286.64 L 4145.48 3286.64 L 4144.94 3286.45 L 4144.57 3286.09 M 4151.05 3283.73 L 4150.86 3283.36 L 4150.5 3283 L 4150.14 3282.82 L 4149.41 3282.82 L 4149.05 3283 L 4148.68 3283.36 L 4148.5 3283.73 L 4148.32 3284.27 L 4148.32 3285.18 L 4148.5 3285.73 L 4148.68 3286.09 L 4149.05 3286.45 L 4149.41 3286.64 L 4150.14 3286.64 L 4150.5 3286.45 L 4150.86 3286.09 L 4151.05 3285.73 M 4152.25 3282.82 L 4152.25 3286.64 M 4154.79 3282.82 L 4152.25 3285.36 M 4153.15 3284.45 L 4154.79 3286.64" fill="none"  stroke-width="0.8"  /></g><g c_partid="part_pcbtext" c_origin="4039.53,3174" c_rotation="0" c_mirror="none" id="gge55" layerid="3" c_shapetype="group" ><path c_fontSize="4" c_fontFamily="" c_text="GND" d="M 4042.26 3172.73 L 4042.08 3172.36 L 4041.71 3172 L 4041.35 3171.82 L 4040.62 3171.82 L 4040.26 3172 L 4039.89 3172.36 L 4039.71 3172.73 L 4039.53 3173.27 L 4039.53 3174.18 L 4039.71 3174.73 L 4039.89 3175.09 L 4040.26 3175.45 L 4040.62 3175.64 L 4041.35 3175.64 L 4041.71 3175.45 L 4042.08 3175.09 L 4042.26 3174.73 L 4042.26 3174.18 M 4041.35 3174.18 L 4042.26 3174.18 M 4043.46 3171.82 L 4043.46 3175.64 M 4043.46 3171.82 L 4046 3175.64 M 4046 3171.82 L 4046 3175.64 M 4047.2 3171.82 L 4047.2 3175.64 M 4047.2 3171.82 L 4048.48 3171.82 L 4049.02 3172 L 4049.38 3172.36 L 4049.57 3172.73 L 4049.75 3173.27 L 4049.75 3174.18 L 4049.57 3174.73 L 4049.38 3175.09 L 4049.02 3175.45 L 4048.48 3175.64 L 4047.2 3175.64" fill="none"  stroke-width="0.8"  /></g><g c_partid="part_pcbtext" c_origin="4031.5,3154.91" c_rotation="0" c_mirror="" id="gge57" layerid="3" c_shapetype="group" ><path c_fontSize="4" c_fontFamily="" c_text="D0/RX" d="M 4031.5 3152.73 L 4031.5 3156.55 M 4031.5 3152.73 L 4032.77 3152.73 L 4033.32 3152.91 L 4033.68 3153.27 L 4033.86 3153.64 L 4034.05 3154.18 L 4034.05 3155.09 L 4033.86 3155.64 L 4033.68 3156 L 4033.32 3156.36 L 4032.77 3156.55 L 4031.5 3156.55 M 4036.34 3152.73 L 4035.79 3152.91 L 4035.43 3153.46 L 4035.25 3154.36 L 4035.25 3154.91 L 4035.43 3155.82 L 4035.79 3156.36 L 4036.34 3156.55 L 4036.7 3156.55 L 4037.25 3156.36 L 4037.61 3155.82 L 4037.79 3154.91 L 4037.79 3154.36 L 4037.61 3153.46 L 4037.25 3152.91 L 4036.7 3152.73 L 4036.34 3152.73 M 4042.26 3152 L 4038.99 3157.82 M 4043.46 3152.73 L 4043.46 3156.55 M 4043.46 3152.73 L 4045.1 3152.73 L 4045.65 3152.91 L 4045.83 3153.09 L 4046.01 3153.46 L 4046.01 3153.82 L 4045.83 3154.18 L 4045.65 3154.36 L 4045.1 3154.55 L 4043.46 3154.55 M 4044.74 3154.55 L 4046.01 3156.55 M 4047.21 3152.73 L 4049.75 3156.55 M 4049.75 3152.73 L 4047.21 3156.55" fill="none"  stroke-width="0.8"  /></g><g c_partid="part_pcbtext" c_origin="4032.59,3164.18" c_rotation="0" c_mirror="" id="gge59" layerid="3" c_shapetype="group" ><path c_fontSize="4" c_fontFamily="" c_text="RESET" d="M 4032.59 3162 L 4032.59 3165.82 M 4032.59 3162 L 4034.23 3162 L 4034.77 3162.18 L 4034.95 3162.36 L 4035.14 3162.73 L 4035.14 3163.09 L 4034.95 3163.45 L 4034.77 3163.63 L 4034.23 3163.82 L 4032.59 3163.82 M 4033.86 3163.82 L 4035.14 3165.82 M 4036.34 3162 L 4036.34 3165.82 M 4036.34 3162 L 4038.7 3162 M 4036.34 3163.82 L 4037.79 3163.82 M 4036.34 3165.82 L 4038.7 3165.82 M 4042.44 3162.54 L 4042.08 3162.18 L 4041.54 3162 L 4040.81 3162 L 4040.26 3162.18 L 4039.9 3162.54 L 4039.9 3162.91 L 4040.08 3163.27 L 4040.26 3163.45 L 4040.63 3163.63 L 4041.72 3164 L 4042.08 3164.18 L 4042.26 3164.36 L 4042.44 3164.73 L 4042.44 3165.27 L 4042.08 3165.63 L 4041.54 3165.82 L 4040.81 3165.82 L 4040.26 3165.63 L 4039.9 3165.27 M 4043.64 3162 L 4043.64 3165.82 M 4043.64 3162 L 4046.01 3162 M 4043.64 3163.82 L 4045.1 3163.82 M 4043.64 3165.82 L 4046.01 3165.82 M 4048.48 3162 L 4048.48 3165.82 M 4047.21 3162 L 4049.75 3162" fill="none"  stroke-width="0.8"  /></g><g c_partid="part_pcbtext" c_origin="4043.46,3184" c_rotation="0" c_mirror="none" id="gge61" layerid="3" c_shapetype="group" ><path c_fontSize="4" c_fontFamily="" c_text="D2" d="M 4043.46 3181.82 L 4043.46 3185.64 M 4043.46 3181.82 L 4044.73 3181.82 L 4045.28 3182 L 4045.64 3182.36 L 4045.82 3182.73 L 4046.01 3183.27 L 4046.01 3184.18 L 4045.82 3184.73 L 4045.64 3185.09 L 4045.28 3185.45 L 4044.73 3185.64 L 4043.46 3185.64 M 4047.39 3182.73 L 4047.39 3182.55 L 4047.57 3182.18 L 4047.75 3182 L 4048.11 3181.82 L 4048.84 3181.82 L 4049.21 3182 L 4049.39 3182.18 L 4049.57 3182.55 L 4049.57 3182.91 L 4049.39 3183.27 L 4049.02 3183.82 L 4047.21 3185.64 L 4049.75 3185.64" fill="none"  stroke-width="0.8"  /></g><g c_partid="part_pcbtext" c_origin="4043.46,3194" c_rotation="0" c_mirror="none" id="gge63" layerid="3" c_shapetype="group" ><path c_fontSize="4" c_fontFamily="" c_text="D3" d="M 4043.46 3191.82 L 4043.46 3195.64 M 4043.46 3191.82 L 4044.73 3191.82 L 4045.28 3192 L 4045.64 3192.36 L 4045.82 3192.73 L 4046.01 3193.27 L 4046.01 3194.18 L 4045.82 3194.73 L 4045.64 3195.09 L 4045.28 3195.45 L 4044.73 3195.64 L 4043.46 3195.64 M 4047.57 3191.82 L 4049.57 3191.82 L 4048.48 3193.27 L 4049.02 3193.27 L 4049.39 3193.45 L 4049.57 3193.64 L 4049.75 3194.18 L 4049.75 3194.55 L 4049.57 3195.09 L 4049.21 3195.45 L 4048.66 3195.64 L 4048.11 3195.64 L 4047.57 3195.45 L 4047.39 3195.27 L 4047.21 3194.91" fill="none"  stroke-width="0.8"  /></g><g c_partid="part_pcbtext" c_origin="4043.28,3204" c_rotation="0" c_mirror="none" id="gge65" layerid="3" c_shapetype="group" ><path c_fontSize="4" c_fontFamily="" c_text="D4" d="M 4043.28 3201.82 L 4043.28 3205.64 M 4043.28 3201.82 L 4044.55 3201.82 L 4045.1 3202 L 4045.46 3202.36 L 4045.64 3202.73 L 4045.83 3203.27 L 4045.83 3204.18 L 4045.64 3204.73 L 4045.46 3205.09 L 4045.1 3205.45 L 4044.55 3205.64 L 4043.28 3205.64 M 4048.84 3201.82 L 4047.03 3204.36 L 4049.75 3204.36 M 4048.84 3201.82 L 4048.84 3205.64" fill="none"  stroke-width="0.8"  /></g><g c_partid="part_pcbtext" c_origin="4043.46,3213" c_rotation="0" c_mirror="none" id="gge67" layerid="3" c_shapetype="group" ><path c_fontSize="4" c_fontFamily="" c_text="D5" d="M 4043.46 3210.82 L 4043.46 3214.64 M 4043.46 3210.82 L 4044.73 3210.82 L 4045.28 3211 L 4045.64 3211.36 L 4045.82 3211.73 L 4046.01 3212.27 L 4046.01 3213.18 L 4045.82 3213.73 L 4045.64 3214.09 L 4045.28 3214.45 L 4044.73 3214.64 L 4043.46 3214.64 M 4049.39 3210.82 L 4047.57 3210.82 L 4047.39 3212.45 L 4047.57 3212.27 L 4048.11 3212.09 L 4048.66 3212.09 L 4049.21 3212.27 L 4049.57 3212.64 L 4049.75 3213.18 L 4049.75 3213.55 L 4049.57 3214.09 L 4049.21 3214.45 L 4048.66 3214.64 L 4048.11 3214.64 L 4047.57 3214.45 L 4047.39 3214.27 L 4047.21 3213.91" fill="none"  stroke-width="0.8"  /></g><g c_partid="part_pcbtext" c_origin="4043.64,3223" c_rotation="0" c_mirror="none" id="gge69" layerid="3" c_shapetype="group" ><path c_fontSize="4" c_fontFamily="" c_text="D6" d="M 4043.64 3220.82 L 4043.64 3224.64 M 4043.64 3220.82 L 4044.91 3220.82 L 4045.46 3221 L 4045.82 3221.36 L 4046 3221.73 L 4046.19 3222.27 L 4046.19 3223.18 L 4046 3223.73 L 4045.82 3224.09 L 4045.46 3224.45 L 4044.91 3224.64 L 4043.64 3224.64 M 4049.57 3221.36 L 4049.39 3221 L 4048.84 3220.82 L 4048.48 3220.82 L 4047.93 3221 L 4047.57 3221.55 L 4047.39 3222.45 L 4047.39 3223.36 L 4047.57 3224.09 L 4047.93 3224.45 L 4048.48 3224.64 L 4048.66 3224.64 L 4049.2 3224.45 L 4049.57 3224.09 L 4049.75 3223.55 L 4049.75 3223.36 L 4049.57 3222.82 L 4049.2 3222.45 L 4048.66 3222.27 L 4048.48 3222.27 L 4047.93 3222.45 L 4047.57 3222.82 L 4047.39 3223.36" fill="none"  stroke-width="0.8"  /></g><g c_partid="part_pcbtext" c_origin="4043.46,3234" c_rotation="0" c_mirror="none" id="gge71" layerid="3" c_shapetype="group" ><path c_fontSize="4" c_fontFamily="" c_text="D7" d="M 4043.46 3231.82 L 4043.46 3235.64 M 4043.46 3231.82 L 4044.73 3231.82 L 4045.28 3232 L 4045.64 3232.36 L 4045.82 3232.73 L 4046.01 3233.27 L 4046.01 3234.18 L 4045.82 3234.73 L 4045.64 3235.09 L 4045.28 3235.45 L 4044.73 3235.64 L 4043.46 3235.64 M 4049.75 3231.82 L 4047.93 3235.64 M 4047.21 3231.82 L 4049.75 3231.82" fill="none"  stroke-width="0.8"  /></g><g c_partid="part_pcbtext" c_origin="4043.46,3243" c_rotation="0" c_mirror="none" id="gge75" layerid="3" c_shapetype="group" ><path c_fontSize="4" c_fontFamily="" c_text="D8" d="M 4043.46 3240.82 L 4043.46 3244.64 M 4043.46 3240.82 L 4044.73 3240.82 L 4045.28 3241 L 4045.64 3241.36 L 4045.82 3241.73 L 4046.01 3242.27 L 4046.01 3243.18 L 4045.82 3243.73 L 4045.64 3244.09 L 4045.28 3244.45 L 4044.73 3244.64 L 4043.46 3244.64 M 4048.11 3240.82 L 4047.57 3241 L 4047.39 3241.36 L 4047.39 3241.73 L 4047.57 3242.09 L 4047.93 3242.27 L 4048.66 3242.45 L 4049.21 3242.64 L 4049.57 3243 L 4049.75 3243.36 L 4049.75 3243.91 L 4049.57 3244.27 L 4049.39 3244.45 L 4048.84 3244.64 L 4048.11 3244.64 L 4047.57 3244.45 L 4047.39 3244.27 L 4047.21 3243.91 L 4047.21 3243.36 L 4047.39 3243 L 4047.75 3242.64 L 4048.3 3242.45 L 4049.02 3242.27 L 4049.39 3242.09 L 4049.57 3241.73 L 4049.57 3241.36 L 4049.39 3241 L 4048.84 3240.82 L 4048.11 3240.82" fill="none"  stroke-width="0.8"  /></g><g c_partid="part_pcbtext" c_origin="4043.64,3253" c_rotation="0" c_mirror="none" id="gge77" layerid="3" c_shapetype="group" ><path c_fontSize="4" c_fontFamily="" c_text="D9" d="M 4043.64 3250.82 L 4043.64 3254.64 M 4043.64 3250.82 L 4044.91 3250.82 L 4045.46 3251 L 4045.82 3251.36 L 4046 3251.73 L 4046.19 3252.27 L 4046.19 3253.18 L 4046 3253.73 L 4045.82 3254.09 L 4045.46 3254.45 L 4044.91 3254.64 L 4043.64 3254.64 M 4049.75 3252.09 L 4049.57 3252.64 L 4049.2 3253 L 4048.66 3253.18 L 4048.48 3253.18 L 4047.93 3253 L 4047.57 3252.64 L 4047.39 3252.09 L 4047.39 3251.91 L 4047.57 3251.36 L 4047.93 3251 L 4048.48 3250.82 L 4048.66 3250.82 L 4049.2 3251 L 4049.57 3251.36 L 4049.75 3252.09 L 4049.75 3253 L 4049.57 3253.91 L 4049.2 3254.45 L 4048.66 3254.64 L 4048.29 3254.64 L 4047.75 3254.45 L 4047.57 3254.09" fill="none"  stroke-width="0.8"  /></g><g c_partid="part_pcbtext" c_origin="4041.35,3264" c_rotation="0" c_mirror="none" id="gge79" layerid="3" c_shapetype="group" ><path c_fontSize="4" c_fontFamily="" c_text="D10" d="M 4041.35 3261.82 L 4041.35 3265.64 M 4041.35 3261.82 L 4042.62 3261.82 L 4043.17 3262 L 4043.53 3262.36 L 4043.71 3262.73 L 4043.9 3263.27 L 4043.9 3264.18 L 4043.71 3264.73 L 4043.53 3265.09 L 4043.17 3265.45 L 4042.62 3265.64 L 4041.35 3265.64 M 4045.1 3262.55 L 4045.46 3262.36 L 4046 3261.82 L 4046 3265.64 M 4048.3 3261.82 L 4047.75 3262 L 4047.39 3262.55 L 4047.2 3263.45 L 4047.2 3264 L 4047.39 3264.91 L 4047.75 3265.45 L 4048.3 3265.64 L 4048.66 3265.64 L 4049.2 3265.45 L 4049.57 3264.91 L 4049.75 3264 L 4049.75 3263.45 L 4049.57 3262.55 L 4049.2 3262 L 4048.66 3261.82 L 4048.3 3261.82" fill="none"  stroke-width="0.8"  /></g><g c_partid="part_pcbtext" c_origin="4025.35,3273" c_rotation="0" c_mirror="" id="gge81" layerid="3" c_shapetype="group" ><path c_fontSize="4" c_fontFamily="" c_text="D11/MOSI" d="M 4025.35 3270.82 L 4025.35 3274.64 M 4025.35 3270.82 L 4026.62 3270.82 L 4027.17 3271 L 4027.53 3271.36 L 4027.71 3271.73 L 4027.9 3272.27 L 4027.9 3273.18 L 4027.71 3273.73 L 4027.53 3274.09 L 4027.17 3274.45 L 4026.62 3274.64 L 4025.35 3274.64 M 4029.1 3271.55 L 4029.46 3271.36 L 4030 3270.82 L 4030 3274.64 M 4031.2 3271.55 L 4031.57 3271.36 L 4032.11 3270.82 L 4032.11 3274.64 M 4036.59 3270.09 L 4033.31 3275.91 M 4037.79 3270.82 L 4037.79 3274.64 M 4037.79 3270.82 L 4039.24 3274.64 M 4040.7 3270.82 L 4039.24 3274.64 M 4040.7 3270.82 L 4040.7 3274.64 M 4042.99 3270.82 L 4042.62 3271 L 4042.26 3271.36 L 4042.08 3271.73 L 4041.9 3272.27 L 4041.9 3273.18 L 4042.08 3273.73 L 4042.26 3274.09 L 4042.62 3274.45 L 4042.99 3274.64 L 4043.71 3274.64 L 4044.08 3274.45 L 4044.44 3274.09 L 4044.62 3273.73 L 4044.8 3273.18 L 4044.8 3272.27 L 4044.62 3271.73 L 4044.44 3271.36 L 4044.08 3271 L 4043.71 3270.82 L 4042.99 3270.82 M 4048.55 3271.36 L 4048.19 3271 L 4047.64 3270.82 L 4046.91 3270.82 L 4046.37 3271 L 4046 3271.36 L 4046 3271.73 L 4046.19 3272.09 L 4046.37 3272.27 L 4046.73 3272.45 L 4047.82 3272.82 L 4048.19 3273 L 4048.37 3273.18 L 4048.55 3273.55 L 4048.55 3274.09 L 4048.19 3274.45 L 4047.64 3274.64 L 4046.91 3274.64 L 4046.37 3274.45 L 4046 3274.09 M 4049.75 3270.82 L 4049.75 3274.64" fill="none"  stroke-width="0.8"  /></g><g c_partid="part_pcbtext" c_origin="4130.5,3275" c_rotation="0" c_mirror="none" id="gge83" layerid="3" c_shapetype="group" ><path c_fontSize="4" c_fontFamily="" c_text="3V3" d="M 4130.86 3272.82 L 4132.86 3272.82 L 4131.77 3274.27 L 4132.32 3274.27 L 4132.68 3274.45 L 4132.86 3274.64 L 4133.05 3275.18 L 4133.05 3275.55 L 4132.86 3276.09 L 4132.5 3276.45 L 4131.95 3276.64 L 4131.41 3276.64 L 4130.86 3276.45 L 4130.68 3276.27 L 4130.5 3275.91 M 4134.25 3272.82 L 4135.7 3276.64 M 4137.15 3272.82 L 4135.7 3276.64 M 4138.72 3272.82 L 4140.72 3272.82 L 4139.63 3274.27 L 4140.17 3274.27 L 4140.54 3274.45 L 4140.72 3274.64 L 4140.9 3275.18 L 4140.9 3275.55 L 4140.72 3276.09 L 4140.35 3276.45 L 4139.81 3276.64 L 4139.26 3276.64 L 4138.72 3276.45 L 4138.54 3276.27 L 4138.35 3275.91" fill="none"  stroke-width="0.8"  /></g><g c_partid="part_pcbtext" c_origin="4130.5,3264" c_rotation="0" c_mirror="" id="gge85" layerid="3" c_shapetype="group" ><path c_fontSize="4" c_fontFamily="" c_text="AREF" d="M 4131.95 3261.82 L 4130.5 3265.64 M 4131.95 3261.82 L 4133.41 3265.64 M 4131.05 3264.36 L 4132.86 3264.36 M 4134.61 3261.82 L 4134.61 3265.64 M 4134.61 3261.82 L 4136.25 3261.82 L 4136.79 3262 L 4136.97 3262.18 L 4137.15 3262.55 L 4137.15 3262.91 L 4136.97 3263.27 L 4136.79 3263.45 L 4136.25 3263.64 L 4134.61 3263.64 M 4135.88 3263.64 L 4137.15 3265.64 M 4138.35 3261.82 L 4138.35 3265.64 M 4138.35 3261.82 L 4140.72 3261.82 M 4138.35 3263.64 L 4139.81 3263.64 M 4138.35 3265.64 L 4140.72 3265.64 M 4141.92 3261.82 L 4141.92 3265.64 M 4141.92 3261.82 L 4144.28 3261.82 M 4141.92 3263.64 L 4143.37 3263.64" fill="none"  stroke-width="0.8"  /></g><g c_partid="part_pcbtext" c_origin="4130.5,3255" c_rotation="0" c_mirror="none" id="gge87" layerid="3" c_shapetype="group" ><path c_fontSize="4" c_fontFamily="" c_text="A0" d="M 4131.95 3252.82 L 4130.5 3256.64 M 4131.95 3252.82 L 4133.41 3256.64 M 4131.05 3255.36 L 4132.86 3255.36 M 4135.7 3252.82 L 4135.15 3253 L 4134.79 3253.55 L 4134.61 3254.45 L 4134.61 3255 L 4134.79 3255.91 L 4135.15 3256.45 L 4135.7 3256.64 L 4136.06 3256.64 L 4136.61 3256.45 L 4136.97 3255.91 L 4137.15 3255 L 4137.15 3254.45 L 4136.97 3253.55 L 4136.61 3253 L 4136.06 3252.82 L 4135.7 3252.82" fill="none"  stroke-width="0.8"  /></g><g c_partid="part_pcbtext" c_origin="4130.5,3244" c_rotation="0" c_mirror="none" id="gge89" layerid="3" c_shapetype="group" ><path c_fontSize="4" c_fontFamily="" c_text="A1" d="M 4131.95 3241.82 L 4130.5 3245.64 M 4131.95 3241.82 L 4133.41 3245.64 M 4131.05 3244.36 L 4132.86 3244.36 M 4134.61 3242.55 L 4134.97 3242.36 L 4135.52 3241.82 L 4135.52 3245.64" fill="none"  stroke-width="0.8"  /></g><g c_partid="part_pcbtext" c_origin="4130.5,3235" c_rotation="0" c_mirror="none" id="gge91" layerid="3" c_shapetype="group" ><path c_fontSize="4" c_fontFamily="" c_text="A2" d="M 4131.95 3232.82 L 4130.5 3236.64 M 4131.95 3232.82 L 4133.41 3236.64 M 4131.05 3235.36 L 4132.86 3235.36 M 4134.79 3233.73 L 4134.79 3233.55 L 4134.97 3233.18 L 4135.15 3233 L 4135.52 3232.82 L 4136.25 3232.82 L 4136.61 3233 L 4136.79 3233.18 L 4136.97 3233.55 L 4136.97 3233.91 L 4136.79 3234.27 L 4136.43 3234.82 L 4134.61 3236.64 L 4137.15 3236.64" fill="none"  stroke-width="0.8"  /></g><g c_partid="part_pcbtext" c_origin="4130.5,3224" c_rotation="0" c_mirror="none" id="gge93" layerid="3" c_shapetype="group" ><path c_fontSize="4" c_fontFamily="" c_text="A3" d="M 4131.95 3221.82 L 4130.5 3225.64 M 4131.95 3221.82 L 4133.41 3225.64 M 4131.05 3224.36 L 4132.86 3224.36 M 4134.97 3221.82 L 4136.97 3221.82 L 4135.88 3223.27 L 4136.43 3223.27 L 4136.79 3223.45 L 4136.97 3223.64 L 4137.15 3224.18 L 4137.15 3224.55 L 4136.97 3225.09 L 4136.61 3225.45 L 4136.06 3225.64 L 4135.52 3225.64 L 4134.97 3225.45 L 4134.79 3225.27 L 4134.61 3224.91" fill="none"  stroke-width="0.8"  /></g><g c_partid="part_pcbtext" c_origin="4130.5,3214" c_rotation="0" c_mirror="none" id="gge95" layerid="3" c_shapetype="group" ><path c_fontSize="4" c_fontFamily="" c_text="A4" d="M 4131.95 3211.82 L 4130.5 3215.64 M 4131.95 3211.82 L 4133.41 3215.64 M 4131.05 3214.36 L 4132.86 3214.36 M 4136.43 3211.82 L 4134.61 3214.36 L 4137.34 3214.36 M 4136.43 3211.82 L 4136.43 3215.64" fill="none"  stroke-width="0.8"  /></g><g c_partid="part_pcbtext" c_origin="4130.5,3204" c_rotation="0" c_mirror="none" id="gge97" layerid="3" c_shapetype="group" ><path c_fontSize="4" c_fontFamily="" c_text="A5" d="M 4131.95 3201.82 L 4130.5 3205.64 M 4131.95 3201.82 L 4133.41 3205.64 M 4131.05 3204.36 L 4132.86 3204.36 M 4136.79 3201.82 L 4134.97 3201.82 L 4134.79 3203.45 L 4134.97 3203.27 L 4135.52 3203.09 L 4136.06 3203.09 L 4136.61 3203.27 L 4136.97 3203.64 L 4137.15 3204.18 L 4137.15 3204.55 L 4136.97 3205.09 L 4136.61 3205.45 L 4136.06 3205.64 L 4135.52 3205.64 L 4134.97 3205.45 L 4134.79 3205.27 L 4134.61 3204.91" fill="none"  stroke-width="0.8"  /></g><g c_partid="part_pcbtext" c_origin="4130.5,3195" c_rotation="0" c_mirror="none" id="gge99" layerid="3" c_shapetype="group" ><path c_fontSize="4" c_fontFamily="" c_text="A6" d="M 4131.95 3192.82 L 4130.5 3196.64 M 4131.95 3192.82 L 4133.41 3196.64 M 4131.05 3195.36 L 4132.86 3195.36 M 4136.79 3193.36 L 4136.61 3193 L 4136.06 3192.82 L 4135.7 3192.82 L 4135.15 3193 L 4134.79 3193.55 L 4134.61 3194.45 L 4134.61 3195.36 L 4134.79 3196.09 L 4135.15 3196.45 L 4135.7 3196.64 L 4135.88 3196.64 L 4136.43 3196.45 L 4136.79 3196.09 L 4136.97 3195.55 L 4136.97 3195.36 L 4136.79 3194.82 L 4136.43 3194.45 L 4135.88 3194.27 L 4135.7 3194.27 L 4135.15 3194.45 L 4134.79 3194.82 L 4134.61 3195.36" fill="none"  stroke-width="0.8"  /></g><g c_partid="part_pcbtext" c_origin="4130.5,3184" c_rotation="0" c_mirror="none" id="gge101" layerid="3" c_shapetype="group" ><path c_fontSize="4" c_fontFamily="" c_text="A7" d="M 4131.95 3181.82 L 4130.5 3185.64 M 4131.95 3181.82 L 4133.41 3185.64 M 4131.05 3184.36 L 4132.86 3184.36 M 4137.15 3181.82 L 4135.34 3185.64 M 4134.61 3181.82 L 4137.15 3181.82" fill="none"  stroke-width="0.8"  /></g><g c_partid="part_pcbtext" c_origin="4130.5,3164" c_rotation="0" c_mirror="" id="gge103" layerid="3" c_shapetype="group" ><path c_fontSize="4" c_fontFamily="" c_text="RESET" d="M 4130.5 3161.82 L 4130.5 3165.64 M 4130.5 3161.82 L 4132.14 3161.82 L 4132.68 3162 L 4132.86 3162.18 L 4133.05 3162.55 L 4133.05 3162.91 L 4132.86 3163.27 L 4132.68 3163.45 L 4132.14 3163.64 L 4130.5 3163.64 M 4131.77 3163.64 L 4133.05 3165.64 M 4134.25 3161.82 L 4134.25 3165.64 M 4134.25 3161.82 L 4136.61 3161.82 M 4134.25 3163.64 L 4135.7 3163.64 M 4134.25 3165.64 L 4136.61 3165.64 M 4140.35 3162.36 L 4139.99 3162 L 4139.45 3161.82 L 4138.72 3161.82 L 4138.17 3162 L 4137.81 3162.36 L 4137.81 3162.73 L 4137.99 3163.09 L 4138.17 3163.27 L 4138.54 3163.45 L 4139.63 3163.82 L 4139.99 3164 L 4140.17 3164.18 L 4140.35 3164.55 L 4140.35 3165.09 L 4139.99 3165.45 L 4139.45 3165.64 L 4138.72 3165.64 L 4138.17 3165.45 L 4137.81 3165.09 M 4141.55 3161.82 L 4141.55 3165.64 M 4141.55 3161.82 L 4143.92 3161.82 M 4141.55 3163.64 L 4143.01 3163.64 M 4141.55 3165.64 L 4143.92 3165.64 M 4146.39 3161.82 L 4146.39 3165.64 M 4145.12 3161.82 L 4147.66 3161.82" fill="none"  stroke-width="0.8"  /></g><g c_partid="part_pcbtext" c_origin="4092.5,3117.15" c_rotation="0" c_mirror="" id="gge258" layerid="3" c_shapetype="group" ><path c_fontSize="4.5" c_fontFamily="" c_text="IC2" d="M 4092.5 3110.9999 L 4092.5 3115.2899 M 4096.92 3112.0199 L 4096.71 3111.6099 L 4096.3 3111.1999 L 4095.9 3110.9999 L 4095.08 3110.9999 L 4094.67 3111.1999 L 4094.26 3111.6099 L 4094.05 3112.0199 L 4093.85 3112.6299 L 4093.85 3113.6499 L 4094.05 3114.2699 L 4094.26 3114.6799 L 4094.67 3115.0899 L 4095.08 3115.2899 L 4095.9 3115.2899 L 4096.3 3115.0899 L 4096.71 3114.6799 L 4096.92 3114.2699 M 4098.47 3112.0199 L 4098.47 3111.8099 L 4098.68 3111.3999 L 4098.88 3111.1999 L 4099.29 3110.9999 L 4100.11 3110.9999 L 4100.52 3111.1999 L 4100.72 3111.3999 L 4100.93 3111.8099 L 4100.93 3112.2199 L 4100.72 3112.6299 L 4100.31 3113.2499 L 4098.27 3115.2899 L 4101.13 3115.2899" fill="none"  stroke-width="0.6" c_note="note_pre" /></g><g c_partid="part_pcbtext" c_origin="4085.35,3120.88" c_rotation="180" c_mirror="" id="gge260" layerid="3" c_shapetype="group" display="none"><path c_fontSize="4.5" c_fontFamily="" c_text="TR-72D" d="M 4083.924 3127.027 L 4083.924 3122.737 M 4085.354 3127.027 L 4082.494 3127.027 M 4081.144 3127.027 L 4081.144 3122.737 M 4081.144 3127.027 L 4079.304 3127.027 L 4078.684 3126.827 L 4078.484 3126.627 L 4078.274 3126.217 L 4078.274 3125.807 L 4078.484 3125.397 L 4078.684 3125.187 L 4079.304 3124.987 L 4081.144 3124.987 M 4079.704 3124.987 L 4078.274 3122.737 M 4076.924 3124.577 L 4073.244 3124.577 M 4069.034 3127.027 L 4071.074 3122.737 M 4071.894 3127.027 L 4069.034 3127.027 M 4067.474 3126.007 L 4067.474 3126.217 L 4067.274 3126.627 L 4067.064 3126.827 L 4066.654 3127.027 L 4065.844 3127.027 L 4065.434 3126.827 L 4065.224 3126.627 L 4065.024 3126.217 L 4065.024 3125.807 L 4065.224 3125.397 L 4065.634 3124.777 L 4067.684 3122.737 L 4064.814 3122.737 M 4063.464 3127.027 L 4063.464 3122.737 M 4063.464 3127.027 L 4062.034 3127.027 L 4061.424 3126.827 L 4061.014 3126.417 L 4060.804 3126.007 L 4060.604 3125.397 L 4060.604 3124.377 L 4060.804 3123.757 L 4061.014 3123.347 L 4061.424 3122.937 L 4062.034 3122.737 L 4063.464 3122.737" fill="none"  stroke-width="0.6"  /></g><g c_partid="part_pcbtext" c_origin="4154.5,3166.46" c_rotation="0" c_mirror="" id="gge318" layerid="3" c_shapetype="group" ><path c_fontSize="4.5" c_fontFamily="" c_text="J5" d="M 4156.55 3160.31 L 4156.55 3163.58 L 4156.34 3164.19 L 4156.14 3164.4 L 4155.73 3164.6 L 4155.32 3164.6 L 4154.91 3164.4 L 4154.7 3164.19 L 4154.5 3163.58 L 4154.5 3163.17 M 4160.35 3160.31 L 4158.3 3160.31 L 4158.1 3162.15 L 4158.3 3161.94 L 4158.92 3161.74 L 4159.53 3161.74 L 4160.15 3161.94 L 4160.55 3162.35 L 4160.76 3162.97 L 4160.76 3163.38 L 4160.55 3163.99 L 4160.15 3164.4 L 4159.53 3164.6 L 4158.92 3164.6 L 4158.3 3164.4 L 4158.1 3164.19 L 4157.9 3163.78" fill="none"  stroke-width="0.6" c_note="note_pre" /></g><g c_partid="part_pcbtext" c_origin="4154.5,3160.96" c_rotation="0" c_mirror="" id="gge320" layerid="3" c_shapetype="group" display="none"><path c_fontSize="4.5" c_fontFamily="" c_text="KF127_2P_5.08" d="M 4154.5 3154.81 L 4154.5 3159.1 M 4157.36 3154.81 L 4154.5 3157.67 M 4155.52 3156.65 L 4157.36 3159.1 M 4158.71 3154.81 L 4158.71 3159.1 M 4158.71 3154.81 L 4161.37 3154.81 M 4158.71 3156.85 L 4160.35 3156.85 M 4162.72 3155.63 L 4163.13 3155.42 L 4163.75 3154.81 L 4163.75 3159.1 M 4165.3 3155.83 L 4165.3 3155.63 L 4165.5 3155.22 L 4165.71 3155.01 L 4166.12 3154.81 L 4166.94 3154.81 L 4167.35 3155.01 L 4167.55 3155.22 L 4167.75 3155.63 L 4167.75 3156.03 L 4167.55 3156.44 L 4167.14 3157.06 L 4165.1 3159.1 L 4167.96 3159.1 M 4172.17 3154.81 L 4170.13 3159.1 M 4169.31 3154.81 L 4172.17 3154.81 M 4173.52 3160.53 L 4177.2 3160.53 M 4178.76 3155.83 L 4178.76 3155.63 L 4178.96 3155.22 L 4179.17 3155.01 L 4179.58 3154.81 L 4180.4 3154.81 L 4180.8 3155.01 L 4181.01 3155.22 L 4181.21 3155.63 L 4181.21 3156.03 L 4181.01 3156.44 L 4180.6 3157.06 L 4178.55 3159.1 L 4181.42 3159.1 M 4182.77 3154.81 L 4182.77 3159.1 M 4182.77 3154.81 L 4184.61 3154.81 L 4185.22 3155.01 L 4185.43 3155.22 L 4185.63 3155.63 L 4185.63 3156.24 L 4185.43 3156.65 L 4185.22 3156.85 L 4184.61 3157.06 L 4182.77 3157.06 M 4186.98 3160.53 L 4190.66 3160.53 M 4194.47 3154.81 L 4192.42 3154.81 L 4192.22 3156.65 L 4192.42 3156.44 L 4193.04 3156.24 L 4193.65 3156.24 L 4194.26 3156.44 L 4194.67 3156.85 L 4194.88 3157.47 L 4194.88 3157.88 L 4194.67 3158.49 L 4194.26 3158.9 L 4193.65 3159.1 L 4193.04 3159.1 L 4192.42 3158.9 L 4192.22 3158.69 L 4192.01 3158.28 M 4196.43 3158.08 L 4196.23 3158.28 L 4196.43 3158.49 L 4196.64 3158.28 L 4196.43 3158.08 M 4199.21 3154.81 L 4198.6 3155.01 L 4198.19 3155.63 L 4197.99 3156.65 L 4197.99 3157.26 L 4198.19 3158.28 L 4198.6 3158.9 L 4199.21 3159.1 L 4199.62 3159.1 L 4200.24 3158.9 L 4200.65 3158.28 L 4200.85 3157.26 L 4200.85 3156.65 L 4200.65 3155.63 L 4200.24 3155.01 L 4199.62 3154.81 L 4199.21 3154.81 M 4203.22 3154.81 L 4202.61 3155.01 L 4202.4 3155.42 L 4202.4 3155.83 L 4202.61 3156.24 L 4203.02 3156.44 L 4203.84 3156.65 L 4204.45 3156.85 L 4204.86 3157.26 L 4205.06 3157.67 L 4205.06 3158.28 L 4204.86 3158.69 L 4204.65 3158.9 L 4204.04 3159.1 L 4203.22 3159.1 L 4202.61 3158.9 L 4202.4 3158.69 L 4202.2 3158.28 L 4202.2 3157.67 L 4202.4 3157.26 L 4202.81 3156.85 L 4203.43 3156.65 L 4204.25 3156.44 L 4204.65 3156.24 L 4204.86 3155.83 L 4204.86 3155.42 L 4204.65 3155.01 L 4204.04 3154.81 L 4203.22 3154.81" fill="none"  stroke-width="0.6"  /></g><g c_partid="part_pcbtext" c_origin="4167.5,3174.5" c_rotation="270" c_mirror="none" id="gge324" layerid="3" c_shapetype="group" ><path c_fontSize="3.937" c_fontFamily="" c_text="1" d="M 4168.9301 3174.5 L 4169.1101 3174.86 L 4169.6501 3175.39 L 4165.8901 3175.39" fill="none"  stroke-width="0.8"  /></g><g c_partid="part_pcbtext" c_origin="4167.5,3194.5" c_rotation="270" c_mirror="none" id="gge326" layerid="3" c_shapetype="group" ><path c_fontSize="3.937" c_fontFamily="" c_text="2" d="M 4168.7503 3194.6801 L 4168.9303 3194.6801 L 4169.2903 3194.8601 L 4169.4703 3195.0401 L 4169.6503 3195.3901 L 4169.6503 3196.1101 L 4169.4703 3196.4701 L 4169.2903 3196.6501 L 4168.9303 3196.8301 L 4168.5703 3196.8301 L 4168.2203 3196.6501 L 4167.6803 3196.2901 L 4165.8903 3194.5001 L 4165.8903 3197.0101" fill="none"  stroke-width="0.8"  /></g><g c_partid="part_pcbtext" c_origin="4154.5,3125.96" c_rotation="0" c_mirror="" id="gge341" layerid="3" c_shapetype="group" ><path c_fontSize="4.5" c_fontFamily="" c_text="J4" d="M 4156.55 3119.81 L 4156.55 3123.08 L 4156.34 3123.69 L 4156.14 3123.9 L 4155.73 3124.1 L 4155.32 3124.1 L 4154.91 3123.9 L 4154.7 3123.69 L 4154.5 3123.08 L 4154.5 3122.67 M 4159.94 3119.81 L 4157.9 3122.67 L 4160.96 3122.67 M 4159.94 3119.81 L 4159.94 3124.1" fill="none"  stroke-width="0.6" c_note="note_pre" /></g><g c_partid="part_pcbtext" c_origin="4154.5,3120.46" c_rotation="0" c_mirror="" id="gge343" layerid="3" c_shapetype="group" display="none"><path c_fontSize="4.5" c_fontFamily="" c_text="KF127_2P_5.08" d="M 4154.5 3114.31 L 4154.5 3118.6 M 4157.36 3114.31 L 4154.5 3117.17 M 4155.52 3116.15 L 4157.36 3118.6 M 4158.71 3114.31 L 4158.71 3118.6 M 4158.71 3114.31 L 4161.37 3114.31 M 4158.71 3116.35 L 4160.35 3116.35 M 4162.72 3115.13 L 4163.13 3114.92 L 4163.75 3114.31 L 4163.75 3118.6 M 4165.3 3115.33 L 4165.3 3115.13 L 4165.5 3114.72 L 4165.71 3114.51 L 4166.12 3114.31 L 4166.94 3114.31 L 4167.35 3114.51 L 4167.55 3114.72 L 4167.75 3115.13 L 4167.75 3115.53 L 4167.55 3115.94 L 4167.14 3116.56 L 4165.1 3118.6 L 4167.96 3118.6 M 4172.17 3114.31 L 4170.13 3118.6 M 4169.31 3114.31 L 4172.17 3114.31 M 4173.52 3120.03 L 4177.2 3120.03 M 4178.76 3115.33 L 4178.76 3115.13 L 4178.96 3114.72 L 4179.17 3114.51 L 4179.58 3114.31 L 4180.4 3114.31 L 4180.8 3114.51 L 4181.01 3114.72 L 4181.21 3115.13 L 4181.21 3115.53 L 4181.01 3115.94 L 4180.6 3116.56 L 4178.55 3118.6 L 4181.42 3118.6 M 4182.77 3114.31 L 4182.77 3118.6 M 4182.77 3114.31 L 4184.61 3114.31 L 4185.22 3114.51 L 4185.43 3114.72 L 4185.63 3115.13 L 4185.63 3115.74 L 4185.43 3116.15 L 4185.22 3116.35 L 4184.61 3116.56 L 4182.77 3116.56 M 4186.98 3120.03 L 4190.66 3120.03 M 4194.47 3114.31 L 4192.42 3114.31 L 4192.22 3116.15 L 4192.42 3115.94 L 4193.04 3115.74 L 4193.65 3115.74 L 4194.26 3115.94 L 4194.67 3116.35 L 4194.88 3116.97 L 4194.88 3117.38 L 4194.67 3117.99 L 4194.26 3118.4 L 4193.65 3118.6 L 4193.04 3118.6 L 4192.42 3118.4 L 4192.22 3118.19 L 4192.01 3117.78 M 4196.43 3117.58 L 4196.23 3117.78 L 4196.43 3117.99 L 4196.64 3117.78 L 4196.43 3117.58 M 4199.21 3114.31 L 4198.6 3114.51 L 4198.19 3115.13 L 4197.99 3116.15 L 4197.99 3116.76 L 4198.19 3117.78 L 4198.6 3118.4 L 4199.21 3118.6 L 4199.62 3118.6 L 4200.24 3118.4 L 4200.65 3117.78 L 4200.85 3116.76 L 4200.85 3116.15 L 4200.65 3115.13 L 4200.24 3114.51 L 4199.62 3114.31 L 4199.21 3114.31 M 4203.22 3114.31 L 4202.61 3114.51 L 4202.4 3114.92 L 4202.4 3115.33 L 4202.61 3115.74 L 4203.02 3115.94 L 4203.84 3116.15 L 4204.45 3116.35 L 4204.86 3116.76 L 4205.06 3117.17 L 4205.06 3117.78 L 4204.86 3118.19 L 4204.65 3118.4 L 4204.04 3118.6 L 4203.22 3118.6 L 4202.61 3118.4 L 4202.4 3118.19 L 4202.2 3117.78 L 4202.2 3117.17 L 4202.4 3116.76 L 4202.81 3116.35 L 4203.43 3116.15 L 4204.25 3115.94 L 4204.65 3115.74 L 4204.86 3115.33 L 4204.86 3114.92 L 4204.65 3114.51 L 4204.04 3114.31 L 4203.22 3114.31" fill="none"  stroke-width="0.6"  /></g><g c_partid="part_pcbtext" c_origin="4167.5,3134" c_rotation="270" c_mirror="none" id="gge347" layerid="3" c_shapetype="group" ><path c_fontSize="3.937" c_fontFamily="" c_text="1" d="M 4168.9301 3134 L 4169.1101 3134.36 L 4169.6501 3134.89 L 4165.8901 3134.89" fill="none"  stroke-width="0.8"  /></g><g c_partid="part_pcbtext" c_origin="4167.5,3154" c_rotation="270" c_mirror="none" id="gge349" layerid="3" c_shapetype="group" ><path c_fontSize="3.937" c_fontFamily="" c_text="2" d="M 4168.7503 3154.1801 L 4168.9303 3154.1801 L 4169.2903 3154.3601 L 4169.4703 3154.5401 L 4169.6503 3154.8901 L 4169.6503 3155.6101 L 4169.4703 3155.9701 L 4169.2903 3156.1501 L 4168.9303 3156.3301 L 4168.5703 3156.3301 L 4168.2203 3156.1501 L 4167.6803 3155.7901 L 4165.8903 3154.0001 L 4165.8903 3156.5101" fill="none"  stroke-width="0.8"  /></g><g c_partid="part_pcbtext" c_origin="4151.15,3098.37" c_rotation="90" c_mirror="" id="gge364" layerid="3" c_shapetype="group" ><path c_fontSize="4.5" c_fontFamily="" c_text="F2" d="M 4145 3098.3701 L 4149.29 3098.3701 M 4145 3098.3701 L 4145 3095.7101 M 4147.04 3098.3701 L 4147.04 3096.7301 M 4146.02 3094.1601 L 4145.81 3094.1601 L 4145.4 3093.9501 L 4145.2 3093.7501 L 4145 3093.3401 L 4145 3092.5201 L 4145.2 3092.1101 L 4145.4 3091.9101 L 4145.81 3091.7001 L 4146.22 3091.7001 L 4146.63 3091.9101 L 4147.25 3092.3201 L 4149.29 3094.3601 L 4149.29 3091.5001" fill="none"  stroke-width="0.6" c_note="note_pre" /></g><g c_partid="part_pcbtext" c_origin="4148.64,3091.5" c_rotation="270" c_mirror="" id="gge366" layerid="3" c_shapetype="group" display="none"><path c_fontSize="4.5" c_fontFamily="" c_text="NO" d="M 4154.79 3091.5 L 4150.5 3091.5 M 4154.79 3091.5 L 4150.5 3094.36 M 4154.79 3094.36 L 4150.5 3094.36 M 4154.79 3096.94 L 4154.59 3096.53 L 4154.18 3096.12 L 4153.77 3095.92 L 4153.16 3095.71 L 4152.14 3095.71 L 4151.52 3095.92 L 4151.11 3096.12 L 4150.7 3096.53 L 4150.5 3096.94 L 4150.5 3097.76 L 4150.7 3098.17 L 4151.11 3098.58 L 4151.52 3098.78 L 4152.14 3098.99 L 4153.16 3098.99 L 4153.77 3098.78 L 4154.18 3098.58 L 4154.59 3098.17 L 4154.79 3097.76 L 4154.79 3096.94" fill="none"  stroke-width="0.6"  /></g><polyline points="4050 3050 4170 3050 4170 3302 4050 3302 4050 3050" stroke-width="1" c_shapetype="line" stroke-linecap="round" fill="none" layerid="10" net="" id="gge379" /></g></svg>