<svg xmlns="http://www.w3.org/2000/svg" xmlns:xlink="http://www.w3.org/1999/xlink" width="46.076mm" height="28.651mm" viewBox="4092.8999999999996 3017.4 181.4 112.8"><title></title><style type="text/css">
*[layerid="1"] {stroke:#FF0000;fill:#FF0000;}
*[layerid="2"] {stroke:#0000FF;fill:#0000FF;}
*[layerid="3"] {stroke:#FFCC00;fill:#FFCC00;}
*[layerid="4"] {stroke:#66CC33;fill:#66CC33;}
*[layerid="5"] {stroke:#808080;fill:#808080;}
*[layerid="6"] {stroke:#800000;fill:#800000;}
*[layerid="7"] {stroke:#800080;fill:#800080;stroke-opacity:0.7;fill-opacity:0.7;}
*[layerid="8"] {stroke:#AA00FF;fill:#AA00FF;stroke-opacity:0.7;fill-opacity:0.7;}
*[layerid="9"] {stroke:#6464FF;fill:#6464FF;}
*[layerid="10"] {stroke:#FF00FF;fill:#FF00FF;}
*[layerid="11"] {stroke:#C0C0C0;fill:#C0C0C0;}
*[layerid="12"] {stroke:#FFFFFF;fill:#FFFFFF;}
*[layerid="13"] {stroke:#33CC99;fill:#33CC99;}
*[layerid="14"] {stroke:#5555FF;fill:#5555FF;}
*[layerid="15"] {stroke:#F022F0;fill:#F022F0;}
*[layerid="21"] {stroke:#999966;fill:#999966;}
*[layerid="22"] {stroke:#008000;fill:#008000;}
*[layerid="23"] {stroke:#00FF00;fill:#00FF00;}
*[layerid="24"] {stroke:#BC8E00;fill:#BC8E00;}
*[layerid="25"] {stroke:#70DBFA;fill:#70DBFA;}
*[layerid="26"] {stroke:#00CC66;fill:#00CC66;}
*[layerid="27"] {stroke:#9966FF;fill:#9966FF;}
*[layerid="28"] {stroke:#800080;fill:#800080;}
*[layerid="29"] {stroke:#008080;fill:#008080;}
*[layerid="30"] {stroke:#15935F;fill:#15935F;}
*[layerid="31"] {stroke:#000080;fill:#000080;}
*[layerid="32"] {stroke:#00B400;fill:#00B400;}
*[layerid="33"] {stroke:#2E4756;fill:#2E4756;}
*[layerid="34"] {stroke:#99842F;fill:#99842F;}
*[layerid="35"] {stroke:#FFFFAA;fill:#FFFFAA;}
*[layerid="36"] {stroke:#99842F;fill:#99842F;}
*[layerid="37"] {stroke:#2E4756;fill:#2E4756;}
*[layerid="38"] {stroke:#3535FF;fill:#3535FF;}
*[layerid="39"] {stroke:#8000BC;fill:#8000BC;}
*[layerid="40"] {stroke:#43AE5F;fill:#43AE5F;}
*[layerid="41"] {stroke:#C3ECCE;fill:#C3ECCE;}
*[layerid="42"] {stroke:#728978;fill:#728978;}
*[layerid="43"] {stroke:#39503F;fill:#39503F;}
*[layerid="44"] {stroke:#0C715D;fill:#0C715D;}
*[layerid="45"] {stroke:#5A8A80;fill:#5A8A80;}
*[layerid="46"] {stroke:#2B937E;fill:#2B937E;}
*[layerid="47"] {stroke:#23999D;fill:#23999D;}
*[layerid="48"] {stroke:#45B4E3;fill:#45B4E3;}
*[layerid="49"] {stroke:#215DA1;fill:#215DA1;}
*[layerid="50"] {stroke:#4564D7;fill:#4564D7;}
*[layerid="51"] {stroke:#6969E9;fill:#6969E9;}
*[layerid="52"] {stroke:#9069E9;fill:#9069E9;}
*[fill="none"] {fill: none;}
*[stroke="none"] {stroke: none;}
path, polyline, polygon, line {stroke-linecap:round;}
g[c_partid="part_pad"][layerid="1"] ellipse:not([c_padid]) {fill:#FF0000;}
g[c_partid="part_pad"][layerid="1"]  polygon:not([c_padid]) {fill:#FF0000;}
g[c_partid="part_pad"][layerid="1"]  polyline:not([c_padid]) {stroke:#FF0000;}
g[c_partid="part_pad"][layerid="1"]  circle {fill:#FF0000;}
g[c_partid="part_pad"][layerid="2"]  ellipse:not([c_padid]) {fill:#0000FF;}
g[c_partid="part_pad"][layerid="2"]  polygon:not([c_padid]) {fill:#0000FF;}
g[c_partid="part_pad"][layerid="2"]  polyline:not([c_padid]) {stroke:#0000FF;}
g[c_partid="part_pad"][layerid="2"]  circle {fill:#0000FF;}
g[c_partid="part_pad"][layerid="11"]  ellipse:not([c_padid]) {fill:#C0C0C0;}
g[c_partid="part_pad"][layerid="11"]  polygon:not([c_padid]) {fill:#C0C0C0;}
g[c_partid="part_pad"][layerid="11"]  polyline:not([c_padid]) {stroke:#C0C0C0;}
g[c_partid="part_pad"][layerid="11"]  circle {fill:#C0C0C0;}
g[c_partid="part_pad"][layerid] > circle[c_padhole] {fill: #222222;}
g[c_partid="part_pad"][layerid] > polyline[c_padhole] {stroke:#222222;}
g[c_partid="part_via"][layerid] > * + circle {fill: #222222;}
g[c_partid="part_pad"] > polygon[c_padid] {stroke-linejoin: miter;stroke-miterlimit: 100;}
g[c_partid="part_hole"] > circle {fill: #222222;}path, polyline, polygon {stroke-linejoin:round;}
rect, circle, ellipse, polyline, line, polygon, path {shape-rendering:crispEdges;}
</style>
<rect x="4092.8999999999996" y="3017.4" width="181.4" height="112.8" fill="#666666" stroke="none"/><g id="g1" cpara="package`OMF_125`" c_transformList="" importFlag="0" xmlns="http://www.w3.org/2000/svg"><polyline points="4219.433 3066.814 4201.086 3066.814 4199 3068.9" stroke-width="2" c_shapetype="line" stroke-linecap="round" fill="none" layerid="1" net="GND" id="gge2" /><polyline points="4167.5 3084.5 4169.5 3082.5 4169.5 3075" stroke-width="2" c_shapetype="line" stroke-linecap="round" fill="none" layerid="1" net="D1_2" id="gge5" /><polyline points="4184.5 3072 4184.5 3061.58 4184.84 3061.24" stroke-width="2" c_shapetype="line" stroke-linecap="round" fill="none" layerid="1" net="R2_2" id="gge9" /><polyline points="4169.5 3064 4175 3058.5 4175 3057.5" stroke-width="2" c_shapetype="line" stroke-linecap="round" fill="none" layerid="1" net="D1_1" id="gge10" /><polyline points="4167.5 3097.098 4174.402 3104 4179 3104" stroke-width="2" c_shapetype="line" stroke-linecap="round" fill="none" layerid="1" net="R1_2" id="gge11" /><polyline points="4141.595 3098.5 4131.595 3088.5 4118.5 3088.5" stroke-width="2" c_shapetype="line" stroke-linecap="round" fill="none" layerid="1" net="+5V" id="gge14" /><polyline points="4219.433 3076.814 4213.747 3082.5 4199 3082.5" stroke-width="2" c_shapetype="line" stroke-linecap="round" fill="none" layerid="1" net="5V" id="gge15" /><polyline points="4199 3082.5 4195.5 3079 4178.5 3079 4175.5 3082 4175.5 3089 4178.5 3092 4186.5 3092 4191.6 3097.1 4191.6 3104" stroke-width="2" c_shapetype="line" stroke-linecap="round" fill="none" layerid="1" net="5V" id="gge16" /><polyline points="4147.5 3098.5 4147.5 3086" stroke-width="2" c_shapetype="line" stroke-linecap="round" fill="none" layerid="1" net="KEY1_3" id="gge169" /><polyline points="4118.5 3068.5 4137 3050 4181.08 3050 4184.84 3053.76" stroke-width="2" c_shapetype="line" stroke-linecap="round" fill="none" layerid="1" net="GND" id="gge171" /><polyline points="4147.5 3060 4159.5 3072 4159.5 3108.5 4163.5 3112.5 4189.5 3112.5 4191.5 3110.5 4191.6 3104" stroke-width="2" c_shapetype="line" stroke-linecap="round" fill="none" layerid="1" net="5V" id="gge172" /><polyline points="4258.56 3096.85 4253.35 3096.85 4248 3091.5 4191.402 3091.5 4184.5 3084.598" stroke-width="2" c_shapetype="line" stroke-linecap="round" fill="none" layerid="1" net="R2_1" id="gge176" /><polyline points="4184.84 3053.76 4199 3067.92 4199 3068.9" stroke-width="2" c_shapetype="line" stroke-linecap="round" fill="none" layerid="1" net="GND" id="gge180" /><g c_partid="part_pad" c_etype="pinpart" c_origin="4169.5,3069.5" layerid="1" number="3" net="" plated ="Y" c_shapetype="group" id="gge19" locked="0" c_rotation="270" c_width="3.15" c_height="8.27" title="" c_shape="RECT" pasteExpansion="0" solderExpansion="0.4"><polygon points="4173.635 3067.925 4173.635 3071.075 4165.365 3071.075 4165.365 3067.925" stroke-width="0" /><circle c_padhole="1" cx="4169.5" cy="3069.5" r="0" stroke-width="0" /></g><g c_partid="part_pad" c_etype="pinpart" c_origin="4169.5,3064" layerid="1" number="1" net="D1_1" plated ="Y" c_shapetype="group" id="gge20" locked="0" c_rotation="270" c_width="4.72" c_height="5.51" title="D1_1" c_shape="RECT" pasteExpansion="0" solderExpansion="0.4"><polygon points="4172.255 3061.64 4172.255 3066.36 4166.745 3066.36 4166.745 3061.64" stroke-width="0" /><circle c_padhole="1" cx="4169.5" cy="3064" r="0" stroke-width="0" /></g><g c_partid="part_pad" c_etype="pinpart" c_origin="4169.5,3075" layerid="1" number="2" net="D1_2" plated ="Y" c_shapetype="group" id="gge21" locked="0" c_rotation="270" c_width="4.72" c_height="5.51" title="D1_2" c_shape="RECT" pasteExpansion="0" solderExpansion="0.4"><polygon points="4172.255 3072.64 4172.255 3077.36 4166.745 3077.36 4166.745 3072.64" stroke-width="0" /><circle c_padhole="1" cx="4169.5" cy="3075" r="0" stroke-width="0" /></g><g c_partid="part_pad" c_etype="pinpart" c_origin="4191.6,3104" layerid="1" number="1" net="5V" plated ="Y" c_shapetype="group" id="gge30" locked="0" c_rotation="180" c_width="6.3" c_height="7.874" title="5V" c_shape="RECT" pasteExpansion="0" solderExpansion="0.4"><polygon points="4194.748 3107.937 4188.448 3107.937 4188.448 3100.063 4194.748 3100.063" stroke-width="0" /><circle c_padhole="1" cx="4191.598" cy="3104" r="0" stroke-width="0" /></g><g c_partid="part_pad" c_etype="pinpart" c_origin="4179,3104" layerid="1" number="2" net="R1_2" plated ="Y" c_shapetype="group" id="gge31" locked="0" c_rotation="180" c_width="6.3" c_height="7.874" title="R1_2" c_shape="RECT" pasteExpansion="0" solderExpansion="0.4"><polygon points="4182.15 3107.937 4175.85 3107.937 4175.85 3100.063 4182.15 3100.063" stroke-width="0" /><circle c_padhole="1" cx="4179" cy="3104" r="0" stroke-width="0" /></g><g c_partid="part_pad" c_etype="pinpart" c_origin="4167.5,3097.1" layerid="1" number="1" net="R1_2" plated ="Y" c_shapetype="group" id="gge37" locked="0" c_rotation="90" c_width="6.3" c_height="7.874" title="R1_2" c_shape="RECT" pasteExpansion="0" solderExpansion="0.4"><polygon points="4163.563 3100.248 4163.563 3093.948 4171.437 3093.948 4171.437 3100.248" stroke-width="0" /><circle c_padhole="1" cx="4167.5" cy="3097.098" r="0" stroke-width="0" /></g><g c_partid="part_pad" c_etype="pinpart" c_origin="4167.5,3084.5" layerid="1" number="2" net="D1_2" plated ="Y" c_shapetype="group" id="gge38" locked="0" c_rotation="90" c_width="6.3" c_height="7.874" title="D1_2" c_shape="RECT" pasteExpansion="0" solderExpansion="0.4"><polygon points="4163.563 3087.65 4163.563 3081.35 4171.437 3081.35 4171.437 3087.65" stroke-width="0" /><circle c_padhole="1" cx="4167.5" cy="3084.5" r="0" stroke-width="0" /></g><g c_partid="part_pad" c_etype="pinpart" c_origin="4184.5,3084.6" layerid="1" number="1" net="R2_1" plated ="Y" c_shapetype="group" id="gge44" locked="0" c_rotation="90" c_width="6.3" c_height="7.874" title="R2_1" c_shape="RECT" pasteExpansion="0" solderExpansion="0.4"><polygon points="4180.563 3087.748 4180.563 3081.448 4188.437 3081.448 4188.437 3087.748" stroke-width="0" /><circle c_padhole="1" cx="4184.5" cy="3084.598" r="0" stroke-width="0" /></g><g c_partid="part_pad" c_etype="pinpart" c_origin="4184.5,3072" layerid="1" number="2" net="R2_2" plated ="Y" c_shapetype="group" id="gge45" locked="0" c_rotation="90" c_width="6.3" c_height="7.874" title="R2_2" c_shape="RECT" pasteExpansion="0" solderExpansion="0.4"><polygon points="4180.563 3075.15 4180.563 3068.85 4188.437 3068.85 4188.437 3075.15" stroke-width="0" /><circle c_padhole="1" cx="4184.5" cy="3072" r="0" stroke-width="0" /></g><g c_partid="part_pad" c_etype="pinpart" c_origin="4175,3057.5" layerid="1" number="3" net="D1_1" plated ="Y" c_shapetype="group" id="gge51" locked="0" c_rotation="270" c_width="2.7559" c_height="4.9213" title="D1_1" c_shape="RECT" pasteExpansion="0" solderExpansion="0.4"><polygon points="4177.461 3056.122 4177.461 3058.878 4172.539 3058.878 4172.539 3056.122" stroke-width="0" /><circle c_padhole="1" cx="4175" cy="3057.5" r="0" stroke-width="0" /></g><g c_partid="part_pad" c_etype="pinpart" c_origin="4184.84,3053.76" layerid="1" number="2" net="GND" plated ="Y" c_shapetype="group" id="gge52" locked="0" c_rotation="270" c_width="2.7559" c_height="4.9213" title="GND" c_shape="RECT" pasteExpansion="0" solderExpansion="0.4"><polygon points="4187.301 3052.382 4187.301 3055.138 4182.379 3055.138 4182.379 3052.382" stroke-width="0" /><circle c_padhole="1" cx="4184.84" cy="3053.76" r="0" stroke-width="0" /></g><g c_partid="part_pad" c_etype="pinpart" c_origin="4184.84,3061.24" layerid="1" number="1" net="R2_2" plated ="Y" c_shapetype="group" id="gge53" locked="0" c_rotation="270" c_width="2.7559" c_height="4.9213" title="R2_2" c_shape="RECT" pasteExpansion="0" solderExpansion="0.4"><polygon points="4187.301 3059.862 4187.301 3062.618 4182.379 3062.618 4182.379 3059.862" stroke-width="0" /><circle c_padhole="1" cx="4184.84" cy="3061.24" r="0" stroke-width="0" /></g><g c_partid="part_pad" c_etype="pinpart" c_origin="4219.43,3096.85" layerid="1" number="1" net="IC1_1" plated ="Y" c_shapetype="group" id="gge65" locked="0" c_rotation="90" c_width="3.937" c_height="7.4803" title="IC1_1" c_shape="RECT" pasteExpansion="0" solderExpansion="0.4"><polygon points="4215.693 3098.824 4215.693 3094.884 4223.173 3094.884 4223.173 3098.824" stroke-width="0" /><circle c_padhole="1" cx="4219.433" cy="3096.854" r="0" stroke-width="0" /></g><g c_partid="part_pad" c_etype="pinpart" c_origin="4219.43,3086.81" layerid="1" number="2" net="IC1_2" plated ="Y" c_shapetype="group" id="gge66" locked="0" c_rotation="90" c_width="3.937" c_height="7.4803" title="IC1_2" c_shape="RECT" pasteExpansion="0" solderExpansion="0.4"><polygon points="4215.693 3088.784 4215.693 3084.844 4223.173 3084.844 4223.173 3088.784" stroke-width="0" /><circle c_padhole="1" cx="4219.433" cy="3086.814" r="0" stroke-width="0" /></g><g c_partid="part_pad" c_etype="pinpart" c_origin="4219.43,3076.81" layerid="1" number="3" net="5V" plated ="Y" c_shapetype="group" id="gge67" locked="0" c_rotation="90" c_width="3.937" c_height="7.4803" title="5V" c_shape="RECT" pasteExpansion="0" solderExpansion="0.4"><polygon points="4215.693 3078.784 4215.693 3074.844 4223.173 3074.844 4223.173 3078.784" stroke-width="0" /><circle c_padhole="1" cx="4219.433" cy="3076.814" r="0" stroke-width="0" /></g><g c_partid="part_pad" c_etype="pinpart" c_origin="4219.43,3066.81" layerid="1" number="4" net="GND" plated ="Y" c_shapetype="group" id="gge68" locked="0" c_rotation="90" c_width="3.937" c_height="7.4803" title="GND" c_shape="RECT" pasteExpansion="0" solderExpansion="0.4"><polygon points="4215.693 3068.784 4215.693 3064.844 4223.173 3064.844 4223.173 3068.784" stroke-width="0" /><circle c_padhole="1" cx="4219.433" cy="3066.814" r="0" stroke-width="0" /></g><g c_partid="part_pad" c_etype="pinpart" c_origin="4258.56,3096.85" layerid="1" number="5" net="R2_1" plated ="Y" c_shapetype="group" id="gge69" locked="0" c_rotation="90" c_width="3.937" c_height="7.4803" title="R2_1" c_shape="RECT" pasteExpansion="0" solderExpansion="0.4"><polygon points="4254.823 3098.824 4254.823 3094.884 4262.303 3094.884 4262.303 3098.824" stroke-width="0" /><circle c_padhole="1" cx="4258.563" cy="3096.854" r="0" stroke-width="0" /></g><g c_partid="part_pad" c_etype="pinpart" c_origin="4258.56,3086.81" layerid="1" number="6" net="IC1_6" plated ="Y" c_shapetype="group" id="gge70" locked="0" c_rotation="90" c_width="3.937" c_height="7.4803" title="IC1_6" c_shape="RECT" pasteExpansion="0" solderExpansion="0.4"><polygon points="4254.823 3088.784 4254.823 3084.844 4262.303 3084.844 4262.303 3088.784" stroke-width="0" /><circle c_padhole="1" cx="4258.563" cy="3086.814" r="0" stroke-width="0" /></g><g c_partid="part_pad" c_etype="pinpart" c_origin="4258.56,3076.81" layerid="1" number="7" net="IC1_7" plated ="Y" c_shapetype="group" id="gge71" locked="0" c_rotation="90" c_width="3.937" c_height="7.4803" title="IC1_7" c_shape="RECT" pasteExpansion="0" solderExpansion="0.4"><polygon points="4254.823 3078.784 4254.823 3074.844 4262.303 3074.844 4262.303 3078.784" stroke-width="0" /><circle c_padhole="1" cx="4258.563" cy="3076.814" r="0" stroke-width="0" /></g><g c_partid="part_pad" c_etype="pinpart" c_origin="4258.56,3066.81" layerid="1" number="8" net="IC1_8" plated ="Y" c_shapetype="group" id="gge72" locked="0" c_rotation="90" c_width="3.937" c_height="7.4803" title="IC1_8" c_shape="RECT" pasteExpansion="0" solderExpansion="0.4"><polygon points="4254.823 3068.784 4254.823 3064.844 4262.303 3064.844 4262.303 3068.784" stroke-width="0" /><circle c_padhole="1" cx="4258.563" cy="3066.814" r="0" stroke-width="0" /></g><g c_partid="part_pad" c_etype="pinpart" c_origin="4129.78,3098.5" layerid="1" number="1" net="KEY1_1" plated ="Y" c_shapetype="group" id="gge89" locked="0" c_rotation="0" c_width="3.1496" c_height="7.874" title="KEY1_1" c_shape="RECT" pasteExpansion="0" solderExpansion="0.4"><polygon points="4128.209 3094.563 4131.359 3094.563 4131.359 3102.437 4128.209 3102.437" stroke-width="0" /><circle c_padhole="1" cx="4129.784" cy="3098.5" r="0" stroke-width="0" /></g><g c_partid="part_pad" c_etype="pinpart" c_origin="4141.6,3098.5" layerid="1" number="2" net="+5V" plated ="Y" c_shapetype="group" id="gge92" locked="0" c_rotation="0" c_width="3.1496" c_height="7.874" title="+5V" c_shape="RECT" pasteExpansion="0" solderExpansion="0.4"><polygon points="4140.02 3094.563 4143.17 3094.563 4143.17 3102.437 4140.02 3102.437" stroke-width="0" /><circle c_padhole="1" cx="4141.595" cy="3098.5" r="0" stroke-width="0" /></g><g c_partid="part_pad" c_etype="pinpart" c_origin="4147.5,3098.5" layerid="1" number="3" net="KEY1_3" plated ="Y" c_shapetype="group" id="gge97" locked="0" c_rotation="0" c_width="3.1496" c_height="7.874" title="KEY1_3" c_shape="RECT" pasteExpansion="0" solderExpansion="0.4"><polygon points="4145.925 3094.563 4149.075 3094.563 4149.075 3102.437 4145.925 3102.437" stroke-width="0" /><circle c_padhole="1" cx="4147.5" cy="3098.5" r="0" stroke-width="0" /></g><g c_partid="part_pad" c_etype="pinpart" c_origin="4123.55,3103.26" layerid="1" number="4" net="" plated ="Y" c_shapetype="group" id="gge102" locked="0" c_rotation="90" c_width="3.1496" c_height="5.512" title="" c_shape="RECT" pasteExpansion="0" solderExpansion="0.4"><polygon points="4120.792 3104.838 4120.792 3101.688 4126.304 3101.688 4126.304 3104.838" stroke-width="0" /><circle c_padhole="1" cx="4123.548" cy="3103.263" r="0" stroke-width="0" /></g><g c_partid="part_pad" c_etype="pinpart" c_origin="4153.4,3103.23" layerid="1" number="5" net="" plated ="Y" c_shapetype="group" id="gge107" locked="0" c_rotation="90" c_width="3.1496" c_height="5.512" title="" c_shape="RECT" pasteExpansion="0" solderExpansion="0.4"><polygon points="4150.648 3104.804 4150.648 3101.654 4156.16 3101.654 4156.16 3104.804" stroke-width="0" /><circle c_padhole="1" cx="4153.404" cy="3103.229" r="0" stroke-width="0" /></g><g c_partid="part_pad" c_etype="pinpart" c_origin="4153.45,3113.11" layerid="1" number="6" net="" plated ="Y" c_shapetype="group" id="gge112" locked="0" c_rotation="90" c_width="3.1496" c_height="5.512" title="" c_shape="RECT" pasteExpansion="0" solderExpansion="0.4"><polygon points="4150.696 3114.683 4150.696 3111.533 4156.208 3111.533 4156.208 3114.683" stroke-width="0" /><circle c_padhole="1" cx="4153.452" cy="3113.108" r="0" stroke-width="0" /></g><g c_partid="part_pad" c_etype="pinpart" c_origin="4123.51,3113.45" layerid="1" number="7" net="" plated ="Y" c_shapetype="group" id="gge117" locked="0" c_rotation="90" c_width="3.1496" c_height="5.512" title="" c_shape="RECT" pasteExpansion="0" solderExpansion="0.4"><polygon points="4120.756 3115.021 4120.756 3111.871 4126.268 3111.871 4126.268 3115.021" stroke-width="0" /><circle c_padhole="1" cx="4123.512" cy="3113.446" r="0" stroke-width="0" /></g><g c_partid="part_pad" c_etype="pinpart" c_origin="4199,3068.9" layerid="1" number="1" net="GND" plated ="Y" c_shapetype="group" id="gge135" locked="0" c_rotation="270" c_width="9.0551" c_height="10.63" title="GND" c_shape="RECT" pasteExpansion="0" solderExpansion="0.4"><polygon points="4204.315 3064.372 4204.315 3073.428 4193.685 3073.428 4193.685 3064.372" stroke-width="0" /><circle c_padhole="1" cx="4199" cy="3068.9" r="0" stroke-width="0" /></g><g c_partid="part_pad" c_etype="pinpart" c_origin="4199,3082.5" layerid="1" number="2" net="5V" plated ="Y" c_shapetype="group" id="gge140" locked="0" c_rotation="270" c_width="9.0551" c_height="10.63" title="5V" c_shape="RECT" pasteExpansion="0" solderExpansion="0.4"><polygon points="4204.315 3077.972 4204.315 3087.028 4193.685 3087.028 4193.685 3077.972" stroke-width="0" /><circle c_padhole="1" cx="4199" cy="3082.5" r="0" stroke-width="0" /></g><g c_partid="part_pad" c_etype="pinpart" c_origin="4147.5,3086" layerid="1" number="1" net="KEY1_3" plated ="Y" c_shapetype="group" id="gge150" locked="0" c_rotation="90" c_width="11.811" c_height="11.0236" title="KEY1_3" c_shape="RECT" pasteExpansion="0" solderExpansion="0.4"><polygon points="4141.988 3091.906 4141.988 3080.095 4153.012 3080.095 4153.012 3091.906" stroke-width="0" /><circle c_padhole="1" cx="4147.5" cy="3086" r="0" stroke-width="0" /></g><g c_partid="part_pad" c_etype="pinpart" c_origin="4147.5,3060" layerid="1" number="2" net="5V" plated ="Y" c_shapetype="group" id="gge153" locked="0" c_rotation="90" c_width="11.811" c_height="11.0236" title="5V" c_shape="RECT" pasteExpansion="0" solderExpansion="0.4"><polygon points="4141.988 3065.906 4141.988 3054.095 4153.012 3054.095 4153.012 3065.906" stroke-width="0" /><circle c_padhole="1" cx="4147.5" cy="3060" r="0" stroke-width="0" /></g><g c_partid="part_pad" c_etype="pinpart" c_origin="4118.5,3068.5" layerid="11" number="1" net="GND" plated ="Y" c_shapetype="group" id="gge82" locked="0" c_rotation="270" c_width="14.5669" c_height="14.5669" title="GND" c_shape="RECT" pasteExpansion="0" solderExpansion="0.4"><polygon points="4125.78 3061.22 4125.78 3075.78 4111.22 3075.78 4111.22 3061.22" stroke-width="0" /><circle c_padhole="1" cx="4118.5" cy="3068.5" r="2.5591" stroke-width="0" /></g><g c_partid="part_pad" c_etype="pinpart" c_origin="4118.5,3088.5" layerid="11" number="2" net="+5V" plated ="Y" c_shapetype="group" id="gge83" locked="0" c_rotation="270" c_width="14.5669" c_height="14.5669" title="+5V" c_shape="ELLIPSE" pasteExpansion="0" solderExpansion="0.4"><ellipse cx="4118.5" cy="3088.5" rx="7.28345" ry="7.28345" stroke-width="0" /><circle c_padhole="1" cx="4118.5" cy="3088.5" r="2.5591" stroke-width="0" /></g><g c_partid="part_hole" c_etype="pinpart" c_shapetype="group" c_origin="4260,3054.5" layerid="11" id="gge159" ><circle cx="4260" cy="3054.5" r="2.4"   stroke-width="0" /></g><g c_partid="part_hole" c_etype="pinpart" c_shapetype="group" c_origin="4205.5,3109" layerid="11" id="gge160" ><circle cx="4205.5" cy="3109" r="3.35"   stroke-width="0" /></g><g c_partid="part_hole" c_etype="pinpart" c_shapetype="group" c_origin="4144.74,3108.33" layerid="11" id="gge124" ><circle cx="4144.74" cy="3108.33" r="1.5748"   stroke-width="0" /></g><g c_partid="part_hole" c_etype="pinpart" c_shapetype="group" c_origin="4132.92,3108.32" layerid="11" id="gge128" ><circle cx="4132.92" cy="3108.32" r="1.5748"   stroke-width="0" /></g><polyline points="4166.5 3075.4 4165.4 3075.4 4165.4 3063.6 4166.5 3063.6" stroke-width="1" c_shapetype="line" stroke-linecap="round" fill="none" layerid="3" net="" id="gge24" /><polyline points="4172.5 3063.6 4173.6 3064.6 4173.6 3075.4 4172.5 3075.4" stroke-width="1" c_shapetype="line" stroke-linecap="round" fill="none" layerid="3" net="" id="gge25" /><polyline points="4188.299 3109 4195.575 3109 4195.575 3099 4188.299 3099" stroke-width="1" c_shapetype="line" stroke-linecap="round" fill="none" layerid="3" net="" id="gge34" /><polyline points="4182.299 3099 4174.984 3099 4174.984 3109 4182.299 3109" stroke-width="1" c_shapetype="line" stroke-linecap="round" fill="none" layerid="3" net="" id="gge35" /><polyline points="4162.5 3093.799 4162.5 3101.075 4172.5 3101.075 4172.5 3093.799" stroke-width="1" c_shapetype="line" stroke-linecap="round" fill="none" layerid="3" net="" id="gge41" /><polyline points="4172.5 3087.799 4172.5 3080.484 4162.5 3080.484 4162.5 3087.799" stroke-width="1" c_shapetype="line" stroke-linecap="round" fill="none" layerid="3" net="" id="gge42" /><polyline points="4179.5 3081.299 4179.5 3088.575 4189.5 3088.575 4189.5 3081.299" stroke-width="1" c_shapetype="line" stroke-linecap="round" fill="none" layerid="3" net="" id="gge48" /><polyline points="4189.5 3075.299 4189.5 3067.984 4179.5 3067.984 4179.5 3075.299" stroke-width="1" c_shapetype="line" stroke-linecap="round" fill="none" layerid="3" net="" id="gge49" /><polyline points="4177.361 3054.35 4177.361 3051.752 4177.361 3054.35 4177.361 3051.752 4180.57 3051.752" stroke-width="1" c_shapetype="line" stroke-linecap="round" fill="none" layerid="3" net="" id="gge56" /><polyline points="4180.57 3063.248 4177.361 3063.248 4177.361 3060.65" stroke-width="1" c_shapetype="line" stroke-linecap="round" fill="none" layerid="3" net="" id="gge57" /><polyline points="4183.463 3058.681 4183.463 3056.319" stroke-width="0.7874" c_shapetype="line" stroke-linecap="round" fill="none" layerid="3" net="" id="gge58" /><polyline points="4264.313 3047.174 4264.313 3115.834 4198.763 3115.834 4198.763 3101.934 4213.723 3101.934 4213.723 3061.064 4198.763 3061.064 4198.763 3047.174 4264.313 3047.174" stroke-width="0.4724" c_shapetype="line" stroke-linecap="round" fill="none" layerid="3" net="" id="gge73" /><polyline points="4105.689 3058.996 4105.697 3097.608" stroke-width="1" c_shapetype="line" stroke-linecap="round" fill="none" layerid="3" net="S$22" id="gge78" /><polyline points="4102.933 3058.602 4135.217 3058.602 4135.217 3097.578 4102.933 3097.578 4102.933 3058.602" stroke-width="1" c_shapetype="line" stroke-linecap="round" fill="none" layerid="3" net="" id="gge79" /><polyline points="4123.878 3103.224 4153.406 3103.224 4153.406 3113.067 4124.272 3113.067 4123.878 3113.461 4123.878 3103.224" stroke-width="1" c_shapetype="line" stroke-linecap="round" fill="none" layerid="3" net="" id="gge122" /><polyline points="4129.784 3114.248 4129.784 3120.154 4135.689 3120.154 4135.689 3114.248 4135.689 3114.248" stroke-width="1" c_shapetype="line" stroke-linecap="round" fill="none" layerid="3" net="" id="gge123" /><polyline points="4205.6 3074 4205.6 3062.7 4192.5 3062.7 4192.5 3074 4192.5 3074" stroke-width="1.06299" c_shapetype="line" stroke-linecap="round" fill="none" layerid="3" net="" id="gge143" /><polyline points="4192.5 3077.6 4192.5 3077.5 4192.5 3088.6 4205.6 3088.6 4205.6 3077.3" stroke-width="1.06299" c_shapetype="line" stroke-linecap="round" fill="none" layerid="3" net="" id="gge144" /><polyline points="4140.5 3093.5 4140.5 3052.5 4154.5 3052.5 4154.5 3093.5 4140.5 3093.5" stroke-width="1" c_shapetype="line" stroke-linecap="round" fill="none" layerid="3" net="" id="gge158" /><g c_partid="part_pcbtext" c_origin="4165,3073" c_rotation="90" c_mirror="" id="gge22" layerid="3" c_shapetype="group" ><path c_fontSize="4.5" c_fontFamily="" c_text="D1" d="M 4158.8502 3073 L 4163.1402 3073 M 4158.8502 3073 L 4158.8502 3071.57 L 4159.0502 3070.95 L 4159.4602 3070.55 L 4159.8702 3070.34 L 4160.4802 3070.14 L 4161.5002 3070.14 L 4162.1202 3070.34 L 4162.5302 3070.55 L 4162.9402 3070.95 L 4163.1402 3071.57 L 4163.1402 3073 M 4159.6602 3068.79 L 4159.4602 3068.38 L 4158.8502 3067.76 L 4163.1402 3067.76" fill="none"  stroke-width="0.6" c_note="note_pre" /></g><g c_partid="part_pcbtext" c_origin="4201.55,3066.5" c_rotation="270" c_mirror="" id="gge23" layerid="3" c_shapetype="group" display="none"><path c_fontSize="4.5" c_fontFamily="" c_text="WL-SWTP3022" d="M 4207.7 3066.5 L 4203.41 3067.52 M 4207.7 3068.55 L 4203.41 3067.52 M 4207.7 3068.55 L 4203.41 3069.57 M 4207.7 3070.59 L 4203.41 3069.57 M 4207.7 3071.94 L 4203.41 3071.94 M 4203.41 3071.94 L 4203.41 3074.4 M 4205.25 3075.75 L 4205.25 3079.43 M 4207.09 3083.64 L 4207.5 3083.23 L 4207.7 3082.62 L 4207.7 3081.8 L 4207.5 3081.19 L 4207.09 3080.78 L 4206.68 3080.78 L 4206.27 3080.98 L 4206.07 3081.19 L 4205.86 3081.6 L 4205.45 3082.82 L 4205.25 3083.23 L 4205.05 3083.44 L 4204.64 3083.64 L 4204.02 3083.64 L 4203.61 3083.23 L 4203.41 3082.62 L 4203.41 3081.8 L 4203.61 3081.19 L 4204.02 3080.78 M 4207.7 3084.99 L 4203.41 3086.01 M 4207.7 3087.04 L 4203.41 3086.01 M 4207.7 3087.04 L 4203.41 3088.06 M 4207.7 3089.08 L 4203.41 3088.06 M 4207.7 3091.86 L 4203.41 3091.86 M 4207.7 3090.43 L 4207.7 3093.3 M 4207.7 3094.65 L 4203.41 3094.65 M 4207.7 3094.65 L 4207.7 3096.49 L 4207.5 3097.1 L 4207.3 3097.3 L 4206.89 3097.51 L 4206.27 3097.51 L 4205.86 3097.3 L 4205.66 3097.1 L 4205.45 3096.49 L 4205.45 3094.65 M 4207.7 3099.27 L 4207.7 3101.52 L 4206.07 3100.29 L 4206.07 3100.9 L 4205.86 3101.31 L 4205.66 3101.52 L 4205.05 3101.72 L 4204.64 3101.72 L 4204.02 3101.52 L 4203.61 3101.11 L 4203.41 3100.5 L 4203.41 3099.88 L 4203.61 3099.27 L 4203.82 3099.06 L 4204.23 3098.86 M 4207.7 3104.3 L 4207.5 3103.69 L 4206.89 3103.28 L 4205.86 3103.07 L 4205.25 3103.07 L 4204.23 3103.28 L 4203.61 3103.69 L 4203.41 3104.3 L 4203.41 3104.71 L 4203.61 3105.32 L 4204.23 3105.73 L 4205.25 3105.94 L 4205.86 3105.94 L 4206.89 3105.73 L 4207.5 3105.32 L 4207.7 3104.71 L 4207.7 3104.3 M 4206.68 3107.49 L 4206.89 3107.49 L 4207.3 3107.7 L 4207.5 3107.9 L 4207.7 3108.31 L 4207.7 3109.13 L 4207.5 3109.54 L 4207.3 3109.74 L 4206.89 3109.95 L 4206.48 3109.95 L 4206.07 3109.74 L 4205.45 3109.33 L 4203.41 3107.29 L 4203.41 3110.15 M 4206.68 3111.7 L 4206.89 3111.7 L 4207.3 3111.91 L 4207.5 3112.11 L 4207.7 3112.52 L 4207.7 3113.34 L 4207.5 3113.75 L 4207.3 3113.95 L 4206.89 3114.16 L 4206.48 3114.16 L 4206.07 3113.95 L 4205.45 3113.55 L 4203.41 3111.5 L 4203.41 3114.36" fill="none"  stroke-width="0.6"  /></g><g c_partid="part_pcbtext" c_origin="4183,3115.85" c_rotation="0" c_mirror="" id="gge32" layerid="3" c_shapetype="group" ><path c_fontSize="4.5" c_fontFamily="" c_text="R1" d="M 4182.9999 3109.7011 L 4182.9999 3113.9911 M 4182.9999 3109.7011 L 4184.8399 3109.7011 L 4185.4499 3109.9011 L 4185.6599 3110.1011 L 4185.8599 3110.5111 L 4185.8599 3110.9211 L 4185.6599 3111.3311 L 4185.4499 3111.5411 L 4184.8399 3111.7411 L 4182.9999 3111.7411 M 4184.4299 3111.7411 L 4185.8599 3113.9911 M 4187.2099 3110.5111 L 4187.6199 3110.3111 L 4188.2399 3109.7011 L 4188.2399 3113.9911" fill="none"  stroke-width="0.6" c_note="note_pre" /></g><g c_partid="part_pcbtext" c_origin="4185.3,3113.64" c_rotation="180" c_mirror="" id="gge33" layerid="3" c_shapetype="group" display="none"><path c_fontSize="4.5" c_fontFamily="" c_text="18" d="M 4185.299 3118.98 L 4184.889 3119.18 L 4184.279 3119.79 L 4184.279 3115.5 M 4181.899 3119.79 L 4182.519 3119.59 L 4182.719 3119.18 L 4182.719 3118.77 L 4182.519 3118.36 L 4182.109 3118.16 L 4181.289 3117.95 L 4180.679 3117.75 L 4180.269 3117.34 L 4180.059 3116.93 L 4180.059 3116.32 L 4180.269 3115.91 L 4180.469 3115.7 L 4181.089 3115.5 L 4181.899 3115.5 L 4182.519 3115.7 L 4182.719 3115.91 L 4182.929 3116.32 L 4182.929 3116.93 L 4182.719 3117.34 L 4182.309 3117.75 L 4181.699 3117.95 L 4180.879 3118.16 L 4180.469 3118.36 L 4180.269 3118.77 L 4180.269 3119.18 L 4180.469 3119.59 L 4181.089 3119.79 L 4181.899 3119.79" fill="none"  stroke-width="0.6"  /></g><g c_partid="part_pcbtext" c_origin="4163.86,3094.18" c_rotation="90" c_mirror="" id="gge39" layerid="3" c_shapetype="group" ><path c_fontSize="4.5" c_fontFamily="" c_text="R3" d="M 4157.7103 3094.1781 L 4162.0003 3094.1781 M 4157.7103 3094.1781 L 4157.7103 3092.3381 L 4157.9103 3091.7281 L 4158.1103 3091.5181 L 4158.5203 3091.3181 L 4158.9303 3091.3181 L 4159.3403 3091.5181 L 4159.5503 3091.7281 L 4159.7503 3092.3381 L 4159.7503 3094.1781 M 4159.7503 3092.7481 L 4162.0003 3091.3181 M 4157.7103 3089.5581 L 4157.7103 3087.3081 L 4159.3403 3088.5281 L 4159.3403 3087.9181 L 4159.5503 3087.5081 L 4159.7503 3087.3081 L 4160.3603 3087.0981 L 4160.7703 3087.0981 L 4161.3903 3087.3081 L 4161.8003 3087.7181 L 4162.0003 3088.3281 L 4162.0003 3088.9381 L 4161.8003 3089.5581 L 4161.5903 3089.7581 L 4161.1803 3089.9681" fill="none"  stroke-width="0.6" c_note="note_pre" /></g><g c_partid="part_pcbtext" c_origin="4157.86,3090.8" c_rotation="90" c_mirror="" id="gge40" layerid="3" c_shapetype="group" display="none"><path c_fontSize="4.5" c_fontFamily="" c_text="10" d="M 4152.52 3090.799 L 4152.32 3090.389 L 4151.71 3089.779 L 4156 3089.779 M 4151.71 3087.199 L 4151.91 3087.809 L 4152.52 3088.219 L 4153.55 3088.429 L 4154.16 3088.429 L 4155.18 3088.219 L 4155.8 3087.809 L 4156 3087.199 L 4156 3086.789 L 4155.8 3086.179 L 4155.18 3085.769 L 4154.16 3085.559 L 4153.55 3085.559 L 4152.52 3085.769 L 4151.91 3086.179 L 4151.71 3086.789 L 4151.71 3087.199" fill="none"  stroke-width="0.6"  /></g><g c_partid="part_pcbtext" c_origin="4179.65,3074.88" c_rotation="90" c_mirror="" id="gge46" layerid="3" c_shapetype="group" ><path c_fontSize="4.5" c_fontFamily="" c_text="R2" d="M 4173.5 3074.8791 L 4177.79 3074.8791 M 4173.5 3074.8791 L 4173.5 3073.0391 L 4173.7 3072.4291 L 4173.9 3072.2191 L 4174.31 3072.0191 L 4174.72 3072.0191 L 4175.13 3072.2191 L 4175.34 3072.4291 L 4175.54 3073.0391 L 4175.54 3074.8791 M 4175.54 3073.4491 L 4177.79 3072.0191 M 4174.52 3070.4591 L 4174.31 3070.4591 L 4173.9 3070.2591 L 4173.7 3070.0491 L 4173.5 3069.6391 L 4173.5 3068.8291 L 4173.7 3068.4191 L 4173.9 3068.2091 L 4174.31 3068.0091 L 4174.72 3068.0091 L 4175.13 3068.2091 L 4175.75 3068.6191 L 4177.79 3070.6691 L 4177.79 3067.7991" fill="none"  stroke-width="0.6" c_note="note_pre" /></g><g c_partid="part_pcbtext" c_origin="4174.86,3078.3" c_rotation="90" c_mirror="" id="gge47" layerid="3" c_shapetype="group" display="none"><path c_fontSize="4.5" c_fontFamily="" c_text="820" d="M 4168.71 3077.279 L 4168.91 3077.889 L 4169.32 3078.099 L 4169.73 3078.099 L 4170.14 3077.889 L 4170.34 3077.479 L 4170.55 3076.659 L 4170.75 3076.049 L 4171.16 3075.639 L 4171.57 3075.439 L 4172.18 3075.439 L 4172.59 3075.639 L 4172.8 3075.849 L 4173 3076.459 L 4173 3077.279 L 4172.8 3077.889 L 4172.59 3078.099 L 4172.18 3078.299 L 4171.57 3078.299 L 4171.16 3078.099 L 4170.75 3077.689 L 4170.55 3077.069 L 4170.34 3076.249 L 4170.14 3075.849 L 4169.73 3075.639 L 4169.32 3075.639 L 4168.91 3075.849 L 4168.71 3076.459 L 4168.71 3077.279 M 4169.73 3073.879 L 4169.52 3073.879 L 4169.11 3073.679 L 4168.91 3073.469 L 4168.71 3073.059 L 4168.71 3072.249 L 4168.91 3071.839 L 4169.11 3071.629 L 4169.52 3071.429 L 4169.93 3071.429 L 4170.34 3071.629 L 4170.96 3072.039 L 4173 3074.089 L 4173 3071.219 M 4168.71 3068.649 L 4168.91 3069.259 L 4169.52 3069.669 L 4170.55 3069.869 L 4171.16 3069.869 L 4172.18 3069.669 L 4172.8 3069.259 L 4173 3068.649 L 4173 3068.239 L 4172.8 3067.619 L 4172.18 3067.209 L 4171.16 3067.009 L 4170.55 3067.009 L 4169.52 3067.209 L 4168.91 3067.619 L 4168.71 3068.239 L 4168.71 3068.649" fill="none"  stroke-width="0.6"  /></g><g c_partid="part_pcbtext" c_origin="4164.34,3058.4" c_rotation="0" c_mirror="" id="gge54" layerid="3" c_shapetype="group" ><path c_fontSize="4.5" c_fontFamily="" c_text="Q1" d="M 4165.57 3052.24 L 4165.16 3052.45 L 4164.75 3052.86 L 4164.54 3053.27 L 4164.34 3053.88 L 4164.34 3054.9 L 4164.54 3055.52 L 4164.75 3055.93 L 4165.16 3056.34 L 4165.57 3056.54 L 4166.39 3056.54 L 4166.79 3056.34 L 4167.2 3055.93 L 4167.41 3055.52 L 4167.61 3054.9 L 4167.61 3053.88 L 4167.41 3053.27 L 4167.2 3052.86 L 4166.79 3052.45 L 4166.39 3052.24 L 4165.57 3052.24 M 4166.18 3055.72 L 4167.41 3056.95 M 4168.96 3053.06 L 4169.37 3052.86 L 4169.99 3052.24 L 4169.99 3056.54" fill="none"  stroke-width="0.6" c_note="note_pre" /></g><g c_partid="part_pcbtext" c_origin="4167.49,3057.5" c_rotation="90" c_mirror="" id="gge55" layerid="3" c_shapetype="group" display="none"><path c_fontSize="4.5" c_fontFamily="" c_text="BC847B" d="M 4161.33 3057.5 L 4165.63 3057.5 M 4161.33 3057.5 L 4161.33 3055.66 L 4161.54 3055.05 L 4161.74 3054.84 L 4162.15 3054.64 L 4162.56 3054.64 L 4162.97 3054.84 L 4163.18 3055.05 L 4163.38 3055.66 M 4163.38 3057.5 L 4163.38 3055.66 L 4163.58 3055.05 L 4163.79 3054.84 L 4164.2 3054.64 L 4164.81 3054.64 L 4165.22 3054.84 L 4165.43 3055.05 L 4165.63 3055.66 L 4165.63 3057.5 M 4162.36 3050.22 L 4161.95 3050.42 L 4161.54 3050.83 L 4161.33 3051.24 L 4161.33 3052.06 L 4161.54 3052.47 L 4161.95 3052.88 L 4162.36 3053.08 L 4162.97 3053.29 L 4163.99 3053.29 L 4164.61 3053.08 L 4165.02 3052.88 L 4165.43 3052.47 L 4165.63 3052.06 L 4165.63 3051.24 L 4165.43 3050.83 L 4165.02 3050.42 L 4164.61 3050.22 M 4161.33 3047.85 L 4161.54 3048.46 L 4161.95 3048.66 L 4162.36 3048.66 L 4162.77 3048.46 L 4162.97 3048.05 L 4163.18 3047.23 L 4163.38 3046.62 L 4163.79 3046.21 L 4164.2 3046 L 4164.81 3046 L 4165.22 3046.21 L 4165.43 3046.41 L 4165.63 3047.03 L 4165.63 3047.85 L 4165.43 3048.46 L 4165.22 3048.66 L 4164.81 3048.87 L 4164.2 3048.87 L 4163.79 3048.66 L 4163.38 3048.25 L 4163.18 3047.64 L 4162.97 3046.82 L 4162.77 3046.41 L 4162.36 3046.21 L 4161.95 3046.21 L 4161.54 3046.41 L 4161.33 3047.03 L 4161.33 3047.85 M 4161.33 3042.61 L 4164.2 3044.65 L 4164.2 3041.59 M 4161.33 3042.61 L 4165.63 3042.61 M 4161.33 3037.37 L 4165.63 3039.42 M 4161.33 3040.24 L 4161.33 3037.37 M 4161.33 3036.02 L 4165.63 3036.02 M 4161.33 3036.02 L 4161.33 3034.18 L 4161.54 3033.57 L 4161.74 3033.36 L 4162.15 3033.16 L 4162.56 3033.16 L 4162.97 3033.36 L 4163.18 3033.57 L 4163.38 3034.18 M 4163.38 3036.02 L 4163.38 3034.18 L 4163.58 3033.57 L 4163.79 3033.36 L 4164.2 3033.16 L 4164.81 3033.16 L 4165.22 3033.36 L 4165.43 3033.57 L 4165.63 3034.18 L 4165.63 3036.02" fill="none"  stroke-width="0.6"  /></g><g c_partid="part_pcbtext" c_origin="4214.65,3100.79" c_rotation="90" c_mirror="" id="gge62" layerid="3" c_shapetype="group" ><path c_fontSize="4.5" c_fontFamily="" c_text="IC1" d="M 4208.4999 3100.7901 L 4212.7899 3100.7901 M 4209.5199 3096.3701 L 4209.1099 3096.5801 L 4208.6999 3096.9901 L 4208.4999 3097.3901 L 4208.4999 3098.2101 L 4208.6999 3098.6201 L 4209.1099 3099.0301 L 4209.5199 3099.2401 L 4210.1299 3099.4401 L 4211.1499 3099.4401 L 4211.7699 3099.2401 L 4212.1799 3099.0301 L 4212.5899 3098.6201 L 4212.7899 3098.2101 L 4212.7899 3097.3901 L 4212.5899 3096.9901 L 4212.1799 3096.5801 L 4211.7699 3096.3701 M 4209.3099 3095.0201 L 4209.1099 3094.6101 L 4208.4999 3094.0001 L 4212.7899 3094.0001" fill="none"  stroke-width="0.6" c_note="note_pre" /></g><g c_partid="part_pcbtext" c_origin="4194.12,3081.85" c_rotation="90" c_mirror="" id="gge63" layerid="3" c_shapetype="group" display="none"><path c_fontSize="4.5" c_fontFamily="" c_text="TR-72D" d="M 4187.973 3080.424 L 4192.263 3080.424 M 4187.973 3081.854 L 4187.973 3078.994 M 4187.973 3077.644 L 4192.263 3077.644 M 4187.973 3077.644 L 4187.973 3075.804 L 4188.173 3075.184 L 4188.373 3074.984 L 4188.783 3074.774 L 4189.193 3074.774 L 4189.603 3074.984 L 4189.813 3075.184 L 4190.013 3075.804 L 4190.013 3077.644 M 4190.013 3076.204 L 4192.263 3074.774 M 4190.423 3073.424 L 4190.423 3069.744 M 4187.973 3065.534 L 4192.263 3067.574 M 4187.973 3068.394 L 4187.973 3065.534 M 4188.993 3063.974 L 4188.783 3063.974 L 4188.373 3063.774 L 4188.173 3063.564 L 4187.973 3063.154 L 4187.973 3062.344 L 4188.173 3061.934 L 4188.373 3061.724 L 4188.783 3061.524 L 4189.193 3061.524 L 4189.603 3061.724 L 4190.223 3062.134 L 4192.263 3064.184 L 4192.263 3061.314 M 4187.973 3059.964 L 4192.263 3059.964 M 4187.973 3059.964 L 4187.973 3058.534 L 4188.173 3057.924 L 4188.583 3057.514 L 4188.993 3057.304 L 4189.603 3057.104 L 4190.623 3057.104 L 4191.243 3057.304 L 4191.653 3057.514 L 4192.063 3057.924 L 4192.263 3058.534 L 4192.263 3059.964" fill="none"  stroke-width="0.6"  /></g><g c_partid="part_pcbtext" c_origin="4111.5,3107" c_rotation="0" c_mirror="" id="gge76" layerid="3" c_shapetype="group" ><path c_fontSize="4.5" c_fontFamily="" c_text="J1" d="M 4113.55 3100.8479 L 4113.55 3104.1179 L 4113.34 3104.7279 L 4113.14 3104.9379 L 4112.73 3105.1379 L 4112.32 3105.1379 L 4111.91 3104.9379 L 4111.7 3104.7279 L 4111.5 3104.1179 L 4111.5 3103.7079 M 4114.9 3101.6679 L 4115.3 3101.4579 L 4115.92 3100.8479 L 4115.92 3105.1379" fill="none"  stroke-width="0.6" c_note="note_pre" /></g><g c_partid="part_pcbtext" c_origin="4118.5,3053.96" c_rotation="0" c_mirror="" id="gge77" layerid="3" c_shapetype="group" display="none"><path c_fontSize="4.5" c_fontFamily="" c_text="KF127_2P_5.08" d="M 4118.5 3047.81 L 4118.5 3052.1 M 4121.36 3047.81 L 4118.5 3050.67 M 4119.52 3049.65 L 4121.36 3052.1 M 4122.71 3047.81 L 4122.71 3052.1 M 4122.71 3047.81 L 4125.37 3047.81 M 4122.71 3049.85 L 4124.35 3049.85 M 4126.72 3048.63 L 4127.13 3048.42 L 4127.75 3047.81 L 4127.75 3052.1 M 4129.3 3048.83 L 4129.3 3048.63 L 4129.5 3048.22 L 4129.71 3048.01 L 4130.12 3047.81 L 4130.94 3047.81 L 4131.35 3048.01 L 4131.55 3048.22 L 4131.75 3048.63 L 4131.75 3049.03 L 4131.55 3049.44 L 4131.14 3050.06 L 4129.1 3052.1 L 4131.96 3052.1 M 4136.17 3047.81 L 4134.13 3052.1 M 4133.31 3047.81 L 4136.17 3047.81 M 4137.52 3053.53 L 4141.2 3053.53 M 4142.76 3048.83 L 4142.76 3048.63 L 4142.96 3048.22 L 4143.17 3048.01 L 4143.58 3047.81 L 4144.4 3047.81 L 4144.8 3048.01 L 4145.01 3048.22 L 4145.21 3048.63 L 4145.21 3049.03 L 4145.01 3049.44 L 4144.6 3050.06 L 4142.55 3052.1 L 4145.42 3052.1 M 4146.77 3047.81 L 4146.77 3052.1 M 4146.77 3047.81 L 4148.61 3047.81 L 4149.22 3048.01 L 4149.43 3048.22 L 4149.63 3048.63 L 4149.63 3049.24 L 4149.43 3049.65 L 4149.22 3049.85 L 4148.61 3050.06 L 4146.77 3050.06 M 4150.98 3053.53 L 4154.66 3053.53 M 4158.47 3047.81 L 4156.42 3047.81 L 4156.22 3049.65 L 4156.42 3049.44 L 4157.04 3049.24 L 4157.65 3049.24 L 4158.26 3049.44 L 4158.67 3049.85 L 4158.88 3050.47 L 4158.88 3050.88 L 4158.67 3051.49 L 4158.26 3051.9 L 4157.65 3052.1 L 4157.04 3052.1 L 4156.42 3051.9 L 4156.22 3051.69 L 4156.01 3051.28 M 4160.43 3051.08 L 4160.23 3051.28 L 4160.43 3051.49 L 4160.64 3051.28 L 4160.43 3051.08 M 4163.21 3047.81 L 4162.6 3048.01 L 4162.19 3048.63 L 4161.99 3049.65 L 4161.99 3050.26 L 4162.19 3051.28 L 4162.6 3051.9 L 4163.21 3052.1 L 4163.62 3052.1 L 4164.24 3051.9 L 4164.65 3051.28 L 4164.85 3050.26 L 4164.85 3049.65 L 4164.65 3048.63 L 4164.24 3048.01 L 4163.62 3047.81 L 4163.21 3047.81 M 4167.22 3047.81 L 4166.61 3048.01 L 4166.4 3048.42 L 4166.4 3048.83 L 4166.61 3049.24 L 4167.02 3049.44 L 4167.84 3049.65 L 4168.45 3049.85 L 4168.86 3050.26 L 4169.06 3050.67 L 4169.06 3051.28 L 4168.86 3051.69 L 4168.65 3051.9 L 4168.04 3052.1 L 4167.22 3052.1 L 4166.61 3051.9 L 4166.4 3051.69 L 4166.2 3051.28 L 4166.2 3050.67 L 4166.4 3050.26 L 4166.81 3049.85 L 4167.43 3049.65 L 4168.25 3049.44 L 4168.65 3049.24 L 4168.86 3048.83 L 4168.86 3048.42 L 4168.65 3048.01 L 4168.04 3047.81 L 4167.22 3047.81" fill="none"  stroke-width="0.6"  /></g><g c_partid="part_pcbtext" c_origin="4131.5,3067.5" c_rotation="270" c_mirror="none" id="gge80" layerid="3" c_shapetype="group" ><path c_fontSize="3.937" c_fontFamily="" c_text="1" d="M 4132.9301 3067.5 L 4133.1101 3067.86 L 4133.6501 3068.39 L 4129.8901 3068.39" fill="none"  stroke-width="0.8"  /></g><g c_partid="part_pcbtext" c_origin="4131.5,3087.5" c_rotation="270" c_mirror="none" id="gge81" layerid="3" c_shapetype="group" ><path c_fontSize="3.937" c_fontFamily="" c_text="2" d="M 4132.7503 3087.6801 L 4132.9303 3087.6801 L 4133.2903 3087.8601 L 4133.4703 3088.0401 L 4133.6503 3088.3901 L 4133.6503 3089.1101 L 4133.4703 3089.4701 L 4133.2903 3089.6501 L 4132.9303 3089.8301 L 4132.5703 3089.8301 L 4132.2203 3089.6501 L 4131.6803 3089.2901 L 4129.8903 3087.5001 L 4129.8903 3090.0101" fill="none"  stroke-width="0.8"  /></g><g c_partid="part_pcbtext" c_origin="4137.88,3095.42" c_rotation="0" c_mirror="" id="gge85" layerid="3" c_shapetype="group" display="none"><path c_fontSize="4.5" c_fontFamily="" c_text="KEY1" d="M 4137.878 3089.273 L 4137.878 3093.563 M 4140.738 3089.273 L 4137.878 3092.133 M 4138.898 3091.113 L 4140.738 3093.563 M 4142.088 3089.273 L 4142.088 3093.563 M 4142.088 3089.273 L 4144.748 3089.273 M 4142.088 3091.313 L 4143.728 3091.313 M 4142.088 3093.563 L 4144.748 3093.563 M 4146.098 3089.273 L 4147.738 3091.313 L 4147.738 3093.563 M 4149.378 3089.273 L 4147.738 3091.313 M 4150.728 3090.083 L 4151.128 3089.883 L 4151.748 3089.273 L 4151.748 3093.563" fill="none"  stroke-width="0.6" c_note="note_pre" /></g><g c_partid="part_pcbtext" c_origin="4137.88,3089.92" c_rotation="0" c_mirror="" id="gge87" layerid="3" c_shapetype="group" display="none"><path c_fontSize="4.5" c_fontFamily="" c_text="MSK-11027 Toggle Switches" d="M 4137.878 3083.773 L 4137.878 3088.063 M 4137.878 3083.773 L 4139.518 3088.063 M 4141.148 3083.773 L 4139.518 3088.063 M 4141.148 3083.773 L 4141.148 3088.063 M 4145.368 3084.383 L 4144.958 3083.973 L 4144.338 3083.773 L 4143.528 3083.773 L 4142.908 3083.973 L 4142.498 3084.383 L 4142.498 3084.793 L 4142.708 3085.203 L 4142.908 3085.403 L 4143.318 3085.613 L 4144.548 3086.023 L 4144.958 3086.223 L 4145.158 3086.423 L 4145.368 3086.833 L 4145.368 3087.453 L 4144.958 3087.863 L 4144.338 3088.063 L 4143.528 3088.063 L 4142.908 3087.863 L 4142.498 3087.453 M 4146.718 3083.773 L 4146.718 3088.063 M 4149.578 3083.773 L 4146.718 3086.633 M 4147.738 3085.613 L 4149.578 3088.063 M 4150.928 3086.223 L 4154.608 3086.223 M 4155.958 3084.583 L 4156.368 3084.383 L 4156.978 3083.773 L 4156.978 3088.063 M 4158.328 3084.583 L 4158.738 3084.383 L 4159.358 3083.773 L 4159.358 3088.063 M 4161.928 3083.773 L 4161.318 3083.973 L 4160.908 3084.583 L 4160.708 3085.613 L 4160.708 3086.223 L 4160.908 3087.243 L 4161.318 3087.863 L 4161.928 3088.063 L 4162.338 3088.063 L 4162.958 3087.863 L 4163.368 3087.243 L 4163.568 3086.223 L 4163.568 3085.613 L 4163.368 3084.583 L 4162.958 3083.973 L 4162.338 3083.773 L 4161.928 3083.773 M 4165.128 3084.793 L 4165.128 3084.583 L 4165.328 3084.173 L 4165.528 3083.973 L 4165.938 3083.773 L 4166.758 3083.773 L 4167.168 3083.973 L 4167.378 3084.173 L 4167.578 3084.583 L 4167.578 3084.993 L 4167.378 3085.403 L 4166.968 3086.023 L 4164.918 3088.063 L 4167.778 3088.063 M 4171.998 3083.773 L 4169.948 3088.063 M 4169.128 3083.773 L 4171.998 3083.773 M 4177.928 3083.773 L 4177.928 3088.063 M 4176.498 3083.773 L 4179.358 3083.773 M 4181.728 3085.203 L 4181.328 3085.403 L 4180.918 3085.813 L 4180.708 3086.423 L 4180.708 3086.833 L 4180.918 3087.453 L 4181.328 3087.863 L 4181.728 3088.063 L 4182.348 3088.063 L 4182.758 3087.863 L 4183.168 3087.453 L 4183.368 3086.833 L 4183.368 3086.423 L 4183.168 3085.813 L 4182.758 3085.403 L 4182.348 3085.203 L 4181.728 3085.203 M 4187.178 3085.203 L 4187.178 3088.473 L 4186.968 3089.083 L 4186.768 3089.293 L 4186.358 3089.493 L 4185.738 3089.493 L 4185.328 3089.293 M 4187.178 3085.813 L 4186.768 3085.403 L 4186.358 3085.203 L 4185.738 3085.203 L 4185.328 3085.403 L 4184.928 3085.813 L 4184.718 3086.423 L 4184.718 3086.833 L 4184.928 3087.453 L 4185.328 3087.863 L 4185.738 3088.063 L 4186.358 3088.063 L 4186.768 3087.863 L 4187.178 3087.453 M 4190.978 3085.203 L 4190.978 3088.473 L 4190.778 3089.083 L 4190.568 3089.293 L 4190.158 3089.493 L 4189.548 3089.493 L 4189.138 3089.293 M 4190.978 3085.813 L 4190.568 3085.403 L 4190.158 3085.203 L 4189.548 3085.203 L 4189.138 3085.403 L 4188.728 3085.813 L 4188.528 3086.423 L 4188.528 3086.833 L 4188.728 3087.453 L 4189.138 3087.863 L 4189.548 3088.063 L 4190.158 3088.063 L 4190.568 3087.863 L 4190.978 3087.453 M 4192.328 3083.773 L 4192.328 3088.063 M 4193.678 3086.423 L 4196.128 3086.423 L 4196.128 3086.023 L 4195.928 3085.613 L 4195.728 3085.403 L 4195.318 3085.203 L 4194.698 3085.203 L 4194.288 3085.403 L 4193.878 3085.813 L 4193.678 3086.423 L 4193.678 3086.833 L 4193.878 3087.453 L 4194.288 3087.863 L 4194.698 3088.063 L 4195.318 3088.063 L 4195.728 3087.863 L 4196.128 3087.453 M 4203.498 3084.383 L 4203.088 3083.973 L 4202.478 3083.773 L 4201.658 3083.773 L 4201.038 3083.973 L 4200.628 3084.383 L 4200.628 3084.793 L 4200.838 3085.203 L 4201.038 3085.403 L 4201.448 3085.613 L 4202.678 3086.023 L 4203.088 3086.223 L 4203.288 3086.423 L 4203.498 3086.833 L 4203.498 3087.453 L 4203.088 3087.863 L 4202.478 3088.063 L 4201.658 3088.063 L 4201.038 3087.863 L 4200.628 3087.453 M 4204.848 3085.203 L 4205.668 3088.063 M 4206.478 3085.203 L 4205.668 3088.063 M 4206.478 3085.203 L 4207.298 3088.063 M 4208.118 3085.203 L 4207.298 3088.063 M 4209.468 3083.773 L 4209.678 3083.973 L 4209.878 3083.773 L 4209.678 3083.563 L 4209.468 3083.773 M 4209.678 3085.203 L 4209.678 3088.063 M 4211.838 3083.773 L 4211.838 3087.243 L 4212.048 3087.863 L 4212.458 3088.063 L 4212.868 3088.063 M 4211.228 3085.203 L 4212.658 3085.203 M 4216.668 3085.813 L 4216.258 3085.403 L 4215.848 3085.203 L 4215.238 3085.203 L 4214.828 3085.403 L 4214.418 3085.813 L 4214.218 3086.423 L 4214.218 3086.833 L 4214.418 3087.453 L 4214.828 3087.863 L 4215.238 3088.063 L 4215.848 3088.063 L 4216.258 3087.863 L 4216.668 3087.453 M 4218.018 3083.773 L 4218.018 3088.063 M 4218.018 3086.023 L 4218.628 3085.403 L 4219.038 3085.203 L 4219.658 3085.203 L 4220.068 3085.403 L 4220.268 3086.023 L 4220.268 3088.063 M 4221.618 3086.423 L 4224.078 3086.423 L 4224.078 3086.023 L 4223.868 3085.613 L 4223.668 3085.403 L 4223.258 3085.203 L 4222.638 3085.203 L 4222.228 3085.403 L 4221.828 3085.813 L 4221.618 3086.423 L 4221.618 3086.833 L 4221.828 3087.453 L 4222.228 3087.863 L 4222.638 3088.063 L 4223.258 3088.063 L 4223.668 3087.863 L 4224.078 3087.453 M 4227.678 3085.813 L 4227.468 3085.403 L 4226.858 3085.203 L 4226.238 3085.203 L 4225.628 3085.403 L 4225.428 3085.813 L 4225.628 3086.223 L 4226.038 3086.423 L 4227.058 3086.633 L 4227.468 3086.833 L 4227.678 3087.243 L 4227.678 3087.453 L 4227.468 3087.863 L 4226.858 3088.063 L 4226.238 3088.063 L 4225.628 3087.863 L 4225.428 3087.453" fill="none"  stroke-width="0.6"  /></g><g c_partid="part_pcbtext" c_origin="4190.5,3063.5" c_rotation="90" c_mirror="" id="gge133" layerid="3" c_shapetype="group" display="none"><path c_fontSize="4.5" c_fontFamily="" c_text="C1" d="M 4189.069 3060.43 L 4188.659 3060.64 L 4188.249 3061.05 L 4188.049 3061.45 L 4188.049 3062.27 L 4188.249 3062.68 L 4188.659 3063.09 L 4189.069 3063.3 L 4189.679 3063.5 L 4190.709 3063.5 L 4191.319 3063.3 L 4191.729 3063.09 L 4192.139 3062.68 L 4192.339 3062.27 L 4192.339 3061.45 L 4192.139 3061.05 L 4191.729 3060.64 L 4191.319 3060.43 M 4188.859 3059.08 L 4188.659 3058.67 L 4188.049 3058.06 L 4192.339 3058.06" fill="none"  stroke-width="0.6" c_note="note_pre" /></g><g c_partid="part_pcbtext" c_origin="4210.24,3074.7" c_rotation="270" c_mirror="" id="gge134" layerid="3" c_shapetype="group" display="none"><path c_fontSize="4.5" c_fontFamily="" c_text="100nF" d="M 4211.88 3074.7 L 4212.08 3075.11 L 4212.69 3075.72 L 4208.4 3075.72 M 4212.69 3078.3 L 4212.49 3077.69 L 4211.88 3077.28 L 4210.85 3077.07 L 4210.24 3077.07 L 4209.22 3077.28 L 4208.6 3077.69 L 4208.4 3078.3 L 4208.4 3078.71 L 4208.6 3079.32 L 4209.22 3079.73 L 4210.24 3079.94 L 4210.85 3079.94 L 4211.88 3079.73 L 4212.49 3079.32 L 4212.69 3078.71 L 4212.69 3078.3 M 4212.69 3082.51 L 4212.49 3081.9 L 4211.88 3081.49 L 4210.85 3081.29 L 4210.24 3081.29 L 4209.22 3081.49 L 4208.6 3081.9 L 4208.4 3082.51 L 4208.4 3082.92 L 4208.6 3083.54 L 4209.22 3083.95 L 4210.24 3084.15 L 4210.85 3084.15 L 4211.88 3083.95 L 4212.49 3083.54 L 4212.69 3082.92 L 4212.69 3082.51 M 4211.26 3085.5 L 4208.4 3085.5 M 4210.44 3085.5 L 4211.06 3086.11 L 4211.26 3086.52 L 4211.26 3087.14 L 4211.06 3087.55 L 4210.44 3087.75 L 4208.4 3087.75 M 4212.69 3089.1 L 4208.4 3089.1 M 4212.69 3089.1 L 4212.69 3091.76 M 4210.65 3089.1 L 4210.65 3090.74" fill="none"  stroke-width="0.6"  /></g><g c_partid="part_pcbtext" c_origin="4140.51,3083.53" c_rotation="90" c_mirror="" id="gge146" layerid="3" c_shapetype="group" display="none"><path c_fontSize="4.5" c_fontFamily="" c_text="F1" d="M 4138.0598 3083.5298 L 4142.3498 3083.5298 M 4138.0598 3083.5298 L 4138.0598 3080.8698 M 4140.0998 3083.5298 L 4140.0998 3081.8898 M 4138.8698 3079.5198 L 4138.6698 3079.1098 L 4138.0598 3078.4998 L 4142.3498 3078.4998" fill="none"  stroke-width="0.6" c_note="note_pre" /></g><g c_partid="part_pcbtext" c_origin="4148.51,3083.53" c_rotation="90" c_mirror="" id="rep2" layerid="3" c_shapetype="group" display="none"><path c_fontSize="4.5" c_fontFamily="" c_text="_" d="M 4151.78 3083.53L4151.78 3079.85 " fill="none"  stroke-width="0.6"  /></g><polyline points="4106.5 3048 4264 3048 4264 3115 4106.5 3115 4106.5 3048" stroke-width="1" c_shapetype="line" stroke-linecap="round" fill="none" layerid="10" net="" id="gge7" /></g></svg>