<svg xmlns="http://www.w3.org/2000/svg" xmlns:xlink="http://www.w3.org/1999/xlink" width="78.816mm" height="71.272mm" viewBox="4139 3040.4 310.3 280.6"><title></title><style type="text/css">
*[layerid="1"] {stroke:#FF0000;fill:#FF0000;}
*[layerid="2"] {stroke:#0000FF;fill:#0000FF;}
*[layerid="3"] {stroke:#FFCC00;fill:#FFCC00;}
*[layerid="4"] {stroke:#66CC33;fill:#66CC33;}
*[layerid="5"] {stroke:#808080;fill:#808080;}
*[layerid="6"] {stroke:#800000;fill:#800000;}
*[layerid="7"] {stroke:#800080;fill:#800080;stroke-opacity:0.7;fill-opacity:0.7;}
*[layerid="8"] {stroke:#AA00FF;fill:#AA00FF;stroke-opacity:0.7;fill-opacity:0.7;}
*[layerid="9"] {stroke:#6464FF;fill:#6464FF;}
*[layerid="10"] {stroke:#FF00FF;fill:#FF00FF;}
*[layerid="11"] {stroke:#C0C0C0;fill:#C0C0C0;}
*[layerid="12"] {stroke:#FFFFFF;fill:#FFFFFF;}
*[layerid="13"] {stroke:#33CC99;fill:#33CC99;}
*[layerid="14"] {stroke:#5555FF;fill:#5555FF;}
*[layerid="15"] {stroke:#F022F0;fill:#F022F0;}
*[layerid="21"] {stroke:#999966;fill:#999966;}
*[layerid="22"] {stroke:#008000;fill:#008000;}
*[layerid="23"] {stroke:#00FF00;fill:#00FF00;}
*[layerid="24"] {stroke:#BC8E00;fill:#BC8E00;}
*[layerid="25"] {stroke:#70DBFA;fill:#70DBFA;}
*[layerid="26"] {stroke:#00CC66;fill:#00CC66;}
*[layerid="27"] {stroke:#9966FF;fill:#9966FF;}
*[layerid="28"] {stroke:#800080;fill:#800080;}
*[layerid="29"] {stroke:#008080;fill:#008080;}
*[layerid="30"] {stroke:#15935F;fill:#15935F;}
*[layerid="31"] {stroke:#000080;fill:#000080;}
*[layerid="32"] {stroke:#00B400;fill:#00B400;}
*[layerid="33"] {stroke:#2E4756;fill:#2E4756;}
*[layerid="34"] {stroke:#99842F;fill:#99842F;}
*[layerid="35"] {stroke:#FFFFAA;fill:#FFFFAA;}
*[layerid="36"] {stroke:#99842F;fill:#99842F;}
*[layerid="37"] {stroke:#2E4756;fill:#2E4756;}
*[layerid="38"] {stroke:#3535FF;fill:#3535FF;}
*[layerid="39"] {stroke:#8000BC;fill:#8000BC;}
*[layerid="40"] {stroke:#43AE5F;fill:#43AE5F;}
*[layerid="41"] {stroke:#C3ECCE;fill:#C3ECCE;}
*[layerid="42"] {stroke:#728978;fill:#728978;}
*[layerid="43"] {stroke:#39503F;fill:#39503F;}
*[layerid="44"] {stroke:#0C715D;fill:#0C715D;}
*[layerid="45"] {stroke:#5A8A80;fill:#5A8A80;}
*[layerid="46"] {stroke:#2B937E;fill:#2B937E;}
*[layerid="47"] {stroke:#23999D;fill:#23999D;}
*[layerid="48"] {stroke:#45B4E3;fill:#45B4E3;}
*[layerid="49"] {stroke:#215DA1;fill:#215DA1;}
*[layerid="50"] {stroke:#4564D7;fill:#4564D7;}
*[layerid="51"] {stroke:#6969E9;fill:#6969E9;}
*[layerid="52"] {stroke:#9069E9;fill:#9069E9;}
*[fill="none"] {fill: none;}
*[stroke="none"] {stroke: none;}
path, polyline, polygon, line {stroke-linecap:round;}
g[c_partid="part_pad"][layerid="1"] ellipse:not([c_padid]) {fill:#FF0000;}
g[c_partid="part_pad"][layerid="1"]  polygon:not([c_padid]) {fill:#FF0000;}
g[c_partid="part_pad"][layerid="1"]  polyline:not([c_padid]) {stroke:#FF0000;}
g[c_partid="part_pad"][layerid="1"]  circle {fill:#FF0000;}
g[c_partid="part_pad"][layerid="2"]  ellipse:not([c_padid]) {fill:#0000FF;}
g[c_partid="part_pad"][layerid="2"]  polygon:not([c_padid]) {fill:#0000FF;}
g[c_partid="part_pad"][layerid="2"]  polyline:not([c_padid]) {stroke:#0000FF;}
g[c_partid="part_pad"][layerid="2"]  circle {fill:#0000FF;}
g[c_partid="part_pad"][layerid="11"]  ellipse:not([c_padid]) {fill:#C0C0C0;}
g[c_partid="part_pad"][layerid="11"]  polygon:not([c_padid]) {fill:#C0C0C0;}
g[c_partid="part_pad"][layerid="11"]  polyline:not([c_padid]) {stroke:#C0C0C0;}
g[c_partid="part_pad"][layerid="11"]  circle {fill:#C0C0C0;}
g[c_partid="part_pad"][layerid] > circle[c_padhole] {fill: #222222;}
g[c_partid="part_pad"][layerid] > polyline[c_padhole] {stroke:#222222;}
g[c_partid="part_via"][layerid] > * + circle {fill: #222222;}
g[c_partid="part_pad"] > polygon[c_padid] {stroke-linejoin: miter;stroke-miterlimit: 100;}
g[c_partid="part_hole"] > circle {fill: #222222;}path, polyline, polygon {stroke-linejoin:round;}
rect, circle, ellipse, polyline, line, polygon, path {shape-rendering:crispEdges;}
</style>
<rect x="4139" y="3040.4" width="310.3" height="280.6" fill="#999999" stroke="none"/><g id="g1" cpara="package`OMF_125`" c_transformList="" importFlag="0" xmlns="http://www.w3.org/2000/svg"><polyline points="4180.5 3072.37 4186.87 3066 4208 3066 4240 3098 4240 3103.5 4248 3111.5 4250 3111.5" stroke-width="2" c_shapetype="line" stroke-linecap="round" fill="none" layerid="1" net="C7/STROBE" id="gge1553" /><polyline points="4190.5 3072.37 4229 3110.87 4229 3179.5 4240 3190.5 4250 3190.5" stroke-width="2" c_shapetype="line" stroke-linecap="round" fill="none" layerid="1" net="C6/DATA" id="gge1554" /><polyline points="4180.5 3072.37 4180.5 3079.5 4182 3081 4193 3081 4224 3112 4224 3195.5 4239 3210.5 4250 3210.5" stroke-width="2" c_shapetype="line" stroke-linecap="round" fill="none" layerid="1" net="C7/STROBE" id="gge1555" /><polyline points="4170.5 3072.37 4170.5 3080 4175.5 3085 4191 3085 4218.5 3112.5 4218.5 3198.5 4240.5 3220.5 4250 3220.5" stroke-width="2" c_shapetype="line" stroke-linecap="round" fill="none" layerid="1" net="C8/CLK" id="gge1556" /><polyline points="4250 3101.5 4210 3061.5 4170 3061.5 4164.5 3067 4164.5 3084 4169.5 3089 4190.5 3089 4206 3104.5 4206 3120 4184.5 3141.5 4184.1 3141.5" stroke-width="2" c_shapetype="line" stroke-linecap="round" fill="none" layerid="1" net="GND" id="gge1557" /><polyline points="4170.5 3119.5 4184.1 3133.1 4184.1 3141.5" stroke-width="2" c_shapetype="line" stroke-linecap="round" fill="none" layerid="1" net="GND" id="gge1563" /><polyline points="4250 3170.5 4259.5 3180 4259.5 3221 4250 3230.5" stroke-width="2" c_shapetype="line" stroke-linecap="round" fill="none" layerid="1" net="+5V" id="gge1564" /><polyline points="4340 3141.5 4330 3152 4330 3234 4340 3240.5" stroke-width="5" c_shapetype="line" stroke-linecap="round" fill="none" layerid="1" net="+12V" id="gge1570" /><polyline points="4250 3101.5 4272.5 3124 4272.5 3134 4280 3141.5" stroke-width="2" c_shapetype="line" stroke-linecap="round" fill="none" layerid="1" net="GND" id="gge1571" /><polyline points="4250 3141.5 4261 3152.5 4278.5 3152.5 4292.5 3166.5 4292.5 3271.5 4303.5 3282.5 4303.5 3294" stroke-width="2" c_shapetype="line" stroke-linecap="round" fill="none" layerid="1" net="U6_9" id="gge1552" /><polyline points="4170.5 3141.5 4163.5 3134.5 4163.5 3112.5 4168.08 3107.92 4173.5 3107.92 4180.5 3114.92 4180.5 3119.5" stroke-width="2" c_shapetype="line" stroke-linecap="round" fill="none" layerid="1" net="+5V" id="gge1642" /><polyline points="4165 3182 4165 3176 4159 3170 4159 3107.5 4163 3103.5 4182.5 3103.5 4190.7 3111.7 4190.7 3119.5" stroke-width="2" c_shapetype="line" stroke-linecap="round" fill="none" layerid="1" net="C2/BTN2/RIGHT" id="gge1645" /><polyline points="4165 3222 4154.5 3211.5 4154.5 3104 4159.5 3099 4191.5 3099 4200.94 3108.44 4200.94 3119.5" stroke-width="2" c_shapetype="line" stroke-linecap="round" fill="none" layerid="1" net="C1/BTN1/LEFT" id="gge1653" /><polyline points="4165 3242 4179 3228 4179 3160 4170.5 3151.5 4170.5 3141.5" stroke-width="2" c_shapetype="line" stroke-linecap="round" fill="none" layerid="1" net="+5V" id="gge1686" /><polyline points="4165 3202 4179 3188.05" stroke-width="2" c_shapetype="line" stroke-linecap="round" fill="none" layerid="1" net="+5V" id="gge1689" /><polyline points="4250 3230.5 4243 3230.5 4199.5 3187 4199.5 3180.5 4179 3160" stroke-width="2" c_shapetype="line" stroke-linecap="round" fill="none" layerid="1" net="+5V" id="gge1692" /><g c_partid="part_pad" c_etype="pinpart" c_origin="4184.1,3141.5" layerid="1" number="1" net="GND" plated ="Y" c_shapetype="group" id="gge439" locked="0" c_rotation="180" c_width="9.0551" c_height="10.63" title="GND" c_shape="RECT" pasteExpansion="0" solderExpansion="0.4"><polygon points="4188.628 3146.815 4179.572 3146.815 4179.572 3136.185 4188.628 3136.185" stroke-width="0" /><circle c_padhole="1" cx="4184.1" cy="3141.5" r="0" stroke-width="0" /></g><g c_partid="part_pad" c_etype="pinpart" c_origin="4170.5,3141.5" layerid="1" number="2" net="+5V" plated ="Y" c_shapetype="group" id="gge444" locked="0" c_rotation="180" c_width="9.0551" c_height="10.63" title="+5V" c_shape="RECT" pasteExpansion="0" solderExpansion="0.4"><polygon points="4175.028 3146.815 4165.972 3146.815 4165.972 3136.185 4175.028 3136.185" stroke-width="0" /><circle c_padhole="1" cx="4170.5" cy="3141.5" r="0" stroke-width="0" /></g><g c_partid="part_pad" c_etype="pinpart" c_origin="4200.94,3119.5" layerid="1" number="1" net="C1/BTN1/LEFT" plated ="Y" c_shapetype="group" id="gge1062" locked="0" c_rotation="180" c_width="3.937" c_height="7.4803" title="C1/BTN1/LEFT" c_shape="RECT" pasteExpansion="0" solderExpansion="0.4"><polygon points="4202.91 3123.24 4198.97 3123.24 4198.97 3115.76 4202.91 3115.76" stroke-width="0" /><circle c_padhole="1" cx="4200.94" cy="3119.5" r="0" stroke-width="0" /></g><g c_partid="part_pad" c_etype="pinpart" c_origin="4190.7,3119.5" layerid="1" number="2" net="C2/BTN2/RIGHT" plated ="Y" c_shapetype="group" id="gge1067" locked="0" c_rotation="180" c_width="3.937" c_height="7.4803" title="C2/BTN2/RIGHT" c_shape="RECT" pasteExpansion="0" solderExpansion="0.4"><polygon points="4192.67 3123.24 4188.73 3123.24 4188.73 3115.76 4192.67 3115.76" stroke-width="0" /><circle c_padhole="1" cx="4190.7" cy="3119.5" r="0" stroke-width="0" /></g><g c_partid="part_pad" c_etype="pinpart" c_origin="4180.5,3119.5" layerid="1" number="3" net="+5V" plated ="Y" c_shapetype="group" id="gge1072" locked="0" c_rotation="180" c_width="3.937" c_height="7.4803" title="+5V" c_shape="RECT" pasteExpansion="0" solderExpansion="0.4"><polygon points="4182.47 3123.24 4178.53 3123.24 4178.53 3115.76 4182.47 3115.76" stroke-width="0" /><circle c_padhole="1" cx="4180.5" cy="3119.5" r="0" stroke-width="0" /></g><g c_partid="part_pad" c_etype="pinpart" c_origin="4170.3,3119.5" layerid="1" number="4" net="GND" plated ="Y" c_shapetype="group" id="gge1077" locked="0" c_rotation="180" c_width="3.937" c_height="7.4803" title="GND" c_shape="RECT" pasteExpansion="0" solderExpansion="0.4"><polygon points="4172.27 3123.24 4168.33 3123.24 4168.33 3115.76 4172.27 3115.76" stroke-width="0" /><circle c_padhole="1" cx="4170.3" cy="3119.5" r="0" stroke-width="0" /></g><g c_partid="part_pad" c_etype="pinpart" c_origin="4200.94,3072.37" layerid="1" number="5" net="R2_1" plated ="Y" c_shapetype="group" id="gge1082" locked="0" c_rotation="180" c_width="3.937" c_height="7.4803" title="R2_1" c_shape="RECT" pasteExpansion="0" solderExpansion="0.4"><polygon points="4202.91 3076.11 4198.97 3076.11 4198.97 3068.63 4202.91 3068.63" stroke-width="0" /><circle c_padhole="1" cx="4200.94" cy="3072.37" r="0" stroke-width="0" /></g><g c_partid="part_pad" c_etype="pinpart" c_origin="4190.7,3072.37" layerid="1" number="6" net="C6/DATA" plated ="Y" c_shapetype="group" id="gge1087" locked="0" c_rotation="180" c_width="3.937" c_height="7.4803" title="C6/DATA" c_shape="RECT" pasteExpansion="0" solderExpansion="0.4"><polygon points="4192.67 3076.11 4188.73 3076.11 4188.73 3068.63 4192.67 3068.63" stroke-width="0" /><circle c_padhole="1" cx="4190.7" cy="3072.37" r="0" stroke-width="0" /></g><g c_partid="part_pad" c_etype="pinpart" c_origin="4180.5,3072.37" layerid="1" number="7" net="C7/STROBE" plated ="Y" c_shapetype="group" id="gge1092" locked="0" c_rotation="180" c_width="3.937" c_height="7.4803" title="C7/STROBE" c_shape="RECT" pasteExpansion="0" solderExpansion="0.4"><polygon points="4182.47 3076.11 4178.53 3076.11 4178.53 3068.63 4182.47 3068.63" stroke-width="0" /><circle c_padhole="1" cx="4180.5" cy="3072.37" r="0" stroke-width="0" /></g><g c_partid="part_pad" c_etype="pinpart" c_origin="4170.3,3072.37" layerid="1" number="8" net="C8/CLK" plated ="Y" c_shapetype="group" id="gge1097" locked="0" c_rotation="180" c_width="3.937" c_height="7.4803" title="C8/CLK" c_shape="RECT" pasteExpansion="0" solderExpansion="0.4"><polygon points="4172.27 3076.11 4168.33 3076.11 4168.33 3068.63 4172.27 3068.63" stroke-width="0" /><circle c_padhole="1" cx="4170.3" cy="3072.37" r="0" stroke-width="0" /></g><g c_partid="part_pad" c_etype="pinpart" c_origin="4303.5,3294" layerid="11" number="3" net="U6_9" plated ="Y" c_shapetype="group" id="gge1347" locked="0" c_rotation="0" c_width="11.811" c_height="13.7795" title="U6_9" c_shape="OVAL" pasteExpansion="0" solderExpansion="0.4"><polyline points="4303.5 3293.016 4303.5 3294.984" stroke-width="11.811" /><circle c_padhole="1" cx="4303.5" cy="3294" r="2.3622" stroke-width="0" /></g><g c_partid="part_pad" c_etype="pinpart" c_origin="4221,3238.5" layerid="11" number="3" net="F1_1" plated ="Y" c_shapetype="group" id="gge363" locked="0" c_rotation="0" c_width="8" c_height="6" title="F1_1" c_shape="OVAL" pasteExpansion="0" solderExpansion="0.4"><polyline points="4220 3238.5 4222 3238.5" stroke-width="6" /><circle c_padhole="1" cx="4221" cy="3238.5" r="1.4" stroke-width="0" /></g><g c_partid="part_pad" c_etype="pinpart" c_origin="4221,3230.2" layerid="11" number="3" net="0" plated ="Y" c_shapetype="group" id="gge371" locked="0" c_rotation="0" c_width="8" c_height="6" title="0" c_shape="OVAL" pasteExpansion="0" solderExpansion="0.4"><polyline points="4220 3230.2 4222 3230.2" stroke-width="6" /><circle c_padhole="1" cx="4221" cy="3230.2" r="1.4" stroke-width="0" /></g><g c_partid="part_pad" c_etype="pinpart" c_origin="4221,3222" layerid="11" number="3" net="+5V" plated ="Y" c_shapetype="group" id="gge1667" locked="0" c_rotation="0" c_width="8" c_height="6" title="+5V" c_shape="OVAL" pasteExpansion="0" solderExpansion="0.4"><polyline points="4220 3222 4222 3222" stroke-width="6" /><circle c_padhole="1" cx="4221" cy="3222" r="1.4" stroke-width="0" /></g><g c_partid="part_pad" c_etype="pinpart" c_origin="4243.42,3293.91" layerid="11" number="1" net="F1_2" plated ="Y" c_shapetype="group" id="gge548" locked="0" c_rotation="0" c_width="11.811" c_height="13.7795" title="F1_2" c_shape="RECT" pasteExpansion="0" solderExpansion="0.4"><polygon points="4237.516 3287.02 4249.327 3287.02 4249.327 3300.799 4237.516 3300.799" stroke-width="0" /><circle c_padhole="1" cx="4243.4214" cy="3293.9098" r="2.3622" stroke-width="0" /></g><g c_partid="part_pad" c_etype="pinpart" c_origin="4263.48,3293.89" layerid="11" number="2" net="GND" plated ="Y" c_shapetype="group" id="gge553" locked="0" c_rotation="0" c_width="11.811" c_height="13.7795" title="GND" c_shape="OVAL" pasteExpansion="0" solderExpansion="0.4"><polyline points="4263.48 3292.906 4263.48 3294.874" stroke-width="11.811" /><circle c_padhole="1" cx="4263.4764" cy="3293.8938" r="2.3622" stroke-width="0" /></g><g c_partid="part_pad" c_etype="pinpart" c_origin="4283.48,3293.89" layerid="11" number="3" net="F2_1" plated ="Y" c_shapetype="group" id="gge558" locked="0" c_rotation="0" c_width="11.811" c_height="13.7795" title="F2_1" c_shape="OVAL" pasteExpansion="0" solderExpansion="0.4"><polyline points="4283.48 3292.906 4283.48 3294.874" stroke-width="11.811" /><circle c_padhole="1" cx="4283.4764" cy="3293.8938" r="2.3622" stroke-width="0" /></g><g c_partid="part_pad" c_etype="pinpart" c_origin="4310,3160.5" layerid="11" number="1" net="O1" plated ="Y" c_shapetype="group" id="gge580" locked="0" c_rotation="270" c_width="6.3" c_height="6.3" title="O1" c_shape="RECT" pasteExpansion="0" solderExpansion="0.4"><polygon points="4313.15 3157.35 4313.15 3163.65 4306.85 3163.65 4306.85 3157.35" stroke-width="0" /><circle c_padhole="1" cx="4310" cy="3160.5" r="1.6" stroke-width="0" /></g><g c_partid="part_pad" c_etype="pinpart" c_origin="4310,3170.5" layerid="11" number="2" net="O2" plated ="Y" c_shapetype="group" id="gge585" locked="0" c_rotation="270" c_width="6.3" c_height="6.3" title="O2" c_shape="RECT" pasteExpansion="0" solderExpansion="0.4"><polygon points="4313.15 3167.35 4313.15 3173.65 4306.85 3173.65 4306.85 3167.35" stroke-width="0" /><circle c_padhole="1" cx="4310" cy="3170.5" r="1.6" stroke-width="0" /></g><g c_partid="part_pad" c_etype="pinpart" c_origin="4310,3220.5" layerid="11" number="7" net="O7" plated ="Y" c_shapetype="group" id="gge590" locked="0" c_rotation="270" c_width="6.3" c_height="6.3" title="O7" c_shape="RECT" pasteExpansion="0" solderExpansion="0.4"><polygon points="4313.15 3217.35 4313.15 3223.65 4306.85 3223.65 4306.85 3217.35" stroke-width="0" /><circle c_padhole="1" cx="4310" cy="3220.5" r="1.6" stroke-width="0" /></g><g c_partid="part_pad" c_etype="pinpart" c_origin="4310,3230.5" layerid="11" number="8" net="O8" plated ="Y" c_shapetype="group" id="gge595" locked="0" c_rotation="270" c_width="6.3" c_height="6.3" title="O8" c_shape="RECT" pasteExpansion="0" solderExpansion="0.4"><polygon points="4313.15 3227.35 4313.15 3233.65 4306.85 3233.65 4306.85 3227.35" stroke-width="0" /><circle c_padhole="1" cx="4310" cy="3230.5" r="1.6" stroke-width="0" /></g><g c_partid="part_pad" c_etype="pinpart" c_origin="4310,3180.5" layerid="11" number="3" net="O3" plated ="Y" c_shapetype="group" id="gge600" locked="0" c_rotation="270" c_width="6.3" c_height="6.3" title="O3" c_shape="RECT" pasteExpansion="0" solderExpansion="0.4"><polygon points="4313.15 3177.35 4313.15 3183.65 4306.85 3183.65 4306.85 3177.35" stroke-width="0" /><circle c_padhole="1" cx="4310" cy="3180.5" r="1.6" stroke-width="0" /></g><g c_partid="part_pad" c_etype="pinpart" c_origin="4310,3190.5" layerid="11" number="4" net="O4" plated ="Y" c_shapetype="group" id="gge605" locked="0" c_rotation="270" c_width="6.3" c_height="6.3" title="O4" c_shape="RECT" pasteExpansion="0" solderExpansion="0.4"><polygon points="4313.15 3187.35 4313.15 3193.65 4306.85 3193.65 4306.85 3187.35" stroke-width="0" /><circle c_padhole="1" cx="4310" cy="3190.5" r="1.6" stroke-width="0" /></g><g c_partid="part_pad" c_etype="pinpart" c_origin="4310,3210.5" layerid="11" number="6" net="O6" plated ="Y" c_shapetype="group" id="gge610" locked="0" c_rotation="270" c_width="6.3" c_height="6.3" title="O6" c_shape="RECT" pasteExpansion="0" solderExpansion="0.4"><polygon points="4313.15 3207.35 4313.15 3213.65 4306.85 3213.65 4306.85 3207.35" stroke-width="0" /><circle c_padhole="1" cx="4310" cy="3210.5" r="1.6" stroke-width="0" /></g><g c_partid="part_pad" c_etype="pinpart" c_origin="4310,3200.5" layerid="11" number="5" net="O5" plated ="Y" c_shapetype="group" id="gge615" locked="0" c_rotation="270" c_width="6.3" c_height="6.3" title="O5" c_shape="RECT" pasteExpansion="0" solderExpansion="0.4"><polygon points="4313.15 3197.35 4313.15 3203.65 4306.85 3203.65 4306.85 3197.35" stroke-width="0" /><circle c_padhole="1" cx="4310" cy="3200.5" r="1.6" stroke-width="0" /></g><g c_partid="part_pad" c_etype="pinpart" c_origin="4310,3240.5" layerid="11" number="9" net="GND" plated ="Y" c_shapetype="group" id="gge620" locked="0" c_rotation="270" c_width="6.3" c_height="6.3" title="GND" c_shape="RECT" pasteExpansion="0" solderExpansion="0.4"><polygon points="4313.15 3237.35 4313.15 3243.65 4306.85 3243.65 4306.85 3237.35" stroke-width="0" /><circle c_padhole="1" cx="4310" cy="3240.5" r="1.6" stroke-width="0" /></g><g c_partid="part_pad" c_etype="pinpart" c_origin="4340,3240.5" layerid="11" number="10" net="+12V" plated ="Y" c_shapetype="group" id="gge625" locked="0" c_rotation="270" c_width="6.3" c_height="6.3" title="+12V" c_shape="RECT" pasteExpansion="0" solderExpansion="0.4"><polygon points="4343.15 3237.35 4343.15 3243.65 4336.85 3243.65 4336.85 3237.35" stroke-width="0" /><circle c_padhole="1" cx="4340" cy="3240.5" r="1.6" stroke-width="0" /></g><g c_partid="part_pad" c_etype="pinpart" c_origin="4340,3230.5" layerid="11" number="11" net="U8_11" plated ="Y" c_shapetype="group" id="gge630" locked="0" c_rotation="270" c_width="6.3" c_height="6.3" title="U8_11" c_shape="RECT" pasteExpansion="0" solderExpansion="0.4"><polygon points="4343.15 3227.35 4343.15 3233.65 4336.85 3233.65 4336.85 3227.35" stroke-width="0" /><circle c_padhole="1" cx="4340" cy="3230.5" r="1.6" stroke-width="0" /></g><g c_partid="part_pad" c_etype="pinpart" c_origin="4340,3220.5" layerid="11" number="12" net="U8_12" plated ="Y" c_shapetype="group" id="gge635" locked="0" c_rotation="270" c_width="6.3" c_height="6.3" title="U8_12" c_shape="RECT" pasteExpansion="0" solderExpansion="0.4"><polygon points="4343.15 3217.35 4343.15 3223.65 4336.85 3223.65 4336.85 3217.35" stroke-width="0" /><circle c_padhole="1" cx="4340" cy="3220.5" r="1.6" stroke-width="0" /></g><g c_partid="part_pad" c_etype="pinpart" c_origin="4340,3210.5" layerid="11" number="13" net="U8_13" plated ="Y" c_shapetype="group" id="gge640" locked="0" c_rotation="270" c_width="6.3" c_height="6.3" title="U8_13" c_shape="RECT" pasteExpansion="0" solderExpansion="0.4"><polygon points="4343.15 3207.35 4343.15 3213.65 4336.85 3213.65 4336.85 3207.35" stroke-width="0" /><circle c_padhole="1" cx="4340" cy="3210.5" r="1.6" stroke-width="0" /></g><g c_partid="part_pad" c_etype="pinpart" c_origin="4340,3200.5" layerid="11" number="14" net="U8_14" plated ="Y" c_shapetype="group" id="gge645" locked="0" c_rotation="270" c_width="6.3" c_height="6.3" title="U8_14" c_shape="RECT" pasteExpansion="0" solderExpansion="0.4"><polygon points="4343.15 3197.35 4343.15 3203.65 4336.85 3203.65 4336.85 3197.35" stroke-width="0" /><circle c_padhole="1" cx="4340" cy="3200.5" r="1.6" stroke-width="0" /></g><g c_partid="part_pad" c_etype="pinpart" c_origin="4340,3190.5" layerid="11" number="15" net="U8_15" plated ="Y" c_shapetype="group" id="gge650" locked="0" c_rotation="270" c_width="6.3" c_height="6.3" title="U8_15" c_shape="RECT" pasteExpansion="0" solderExpansion="0.4"><polygon points="4343.15 3187.35 4343.15 3193.65 4336.85 3193.65 4336.85 3187.35" stroke-width="0" /><circle c_padhole="1" cx="4340" cy="3190.5" r="1.6" stroke-width="0" /></g><g c_partid="part_pad" c_etype="pinpart" c_origin="4340,3180.5" layerid="11" number="16" net="U8_16" plated ="Y" c_shapetype="group" id="gge655" locked="0" c_rotation="270" c_width="6.3" c_height="6.3" title="U8_16" c_shape="RECT" pasteExpansion="0" solderExpansion="0.4"><polygon points="4343.15 3177.35 4343.15 3183.65 4336.85 3183.65 4336.85 3177.35" stroke-width="0" /><circle c_padhole="1" cx="4340" cy="3180.5" r="1.6" stroke-width="0" /></g><g c_partid="part_pad" c_etype="pinpart" c_origin="4340,3170.5" layerid="11" number="17" net="U8_17" plated ="Y" c_shapetype="group" id="gge660" locked="0" c_rotation="270" c_width="6.3" c_height="6.3" title="U8_17" c_shape="RECT" pasteExpansion="0" solderExpansion="0.4"><polygon points="4343.15 3167.35 4343.15 3173.65 4336.85 3173.65 4336.85 3167.35" stroke-width="0" /><circle c_padhole="1" cx="4340" cy="3170.5" r="1.6" stroke-width="0" /></g><g c_partid="part_pad" c_etype="pinpart" c_origin="4340,3160.5" layerid="11" number="18" net="U8_18" plated ="Y" c_shapetype="group" id="gge665" locked="0" c_rotation="270" c_width="6.3" c_height="6.3" title="U8_18" c_shape="RECT" pasteExpansion="0" solderExpansion="0.4"><polygon points="4343.15 3157.35 4343.15 3163.65 4336.85 3163.65 4336.85 3157.35" stroke-width="0" /><circle c_padhole="1" cx="4340" cy="3160.5" r="1.6" stroke-width="0" /></g><g c_partid="part_pad" c_etype="pinpart" c_origin="4310,3061.5" layerid="11" number="1" net="U5_1" plated ="Y" c_shapetype="group" id="gge745" locked="0" c_rotation="270" c_width="6.3" c_height="6.3" title="U5_1" c_shape="RECT" pasteExpansion="0" solderExpansion="0.4"><polygon points="4313.15 3058.35 4313.15 3064.65 4306.85 3064.65 4306.85 3058.35" stroke-width="0" /><circle c_padhole="1" cx="4310" cy="3061.5" r="1.6" stroke-width="0" /></g><g c_partid="part_pad" c_etype="pinpart" c_origin="4310,3071.5" layerid="11" number="2" net="U5_2" plated ="Y" c_shapetype="group" id="gge750" locked="0" c_rotation="270" c_width="6.3" c_height="6.3" title="U5_2" c_shape="RECT" pasteExpansion="0" solderExpansion="0.4"><polygon points="4313.15 3068.35 4313.15 3074.65 4306.85 3074.65 4306.85 3068.35" stroke-width="0" /><circle c_padhole="1" cx="4310" cy="3071.5" r="1.6" stroke-width="0" /></g><g c_partid="part_pad" c_etype="pinpart" c_origin="4310,3121.5" layerid="11" number="7" net="O9" plated ="Y" c_shapetype="group" id="gge755" locked="0" c_rotation="270" c_width="6.3" c_height="6.3" title="O9" c_shape="RECT" pasteExpansion="0" solderExpansion="0.4"><polygon points="4313.15 3118.35 4313.15 3124.65 4306.85 3124.65 4306.85 3118.35" stroke-width="0" /><circle c_padhole="1" cx="4310" cy="3121.5" r="1.6" stroke-width="0" /></g><g c_partid="part_pad" c_etype="pinpart" c_origin="4310,3131.5" layerid="11" number="8" net="O10" plated ="Y" c_shapetype="group" id="gge760" locked="0" c_rotation="270" c_width="6.3" c_height="6.3" title="O10" c_shape="RECT" pasteExpansion="0" solderExpansion="0.4"><polygon points="4313.15 3128.35 4313.15 3134.65 4306.85 3134.65 4306.85 3128.35" stroke-width="0" /><circle c_padhole="1" cx="4310" cy="3131.5" r="1.6" stroke-width="0" /></g><g c_partid="part_pad" c_etype="pinpart" c_origin="4310,3081.5" layerid="11" number="3" net="U5_3" plated ="Y" c_shapetype="group" id="gge765" locked="0" c_rotation="270" c_width="6.3" c_height="6.3" title="U5_3" c_shape="RECT" pasteExpansion="0" solderExpansion="0.4"><polygon points="4313.15 3078.35 4313.15 3084.65 4306.85 3084.65 4306.85 3078.35" stroke-width="0" /><circle c_padhole="1" cx="4310" cy="3081.5" r="1.6" stroke-width="0" /></g><g c_partid="part_pad" c_etype="pinpart" c_origin="4310,3091.5" layerid="11" number="4" net="U5_4" plated ="Y" c_shapetype="group" id="gge770" locked="0" c_rotation="270" c_width="6.3" c_height="6.3" title="U5_4" c_shape="RECT" pasteExpansion="0" solderExpansion="0.4"><polygon points="4313.15 3088.35 4313.15 3094.65 4306.85 3094.65 4306.85 3088.35" stroke-width="0" /><circle c_padhole="1" cx="4310" cy="3091.5" r="1.6" stroke-width="0" /></g><g c_partid="part_pad" c_etype="pinpart" c_origin="4310,3111.5" layerid="11" number="6" net="U5_6" plated ="Y" c_shapetype="group" id="gge775" locked="0" c_rotation="270" c_width="6.3" c_height="6.3" title="U5_6" c_shape="RECT" pasteExpansion="0" solderExpansion="0.4"><polygon points="4313.15 3108.35 4313.15 3114.65 4306.85 3114.65 4306.85 3108.35" stroke-width="0" /><circle c_padhole="1" cx="4310" cy="3111.5" r="1.6" stroke-width="0" /></g><g c_partid="part_pad" c_etype="pinpart" c_origin="4310,3101.5" layerid="11" number="5" net="U5_5" plated ="Y" c_shapetype="group" id="gge780" locked="0" c_rotation="270" c_width="6.3" c_height="6.3" title="U5_5" c_shape="RECT" pasteExpansion="0" solderExpansion="0.4"><polygon points="4313.15 3098.35 4313.15 3104.65 4306.85 3104.65 4306.85 3098.35" stroke-width="0" /><circle c_padhole="1" cx="4310" cy="3101.5" r="1.6" stroke-width="0" /></g><g c_partid="part_pad" c_etype="pinpart" c_origin="4310,3141.5" layerid="11" number="9" net="GND" plated ="Y" c_shapetype="group" id="gge785" locked="0" c_rotation="270" c_width="6.3" c_height="6.3" title="GND" c_shape="RECT" pasteExpansion="0" solderExpansion="0.4"><polygon points="4313.15 3138.35 4313.15 3144.65 4306.85 3144.65 4306.85 3138.35" stroke-width="0" /><circle c_padhole="1" cx="4310" cy="3141.5" r="1.6" stroke-width="0" /></g><g c_partid="part_pad" c_etype="pinpart" c_origin="4340,3141.5" layerid="11" number="10" net="+12V" plated ="Y" c_shapetype="group" id="gge790" locked="0" c_rotation="270" c_width="6.3" c_height="6.3" title="+12V" c_shape="RECT" pasteExpansion="0" solderExpansion="0.4"><polygon points="4343.15 3138.35 4343.15 3144.65 4336.85 3144.65 4336.85 3138.35" stroke-width="0" /><circle c_padhole="1" cx="4340" cy="3141.5" r="1.6" stroke-width="0" /></g><g c_partid="part_pad" c_etype="pinpart" c_origin="4340,3131.5" layerid="11" number="11" net="U5_11" plated ="Y" c_shapetype="group" id="gge795" locked="0" c_rotation="270" c_width="6.3" c_height="6.3" title="U5_11" c_shape="RECT" pasteExpansion="0" solderExpansion="0.4"><polygon points="4343.15 3128.35 4343.15 3134.65 4336.85 3134.65 4336.85 3128.35" stroke-width="0" /><circle c_padhole="1" cx="4340" cy="3131.5" r="1.6" stroke-width="0" /></g><g c_partid="part_pad" c_etype="pinpart" c_origin="4340,3121.5" layerid="11" number="12" net="U5_12" plated ="Y" c_shapetype="group" id="gge800" locked="0" c_rotation="270" c_width="6.3" c_height="6.3" title="U5_12" c_shape="RECT" pasteExpansion="0" solderExpansion="0.4"><polygon points="4343.15 3118.35 4343.15 3124.65 4336.85 3124.65 4336.85 3118.35" stroke-width="0" /><circle c_padhole="1" cx="4340" cy="3121.5" r="1.6" stroke-width="0" /></g><g c_partid="part_pad" c_etype="pinpart" c_origin="4340,3111.5" layerid="11" number="13" net="U5_13" plated ="Y" c_shapetype="group" id="gge805" locked="0" c_rotation="270" c_width="6.3" c_height="6.3" title="U5_13" c_shape="RECT" pasteExpansion="0" solderExpansion="0.4"><polygon points="4343.15 3108.35 4343.15 3114.65 4336.85 3114.65 4336.85 3108.35" stroke-width="0" /><circle c_padhole="1" cx="4340" cy="3111.5" r="1.6" stroke-width="0" /></g><g c_partid="part_pad" c_etype="pinpart" c_origin="4340,3101.5" layerid="11" number="14" net="U5_14" plated ="Y" c_shapetype="group" id="gge810" locked="0" c_rotation="270" c_width="6.3" c_height="6.3" title="U5_14" c_shape="RECT" pasteExpansion="0" solderExpansion="0.4"><polygon points="4343.15 3098.35 4343.15 3104.65 4336.85 3104.65 4336.85 3098.35" stroke-width="0" /><circle c_padhole="1" cx="4340" cy="3101.5" r="1.6" stroke-width="0" /></g><g c_partid="part_pad" c_etype="pinpart" c_origin="4340,3091.5" layerid="11" number="15" net="U5_15" plated ="Y" c_shapetype="group" id="gge815" locked="0" c_rotation="270" c_width="6.3" c_height="6.3" title="U5_15" c_shape="RECT" pasteExpansion="0" solderExpansion="0.4"><polygon points="4343.15 3088.35 4343.15 3094.65 4336.85 3094.65 4336.85 3088.35" stroke-width="0" /><circle c_padhole="1" cx="4340" cy="3091.5" r="1.6" stroke-width="0" /></g><g c_partid="part_pad" c_etype="pinpart" c_origin="4340,3081.5" layerid="11" number="16" net="U5_16" plated ="Y" c_shapetype="group" id="gge820" locked="0" c_rotation="270" c_width="6.3" c_height="6.3" title="U5_16" c_shape="RECT" pasteExpansion="0" solderExpansion="0.4"><polygon points="4343.15 3078.35 4343.15 3084.65 4336.85 3084.65 4336.85 3078.35" stroke-width="0" /><circle c_padhole="1" cx="4340" cy="3081.5" r="1.6" stroke-width="0" /></g><g c_partid="part_pad" c_etype="pinpart" c_origin="4340,3071.5" layerid="11" number="17" net="U5_17" plated ="Y" c_shapetype="group" id="gge825" locked="0" c_rotation="270" c_width="6.3" c_height="6.3" title="U5_17" c_shape="RECT" pasteExpansion="0" solderExpansion="0.4"><polygon points="4343.15 3068.35 4343.15 3074.65 4336.85 3074.65 4336.85 3068.35" stroke-width="0" /><circle c_padhole="1" cx="4340" cy="3071.5" r="1.6" stroke-width="0" /></g><g c_partid="part_pad" c_etype="pinpart" c_origin="4340,3061.5" layerid="11" number="18" net="U5_18" plated ="Y" c_shapetype="group" id="gge830" locked="0" c_rotation="270" c_width="6.3" c_height="6.3" title="U5_18" c_shape="RECT" pasteExpansion="0" solderExpansion="0.4"><polygon points="4343.15 3058.35 4343.15 3064.65 4336.85 3064.65 4336.85 3058.35" stroke-width="0" /><circle c_padhole="1" cx="4340" cy="3061.5" r="1.6" stroke-width="0" /></g><g c_partid="part_pad" c_etype="pinpart" c_origin="4420,3091.5" layerid="11" number="1" net="FVGREEN" plated ="Y" c_shapetype="group" id="gge846" locked="0" c_rotation="270" c_width="14.5669" c_height="14.5669" title="FVGREEN" c_shape="RECT" pasteExpansion="0" solderExpansion="0.4"><polygon points="4427.28 3084.22 4427.28 3098.78 4412.72 3098.78 4412.72 3084.22" stroke-width="0" /><circle c_padhole="1" cx="4420" cy="3091.5" r="2.5591" stroke-width="0" /></g><g c_partid="part_pad" c_etype="pinpart" c_origin="4420,3111.5" layerid="11" number="2" net="FVRED" plated ="Y" c_shapetype="group" id="gge851" locked="0" c_rotation="270" c_width="14.5669" c_height="14.5669" title="FVRED" c_shape="ELLIPSE" pasteExpansion="0" solderExpansion="0.4"><ellipse cx="4420" cy="3111.5" rx="7.28345" ry="7.28345" stroke-width="0" /><circle c_padhole="1" cx="4420" cy="3111.5" r="2.5591" stroke-width="0" /></g><g c_partid="part_pad" c_etype="pinpart" c_origin="4165,3222" layerid="11" number="1" net="C1/BTN1/LEFT" plated ="Y" c_shapetype="group" id="gge867" locked="0" c_rotation="270" c_width="14.5669" c_height="14.5669" title="C1/BTN1/LEFT" c_shape="RECT" pasteExpansion="0" solderExpansion="0.4"><polygon points="4172.28 3214.72 4172.28 3229.28 4157.72 3229.28 4157.72 3214.72" stroke-width="0" /><circle c_padhole="1" cx="4165" cy="3222" r="2.5591" stroke-width="0" /></g><g c_partid="part_pad" c_etype="pinpart" c_origin="4165,3242" layerid="11" number="2" net="+5V" plated ="Y" c_shapetype="group" id="gge872" locked="0" c_rotation="270" c_width="14.5669" c_height="14.5669" title="+5V" c_shape="ELLIPSE" pasteExpansion="0" solderExpansion="0.4"><ellipse cx="4165" cy="3242" rx="7.28345" ry="7.28345" stroke-width="0" /><circle c_padhole="1" cx="4165" cy="3242" r="2.5591" stroke-width="0" /></g><g c_partid="part_pad" c_etype="pinpart" c_origin="4165,3182" layerid="11" number="1" net="C2/BTN2/RIGHT" plated ="Y" c_shapetype="group" id="gge888" locked="0" c_rotation="270" c_width="14.5669" c_height="14.5669" title="C2/BTN2/RIGHT" c_shape="RECT" pasteExpansion="0" solderExpansion="0.4"><polygon points="4172.28 3174.72 4172.28 3189.28 4157.72 3189.28 4157.72 3174.72" stroke-width="0" /><circle c_padhole="1" cx="4165" cy="3182" r="2.5591" stroke-width="0" /></g><g c_partid="part_pad" c_etype="pinpart" c_origin="4165,3202" layerid="11" number="2" net="+5V" plated ="Y" c_shapetype="group" id="gge893" locked="0" c_rotation="270" c_width="14.5669" c_height="14.5669" title="+5V" c_shape="ELLIPSE" pasteExpansion="0" solderExpansion="0.4"><ellipse cx="4165" cy="3202" rx="7.28345" ry="7.28345" stroke-width="0" /><circle c_padhole="1" cx="4165" cy="3202" r="2.5591" stroke-width="0" /></g><g c_partid="part_pad" c_etype="pinpart" c_origin="4420,3131.5" layerid="11" number="1" net="RFGREEN" plated ="Y" c_shapetype="group" id="gge903" locked="0" c_rotation="0" c_width="15.748" c_height="11.811" title="RFGREEN" c_shape="RECT" pasteExpansion="0" solderExpansion="0.4"><polygon points="4412.126 3125.594 4427.874 3125.594 4427.874 3137.405 4412.126 3137.405" stroke-width="0" /><circle c_padhole="1" cx="4420" cy="3131.4999" r="2.5591" stroke-width="0" /></g><g c_partid="part_pad" c_etype="pinpart" c_origin="4420,3151.19" layerid="11" number="2" net="RFYELLOW" plated ="Y" c_shapetype="group" id="gge908" locked="0" c_rotation="0" c_width="11.811" c_height="11.811" title="RFYELLOW" c_shape="RECT" pasteExpansion="0" solderExpansion="0.4"><polygon points="4414.095 3145.279 4425.906 3145.279 4425.906 3157.09 4414.095 3157.09" stroke-width="0" /><circle c_padhole="1" cx="4420" cy="3151.1849" r="2.5591" stroke-width="0" /></g><g c_partid="part_pad" c_etype="pinpart" c_origin="4420,3170.87" layerid="11" number="3" net="RFRED" plated ="Y" c_shapetype="group" id="gge913" locked="0" c_rotation="0" c_width="11.811" c_height="11.811" title="RFRED" c_shape="RECT" pasteExpansion="0" solderExpansion="0.4"><polygon points="4414.095 3164.965 4425.906 3164.965 4425.906 3176.776 4414.095 3176.776" stroke-width="0" /><circle c_padhole="1" cx="4420" cy="3170.87" r="2.5591" stroke-width="0" /></g><g c_partid="part_pad" c_etype="pinpart" c_origin="4420,3190.56" layerid="11" number="4" net="VGREEN" plated ="Y" c_shapetype="group" id="gge918" locked="0" c_rotation="0" c_width="11.811" c_height="11.811" title="VGREEN" c_shape="RECT" pasteExpansion="0" solderExpansion="0.4"><polygon points="4414.095 3184.65 4425.906 3184.65 4425.906 3196.461 4414.095 3196.461" stroke-width="0" /><circle c_padhole="1" cx="4420" cy="3190.555" r="2.5591" stroke-width="0" /></g><g c_partid="part_pad" c_etype="pinpart" c_origin="4420,3210.24" layerid="11" number="5" net="VYELLOW" plated ="Y" c_shapetype="group" id="gge923" locked="0" c_rotation="0" c_width="11.811" c_height="11.811" title="VYELLOW" c_shape="RECT" pasteExpansion="0" solderExpansion="0.4"><polygon points="4414.095 3204.335 4425.906 3204.335 4425.906 3216.146 4414.095 3216.146" stroke-width="0" /><circle c_padhole="1" cx="4420" cy="3210.24" r="2.5591" stroke-width="0" /></g><g c_partid="part_pad" c_etype="pinpart" c_origin="4420,3229.93" layerid="11" number="6" net="VRED" plated ="Y" c_shapetype="group" id="gge928" locked="0" c_rotation="0" c_width="11.811" c_height="11.811" title="VRED" c_shape="RECT" pasteExpansion="0" solderExpansion="0.4"><polygon points="4414.095 3224.02 4425.906 3224.02 4425.906 3235.831 4414.095 3235.831" stroke-width="0" /><circle c_padhole="1" cx="4420" cy="3229.9251" r="2.5591" stroke-width="0" /></g><g c_partid="part_pad" c_etype="pinpart" c_origin="4420,3249.61" layerid="11" number="7" net="FHGREEN" plated ="Y" c_shapetype="group" id="gge933" locked="0" c_rotation="0" c_width="11.811" c_height="11.811" title="FHGREEN" c_shape="RECT" pasteExpansion="0" solderExpansion="0.4"><polygon points="4414.095 3243.705 4425.906 3243.705 4425.906 3255.516 4414.095 3255.516" stroke-width="0" /><circle c_padhole="1" cx="4420" cy="3249.6101" r="2.5591" stroke-width="0" /></g><g c_partid="part_pad" c_etype="pinpart" c_origin="4420,3269.3" layerid="11" number="8" net="FHRED" plated ="Y" c_shapetype="group" id="gge938" locked="0" c_rotation="0" c_width="11.811" c_height="11.811" title="FHRED" c_shape="RECT" pasteExpansion="0" solderExpansion="0.4"><polygon points="4414.095 3263.39 4425.906 3263.39 4425.906 3275.201 4414.095 3275.201" stroke-width="0" /><circle c_padhole="1" cx="4420" cy="3269.2952" r="2.5591" stroke-width="0" /></g><g c_partid="part_pad" c_etype="pinpart" c_origin="4250,3170.5" layerid="11" number="16" net="+5V" plated ="Y" c_shapetype="group" id="gge263" locked="0" c_rotation="0" c_width="6.2992" c_height="6.2992" title="+5V" c_shape="ELLIPSE" pasteExpansion="0" solderExpansion="0.4"><ellipse cx="4250" cy="3170.5" rx="3.1496" ry="3.1496" stroke-width="0" /><circle c_padhole="1" cx="4249.9993" cy="3170.4986" r="1.9685" stroke-width="0" /></g><g c_partid="part_pad" c_etype="pinpart" c_origin="4250,3180.5" layerid="11" number="15" net="O1" plated ="Y" c_shapetype="group" id="gge268" locked="0" c_rotation="0" c_width="6.2992" c_height="6.2992" title="O1" c_shape="ELLIPSE" pasteExpansion="0" solderExpansion="0.4"><ellipse cx="4250" cy="3180.5" rx="3.1496" ry="3.1496" stroke-width="0" /><circle c_padhole="1" cx="4249.9993" cy="3180.4986" r="1.9685" stroke-width="0" /></g><g c_partid="part_pad" c_etype="pinpart" c_origin="4250,3190.5" layerid="11" number="14" net="C6/DATA" plated ="Y" c_shapetype="group" id="gge273" locked="0" c_rotation="0" c_width="6.2992" c_height="6.2992" title="C6/DATA" c_shape="ELLIPSE" pasteExpansion="0" solderExpansion="0.4"><ellipse cx="4250" cy="3190.5" rx="3.1496" ry="3.1496" stroke-width="0" /><circle c_padhole="1" cx="4249.9993" cy="3190.4986" r="1.9685" stroke-width="0" /></g><g c_partid="part_pad" c_etype="pinpart" c_origin="4250,3200.5" layerid="11" number="13" net="GND" plated ="Y" c_shapetype="group" id="gge278" locked="0" c_rotation="0" c_width="6.2992" c_height="6.2992" title="GND" c_shape="ELLIPSE" pasteExpansion="0" solderExpansion="0.4"><ellipse cx="4250" cy="3200.5" rx="3.1496" ry="3.1496" stroke-width="0" /><circle c_padhole="1" cx="4249.9993" cy="3200.4986" r="1.9685" stroke-width="0" /></g><g c_partid="part_pad" c_etype="pinpart" c_origin="4250,3210.5" layerid="11" number="12" net="C7/STROBE" plated ="Y" c_shapetype="group" id="gge283" locked="0" c_rotation="0" c_width="6.2992" c_height="6.2992" title="C7/STROBE" c_shape="ELLIPSE" pasteExpansion="0" solderExpansion="0.4"><ellipse cx="4250" cy="3210.5" rx="3.1496" ry="3.1496" stroke-width="0" /><circle c_padhole="1" cx="4249.9993" cy="3210.4986" r="1.9685" stroke-width="0" /></g><g c_partid="part_pad" c_etype="pinpart" c_origin="4250,3220.5" layerid="11" number="11" net="C8/CLK" plated ="Y" c_shapetype="group" id="gge288" locked="0" c_rotation="0" c_width="6.2992" c_height="6.2992" title="C8/CLK" c_shape="ELLIPSE" pasteExpansion="0" solderExpansion="0.4"><ellipse cx="4250" cy="3220.5" rx="3.1496" ry="3.1496" stroke-width="0" /><circle c_padhole="1" cx="4249.9993" cy="3220.4986" r="1.9685" stroke-width="0" /></g><g c_partid="part_pad" c_etype="pinpart" c_origin="4250,3230.5" layerid="11" number="10" net="+5V" plated ="Y" c_shapetype="group" id="gge293" locked="0" c_rotation="0" c_width="6.2992" c_height="6.2992" title="+5V" c_shape="ELLIPSE" pasteExpansion="0" solderExpansion="0.4"><ellipse cx="4250" cy="3230.5" rx="3.1496" ry="3.1496" stroke-width="0" /><circle c_padhole="1" cx="4249.9993" cy="3230.4986" r="1.9685" stroke-width="0" /></g><g c_partid="part_pad" c_etype="pinpart" c_origin="4250,3240.5" layerid="11" number="9" net="QH" plated ="Y" c_shapetype="group" id="gge298" locked="0" c_rotation="0" c_width="6.2992" c_height="6.2992" title="QH" c_shape="ELLIPSE" pasteExpansion="0" solderExpansion="0.4"><ellipse cx="4250" cy="3240.5" rx="3.1496" ry="3.1496" stroke-width="0" /><circle c_padhole="1" cx="4249.9993" cy="3240.4986" r="1.9685" stroke-width="0" /></g><g c_partid="part_pad" c_etype="pinpart" c_origin="4280,3240.5" layerid="11" number="8" net="GND" plated ="Y" c_shapetype="group" id="gge303" locked="0" c_rotation="0" c_width="6.2992" c_height="6.2992" title="GND" c_shape="ELLIPSE" pasteExpansion="0" solderExpansion="0.4"><ellipse cx="4280" cy="3240.5" rx="3.1496" ry="3.1496" stroke-width="0" /><circle c_padhole="1" cx="4279.9993" cy="3240.4986" r="1.9685" stroke-width="0" /></g><g c_partid="part_pad" c_etype="pinpart" c_origin="4280,3230.5" layerid="11" number="7" net="O8" plated ="Y" c_shapetype="group" id="gge308" locked="0" c_rotation="0" c_width="6.2992" c_height="6.2992" title="O8" c_shape="ELLIPSE" pasteExpansion="0" solderExpansion="0.4"><ellipse cx="4280" cy="3230.5" rx="3.1496" ry="3.1496" stroke-width="0" /><circle c_padhole="1" cx="4279.9993" cy="3230.4986" r="1.9685" stroke-width="0" /></g><g c_partid="part_pad" c_etype="pinpart" c_origin="4280,3220.5" layerid="11" number="6" net="O7" plated ="Y" c_shapetype="group" id="gge313" locked="0" c_rotation="0" c_width="6.2992" c_height="6.2992" title="O7" c_shape="ELLIPSE" pasteExpansion="0" solderExpansion="0.4"><ellipse cx="4280" cy="3220.5" rx="3.1496" ry="3.1496" stroke-width="0" /><circle c_padhole="1" cx="4279.9993" cy="3220.4986" r="1.9685" stroke-width="0" /></g><g c_partid="part_pad" c_etype="pinpart" c_origin="4280,3210.5" layerid="11" number="5" net="O6" plated ="Y" c_shapetype="group" id="gge318" locked="0" c_rotation="0" c_width="6.2992" c_height="6.2992" title="O6" c_shape="ELLIPSE" pasteExpansion="0" solderExpansion="0.4"><ellipse cx="4280" cy="3210.5" rx="3.1496" ry="3.1496" stroke-width="0" /><circle c_padhole="1" cx="4279.9993" cy="3210.4986" r="1.9685" stroke-width="0" /></g><g c_partid="part_pad" c_etype="pinpart" c_origin="4280,3200.5" layerid="11" number="4" net="O5" plated ="Y" c_shapetype="group" id="gge323" locked="0" c_rotation="0" c_width="6.2992" c_height="6.2992" title="O5" c_shape="ELLIPSE" pasteExpansion="0" solderExpansion="0.4"><ellipse cx="4280" cy="3200.5" rx="3.1496" ry="3.1496" stroke-width="0" /><circle c_padhole="1" cx="4279.9993" cy="3200.4986" r="1.9685" stroke-width="0" /></g><g c_partid="part_pad" c_etype="pinpart" c_origin="4280,3190.5" layerid="11" number="3" net="O4" plated ="Y" c_shapetype="group" id="gge328" locked="0" c_rotation="0" c_width="6.2992" c_height="6.2992" title="O4" c_shape="ELLIPSE" pasteExpansion="0" solderExpansion="0.4"><ellipse cx="4280" cy="3190.5" rx="3.1496" ry="3.1496" stroke-width="0" /><circle c_padhole="1" cx="4279.9993" cy="3190.4986" r="1.9685" stroke-width="0" /></g><g c_partid="part_pad" c_etype="pinpart" c_origin="4280,3180.5" layerid="11" number="2" net="O3" plated ="Y" c_shapetype="group" id="gge333" locked="0" c_rotation="0" c_width="6.2992" c_height="6.2992" title="O3" c_shape="ELLIPSE" pasteExpansion="0" solderExpansion="0.4"><ellipse cx="4280" cy="3180.5" rx="3.1496" ry="3.1496" stroke-width="0" /><circle c_padhole="1" cx="4279.9993" cy="3180.4986" r="1.9685" stroke-width="0" /></g><g c_partid="part_pad" c_etype="pinpart" c_origin="4280,3170.5" layerid="11" number="1" net="O2" plated ="Y" c_shapetype="group" id="gge338" locked="0" c_rotation="0" c_width="6.2992" c_height="6.2992" title="O2" c_shape="RECT" pasteExpansion="0" solderExpansion="0.4"><polygon points="4283.15 3167.35 4276.85 3167.35 4276.85 3173.649 4283.15 3173.649" stroke-width="0" /><circle c_padhole="1" cx="4279.9999" cy="3170.4997" r="1.9685" stroke-width="0" /></g><g c_partid="part_pad" c_etype="pinpart" c_origin="4250,3071.5" layerid="11" number="16" net="+5V" plated ="Y" c_shapetype="group" id="gge354" locked="0" c_rotation="0" c_width="6.2992" c_height="6.2992" title="+5V" c_shape="ELLIPSE" pasteExpansion="0" solderExpansion="0.4"><ellipse cx="4250" cy="3071.5" rx="3.1496" ry="3.1496" stroke-width="0" /><circle c_padhole="1" cx="4249.9993" cy="3071.4986" r="1.9685" stroke-width="0" /></g><g c_partid="part_pad" c_etype="pinpart" c_origin="4250,3081.5" layerid="11" number="15" net="U6_15" plated ="Y" c_shapetype="group" id="gge359" locked="0" c_rotation="0" c_width="6.2992" c_height="6.2992" title="U6_15" c_shape="ELLIPSE" pasteExpansion="0" solderExpansion="0.4"><ellipse cx="4250" cy="3081.5" rx="3.1496" ry="3.1496" stroke-width="0" /><circle c_padhole="1" cx="4249.9993" cy="3081.4986" r="1.9685" stroke-width="0" /></g><g c_partid="part_pad" c_etype="pinpart" c_origin="4250,3091.5" layerid="11" number="14" net="QH" plated ="Y" c_shapetype="group" id="gge364" locked="0" c_rotation="0" c_width="6.2992" c_height="6.2992" title="QH" c_shape="ELLIPSE" pasteExpansion="0" solderExpansion="0.4"><ellipse cx="4250" cy="3091.5" rx="3.1496" ry="3.1496" stroke-width="0" /><circle c_padhole="1" cx="4249.9993" cy="3091.4986" r="1.9685" stroke-width="0" /></g><g c_partid="part_pad" c_etype="pinpart" c_origin="4250,3101.5" layerid="11" number="13" net="GND" plated ="Y" c_shapetype="group" id="gge369" locked="0" c_rotation="0" c_width="6.2992" c_height="6.2992" title="GND" c_shape="ELLIPSE" pasteExpansion="0" solderExpansion="0.4"><ellipse cx="4250" cy="3101.5" rx="3.1496" ry="3.1496" stroke-width="0" /><circle c_padhole="1" cx="4249.9993" cy="3101.4986" r="1.9685" stroke-width="0" /></g><g c_partid="part_pad" c_etype="pinpart" c_origin="4250,3111.5" layerid="11" number="12" net="C7/STROBE" plated ="Y" c_shapetype="group" id="gge374" locked="0" c_rotation="0" c_width="6.2992" c_height="6.2992" title="C7/STROBE" c_shape="ELLIPSE" pasteExpansion="0" solderExpansion="0.4"><ellipse cx="4250" cy="3111.5" rx="3.1496" ry="3.1496" stroke-width="0" /><circle c_padhole="1" cx="4249.9993" cy="3111.4986" r="1.9685" stroke-width="0" /></g><g c_partid="part_pad" c_etype="pinpart" c_origin="4250,3121.5" layerid="11" number="11" net="C8/CLK" plated ="Y" c_shapetype="group" id="gge379" locked="0" c_rotation="0" c_width="6.2992" c_height="6.2992" title="C8/CLK" c_shape="ELLIPSE" pasteExpansion="0" solderExpansion="0.4"><ellipse cx="4250" cy="3121.5" rx="3.1496" ry="3.1496" stroke-width="0" /><circle c_padhole="1" cx="4249.9993" cy="3121.4986" r="1.9685" stroke-width="0" /></g><g c_partid="part_pad" c_etype="pinpart" c_origin="4250,3131.5" layerid="11" number="10" net="+5V" plated ="Y" c_shapetype="group" id="gge384" locked="0" c_rotation="0" c_width="6.2992" c_height="6.2992" title="+5V" c_shape="ELLIPSE" pasteExpansion="0" solderExpansion="0.4"><ellipse cx="4250" cy="3131.5" rx="3.1496" ry="3.1496" stroke-width="0" /><circle c_padhole="1" cx="4249.9993" cy="3131.4986" r="1.9685" stroke-width="0" /></g><g c_partid="part_pad" c_etype="pinpart" c_origin="4250,3141.5" layerid="11" number="9" net="U6_9" plated ="Y" c_shapetype="group" id="gge389" locked="0" c_rotation="0" c_width="6.2992" c_height="6.2992" title="U6_9" c_shape="ELLIPSE" pasteExpansion="0" solderExpansion="0.4"><ellipse cx="4250" cy="3141.5" rx="3.1496" ry="3.1496" stroke-width="0" /><circle c_padhole="1" cx="4249.9993" cy="3141.4986" r="1.9685" stroke-width="0" /></g><g c_partid="part_pad" c_etype="pinpart" c_origin="4280,3141.5" layerid="11" number="8" net="GND" plated ="Y" c_shapetype="group" id="gge394" locked="0" c_rotation="0" c_width="6.2992" c_height="6.2992" title="GND" c_shape="ELLIPSE" pasteExpansion="0" solderExpansion="0.4"><ellipse cx="4280" cy="3141.5" rx="3.1496" ry="3.1496" stroke-width="0" /><circle c_padhole="1" cx="4279.9993" cy="3141.4986" r="1.9685" stroke-width="0" /></g><g c_partid="part_pad" c_etype="pinpart" c_origin="4280,3131.5" layerid="11" number="7" net="O10" plated ="Y" c_shapetype="group" id="gge399" locked="0" c_rotation="0" c_width="6.2992" c_height="6.2992" title="O10" c_shape="ELLIPSE" pasteExpansion="0" solderExpansion="0.4"><ellipse cx="4280" cy="3131.5" rx="3.1496" ry="3.1496" stroke-width="0" /><circle c_padhole="1" cx="4279.9993" cy="3131.4986" r="1.9685" stroke-width="0" /></g><g c_partid="part_pad" c_etype="pinpart" c_origin="4280,3121.5" layerid="11" number="6" net="O9" plated ="Y" c_shapetype="group" id="gge404" locked="0" c_rotation="0" c_width="6.2992" c_height="6.2992" title="O9" c_shape="ELLIPSE" pasteExpansion="0" solderExpansion="0.4"><ellipse cx="4280" cy="3121.5" rx="3.1496" ry="3.1496" stroke-width="0" /><circle c_padhole="1" cx="4279.9993" cy="3121.4986" r="1.9685" stroke-width="0" /></g><g c_partid="part_pad" c_etype="pinpart" c_origin="4280,3111.5" layerid="11" number="5" net="U6_5" plated ="Y" c_shapetype="group" id="gge409" locked="0" c_rotation="0" c_width="6.2992" c_height="6.2992" title="U6_5" c_shape="ELLIPSE" pasteExpansion="0" solderExpansion="0.4"><ellipse cx="4280" cy="3111.5" rx="3.1496" ry="3.1496" stroke-width="0" /><circle c_padhole="1" cx="4279.9993" cy="3111.4986" r="1.9685" stroke-width="0" /></g><g c_partid="part_pad" c_etype="pinpart" c_origin="4280,3101.5" layerid="11" number="4" net="U6_4" plated ="Y" c_shapetype="group" id="gge414" locked="0" c_rotation="0" c_width="6.2992" c_height="6.2992" title="U6_4" c_shape="ELLIPSE" pasteExpansion="0" solderExpansion="0.4"><ellipse cx="4280" cy="3101.5" rx="3.1496" ry="3.1496" stroke-width="0" /><circle c_padhole="1" cx="4279.9993" cy="3101.4986" r="1.9685" stroke-width="0" /></g><g c_partid="part_pad" c_etype="pinpart" c_origin="4280,3091.5" layerid="11" number="3" net="U6_3" plated ="Y" c_shapetype="group" id="gge419" locked="0" c_rotation="0" c_width="6.2992" c_height="6.2992" title="U6_3" c_shape="ELLIPSE" pasteExpansion="0" solderExpansion="0.4"><ellipse cx="4280" cy="3091.5" rx="3.1496" ry="3.1496" stroke-width="0" /><circle c_padhole="1" cx="4279.9993" cy="3091.4986" r="1.9685" stroke-width="0" /></g><g c_partid="part_pad" c_etype="pinpart" c_origin="4280,3081.5" layerid="11" number="2" net="U6_2" plated ="Y" c_shapetype="group" id="gge424" locked="0" c_rotation="0" c_width="6.2992" c_height="6.2992" title="U6_2" c_shape="ELLIPSE" pasteExpansion="0" solderExpansion="0.4"><ellipse cx="4280" cy="3081.5" rx="3.1496" ry="3.1496" stroke-width="0" /><circle c_padhole="1" cx="4279.9993" cy="3081.4986" r="1.9685" stroke-width="0" /></g><g c_partid="part_pad" c_etype="pinpart" c_origin="4280,3071.5" layerid="11" number="1" net="U6_1" plated ="Y" c_shapetype="group" id="gge429" locked="0" c_rotation="0" c_width="6.2992" c_height="6.2992" title="U6_1" c_shape="RECT" pasteExpansion="0" solderExpansion="0.4"><polygon points="4283.15 3068.35 4276.85 3068.35 4276.85 3074.649 4283.15 3074.649" stroke-width="0" /><circle c_padhole="1" cx="4279.9999" cy="3071.4997" r="1.9685" stroke-width="0" /></g><g c_partid="part_hole" c_etype="pinpart" c_shapetype="group" c_origin="4158,3070.5" layerid="11" id="gge1108" ><circle cx="4158" cy="3070.5" r="2.4"   stroke-width="0" /></g><g c_partid="part_hole" c_etype="pinpart" c_shapetype="group" c_origin="4212.5,3125" layerid="11" id="gge1112" ><circle cx="4212.5" cy="3125" r="3.35"   stroke-width="0" /></g><g c_partid="part_hole" c_etype="pinpart" c_shapetype="group" c_origin="4420.5,3293.5" layerid="11" id="gge1404" ><circle cx="4420.5" cy="3293.5" r="6.1"   stroke-width="0" /></g><g c_partid="part_hole" c_etype="pinpart" c_shapetype="group" c_origin="4420,3065" layerid="11" id="gge1408" ><circle cx="4420" cy="3065" r="6.1"   stroke-width="0" /></g><g c_partid="part_hole" c_etype="pinpart" c_shapetype="group" c_origin="4160,3294.5" layerid="11" id="gge1412" ><circle cx="4160" cy="3294.5" r="6.1"   stroke-width="0" /></g><g c_partid="part_hole" c_etype="pinpart" c_shapetype="group" c_origin="4235,3065" layerid="11" id="gge1416" ><circle cx="4235" cy="3065" r="6.1"   stroke-width="0" /></g><polyline points="4179 3148.1 4190.3 3148.1 4190.3 3135 4179 3135 4179 3135" stroke-width="1.06299" c_shapetype="line" stroke-linecap="round" fill="none" layerid="3" net="" id="gge449" /><polyline points="4175.4 3135 4175.5 3135 4164.4 3135 4164.4 3148.1 4175.7 3148.1" stroke-width="1.06299" c_shapetype="line" stroke-linecap="round" fill="none" layerid="3" net="" id="gge450" /><polyline points="4292.634 3308.673 4231.61 3308.673" stroke-width="1" c_shapetype="line" stroke-linecap="round" fill="none" layerid="3" net="S$71" id="gge540" /><polyline points="4292.633 3278.752 4292.633 3311.036 4231.609 3311.036 4231.609 3278.752 4292.633 3278.752" stroke-width="1" c_shapetype="line" stroke-linecap="round" fill="none" layerid="3" net="" id="gge541" /><polyline points="4345 3245.5 4345 3155.5" stroke-width="1" c_shapetype="line" stroke-linecap="round" fill="none" layerid="3" net="" id="gge568" /><polyline points="4305 3155.5 4305 3245.5" stroke-width="1" c_shapetype="line" stroke-linecap="round" fill="none" layerid="3" net="" id="gge569" /><polyline points="4345 3245.5 4335 3245.5" stroke-width="1" c_shapetype="line" stroke-linecap="round" fill="none" layerid="3" net="" id="gge570" /><polyline points="4345 3155.5 4335 3155.5" stroke-width="1" c_shapetype="line" stroke-linecap="round" fill="none" layerid="3" net="" id="gge571" /><polyline points="4305 3155.5 4315 3155.5" stroke-width="1" c_shapetype="line" stroke-linecap="round" fill="none" layerid="3" net="" id="gge572" /><polyline points="4335 3155.5 4335 3245.5" stroke-width="1" c_shapetype="line" stroke-linecap="round" fill="none" layerid="3" net="" id="gge573" /><polyline points="4335 3155.5 4329 3155.5" stroke-width="1" c_shapetype="line" stroke-linecap="round" fill="none" layerid="3" net="" id="gge574" /><polyline points="4335 3245.5 4315 3245.5" stroke-width="1" c_shapetype="line" stroke-linecap="round" fill="none" layerid="3" net="" id="gge575" /><polyline points="4315 3155.5 4315 3245.5" stroke-width="1" c_shapetype="line" stroke-linecap="round" fill="none" layerid="3" net="" id="gge576" /><polyline points="4315 3155.5 4321 3155.5" stroke-width="1" c_shapetype="line" stroke-linecap="round" fill="none" layerid="3" net="" id="gge577" /><polyline points="4315 3245.5 4305 3245.5" stroke-width="1" c_shapetype="line" stroke-linecap="round" fill="none" layerid="3" net="" id="gge578" /><polyline points="4345 3146.5 4345 3056.5" stroke-width="1" c_shapetype="line" stroke-linecap="round" fill="none" layerid="3" net="" id="gge733" /><polyline points="4305 3056.5 4305 3146.5" stroke-width="1" c_shapetype="line" stroke-linecap="round" fill="none" layerid="3" net="" id="gge734" /><polyline points="4345 3146.5 4335 3146.5" stroke-width="1" c_shapetype="line" stroke-linecap="round" fill="none" layerid="3" net="" id="gge735" /><polyline points="4345 3056.5 4335 3056.5" stroke-width="1" c_shapetype="line" stroke-linecap="round" fill="none" layerid="3" net="" id="gge736" /><polyline points="4305 3056.5 4315 3056.5" stroke-width="1" c_shapetype="line" stroke-linecap="round" fill="none" layerid="3" net="" id="gge737" /><polyline points="4335 3056.5 4335 3146.5" stroke-width="1" c_shapetype="line" stroke-linecap="round" fill="none" layerid="3" net="" id="gge738" /><polyline points="4335 3056.5 4329 3056.5" stroke-width="1" c_shapetype="line" stroke-linecap="round" fill="none" layerid="3" net="" id="gge739" /><polyline points="4335 3146.5 4315 3146.5" stroke-width="1" c_shapetype="line" stroke-linecap="round" fill="none" layerid="3" net="" id="gge740" /><polyline points="4315 3056.5 4315 3146.5" stroke-width="1" c_shapetype="line" stroke-linecap="round" fill="none" layerid="3" net="" id="gge741" /><polyline points="4315 3056.5 4321 3056.5" stroke-width="1" c_shapetype="line" stroke-linecap="round" fill="none" layerid="3" net="" id="gge742" /><polyline points="4315 3146.5 4305 3146.5" stroke-width="1" c_shapetype="line" stroke-linecap="round" fill="none" layerid="3" net="" id="gge743" /><polyline points="4407.189 3081.996 4407.197 3120.608" stroke-width="1" c_shapetype="line" stroke-linecap="round" fill="none" layerid="3" net="S$22" id="gge840" /><polyline points="4404.433 3081.602 4436.717 3081.602 4436.717 3120.578 4404.433 3120.578 4404.433 3081.602" stroke-width="1" c_shapetype="line" stroke-linecap="round" fill="none" layerid="3" net="" id="gge841" /><polyline points="4152.189 3212.496 4152.197 3251.108" stroke-width="1" c_shapetype="line" stroke-linecap="round" fill="none" layerid="3" net="S$22" id="gge861" /><polyline points="4149.433 3212.102 4181.717 3212.102 4181.717 3251.078 4149.433 3251.078 4149.433 3212.102" stroke-width="1" c_shapetype="line" stroke-linecap="round" fill="none" layerid="3" net="" id="gge862" /><polyline points="4152.189 3172.496 4152.197 3211.108" stroke-width="1" c_shapetype="line" stroke-linecap="round" fill="none" layerid="3" net="S$22" id="gge882" /><polyline points="4149.433 3172.102 4181.717 3172.102 4181.717 3211.078 4149.433 3211.078 4149.433 3172.102" stroke-width="1" c_shapetype="line" stroke-linecap="round" fill="none" layerid="3" net="" id="gge883" /><polyline points="4406.221 3121.657 4439.292 3121.657 4439.292 3279.137 4406.221 3279.137 4406.221 3121.657" stroke-width="1" c_shapetype="line" stroke-linecap="round" fill="none" layerid="3" net="" id="gge943" /><polyline points="4436.535 3145.673 4438.897 3145.673 4438.897 3156.697 4436.535 3156.697 4436.535 3145.673" stroke-width="1" c_shapetype="line" stroke-linecap="round" fill="none" layerid="3" net="" id="gge944" /><polyline points="4436.535 3125.988 4438.897 3125.988 4438.897 3137.012 4436.535 3137.012 4436.535 3125.988" stroke-width="1" c_shapetype="line" stroke-linecap="round" fill="none" layerid="3" net="" id="gge945" /><polyline points="4436.535 3165.358 4438.897 3165.358 4438.897 3176.382 4436.535 3176.382 4436.535 3165.358" stroke-width="1" c_shapetype="line" stroke-linecap="round" fill="none" layerid="3" net="" id="gge946" /><polyline points="4436.535 3185.043 4438.897 3185.043 4438.897 3196.067 4436.535 3196.067 4436.535 3185.043" stroke-width="1" c_shapetype="line" stroke-linecap="round" fill="none" layerid="3" net="" id="gge947" /><polyline points="4436.535 3204.728 4438.897 3204.728 4438.897 3215.752 4436.535 3215.752 4436.535 3204.728" stroke-width="1" c_shapetype="line" stroke-linecap="round" fill="none" layerid="3" net="" id="gge948" /><polyline points="4436.535 3224.413 4438.897 3224.413 4438.897 3235.437 4436.535 3235.437 4436.535 3224.413" stroke-width="1" c_shapetype="line" stroke-linecap="round" fill="none" layerid="3" net="" id="gge949" /><polyline points="4436.535 3244.098 4438.897 3244.098 4438.897 3255.122 4436.535 3255.122 4436.535 3244.098" stroke-width="1" c_shapetype="line" stroke-linecap="round" fill="none" layerid="3" net="" id="gge950" /><polyline points="4436.535 3263.783 4438.897 3263.783 4438.897 3274.807 4436.535 3274.807 4436.535 3263.783" stroke-width="1" c_shapetype="line" stroke-linecap="round" fill="none" layerid="3" net="" id="gge951" /><polyline points="4150.86 3066.62 4219.52 3066.62 4219.52 3132.17 4205.62 3132.17 4205.62 3117.21 4164.75 3117.21 4164.75 3132.17 4150.86 3132.17 4150.86 3066.62" stroke-width="0.4724" c_shapetype="line" stroke-linecap="round" fill="none" layerid="3" net="" id="gge1106" /><g c_partid="part_pcbtext" c_origin="4171.02,3155.25" c_rotation="0" c_mirror="" id="gge435" layerid="3" c_shapetype="group" ><path c_fontSize="4.5" c_fontFamily="" c_text="C2" d="M 4174.09 3150.1196 L 4173.88 3149.7096 L 4173.47 3149.2996 L 4173.07 3149.0996 L 4172.25 3149.0996 L 4171.84 3149.2996 L 4171.43 3149.7096 L 4171.22 3150.1196 L 4171.02 3150.7296 L 4171.02 3151.7496 L 4171.22 3152.3696 L 4171.43 3152.7796 L 4171.84 3153.1896 L 4172.25 3153.3896 L 4173.07 3153.3896 L 4173.47 3153.1896 L 4173.88 3152.7796 L 4174.09 3152.3696 M 4175.64 3150.1196 L 4175.64 3149.9096 L 4175.85 3149.4996 L 4176.05 3149.2996 L 4176.46 3149.0996 L 4177.28 3149.0996 L 4177.69 3149.2996 L 4177.89 3149.4996 L 4178.1 3149.9096 L 4178.1 3150.3196 L 4177.89 3150.7296 L 4177.48 3151.3496 L 4175.44 3153.3896 L 4178.3 3153.3896" fill="none"  stroke-width="0.6" c_note="note_pre" /></g><g c_partid="part_pcbtext" c_origin="4178.3,3152.74" c_rotation="180" c_mirror="" id="gge437" layerid="3" c_shapetype="group" display="none"><path c_fontSize="4.5" c_fontFamily="" c_text="100nF" d="M 4178.3 3158.08 L 4177.89 3158.28 L 4177.28 3158.89 L 4177.28 3154.6 M 4174.7 3158.89 L 4175.31 3158.69 L 4175.72 3158.08 L 4175.93 3157.05 L 4175.93 3156.44 L 4175.72 3155.42 L 4175.31 3154.8 L 4174.7 3154.6 L 4174.29 3154.6 L 4173.68 3154.8 L 4173.27 3155.42 L 4173.06 3156.44 L 4173.06 3157.05 L 4173.27 3158.08 L 4173.68 3158.69 L 4174.29 3158.89 L 4174.7 3158.89 M 4170.49 3158.89 L 4171.1 3158.69 L 4171.51 3158.08 L 4171.71 3157.05 L 4171.71 3156.44 L 4171.51 3155.42 L 4171.1 3154.8 L 4170.49 3154.6 L 4170.08 3154.6 L 4169.46 3154.8 L 4169.05 3155.42 L 4168.85 3156.44 L 4168.85 3157.05 L 4169.05 3158.08 L 4169.46 3158.69 L 4170.08 3158.89 L 4170.49 3158.89 M 4167.5 3157.46 L 4167.5 3154.6 M 4167.5 3156.64 L 4166.89 3157.26 L 4166.48 3157.46 L 4165.86 3157.46 L 4165.45 3157.26 L 4165.25 3156.64 L 4165.25 3154.6 M 4163.9 3158.89 L 4163.9 3154.6 M 4163.9 3158.89 L 4161.24 3158.89 M 4163.9 3156.85 L 4162.26 3156.85" fill="none"  stroke-width="0.6"  /></g><g c_partid="part_pcbtext" c_origin="4299.79,3299.31" c_rotation="90" c_mirror="" id="gge536" layerid="3" c_shapetype="group" ><path c_fontSize="4.5" c_fontFamily="" c_text="J1" d="M 4293.6361 3297.2637 L 4296.9061 3297.2637 L 4297.5161 3297.4737 L 4297.7261 3297.6737 L 4297.9261 3298.0837 L 4297.9261 3298.4937 L 4297.7261 3298.9037 L 4297.5161 3299.1137 L 4296.9061 3299.3137 L 4296.4961 3299.3137 M 4294.4561 3295.9137 L 4294.2461 3295.5137 L 4293.6361 3294.8937 L 4297.9261 3294.8937" fill="none"  stroke-width="0.6" c_note="note_pre" /></g><g c_partid="part_pcbtext" c_origin="4297.27,3294.89" c_rotation="270" c_mirror="" id="gge538" layerid="3" c_shapetype="group" display="none"><path c_fontSize="4.5" c_fontFamily="" c_text="KF127_3P_5.08" d="M 4303.4264 3294.8938 L 4299.1364 3294.8938 M 4303.4264 3297.7538 L 4300.5664 3294.8938 M 4301.5864 3295.9138 L 4299.1364 3297.7538 M 4303.4264 3299.1038 L 4299.1364 3299.1038 M 4303.4264 3299.1038 L 4303.4264 3301.7638 M 4301.3864 3299.1038 L 4301.3864 3300.7438 M 4302.6064 3303.1138 L 4302.8164 3303.5238 L 4303.4264 3304.1438 L 4299.1364 3304.1438 M 4302.4064 3305.6938 L 4302.6064 3305.6938 L 4303.0164 3305.8938 L 4303.2264 3306.1038 L 4303.4264 3306.5138 L 4303.4264 3307.3338 L 4303.2264 3307.7438 L 4303.0164 3307.9438 L 4302.6064 3308.1438 L 4302.1964 3308.1438 L 4301.7964 3307.9438 L 4301.1764 3307.5338 L 4299.1364 3305.4938 L 4299.1364 3308.3538 M 4303.4264 3312.5638 L 4299.1364 3310.5238 M 4303.4264 3309.7038 L 4303.4264 3312.5638 M 4297.6964 3313.9138 L 4297.6964 3317.5938 M 4303.4264 3319.3538 L 4303.4264 3321.6038 L 4301.7964 3320.3838 L 4301.7964 3320.9938 L 4301.5864 3321.4038 L 4301.3864 3321.6038 L 4300.7664 3321.8138 L 4300.3564 3321.8138 L 4299.7464 3321.6038 L 4299.3364 3321.1938 L 4299.1364 3320.5838 L 4299.1364 3319.9738 L 4299.3364 3319.3538 L 4299.5464 3319.1538 L 4299.9464 3318.9438 M 4303.4264 3323.1638 L 4299.1364 3323.1638 M 4303.4264 3323.1638 L 4303.4264 3325.0038 L 4303.2264 3325.6138 L 4303.0164 3325.8238 L 4302.6064 3326.0238 L 4301.9964 3326.0238 L 4301.5864 3325.8238 L 4301.3864 3325.6138 L 4301.1764 3325.0038 L 4301.1764 3323.1638 M 4297.6964 3327.3738 L 4297.6964 3331.0538 M 4303.4264 3334.8638 L 4303.4264 3332.8138 L 4301.5864 3332.6138 L 4301.7964 3332.8138 L 4301.9964 3333.4338 L 4301.9964 3334.0438 L 4301.7964 3334.6538 L 4301.3864 3335.0638 L 4300.7664 3335.2738 L 4300.3564 3335.2738 L 4299.7464 3335.0638 L 4299.3364 3334.6538 L 4299.1364 3334.0438 L 4299.1364 3333.4338 L 4299.3364 3332.8138 L 4299.5464 3332.6138 L 4299.9464 3332.4038 M 4300.1564 3336.8238 L 4299.9464 3336.6238 L 4299.7464 3336.8238 L 4299.9464 3337.0338 L 4300.1564 3336.8238 M 4303.4264 3339.6038 L 4303.2264 3338.9938 L 4302.6064 3338.5838 L 4301.5864 3338.3838 L 4300.9764 3338.3838 L 4299.9464 3338.5838 L 4299.3364 3338.9938 L 4299.1364 3339.6038 L 4299.1364 3340.0138 L 4299.3364 3340.6338 L 4299.9464 3341.0438 L 4300.9764 3341.2438 L 4301.5864 3341.2438 L 4302.6064 3341.0438 L 4303.2264 3340.6338 L 4303.4264 3340.0138 L 4303.4264 3339.6038 M 4303.4264 3343.6138 L 4303.2264 3343.0038 L 4302.8164 3342.7938 L 4302.4064 3342.7938 L 4301.9964 3343.0038 L 4301.7964 3343.4138 L 4301.5864 3344.2338 L 4301.3864 3344.8438 L 4300.9764 3345.2538 L 4300.5664 3345.4538 L 4299.9464 3345.4538 L 4299.5464 3345.2538 L 4299.3364 3345.0438 L 4299.1364 3344.4338 L 4299.1364 3343.6138 L 4299.3364 3343.0038 L 4299.5464 3342.7938 L 4299.9464 3342.5938 L 4300.5664 3342.5938 L 4300.9764 3342.7938 L 4301.3864 3343.2038 L 4301.5864 3343.8238 L 4301.7964 3344.6438 L 4301.9964 3345.0438 L 4302.4064 3345.2538 L 4302.8164 3345.2538 L 4303.2264 3345.0438 L 4303.4264 3344.4338 L 4303.4264 3343.6138" fill="none"  stroke-width="0.6"  /></g><g c_partid="part_pcbtext" c_origin="4243.03,3283.08" c_rotation="0" c_mirror="" id="gge542" layerid="3" c_shapetype="group" ><path c_fontSize="3.937" c_fontFamily="" c_text="1" d="M 4243.0285 3281.6507 L 4243.3885 3281.4707 L 4243.9185 3280.9307 L 4243.9185 3284.6907" fill="none"  stroke-width="0.8"  /></g><g c_partid="part_pcbtext" c_origin="4263.11,3283.08" c_rotation="0" c_mirror="" id="gge544" layerid="3" c_shapetype="group" ><path c_fontSize="3.937" c_fontFamily="" c_text="2" d="M 4263.2873 3281.8297 L 4263.2873 3281.6497 L 4263.4673 3281.2897 L 4263.6473 3281.1097 L 4263.9973 3280.9397 L 4264.7173 3280.9397 L 4265.0773 3281.1097 L 4265.2573 3281.2897 L 4265.4373 3281.6497 L 4265.4373 3282.0097 L 4265.2573 3282.3697 L 4264.8973 3282.8997 L 4263.1073 3284.6897 L 4265.6073 3284.6897" fill="none"  stroke-width="0.8"  /></g><g c_partid="part_pcbtext" c_origin="4282,3283.48" c_rotation="0" c_mirror="" id="gge546" layerid="3" c_shapetype="group" ><path c_fontSize="3.937" c_fontFamily="" c_text="3" d="M 4282.3649 3281.3294 L 4284.3349 3281.3294 L 4283.2549 3282.7594 L 4283.7949 3282.7594 L 4284.1549 3282.9394 L 4284.3349 3283.1194 L 4284.5049 3283.6594 L 4284.5049 3284.0094 L 4284.3349 3284.5494 L 4283.9749 3284.9094 L 4283.4349 3285.0894 L 4282.8949 3285.0894 L 4282.3649 3284.9094 L 4282.1849 3284.7294 L 4282.0049 3284.3694" fill="none"  stroke-width="0.8"  /></g><g c_partid="part_pcbtext" c_origin="4352.15,3207.58" c_rotation="90" c_mirror="" id="gge564" layerid="3" c_shapetype="group" ><path c_fontSize="4.5" c_fontFamily="" c_text="U8" d="M 4346 3207.5801 L 4349.06 3207.5801 L 4349.68 3207.3801 L 4350.09 3206.9701 L 4350.29 3206.3501 L 4350.29 3205.9401 L 4350.09 3205.3301 L 4349.68 3204.9201 L 4349.06 3204.7201 L 4346 3204.7201 M 4346 3202.3401 L 4346.2 3202.9601 L 4346.61 3203.1601 L 4347.02 3203.1601 L 4347.43 3202.9601 L 4347.63 3202.5501 L 4347.84 3201.7301 L 4348.04 3201.1201 L 4348.45 3200.7101 L 4348.86 3200.5001 L 4349.47 3200.5001 L 4349.88 3200.7101 L 4350.09 3200.9101 L 4350.29 3201.5301 L 4350.29 3202.3401 L 4350.09 3202.9601 L 4349.88 3203.1601 L 4349.47 3203.3701 L 4348.86 3203.3701 L 4348.45 3203.1601 L 4348.04 3202.7501 L 4347.84 3202.1401 L 4347.63 3201.3201 L 4347.43 3200.9101 L 4347.02 3200.7101 L 4346.61 3200.7101 L 4346.2 3200.9101 L 4346 3201.5301 L 4346 3202.3401" fill="none"  stroke-width="0.6" c_note="note_pre" /></g><g c_partid="part_pcbtext" c_origin="4349.64,3200.5" c_rotation="270" c_mirror="" id="gge566" layerid="3" c_shapetype="group" display="none"><path c_fontSize="4.5" c_fontFamily="" c_text="TBD62083APG" d="M 4355.79 3201.93 L 4351.5 3201.93 M 4355.79 3200.5 L 4355.79 3203.36 M 4355.79 3204.71 L 4351.5 3204.71 M 4355.79 3204.71 L 4355.79 3206.55 L 4355.59 3207.17 L 4355.39 3207.37 L 4354.98 3207.58 L 4354.57 3207.58 L 4354.16 3207.37 L 4353.95 3207.17 L 4353.75 3206.55 M 4353.75 3204.71 L 4353.75 3206.55 L 4353.54 3207.17 L 4353.34 3207.37 L 4352.93 3207.58 L 4352.32 3207.58 L 4351.91 3207.37 L 4351.7 3207.17 L 4351.5 3206.55 L 4351.5 3204.71 M 4355.79 3208.93 L 4351.5 3208.93 M 4355.79 3208.93 L 4355.79 3210.36 L 4355.59 3210.97 L 4355.18 3211.38 L 4354.77 3211.59 L 4354.16 3211.79 L 4353.14 3211.79 L 4352.52 3211.59 L 4352.11 3211.38 L 4351.7 3210.97 L 4351.5 3210.36 L 4351.5 3208.93 M 4355.18 3215.6 L 4355.59 3215.39 L 4355.79 3214.78 L 4355.79 3214.37 L 4355.59 3213.75 L 4354.98 3213.35 L 4353.95 3213.14 L 4352.93 3213.14 L 4352.11 3213.35 L 4351.7 3213.75 L 4351.5 3214.37 L 4351.5 3214.57 L 4351.7 3215.19 L 4352.11 3215.6 L 4352.73 3215.8 L 4352.93 3215.8 L 4353.54 3215.6 L 4353.95 3215.19 L 4354.16 3214.57 L 4354.16 3214.37 L 4353.95 3213.75 L 4353.54 3213.35 L 4352.93 3213.14 M 4354.77 3217.35 L 4354.98 3217.35 L 4355.39 3217.56 L 4355.59 3217.76 L 4355.79 3218.17 L 4355.79 3218.99 L 4355.59 3219.4 L 4355.39 3219.6 L 4354.98 3219.81 L 4354.57 3219.81 L 4354.16 3219.6 L 4353.54 3219.2 L 4351.5 3217.15 L 4351.5 3220.01 M 4355.79 3222.59 L 4355.59 3221.98 L 4354.98 3221.57 L 4353.95 3221.36 L 4353.34 3221.36 L 4352.32 3221.57 L 4351.7 3221.98 L 4351.5 3222.59 L 4351.5 3223 L 4351.7 3223.61 L 4352.32 3224.02 L 4353.34 3224.23 L 4353.95 3224.23 L 4354.98 3224.02 L 4355.59 3223.61 L 4355.79 3223 L 4355.79 3222.59 M 4355.79 3226.6 L 4355.59 3225.99 L 4355.18 3225.78 L 4354.77 3225.78 L 4354.36 3225.99 L 4354.16 3226.4 L 4353.95 3227.21 L 4353.75 3227.83 L 4353.34 3228.24 L 4352.93 3228.44 L 4352.32 3228.44 L 4351.91 3228.24 L 4351.7 3228.03 L 4351.5 3227.42 L 4351.5 3226.6 L 4351.7 3225.99 L 4351.91 3225.78 L 4352.32 3225.58 L 4352.93 3225.58 L 4353.34 3225.78 L 4353.75 3226.19 L 4353.95 3226.8 L 4354.16 3227.62 L 4354.36 3228.03 L 4354.77 3228.24 L 4355.18 3228.24 L 4355.59 3228.03 L 4355.79 3227.42 L 4355.79 3226.6 M 4355.79 3230.2 L 4355.79 3232.45 L 4354.16 3231.22 L 4354.16 3231.84 L 4353.95 3232.25 L 4353.75 3232.45 L 4353.14 3232.65 L 4352.73 3232.65 L 4352.11 3232.45 L 4351.7 3232.04 L 4351.5 3231.43 L 4351.5 3230.81 L 4351.7 3230.2 L 4351.91 3230 L 4352.32 3229.79 M 4355.79 3235.64 L 4351.5 3234 M 4355.79 3235.64 L 4351.5 3237.28 M 4352.93 3234.62 L 4352.93 3236.66 M 4355.79 3238.63 L 4351.5 3238.63 M 4355.79 3238.63 L 4355.79 3240.47 L 4355.59 3241.08 L 4355.39 3241.29 L 4354.98 3241.49 L 4354.36 3241.49 L 4353.95 3241.29 L 4353.75 3241.08 L 4353.54 3240.47 L 4353.54 3238.63 M 4354.77 3245.91 L 4355.18 3245.7 L 4355.59 3245.3 L 4355.79 3244.89 L 4355.79 3244.07 L 4355.59 3243.66 L 4355.18 3243.25 L 4354.77 3243.05 L 4354.16 3242.84 L 4353.14 3242.84 L 4352.52 3243.05 L 4352.11 3243.25 L 4351.7 3243.66 L 4351.5 3244.07 L 4351.5 3244.89 L 4351.7 3245.3 L 4352.11 3245.7 L 4352.52 3245.91 L 4353.14 3245.91 M 4353.14 3244.89 L 4353.14 3245.91" fill="none"  stroke-width="0.6"  /></g><g c_partid="part_pcbtext" c_origin="4352.15,3108.58" c_rotation="90" c_mirror="" id="gge729" layerid="3" c_shapetype="group" ><path c_fontSize="4.5" c_fontFamily="" c_text="U5" d="M 4346 3108.5801 L 4349.06 3108.5801 L 4349.68 3108.3801 L 4350.09 3107.9701 L 4350.29 3107.3501 L 4350.29 3106.9401 L 4350.09 3106.3301 L 4349.68 3105.9201 L 4349.06 3105.7201 L 4346 3105.7201 M 4346 3101.9101 L 4346 3103.9601 L 4347.84 3104.1601 L 4347.63 3103.9601 L 4347.43 3103.3401 L 4347.43 3102.7301 L 4347.63 3102.1201 L 4348.04 3101.7101 L 4348.65 3101.5001 L 4349.06 3101.5001 L 4349.68 3101.7101 L 4350.09 3102.1201 L 4350.29 3102.7301 L 4350.29 3103.3401 L 4350.09 3103.9601 L 4349.88 3104.1601 L 4349.47 3104.3701" fill="none"  stroke-width="0.6" c_note="note_pre" /></g><g c_partid="part_pcbtext" c_origin="4349.64,3101.5" c_rotation="270" c_mirror="" id="gge731" layerid="3" c_shapetype="group" display="none"><path c_fontSize="4.5" c_fontFamily="" c_text="TBD62083APG" d="M 4355.79 3102.93 L 4351.5 3102.93 M 4355.79 3101.5 L 4355.79 3104.36 M 4355.79 3105.71 L 4351.5 3105.71 M 4355.79 3105.71 L 4355.79 3107.55 L 4355.59 3108.17 L 4355.39 3108.37 L 4354.98 3108.58 L 4354.57 3108.58 L 4354.16 3108.37 L 4353.95 3108.17 L 4353.75 3107.55 M 4353.75 3105.71 L 4353.75 3107.55 L 4353.54 3108.17 L 4353.34 3108.37 L 4352.93 3108.58 L 4352.32 3108.58 L 4351.91 3108.37 L 4351.7 3108.17 L 4351.5 3107.55 L 4351.5 3105.71 M 4355.79 3109.93 L 4351.5 3109.93 M 4355.79 3109.93 L 4355.79 3111.36 L 4355.59 3111.97 L 4355.18 3112.38 L 4354.77 3112.59 L 4354.16 3112.79 L 4353.14 3112.79 L 4352.52 3112.59 L 4352.11 3112.38 L 4351.7 3111.97 L 4351.5 3111.36 L 4351.5 3109.93 M 4355.18 3116.6 L 4355.59 3116.39 L 4355.79 3115.78 L 4355.79 3115.37 L 4355.59 3114.75 L 4354.98 3114.35 L 4353.95 3114.14 L 4352.93 3114.14 L 4352.11 3114.35 L 4351.7 3114.75 L 4351.5 3115.37 L 4351.5 3115.57 L 4351.7 3116.19 L 4352.11 3116.6 L 4352.73 3116.8 L 4352.93 3116.8 L 4353.54 3116.6 L 4353.95 3116.19 L 4354.16 3115.57 L 4354.16 3115.37 L 4353.95 3114.75 L 4353.54 3114.35 L 4352.93 3114.14 M 4354.77 3118.35 L 4354.98 3118.35 L 4355.39 3118.56 L 4355.59 3118.76 L 4355.79 3119.17 L 4355.79 3119.99 L 4355.59 3120.4 L 4355.39 3120.6 L 4354.98 3120.81 L 4354.57 3120.81 L 4354.16 3120.6 L 4353.54 3120.2 L 4351.5 3118.15 L 4351.5 3121.01 M 4355.79 3123.59 L 4355.59 3122.98 L 4354.98 3122.57 L 4353.95 3122.36 L 4353.34 3122.36 L 4352.32 3122.57 L 4351.7 3122.98 L 4351.5 3123.59 L 4351.5 3124 L 4351.7 3124.61 L 4352.32 3125.02 L 4353.34 3125.23 L 4353.95 3125.23 L 4354.98 3125.02 L 4355.59 3124.61 L 4355.79 3124 L 4355.79 3123.59 M 4355.79 3127.6 L 4355.59 3126.99 L 4355.18 3126.78 L 4354.77 3126.78 L 4354.36 3126.99 L 4354.16 3127.4 L 4353.95 3128.21 L 4353.75 3128.83 L 4353.34 3129.24 L 4352.93 3129.44 L 4352.32 3129.44 L 4351.91 3129.24 L 4351.7 3129.03 L 4351.5 3128.42 L 4351.5 3127.6 L 4351.7 3126.99 L 4351.91 3126.78 L 4352.32 3126.58 L 4352.93 3126.58 L 4353.34 3126.78 L 4353.75 3127.19 L 4353.95 3127.8 L 4354.16 3128.62 L 4354.36 3129.03 L 4354.77 3129.24 L 4355.18 3129.24 L 4355.59 3129.03 L 4355.79 3128.42 L 4355.79 3127.6 M 4355.79 3131.2 L 4355.79 3133.45 L 4354.16 3132.22 L 4354.16 3132.84 L 4353.95 3133.25 L 4353.75 3133.45 L 4353.14 3133.65 L 4352.73 3133.65 L 4352.11 3133.45 L 4351.7 3133.04 L 4351.5 3132.43 L 4351.5 3131.81 L 4351.7 3131.2 L 4351.91 3131 L 4352.32 3130.79 M 4355.79 3136.64 L 4351.5 3135 M 4355.79 3136.64 L 4351.5 3138.28 M 4352.93 3135.62 L 4352.93 3137.66 M 4355.79 3139.63 L 4351.5 3139.63 M 4355.79 3139.63 L 4355.79 3141.47 L 4355.59 3142.08 L 4355.39 3142.29 L 4354.98 3142.49 L 4354.36 3142.49 L 4353.95 3142.29 L 4353.75 3142.08 L 4353.54 3141.47 L 4353.54 3139.63 M 4354.77 3146.91 L 4355.18 3146.7 L 4355.59 3146.3 L 4355.79 3145.89 L 4355.79 3145.07 L 4355.59 3144.66 L 4355.18 3144.25 L 4354.77 3144.05 L 4354.16 3143.84 L 4353.14 3143.84 L 4352.52 3144.05 L 4352.11 3144.25 L 4351.7 3144.66 L 4351.5 3145.07 L 4351.5 3145.89 L 4351.7 3146.3 L 4352.11 3146.7 L 4352.52 3146.91 L 4353.14 3146.91 M 4353.14 3145.89 L 4353.14 3146.91" fill="none"  stroke-width="0.6"  /></g><g c_partid="part_pcbtext" c_origin="4420,3082.46" c_rotation="0" c_mirror="" id="gge836" layerid="3" c_shapetype="group" ><path c_fontSize="4.5" c_fontFamily="" c_text="J4" d="M 4422.05 3076.31 L 4422.05 3079.58 L 4421.84 3080.19 L 4421.64 3080.4 L 4421.23 3080.6 L 4420.82 3080.6 L 4420.41 3080.4 L 4420.2 3080.19 L 4420 3079.58 L 4420 3079.17 M 4425.44 3076.31 L 4423.4 3079.17 L 4426.46 3079.17 M 4425.44 3076.31 L 4425.44 3080.6" fill="none"  stroke-width="0.6" c_note="note_pre" /></g><g c_partid="part_pcbtext" c_origin="4420,3076.96" c_rotation="0" c_mirror="" id="gge838" layerid="3" c_shapetype="group" display="none"><path c_fontSize="4.5" c_fontFamily="" c_text="KF127_2P_5.08" d="M 4420 3070.81 L 4420 3075.1 M 4422.86 3070.81 L 4420 3073.67 M 4421.02 3072.65 L 4422.86 3075.1 M 4424.21 3070.81 L 4424.21 3075.1 M 4424.21 3070.81 L 4426.87 3070.81 M 4424.21 3072.85 L 4425.85 3072.85 M 4428.22 3071.63 L 4428.63 3071.42 L 4429.25 3070.81 L 4429.25 3075.1 M 4430.8 3071.83 L 4430.8 3071.63 L 4431 3071.22 L 4431.21 3071.01 L 4431.62 3070.81 L 4432.44 3070.81 L 4432.85 3071.01 L 4433.05 3071.22 L 4433.25 3071.63 L 4433.25 3072.03 L 4433.05 3072.44 L 4432.64 3073.06 L 4430.6 3075.1 L 4433.46 3075.1 M 4437.67 3070.81 L 4435.63 3075.1 M 4434.81 3070.81 L 4437.67 3070.81 M 4439.02 3076.53 L 4442.7 3076.53 M 4444.26 3071.83 L 4444.26 3071.63 L 4444.46 3071.22 L 4444.67 3071.01 L 4445.08 3070.81 L 4445.9 3070.81 L 4446.3 3071.01 L 4446.51 3071.22 L 4446.71 3071.63 L 4446.71 3072.03 L 4446.51 3072.44 L 4446.1 3073.06 L 4444.05 3075.1 L 4446.92 3075.1 M 4448.27 3070.81 L 4448.27 3075.1 M 4448.27 3070.81 L 4450.11 3070.81 L 4450.72 3071.01 L 4450.93 3071.22 L 4451.13 3071.63 L 4451.13 3072.24 L 4450.93 3072.65 L 4450.72 3072.85 L 4450.11 3073.06 L 4448.27 3073.06 M 4452.48 3076.53 L 4456.16 3076.53 M 4459.97 3070.81 L 4457.92 3070.81 L 4457.72 3072.65 L 4457.92 3072.44 L 4458.54 3072.24 L 4459.15 3072.24 L 4459.76 3072.44 L 4460.17 3072.85 L 4460.38 3073.47 L 4460.38 3073.88 L 4460.17 3074.49 L 4459.76 3074.9 L 4459.15 3075.1 L 4458.54 3075.1 L 4457.92 3074.9 L 4457.72 3074.69 L 4457.51 3074.28 M 4461.93 3074.08 L 4461.73 3074.28 L 4461.93 3074.49 L 4462.14 3074.28 L 4461.93 3074.08 M 4464.71 3070.81 L 4464.1 3071.01 L 4463.69 3071.63 L 4463.49 3072.65 L 4463.49 3073.26 L 4463.69 3074.28 L 4464.1 3074.9 L 4464.71 3075.1 L 4465.12 3075.1 L 4465.74 3074.9 L 4466.15 3074.28 L 4466.35 3073.26 L 4466.35 3072.65 L 4466.15 3071.63 L 4465.74 3071.01 L 4465.12 3070.81 L 4464.71 3070.81 M 4468.72 3070.81 L 4468.11 3071.01 L 4467.9 3071.42 L 4467.9 3071.83 L 4468.11 3072.24 L 4468.52 3072.44 L 4469.34 3072.65 L 4469.95 3072.85 L 4470.36 3073.26 L 4470.56 3073.67 L 4470.56 3074.28 L 4470.36 3074.69 L 4470.15 3074.9 L 4469.54 3075.1 L 4468.72 3075.1 L 4468.11 3074.9 L 4467.9 3074.69 L 4467.7 3074.28 L 4467.7 3073.67 L 4467.9 3073.26 L 4468.31 3072.85 L 4468.93 3072.65 L 4469.75 3072.44 L 4470.15 3072.24 L 4470.36 3071.83 L 4470.36 3071.42 L 4470.15 3071.01 L 4469.54 3070.81 L 4468.72 3070.81" fill="none"  stroke-width="0.6"  /></g><g c_partid="part_pcbtext" c_origin="4433,3090.5" c_rotation="270" c_mirror="none" id="gge842" layerid="3" c_shapetype="group" ><path c_fontSize="3.937" c_fontFamily="" c_text="1" d="M 4434.4301 3090.5 L 4434.6101 3090.86 L 4435.1501 3091.39 L 4431.3901 3091.39" fill="none"  stroke-width="0.8"  /></g><g c_partid="part_pcbtext" c_origin="4433,3110.5" c_rotation="270" c_mirror="none" id="gge844" layerid="3" c_shapetype="group" ><path c_fontSize="3.937" c_fontFamily="" c_text="2" d="M 4434.2503 3110.6801 L 4434.4303 3110.6801 L 4434.7903 3110.8601 L 4434.9703 3111.0401 L 4435.1503 3111.3901 L 4435.1503 3112.1101 L 4434.9703 3112.4701 L 4434.7903 3112.6501 L 4434.4303 3112.8301 L 4434.0703 3112.8301 L 4433.7203 3112.6501 L 4433.1803 3112.2901 L 4431.3903 3110.5001 L 4431.3903 3113.0101" fill="none"  stroke-width="0.8"  /></g><g c_partid="part_pcbtext" c_origin="4165,3212.96" c_rotation="0" c_mirror="" id="gge857" layerid="3" c_shapetype="group" ><path c_fontSize="4.5" c_fontFamily="" c_text="J7" d="M 4167.05 3206.81 L 4167.05 3210.08 L 4166.84 3210.69 L 4166.64 3210.9 L 4166.23 3211.1 L 4165.82 3211.1 L 4165.41 3210.9 L 4165.2 3210.69 L 4165 3210.08 L 4165 3209.67 M 4171.26 3206.81 L 4169.21 3211.1 M 4168.4 3206.81 L 4171.26 3206.81" fill="none"  stroke-width="0.6" c_note="note_pre" /></g><g c_partid="part_pcbtext" c_origin="4165,3207.46" c_rotation="0" c_mirror="" id="gge859" layerid="3" c_shapetype="group" display="none"><path c_fontSize="4.5" c_fontFamily="" c_text="Fotgjengerovergang knapp 1" d="M 4165 3201.31 L 4165 3205.6 M 4165 3201.31 L 4167.66 3201.31 M 4165 3203.35 L 4166.64 3203.35 M 4170.03 3202.74 L 4169.62 3202.94 L 4169.21 3203.35 L 4169.01 3203.97 L 4169.01 3204.38 L 4169.21 3204.99 L 4169.62 3205.4 L 4170.03 3205.6 L 4170.65 3205.6 L 4171.05 3205.4 L 4171.46 3204.99 L 4171.67 3204.38 L 4171.67 3203.97 L 4171.46 3203.35 L 4171.05 3202.94 L 4170.65 3202.74 L 4170.03 3202.74 M 4173.63 3201.31 L 4173.63 3204.78 L 4173.84 3205.4 L 4174.25 3205.6 L 4174.65 3205.6 M 4173.02 3202.74 L 4174.45 3202.74 M 4178.46 3202.74 L 4178.46 3206.01 L 4178.25 3206.63 L 4178.05 3206.83 L 4177.64 3207.03 L 4177.03 3207.03 L 4176.62 3206.83 M 4178.46 3203.35 L 4178.05 3202.94 L 4177.64 3202.74 L 4177.03 3202.74 L 4176.62 3202.94 L 4176.21 3203.35 L 4176 3203.97 L 4176 3204.38 L 4176.21 3204.99 L 4176.62 3205.4 L 4177.03 3205.6 L 4177.64 3205.6 L 4178.05 3205.4 L 4178.46 3204.99 M 4180.63 3201.31 L 4180.83 3201.51 L 4181.04 3201.31 L 4180.83 3201.1 L 4180.63 3201.31 M 4180.83 3202.74 L 4180.83 3206.22 L 4180.63 3206.83 L 4180.22 3207.03 L 4179.81 3207.03 M 4182.39 3203.97 L 4184.84 3203.97 L 4184.84 3203.56 L 4184.64 3203.15 L 4184.43 3202.94 L 4184.02 3202.74 L 4183.41 3202.74 L 4183 3202.94 L 4182.59 3203.35 L 4182.39 3203.97 L 4182.39 3204.38 L 4182.59 3204.99 L 4183 3205.4 L 4183.41 3205.6 L 4184.02 3205.6 L 4184.43 3205.4 L 4184.84 3204.99 M 4186.19 3202.74 L 4186.19 3205.6 M 4186.19 3203.56 L 4186.8 3202.94 L 4187.21 3202.74 L 4187.83 3202.74 L 4188.24 3202.94 L 4188.44 3203.56 L 4188.44 3205.6 M 4192.25 3202.74 L 4192.25 3206.01 L 4192.04 3206.63 L 4191.84 3206.83 L 4191.43 3207.03 L 4190.81 3207.03 L 4190.4 3206.83 M 4192.25 3203.35 L 4191.84 3202.94 L 4191.43 3202.74 L 4190.81 3202.74 L 4190.4 3202.94 L 4190 3203.35 L 4189.79 3203.97 L 4189.79 3204.38 L 4190 3204.99 L 4190.4 3205.4 L 4190.81 3205.6 L 4191.43 3205.6 L 4191.84 3205.4 L 4192.25 3204.99 M 4193.6 3203.97 L 4196.05 3203.97 L 4196.05 3203.56 L 4195.85 3203.15 L 4195.64 3202.94 L 4195.23 3202.74 L 4194.62 3202.74 L 4194.21 3202.94 L 4193.8 3203.35 L 4193.6 3203.97 L 4193.6 3204.38 L 4193.8 3204.99 L 4194.21 3205.4 L 4194.62 3205.6 L 4195.23 3205.6 L 4195.64 3205.4 L 4196.05 3204.99 M 4197.4 3202.74 L 4197.4 3205.6 M 4197.4 3203.97 L 4197.6 3203.35 L 4198.01 3202.94 L 4198.42 3202.74 L 4199.04 3202.74 M 4201.41 3202.74 L 4201 3202.94 L 4200.59 3203.35 L 4200.39 3203.97 L 4200.39 3204.38 L 4200.59 3204.99 L 4201 3205.4 L 4201.41 3205.6 L 4202.02 3205.6 L 4202.43 3205.4 L 4202.84 3204.99 L 4203.05 3204.38 L 4203.05 3203.97 L 4202.84 3203.35 L 4202.43 3202.94 L 4202.02 3202.74 L 4201.41 3202.74 M 4204.4 3202.74 L 4205.62 3205.6 M 4206.85 3202.74 L 4205.62 3205.6 M 4208.2 3203.97 L 4210.65 3203.97 L 4210.65 3203.56 L 4210.45 3203.15 L 4210.25 3202.94 L 4209.84 3202.74 L 4209.22 3202.74 L 4208.81 3202.94 L 4208.4 3203.35 L 4208.2 3203.97 L 4208.2 3204.38 L 4208.4 3204.99 L 4208.81 3205.4 L 4209.22 3205.6 L 4209.84 3205.6 L 4210.25 3205.4 L 4210.65 3204.99 M 4212 3202.74 L 4212 3205.6 M 4212 3203.97 L 4212.21 3203.35 L 4212.62 3202.94 L 4213.03 3202.74 L 4213.64 3202.74 M 4217.45 3202.74 L 4217.45 3206.01 L 4217.24 3206.63 L 4217.04 3206.83 L 4216.63 3207.03 L 4216.01 3207.03 L 4215.6 3206.83 M 4217.45 3203.35 L 4217.04 3202.94 L 4216.63 3202.74 L 4216.01 3202.74 L 4215.6 3202.94 L 4215.2 3203.35 L 4214.99 3203.97 L 4214.99 3204.38 L 4215.2 3204.99 L 4215.6 3205.4 L 4216.01 3205.6 L 4216.63 3205.6 L 4217.04 3205.4 L 4217.45 3204.99 M 4221.25 3202.74 L 4221.25 3205.6 M 4221.25 3203.35 L 4220.84 3202.94 L 4220.43 3202.74 L 4219.82 3202.74 L 4219.41 3202.94 L 4219 3203.35 L 4218.8 3203.97 L 4218.8 3204.38 L 4219 3204.99 L 4219.41 3205.4 L 4219.82 3205.6 L 4220.43 3205.6 L 4220.84 3205.4 L 4221.25 3204.99 M 4222.6 3202.74 L 4222.6 3205.6 M 4222.6 3203.56 L 4223.21 3202.94 L 4223.62 3202.74 L 4224.24 3202.74 L 4224.65 3202.94 L 4224.85 3203.56 L 4224.85 3205.6 M 4228.65 3202.74 L 4228.65 3206.01 L 4228.45 3206.63 L 4228.25 3206.83 L 4227.84 3207.03 L 4227.22 3207.03 L 4226.81 3206.83 M 4228.65 3203.35 L 4228.25 3202.94 L 4227.84 3202.74 L 4227.22 3202.74 L 4226.81 3202.94 L 4226.4 3203.35 L 4226.2 3203.97 L 4226.2 3204.38 L 4226.4 3204.99 L 4226.81 3205.4 L 4227.22 3205.6 L 4227.84 3205.6 L 4228.25 3205.4 L 4228.65 3204.99 M 4233.15 3201.31 L 4233.15 3205.6 M 4235.2 3202.74 L 4233.15 3204.78 M 4233.97 3203.97 L 4235.4 3205.6 M 4236.75 3202.74 L 4236.75 3205.6 M 4236.75 3203.56 L 4237.37 3202.94 L 4237.78 3202.74 L 4238.39 3202.74 L 4238.8 3202.94 L 4239 3203.56 L 4239 3205.6 M 4242.81 3202.74 L 4242.81 3205.6 M 4242.81 3203.35 L 4242.4 3202.94 L 4241.99 3202.74 L 4241.38 3202.74 L 4240.97 3202.94 L 4240.56 3203.35 L 4240.35 3203.97 L 4240.35 3204.38 L 4240.56 3204.99 L 4240.97 3205.4 L 4241.38 3205.6 L 4241.99 3205.6 L 4242.4 3205.4 L 4242.81 3204.99 M 4244.16 3202.74 L 4244.16 3207.03 M 4244.16 3203.35 L 4244.57 3202.94 L 4244.98 3202.74 L 4245.59 3202.74 L 4246 3202.94 L 4246.41 3203.35 L 4246.61 3203.97 L 4246.61 3204.38 L 4246.41 3204.99 L 4246 3205.4 L 4245.59 3205.6 L 4244.98 3205.6 L 4244.57 3205.4 L 4244.16 3204.99 M 4247.96 3202.74 L 4247.96 3207.03 M 4247.96 3203.35 L 4248.37 3202.94 L 4248.78 3202.74 L 4249.4 3202.74 L 4249.8 3202.94 L 4250.21 3203.35 L 4250.42 3203.97 L 4250.42 3204.38 L 4250.21 3204.99 L 4249.8 3205.4 L 4249.4 3205.6 L 4248.78 3205.6 L 4248.37 3205.4 L 4247.96 3204.99 M 4254.92 3202.13 L 4255.33 3201.92 L 4255.94 3201.31 L 4255.94 3205.6" fill="none"  stroke-width="0.6"  /></g><g c_partid="part_pcbtext" c_origin="4178,3221" c_rotation="270" c_mirror="none" id="gge863" layerid="3" c_shapetype="group" ><path c_fontSize="3.937" c_fontFamily="" c_text="1" d="M 4179.4301 3221 L 4179.6101 3221.36 L 4180.1501 3221.89 L 4176.3901 3221.89" fill="none"  stroke-width="0.8"  /></g><g c_partid="part_pcbtext" c_origin="4178,3241" c_rotation="270" c_mirror="none" id="gge865" layerid="3" c_shapetype="group" ><path c_fontSize="3.937" c_fontFamily="" c_text="2" d="M 4179.2503 3241.1801 L 4179.4303 3241.1801 L 4179.7903 3241.3601 L 4179.9703 3241.5401 L 4180.1503 3241.8901 L 4180.1503 3242.6101 L 4179.9703 3242.9701 L 4179.7903 3243.1501 L 4179.4303 3243.3301 L 4179.0703 3243.3301 L 4178.7203 3243.1501 L 4178.1803 3242.7901 L 4176.3903 3241.0001 L 4176.3903 3243.5101" fill="none"  stroke-width="0.8"  /></g><g c_partid="part_pcbtext" c_origin="4165,3172.96" c_rotation="0" c_mirror="" id="gge878" layerid="3" c_shapetype="group" ><path c_fontSize="4.5" c_fontFamily="" c_text="J3" d="M 4167.05 3166.81 L 4167.05 3170.08 L 4166.84 3170.69 L 4166.64 3170.9 L 4166.23 3171.1 L 4165.82 3171.1 L 4165.41 3170.9 L 4165.2 3170.69 L 4165 3170.08 L 4165 3169.67 M 4168.8 3166.81 L 4171.05 3166.81 L 4169.83 3168.44 L 4170.44 3168.44 L 4170.85 3168.65 L 4171.05 3168.85 L 4171.26 3169.47 L 4171.26 3169.88 L 4171.05 3170.49 L 4170.65 3170.9 L 4170.03 3171.1 L 4169.42 3171.1 L 4168.8 3170.9 L 4168.6 3170.69 L 4168.4 3170.28" fill="none"  stroke-width="0.6" c_note="note_pre" /></g><g c_partid="part_pcbtext" c_origin="4165,3167.46" c_rotation="0" c_mirror="" id="gge880" layerid="3" c_shapetype="group" display="none"><path c_fontSize="4.5" c_fontFamily="" c_text="Fotgjengerovergangknapp 2" d="M 4165 3161.31 L 4165 3165.6 M 4165 3161.31 L 4167.66 3161.31 M 4165 3163.35 L 4166.64 3163.35 M 4170.03 3162.74 L 4169.62 3162.94 L 4169.21 3163.35 L 4169.01 3163.97 L 4169.01 3164.38 L 4169.21 3164.99 L 4169.62 3165.4 L 4170.03 3165.6 L 4170.65 3165.6 L 4171.05 3165.4 L 4171.46 3164.99 L 4171.67 3164.38 L 4171.67 3163.97 L 4171.46 3163.35 L 4171.05 3162.94 L 4170.65 3162.74 L 4170.03 3162.74 M 4173.63 3161.31 L 4173.63 3164.78 L 4173.84 3165.4 L 4174.25 3165.6 L 4174.65 3165.6 M 4173.02 3162.74 L 4174.45 3162.74 M 4178.46 3162.74 L 4178.46 3166.01 L 4178.25 3166.63 L 4178.05 3166.83 L 4177.64 3167.03 L 4177.03 3167.03 L 4176.62 3166.83 M 4178.46 3163.35 L 4178.05 3162.94 L 4177.64 3162.74 L 4177.03 3162.74 L 4176.62 3162.94 L 4176.21 3163.35 L 4176 3163.97 L 4176 3164.38 L 4176.21 3164.99 L 4176.62 3165.4 L 4177.03 3165.6 L 4177.64 3165.6 L 4178.05 3165.4 L 4178.46 3164.99 M 4180.63 3161.31 L 4180.83 3161.51 L 4181.04 3161.31 L 4180.83 3161.1 L 4180.63 3161.31 M 4180.83 3162.74 L 4180.83 3166.22 L 4180.63 3166.83 L 4180.22 3167.03 L 4179.81 3167.03 M 4182.39 3163.97 L 4184.84 3163.97 L 4184.84 3163.56 L 4184.64 3163.15 L 4184.43 3162.94 L 4184.02 3162.74 L 4183.41 3162.74 L 4183 3162.94 L 4182.59 3163.35 L 4182.39 3163.97 L 4182.39 3164.38 L 4182.59 3164.99 L 4183 3165.4 L 4183.41 3165.6 L 4184.02 3165.6 L 4184.43 3165.4 L 4184.84 3164.99 M 4186.19 3162.74 L 4186.19 3165.6 M 4186.19 3163.56 L 4186.8 3162.94 L 4187.21 3162.74 L 4187.83 3162.74 L 4188.24 3162.94 L 4188.44 3163.56 L 4188.44 3165.6 M 4192.25 3162.74 L 4192.25 3166.01 L 4192.04 3166.63 L 4191.84 3166.83 L 4191.43 3167.03 L 4190.81 3167.03 L 4190.4 3166.83 M 4192.25 3163.35 L 4191.84 3162.94 L 4191.43 3162.74 L 4190.81 3162.74 L 4190.4 3162.94 L 4190 3163.35 L 4189.79 3163.97 L 4189.79 3164.38 L 4190 3164.99 L 4190.4 3165.4 L 4190.81 3165.6 L 4191.43 3165.6 L 4191.84 3165.4 L 4192.25 3164.99 M 4193.6 3163.97 L 4196.05 3163.97 L 4196.05 3163.56 L 4195.85 3163.15 L 4195.64 3162.94 L 4195.23 3162.74 L 4194.62 3162.74 L 4194.21 3162.94 L 4193.8 3163.35 L 4193.6 3163.97 L 4193.6 3164.38 L 4193.8 3164.99 L 4194.21 3165.4 L 4194.62 3165.6 L 4195.23 3165.6 L 4195.64 3165.4 L 4196.05 3164.99 M 4197.4 3162.74 L 4197.4 3165.6 M 4197.4 3163.97 L 4197.6 3163.35 L 4198.01 3162.94 L 4198.42 3162.74 L 4199.04 3162.74 M 4201.41 3162.74 L 4201 3162.94 L 4200.59 3163.35 L 4200.39 3163.97 L 4200.39 3164.38 L 4200.59 3164.99 L 4201 3165.4 L 4201.41 3165.6 L 4202.02 3165.6 L 4202.43 3165.4 L 4202.84 3164.99 L 4203.05 3164.38 L 4203.05 3163.97 L 4202.84 3163.35 L 4202.43 3162.94 L 4202.02 3162.74 L 4201.41 3162.74 M 4204.4 3162.74 L 4205.62 3165.6 M 4206.85 3162.74 L 4205.62 3165.6 M 4208.2 3163.97 L 4210.65 3163.97 L 4210.65 3163.56 L 4210.45 3163.15 L 4210.25 3162.94 L 4209.84 3162.74 L 4209.22 3162.74 L 4208.81 3162.94 L 4208.4 3163.35 L 4208.2 3163.97 L 4208.2 3164.38 L 4208.4 3164.99 L 4208.81 3165.4 L 4209.22 3165.6 L 4209.84 3165.6 L 4210.25 3165.4 L 4210.65 3164.99 M 4212 3162.74 L 4212 3165.6 M 4212 3163.97 L 4212.21 3163.35 L 4212.62 3162.94 L 4213.03 3162.74 L 4213.64 3162.74 M 4217.45 3162.74 L 4217.45 3166.01 L 4217.24 3166.63 L 4217.04 3166.83 L 4216.63 3167.03 L 4216.01 3167.03 L 4215.6 3166.83 M 4217.45 3163.35 L 4217.04 3162.94 L 4216.63 3162.74 L 4216.01 3162.74 L 4215.6 3162.94 L 4215.2 3163.35 L 4214.99 3163.97 L 4214.99 3164.38 L 4215.2 3164.99 L 4215.6 3165.4 L 4216.01 3165.6 L 4216.63 3165.6 L 4217.04 3165.4 L 4217.45 3164.99 M 4221.25 3162.74 L 4221.25 3165.6 M 4221.25 3163.35 L 4220.84 3162.94 L 4220.43 3162.74 L 4219.82 3162.74 L 4219.41 3162.94 L 4219 3163.35 L 4218.8 3163.97 L 4218.8 3164.38 L 4219 3164.99 L 4219.41 3165.4 L 4219.82 3165.6 L 4220.43 3165.6 L 4220.84 3165.4 L 4221.25 3164.99 M 4222.6 3162.74 L 4222.6 3165.6 M 4222.6 3163.56 L 4223.21 3162.94 L 4223.62 3162.74 L 4224.24 3162.74 L 4224.65 3162.94 L 4224.85 3163.56 L 4224.85 3165.6 M 4228.65 3162.74 L 4228.65 3166.01 L 4228.45 3166.63 L 4228.25 3166.83 L 4227.84 3167.03 L 4227.22 3167.03 L 4226.81 3166.83 M 4228.65 3163.35 L 4228.25 3162.94 L 4227.84 3162.74 L 4227.22 3162.74 L 4226.81 3162.94 L 4226.4 3163.35 L 4226.2 3163.97 L 4226.2 3164.38 L 4226.4 3164.99 L 4226.81 3165.4 L 4227.22 3165.6 L 4227.84 3165.6 L 4228.25 3165.4 L 4228.65 3164.99 M 4230 3161.31 L 4230 3165.6 M 4232.05 3162.74 L 4230 3164.78 M 4230.82 3163.97 L 4232.25 3165.6 M 4233.6 3162.74 L 4233.6 3165.6 M 4233.6 3163.56 L 4234.22 3162.94 L 4234.63 3162.74 L 4235.24 3162.74 L 4235.65 3162.94 L 4235.85 3163.56 L 4235.85 3165.6 M 4239.66 3162.74 L 4239.66 3165.6 M 4239.66 3163.35 L 4239.25 3162.94 L 4238.84 3162.74 L 4238.23 3162.74 L 4237.82 3162.94 L 4237.41 3163.35 L 4237.2 3163.97 L 4237.2 3164.38 L 4237.41 3164.99 L 4237.82 3165.4 L 4238.23 3165.6 L 4238.84 3165.6 L 4239.25 3165.4 L 4239.66 3164.99 M 4241.01 3162.74 L 4241.01 3167.03 M 4241.01 3163.35 L 4241.42 3162.94 L 4241.83 3162.74 L 4242.44 3162.74 L 4242.85 3162.94 L 4243.26 3163.35 L 4243.46 3163.97 L 4243.46 3164.38 L 4243.26 3164.99 L 4242.85 3165.4 L 4242.44 3165.6 L 4241.83 3165.6 L 4241.42 3165.4 L 4241.01 3164.99 M 4244.81 3162.74 L 4244.81 3167.03 M 4244.81 3163.35 L 4245.22 3162.94 L 4245.63 3162.74 L 4246.25 3162.74 L 4246.65 3162.94 L 4247.06 3163.35 L 4247.27 3163.97 L 4247.27 3164.38 L 4247.06 3164.99 L 4246.65 3165.4 L 4246.25 3165.6 L 4245.63 3165.6 L 4245.22 3165.4 L 4244.81 3164.99 M 4251.97 3162.33 L 4251.97 3162.13 L 4252.18 3161.72 L 4252.38 3161.51 L 4252.79 3161.31 L 4253.61 3161.31 L 4254.02 3161.51 L 4254.22 3161.72 L 4254.43 3162.13 L 4254.43 3162.53 L 4254.22 3162.94 L 4253.81 3163.56 L 4251.77 3165.6 L 4254.63 3165.6" fill="none"  stroke-width="0.6"  /></g><g c_partid="part_pcbtext" c_origin="4178,3181" c_rotation="270" c_mirror="none" id="gge884" layerid="3" c_shapetype="group" ><path c_fontSize="3.937" c_fontFamily="" c_text="1" d="M 4179.4301 3181 L 4179.6101 3181.36 L 4180.1501 3181.89 L 4176.3901 3181.89" fill="none"  stroke-width="0.8"  /></g><g c_partid="part_pcbtext" c_origin="4178,3201" c_rotation="270" c_mirror="none" id="gge886" layerid="3" c_shapetype="group" ><path c_fontSize="3.937" c_fontFamily="" c_text="2" d="M 4179.2503 3201.1801 L 4179.4303 3201.1801 L 4179.7903 3201.3601 L 4179.9703 3201.5401 L 4180.1503 3201.8901 L 4180.1503 3202.6101 L 4179.9703 3202.9701 L 4179.7903 3203.1501 L 4179.4303 3203.3301 L 4179.0703 3203.3301 L 4178.7203 3203.1501 L 4178.1803 3202.7901 L 4176.3903 3201.0001 L 4176.3903 3203.5101" fill="none"  stroke-width="0.8"  /></g><g c_partid="part_pcbtext" c_origin="4422,3122.52" c_rotation="0" c_mirror="" id="gge899" layerid="3" c_shapetype="group" ><path c_fontSize="4.5" c_fontFamily="" c_text="J6" d="M 4424.05 3116.359 L 4424.05 3119.639 L 4423.84 3120.249 L 4423.64 3120.449 L 4423.23 3120.659 L 4422.82 3120.659 L 4422.41 3120.449 L 4422.2 3120.249 L 4422 3119.639 L 4422 3119.229 M 4427.85 3116.979 L 4427.65 3116.569 L 4427.03 3116.359 L 4426.62 3116.359 L 4426.01 3116.569 L 4425.6 3117.179 L 4425.4 3118.199 L 4425.4 3119.229 L 4425.6 3120.049 L 4426.01 3120.449 L 4426.62 3120.659 L 4426.83 3120.659 L 4427.44 3120.449 L 4427.85 3120.049 L 4428.05 3119.429 L 4428.05 3119.229 L 4427.85 3118.609 L 4427.44 3118.199 L 4426.83 3117.999 L 4426.62 3117.999 L 4426.01 3118.199 L 4425.6 3118.609 L 4425.4 3119.229" fill="none"  stroke-width="0.6" c_note="note_pre" /></g><g c_partid="part_pcbtext" c_origin="4422,3117.02" c_rotation="0" c_mirror="" id="gge901" layerid="3" c_shapetype="group" display="none"><path c_fontSize="4.5" c_fontFamily="" c_text="KF127-8P" d="M 4422 3110.859 L 4422 3115.159 M 4424.86 3110.859 L 4422 3113.729 M 4423.02 3112.699 L 4424.86 3115.159 M 4426.21 3110.859 L 4426.21 3115.159 M 4426.21 3110.859 L 4428.87 3110.859 M 4426.21 3112.909 L 4427.85 3112.909 M 4430.22 3111.679 L 4430.63 3111.479 L 4431.25 3110.859 L 4431.25 3115.159 M 4432.8 3111.889 L 4432.8 3111.679 L 4433 3111.269 L 4433.21 3111.069 L 4433.62 3110.859 L 4434.44 3110.859 L 4434.85 3111.069 L 4435.05 3111.269 L 4435.25 3111.679 L 4435.25 3112.089 L 4435.05 3112.499 L 4434.64 3113.109 L 4432.6 3115.159 L 4435.46 3115.159 M 4439.67 3110.859 L 4437.63 3115.159 M 4436.81 3110.859 L 4439.67 3110.859 M 4441.02 3113.319 L 4444.7 3113.319 M 4447.08 3110.859 L 4446.46 3111.069 L 4446.26 3111.479 L 4446.26 3111.889 L 4446.46 3112.299 L 4446.87 3112.499 L 4447.69 3112.699 L 4448.3 3112.909 L 4448.71 3113.319 L 4448.92 3113.729 L 4448.92 3114.339 L 4448.71 3114.749 L 4448.51 3114.949 L 4447.9 3115.159 L 4447.08 3115.159 L 4446.46 3114.949 L 4446.26 3114.749 L 4446.05 3114.339 L 4446.05 3113.729 L 4446.26 3113.319 L 4446.67 3112.909 L 4447.28 3112.699 L 4448.1 3112.499 L 4448.51 3112.299 L 4448.71 3111.889 L 4448.71 3111.479 L 4448.51 3111.069 L 4447.9 3110.859 L 4447.08 3110.859 M 4450.27 3110.859 L 4450.27 3115.159 M 4450.27 3110.859 L 4452.11 3110.859 L 4452.72 3111.069 L 4452.93 3111.269 L 4453.13 3111.679 L 4453.13 3112.299 L 4452.93 3112.699 L 4452.72 3112.909 L 4452.11 3113.109 L 4450.27 3113.109" fill="none"  stroke-width="0.6"  /></g><g c_partid="part_pcbtext" c_origin="4192.69,3121.89" c_rotation="0" c_mirror="" id="gge1102" layerid="3" c_shapetype="group" ><path c_fontSize="4.5" c_fontFamily="" c_text="IC2" d="M 4192.686 3119.433 L 4192.686 3123.733 M 4197.106 3120.453 L 4196.906 3120.053 L 4196.496 3119.643 L 4196.086 3119.433 L 4195.266 3119.433 L 4194.856 3119.643 L 4194.446 3120.053 L 4194.246 3120.453 L 4194.036 3121.073 L 4194.036 3122.093 L 4194.246 3122.703 L 4194.446 3123.113 L 4194.856 3123.523 L 4195.266 3123.733 L 4196.086 3123.733 L 4196.496 3123.523 L 4196.906 3123.113 L 4197.106 3122.703 M 4198.656 3120.453 L 4198.656 3120.253 L 4198.866 3119.843 L 4199.066 3119.643 L 4199.476 3119.433 L 4200.296 3119.433 L 4200.706 3119.643 L 4200.906 3119.843 L 4201.116 3120.253 L 4201.116 3120.663 L 4200.906 3121.073 L 4200.506 3121.683 L 4198.456 3123.733 L 4201.316 3123.733" fill="none"  stroke-width="0.6" c_note="note_pre" /></g><g c_partid="part_pcbtext" c_origin="4185.54,3136.81" c_rotation="180" c_mirror="" id="gge1104" layerid="3" c_shapetype="group" display="none"><path c_fontSize="4.5" c_fontFamily="" c_text="TR-72D" d="M 4184.11 3142.96 L 4184.11 3138.67 M 4185.54 3142.96 L 4182.68 3142.96 M 4181.33 3142.96 L 4181.33 3138.67 M 4181.33 3142.96 L 4179.49 3142.96 L 4178.87 3142.76 L 4178.67 3142.56 L 4178.46 3142.15 L 4178.46 3141.74 L 4178.67 3141.33 L 4178.87 3141.12 L 4179.49 3140.92 L 4181.33 3140.92 M 4179.89 3140.92 L 4178.46 3138.67 M 4177.11 3140.51 L 4173.43 3140.51 M 4169.22 3142.96 L 4171.26 3138.67 M 4172.08 3142.96 L 4169.22 3142.96 M 4167.66 3141.94 L 4167.66 3142.15 L 4167.46 3142.56 L 4167.25 3142.76 L 4166.84 3142.96 L 4166.03 3142.96 L 4165.62 3142.76 L 4165.41 3142.56 L 4165.21 3142.15 L 4165.21 3141.74 L 4165.41 3141.33 L 4165.82 3140.71 L 4167.87 3138.67 L 4165 3138.67 M 4163.65 3142.96 L 4163.65 3138.67 M 4163.65 3142.96 L 4162.22 3142.96 L 4161.61 3142.76 L 4161.2 3142.35 L 4160.99 3141.94 L 4160.79 3141.33 L 4160.79 3140.31 L 4160.99 3139.69 L 4161.2 3139.28 L 4161.61 3138.87 L 4162.22 3138.67 L 4163.65 3138.67" fill="none"  stroke-width="0.6"  /></g><path d="M 4329 3155.5001 A 4 4 0 0 1 4321 3155.5001" c_shapetype="line" fill="none" stroke-width="1" c_helper_type="arc2" net="" layerid="3" id="gge579" /><path d="M 4329 3056.5001 A 4 4 0 0 1 4321 3056.5001" c_shapetype="line" fill="none" stroke-width="1" c_helper_type="arc2" net="" layerid="3" id="gge744" /><polyline points="4149.1 3050.4 4438 3050.4 4438 3306 4149 3306 4149.1 3050.4" stroke-width="1" c_shapetype="line" stroke-linecap="round" fill="none" layerid="10" net="" id="gge1424" /></g></svg>