<svg xmlns="http://www.w3.org/2000/svg" xmlns:xlink="http://www.w3.org/1999/xlink" width="72.873mm" height="54.102mm" viewBox="4210.7 3033.7 286.9 213"><title></title><style type="text/css">
*[layerid="1"] {stroke:#FF0000;fill:#FF0000;}
*[layerid="2"] {stroke:#0000FF;fill:#0000FF;}
*[layerid="3"] {stroke:#FFCC00;fill:#FFCC00;}
*[layerid="4"] {stroke:#66CC33;fill:#66CC33;}
*[layerid="5"] {stroke:#808080;fill:#808080;}
*[layerid="6"] {stroke:#800000;fill:#800000;}
*[layerid="7"] {stroke:#800080;fill:#800080;stroke-opacity:0.7;fill-opacity:0.7;}
*[layerid="8"] {stroke:#AA00FF;fill:#AA00FF;stroke-opacity:0.7;fill-opacity:0.7;}
*[layerid="9"] {stroke:#6464FF;fill:#6464FF;}
*[layerid="10"] {stroke:#FF00FF;fill:#FF00FF;}
*[layerid="11"] {stroke:#C0C0C0;fill:#C0C0C0;}
*[layerid="12"] {stroke:#FFFFFF;fill:#FFFFFF;}
*[layerid="13"] {stroke:#33CC99;fill:#33CC99;}
*[layerid="14"] {stroke:#5555FF;fill:#5555FF;}
*[layerid="15"] {stroke:#F022F0;fill:#F022F0;}
*[layerid="21"] {stroke:#999966;fill:#999966;}
*[layerid="22"] {stroke:#008000;fill:#008000;}
*[layerid="23"] {stroke:#00FF00;fill:#00FF00;}
*[layerid="24"] {stroke:#BC8E00;fill:#BC8E00;}
*[layerid="25"] {stroke:#70DBFA;fill:#70DBFA;}
*[layerid="26"] {stroke:#00CC66;fill:#00CC66;}
*[layerid="27"] {stroke:#9966FF;fill:#9966FF;}
*[layerid="28"] {stroke:#800080;fill:#800080;}
*[layerid="29"] {stroke:#008080;fill:#008080;}
*[layerid="30"] {stroke:#15935F;fill:#15935F;}
*[layerid="31"] {stroke:#000080;fill:#000080;}
*[layerid="32"] {stroke:#00B400;fill:#00B400;}
*[layerid="33"] {stroke:#2E4756;fill:#2E4756;}
*[layerid="34"] {stroke:#99842F;fill:#99842F;}
*[layerid="35"] {stroke:#FFFFAA;fill:#FFFFAA;}
*[layerid="36"] {stroke:#99842F;fill:#99842F;}
*[layerid="37"] {stroke:#2E4756;fill:#2E4756;}
*[layerid="38"] {stroke:#3535FF;fill:#3535FF;}
*[layerid="39"] {stroke:#8000BC;fill:#8000BC;}
*[layerid="40"] {stroke:#43AE5F;fill:#43AE5F;}
*[layerid="41"] {stroke:#C3ECCE;fill:#C3ECCE;}
*[layerid="42"] {stroke:#728978;fill:#728978;}
*[layerid="43"] {stroke:#39503F;fill:#39503F;}
*[layerid="44"] {stroke:#0C715D;fill:#0C715D;}
*[layerid="45"] {stroke:#5A8A80;fill:#5A8A80;}
*[layerid="46"] {stroke:#2B937E;fill:#2B937E;}
*[layerid="47"] {stroke:#23999D;fill:#23999D;}
*[layerid="48"] {stroke:#45B4E3;fill:#45B4E3;}
*[layerid="49"] {stroke:#215DA1;fill:#215DA1;}
*[layerid="50"] {stroke:#4564D7;fill:#4564D7;}
*[layerid="51"] {stroke:#6969E9;fill:#6969E9;}
*[layerid="52"] {stroke:#9069E9;fill:#9069E9;}
*[fill="none"] {fill: none;}
*[stroke="none"] {stroke: none;}
path, polyline, polygon, line {stroke-linecap:round;}
g[c_partid="part_pad"][layerid="1"] ellipse:not([c_padid]) {fill:#FF0000;}
g[c_partid="part_pad"][layerid="1"]  polygon:not([c_padid]) {fill:#FF0000;}
g[c_partid="part_pad"][layerid="1"]  polyline:not([c_padid]) {stroke:#FF0000;}
g[c_partid="part_pad"][layerid="1"]  circle {fill:#FF0000;}
g[c_partid="part_pad"][layerid="2"]  ellipse:not([c_padid]) {fill:#0000FF;}
g[c_partid="part_pad"][layerid="2"]  polygon:not([c_padid]) {fill:#0000FF;}
g[c_partid="part_pad"][layerid="2"]  polyline:not([c_padid]) {stroke:#0000FF;}
g[c_partid="part_pad"][layerid="2"]  circle {fill:#0000FF;}
g[c_partid="part_pad"][layerid="11"]  ellipse:not([c_padid]) {fill:#C0C0C0;}
g[c_partid="part_pad"][layerid="11"]  polygon:not([c_padid]) {fill:#C0C0C0;}
g[c_partid="part_pad"][layerid="11"]  polyline:not([c_padid]) {stroke:#C0C0C0;}
g[c_partid="part_pad"][layerid="11"]  circle {fill:#C0C0C0;}
g[c_partid="part_pad"][layerid] > circle[c_padhole] {fill: #222222;}
g[c_partid="part_pad"][layerid] > polyline[c_padhole] {stroke:#222222;}
g[c_partid="part_via"][layerid] > * + circle {fill: #222222;}
g[c_partid="part_pad"] > polygon[c_padid] {stroke-linejoin: miter;stroke-miterlimit: 100;}
g[c_partid="part_hole"] > circle {fill: #222222;}path, polyline, polygon {stroke-linejoin:round;}
rect, circle, ellipse, polyline, line, polygon, path {shape-rendering:crispEdges;}
</style>
<rect x="4210.7" y="3033.7" width="286.9" height="213" fill="#999999" stroke="none"/><g id="g1" cpara="package`IQRF_KON-SIM-01`" c_transformList="" importFlag="0" xmlns="http://www.w3.org/2000/svg"><polyline points="4318 3116 4303.5 3101.5 4303.5 3078 4286.5 3061 4270.5 3061 4262.314 3052.814 4262.314 3051.437" stroke-width="2" c_shapetype="line" stroke-linecap="round" fill="none" layerid="1" net="C6/DATA" id="gge1246" /><polyline points="4239 3205 4225.5 3191.5 4225.5 3085 4231.5 3079 4254 3079" stroke-width="2" c_shapetype="line" stroke-linecap="round" fill="none" layerid="1" net="C1/BTN1/LEFT" id="gge1238" /><polyline points="4239 3162 4229.5 3152.5 4229.5 3089 4234.5 3084 4258 3084 4262.51 3088.51 4262.51 3098.57" stroke-width="2" c_shapetype="line" stroke-linecap="round" fill="none" layerid="1" net="C2/BTN2/RIGHT" id="gge1239" /><polyline points="4239 3182 4249.5 3171.5 4249.5 3147.5 4239 3137 4239 3124" stroke-width="2" c_shapetype="line" stroke-linecap="round" fill="none" layerid="1" net="+5V" id="gge1241" /><polyline points="4272.754 3098.567 4272.754 3089.754 4262 3079 4254 3079" stroke-width="2" c_shapetype="line" stroke-linecap="round" fill="none" layerid="1" net="C1/BTN1/LEFT" id="gge1375" /><polyline points="4242.314 3051.437 4260.377 3069.5 4282 3069.5 4294.5 3082 4294.5 3122.5 4318 3146" stroke-width="2" c_shapetype="line" stroke-linecap="round" fill="none" layerid="1" net="C8/CLK" id="gge1244" /><polyline points="4252.314 3051.437 4266.377 3065.5 4284 3065.5 4298.5 3080 4298.5 3116.5 4318 3136" stroke-width="2" c_shapetype="line" stroke-linecap="round" fill="none" layerid="1" net="C7/STROBE" id="gge1245" /><polyline points="4239 3225 4249.5 3214.5 4249.5 3171.5" stroke-width="2" c_shapetype="line" stroke-linecap="round" fill="none" layerid="1" net="+5V" id="gge1247" /><polyline points="4318 3156 4324.5 3156 4329 3151.5 4329 3107 4318 3096" stroke-width="2" c_shapetype="line" stroke-linecap="round" fill="none" layerid="1" net="+5V" id="gge1251" /><polyline points="4318 3166 4339.5 3166 4391 3217.5" stroke-width="2" c_shapetype="line" stroke-linecap="round" fill="none" layerid="1" net="U2_9" id="gge1349" /><polyline points="4239 3124 4234.5 3119.5 4234.5 3093.5 4238 3090 4246.5 3090 4252.314 3095.814 4252.314 3098.567" stroke-width="2" c_shapetype="line" stroke-linecap="round" fill="none" layerid="1" net="+5V" id="gge1363" /><polyline points="4252.6 3124 4252.6 3117.1 4242 3106.5 4242.114 3106.386 4242.114 3098.567" stroke-width="2" c_shapetype="line" stroke-linecap="round" fill="none" layerid="1" net="GND" id="gge1365" /><polyline points="4318 3126 4325 3133 4325 3147.5 4321.5 3151 4312.5 3151 4285.5 3124 4252.6 3124" stroke-width="2" c_shapetype="line" stroke-linecap="round" fill="none" layerid="1" net="GND" id="gge1399" /><g c_partid="part_pad" c_etype="pinpart" c_origin="4252.6,3124" layerid="1" number="1" net="GND" plated ="Y" c_shapetype="group" id="gge161" locked="0" c_rotation="180" c_width="9.0551" c_height="10.63" title="GND" c_shape="RECT" pasteExpansion="0" solderExpansion="0.4"><polygon points="4257.128 3129.315 4248.072 3129.315 4248.072 3118.685 4257.128 3118.685" stroke-width="0" /><circle c_padhole="1" cx="4252.6" cy="3124" r="0" stroke-width="0" /></g><g c_partid="part_pad" c_etype="pinpart" c_origin="4239,3124" layerid="1" number="2" net="+5V" plated ="Y" c_shapetype="group" id="gge162" locked="0" c_rotation="180" c_width="9.0551" c_height="10.63" title="+5V" c_shape="RECT" pasteExpansion="0" solderExpansion="0.4"><polygon points="4243.528 3129.315 4234.472 3129.315 4234.472 3118.685 4243.528 3118.685" stroke-width="0" /><circle c_padhole="1" cx="4239" cy="3124" r="0" stroke-width="0" /></g><g c_partid="part_pad" c_etype="pinpart" c_origin="4272.75,3098.57" layerid="1" number="1" net="C1/BTN1/LEFT" plated ="Y" c_shapetype="group" id="gge966" locked="0" c_rotation="180" c_width="3.937" c_height="7.4803" title="C1/BTN1/LEFT" c_shape="RECT" pasteExpansion="0" solderExpansion="0.4"><polygon points="4274.724 3102.307 4270.784 3102.307 4270.784 3094.827 4274.724 3094.827" stroke-width="0" /><circle c_padhole="1" cx="4272.754" cy="3098.567" r="0" stroke-width="0" /></g><g c_partid="part_pad" c_etype="pinpart" c_origin="4262.51,3098.57" layerid="1" number="2" net="C2/BTN2/RIGHT" plated ="Y" c_shapetype="group" id="gge972" locked="0" c_rotation="180" c_width="3.937" c_height="7.4803" title="C2/BTN2/RIGHT" c_shape="RECT" pasteExpansion="0" solderExpansion="0.4"><polygon points="4264.484 3102.307 4260.544 3102.307 4260.544 3094.827 4264.484 3094.827" stroke-width="0" /><circle c_padhole="1" cx="4262.514" cy="3098.567" r="0" stroke-width="0" /></g><g c_partid="part_pad" c_etype="pinpart" c_origin="4252.31,3098.57" layerid="1" number="3" net="+5V" plated ="Y" c_shapetype="group" id="gge978" locked="0" c_rotation="180" c_width="3.937" c_height="7.4803" title="+5V" c_shape="RECT" pasteExpansion="0" solderExpansion="0.4"><polygon points="4254.284 3102.307 4250.344 3102.307 4250.344 3094.827 4254.284 3094.827" stroke-width="0" /><circle c_padhole="1" cx="4252.314" cy="3098.567" r="0" stroke-width="0" /></g><g c_partid="part_pad" c_etype="pinpart" c_origin="4242.11,3098.57" layerid="1" number="4" net="GND" plated ="Y" c_shapetype="group" id="gge983" locked="0" c_rotation="180" c_width="3.937" c_height="7.4803" title="GND" c_shape="RECT" pasteExpansion="0" solderExpansion="0.4"><polygon points="4244.084 3102.307 4240.144 3102.307 4240.144 3094.827 4244.084 3094.827" stroke-width="0" /><circle c_padhole="1" cx="4242.114" cy="3098.567" r="0" stroke-width="0" /></g><g c_partid="part_pad" c_etype="pinpart" c_origin="4272.75,3051.44" layerid="1" number="5" net="R2_1" plated ="Y" c_shapetype="group" id="gge988" locked="0" c_rotation="180" c_width="3.937" c_height="7.4803" title="R2_1" c_shape="RECT" pasteExpansion="0" solderExpansion="0.4"><polygon points="4274.724 3055.177 4270.784 3055.177 4270.784 3047.697 4274.724 3047.697" stroke-width="0" /><circle c_padhole="1" cx="4272.754" cy="3051.437" r="0" stroke-width="0" /></g><g c_partid="part_pad" c_etype="pinpart" c_origin="4262.51,3051.44" layerid="1" number="6" net="C6/DATA" plated ="Y" c_shapetype="group" id="gge993" locked="0" c_rotation="180" c_width="3.937" c_height="7.4803" title="C6/DATA" c_shape="RECT" pasteExpansion="0" solderExpansion="0.4"><polygon points="4264.484 3055.177 4260.544 3055.177 4260.544 3047.697 4264.484 3047.697" stroke-width="0" /><circle c_padhole="1" cx="4262.514" cy="3051.437" r="0" stroke-width="0" /></g><g c_partid="part_pad" c_etype="pinpart" c_origin="4252.31,3051.44" layerid="1" number="7" net="C7/STROBE" plated ="Y" c_shapetype="group" id="gge998" locked="0" c_rotation="180" c_width="3.937" c_height="7.4803" title="C7/STROBE" c_shape="RECT" pasteExpansion="0" solderExpansion="0.4"><polygon points="4254.284 3055.177 4250.344 3055.177 4250.344 3047.697 4254.284 3047.697" stroke-width="0" /><circle c_padhole="1" cx="4252.314" cy="3051.437" r="0" stroke-width="0" /></g><g c_partid="part_pad" c_etype="pinpart" c_origin="4242.11,3051.44" layerid="1" number="8" net="C8/CLK" plated ="Y" c_shapetype="group" id="gge1003" locked="0" c_rotation="180" c_width="3.937" c_height="7.4803" title="C8/CLK" c_shape="RECT" pasteExpansion="0" solderExpansion="0.4"><polygon points="4244.084 3055.177 4240.144 3055.177 4240.144 3047.697 4244.084 3047.697" stroke-width="0" /><circle c_padhole="1" cx="4242.114" cy="3051.437" r="0" stroke-width="0" /></g><g c_partid="part_pad" c_etype="pinpart" c_origin="4391,3217.5" layerid="11" number="3" net="U2_9" plated ="Y" c_shapetype="group" id="gge1331" locked="0" c_rotation="180" c_width="11.811" c_height="13.7795" title="U2_9" c_shape="OVAL" pasteExpansion="0" solderExpansion="0.4"><polyline points="4391 3218.484 4391 3216.516" stroke-width="11.811" /><circle c_padhole="1" cx="4391" cy="3217.5" r="2.3622" stroke-width="0" /></g><g c_partid="part_pad" c_etype="pinpart" c_origin="4296,3150.5" layerid="11" number="3" net="+5V" plated ="Y" c_shapetype="group" id="gge348" locked="0" c_rotation="0" c_width="8" c_height="6" title="+5V" c_shape="OVAL" pasteExpansion="0" solderExpansion="0.4"><polyline points="4295 3150.5 4297 3150.5" stroke-width="6" /><circle c_padhole="1" cx="4296" cy="3150.5" r="1.4" stroke-width="0" /></g><g c_partid="part_pad" c_etype="pinpart" c_origin="4296,3158.7" layerid="11" number="3" net="0" plated ="Y" c_shapetype="group" id="gge371" locked="0" c_rotation="0" c_width="8" c_height="6" title="0" c_shape="OVAL" pasteExpansion="0" solderExpansion="0.4"><polyline points="4295 3158.7 4297 3158.7" stroke-width="6" /><circle c_padhole="1" cx="4296" cy="3158.7" r="1.4" stroke-width="0" /></g><g c_partid="part_pad" c_etype="pinpart" c_origin="4296,3167" layerid="11" number="3" net="KEY1_3" plated ="Y" c_shapetype="group" id="gge363" locked="0" c_rotation="0" c_width="8" c_height="6" title="KEY1_3" c_shape="OVAL" pasteExpansion="0" solderExpansion="0.4"><polyline points="4295 3167 4297 3167" stroke-width="6" /><circle c_padhole="1" cx="4296" cy="3167" r="1.4" stroke-width="0" /></g><g c_partid="part_pad" c_etype="pinpart" c_origin="4318,3096" layerid="11" number="16" net="+5V" plated ="Y" c_shapetype="group" id="gge116" locked="0" c_rotation="0" c_width="6.2992" c_height="6.2992" title="+5V" c_shape="ELLIPSE" pasteExpansion="0" solderExpansion="0.4"><ellipse cx="4318" cy="3096" rx="3.1496" ry="3.1496" stroke-width="0" /><circle c_padhole="1" cx="4317.9994" cy="3095.9989" r="1.9685" stroke-width="0" /></g><g c_partid="part_pad" c_etype="pinpart" c_origin="4318,3106" layerid="11" number="15" net="O1" plated ="Y" c_shapetype="group" id="gge117" locked="0" c_rotation="0" c_width="6.2992" c_height="6.2992" title="O1" c_shape="ELLIPSE" pasteExpansion="0" solderExpansion="0.4"><ellipse cx="4318" cy="3106" rx="3.1496" ry="3.1496" stroke-width="0" /><circle c_padhole="1" cx="4317.9994" cy="3105.9989" r="1.9685" stroke-width="0" /></g><g c_partid="part_pad" c_etype="pinpart" c_origin="4318,3116" layerid="11" number="14" net="C6/DATA" plated ="Y" c_shapetype="group" id="gge118" locked="0" c_rotation="0" c_width="6.2992" c_height="6.2992" title="C6/DATA" c_shape="ELLIPSE" pasteExpansion="0" solderExpansion="0.4"><ellipse cx="4318" cy="3116" rx="3.1496" ry="3.1496" stroke-width="0" /><circle c_padhole="1" cx="4317.9994" cy="3115.9989" r="1.9685" stroke-width="0" /></g><g c_partid="part_pad" c_etype="pinpart" c_origin="4318,3126" layerid="11" number="13" net="GND" plated ="Y" c_shapetype="group" id="gge119" locked="0" c_rotation="0" c_width="6.2992" c_height="6.2992" title="GND" c_shape="ELLIPSE" pasteExpansion="0" solderExpansion="0.4"><ellipse cx="4318" cy="3126" rx="3.1496" ry="3.1496" stroke-width="0" /><circle c_padhole="1" cx="4317.9994" cy="3125.9989" r="1.9685" stroke-width="0" /></g><g c_partid="part_pad" c_etype="pinpart" c_origin="4318,3136" layerid="11" number="12" net="C7/STROBE" plated ="Y" c_shapetype="group" id="gge120" locked="0" c_rotation="0" c_width="6.2992" c_height="6.2992" title="C7/STROBE" c_shape="ELLIPSE" pasteExpansion="0" solderExpansion="0.4"><ellipse cx="4318" cy="3136" rx="3.1496" ry="3.1496" stroke-width="0" /><circle c_padhole="1" cx="4317.9994" cy="3135.9989" r="1.9685" stroke-width="0" /></g><g c_partid="part_pad" c_etype="pinpart" c_origin="4318,3146" layerid="11" number="11" net="C8/CLK" plated ="Y" c_shapetype="group" id="gge121" locked="0" c_rotation="0" c_width="6.2992" c_height="6.2992" title="C8/CLK" c_shape="ELLIPSE" pasteExpansion="0" solderExpansion="0.4"><ellipse cx="4318" cy="3146" rx="3.1496" ry="3.1496" stroke-width="0" /><circle c_padhole="1" cx="4317.9994" cy="3145.9989" r="1.9685" stroke-width="0" /></g><g c_partid="part_pad" c_etype="pinpart" c_origin="4318,3156" layerid="11" number="10" net="+5V" plated ="Y" c_shapetype="group" id="gge122" locked="0" c_rotation="0" c_width="6.2992" c_height="6.2992" title="+5V" c_shape="ELLIPSE" pasteExpansion="0" solderExpansion="0.4"><ellipse cx="4318" cy="3156" rx="3.1496" ry="3.1496" stroke-width="0" /><circle c_padhole="1" cx="4317.9994" cy="3155.9989" r="1.9685" stroke-width="0" /></g><g c_partid="part_pad" c_etype="pinpart" c_origin="4318,3166" layerid="11" number="9" net="U2_9" plated ="Y" c_shapetype="group" id="gge123" locked="0" c_rotation="0" c_width="6.2992" c_height="6.2992" title="U2_9" c_shape="ELLIPSE" pasteExpansion="0" solderExpansion="0.4"><ellipse cx="4318" cy="3166" rx="3.1496" ry="3.1496" stroke-width="0" /><circle c_padhole="1" cx="4317.9994" cy="3165.9989" r="1.9685" stroke-width="0" /></g><g c_partid="part_pad" c_etype="pinpart" c_origin="4348,3166" layerid="11" number="8" net="GND" plated ="Y" c_shapetype="group" id="gge124" locked="0" c_rotation="0" c_width="6.2992" c_height="6.2992" title="GND" c_shape="ELLIPSE" pasteExpansion="0" solderExpansion="0.4"><ellipse cx="4348" cy="3166" rx="3.1496" ry="3.1496" stroke-width="0" /><circle c_padhole="1" cx="4347.9994" cy="3165.9989" r="1.9685" stroke-width="0" /></g><g c_partid="part_pad" c_etype="pinpart" c_origin="4348,3156" layerid="11" number="7" net="O8" plated ="Y" c_shapetype="group" id="gge125" locked="0" c_rotation="0" c_width="6.2992" c_height="6.2992" title="O8" c_shape="ELLIPSE" pasteExpansion="0" solderExpansion="0.4"><ellipse cx="4348" cy="3156" rx="3.1496" ry="3.1496" stroke-width="0" /><circle c_padhole="1" cx="4347.9994" cy="3155.9989" r="1.9685" stroke-width="0" /></g><g c_partid="part_pad" c_etype="pinpart" c_origin="4348,3146" layerid="11" number="6" net="O7" plated ="Y" c_shapetype="group" id="gge126" locked="0" c_rotation="0" c_width="6.2992" c_height="6.2992" title="O7" c_shape="ELLIPSE" pasteExpansion="0" solderExpansion="0.4"><ellipse cx="4348" cy="3146" rx="3.1496" ry="3.1496" stroke-width="0" /><circle c_padhole="1" cx="4347.9994" cy="3145.9989" r="1.9685" stroke-width="0" /></g><g c_partid="part_pad" c_etype="pinpart" c_origin="4348,3136" layerid="11" number="5" net="O6" plated ="Y" c_shapetype="group" id="gge127" locked="0" c_rotation="0" c_width="6.2992" c_height="6.2992" title="O6" c_shape="ELLIPSE" pasteExpansion="0" solderExpansion="0.4"><ellipse cx="4348" cy="3136" rx="3.1496" ry="3.1496" stroke-width="0" /><circle c_padhole="1" cx="4347.9994" cy="3135.9989" r="1.9685" stroke-width="0" /></g><g c_partid="part_pad" c_etype="pinpart" c_origin="4348,3126" layerid="11" number="4" net="O5" plated ="Y" c_shapetype="group" id="gge128" locked="0" c_rotation="0" c_width="6.2992" c_height="6.2992" title="O5" c_shape="ELLIPSE" pasteExpansion="0" solderExpansion="0.4"><ellipse cx="4348" cy="3126" rx="3.1496" ry="3.1496" stroke-width="0" /><circle c_padhole="1" cx="4347.9994" cy="3125.9989" r="1.9685" stroke-width="0" /></g><g c_partid="part_pad" c_etype="pinpart" c_origin="4348,3116" layerid="11" number="3" net="O4" plated ="Y" c_shapetype="group" id="gge129" locked="0" c_rotation="0" c_width="6.2992" c_height="6.2992" title="O4" c_shape="ELLIPSE" pasteExpansion="0" solderExpansion="0.4"><ellipse cx="4348" cy="3116" rx="3.1496" ry="3.1496" stroke-width="0" /><circle c_padhole="1" cx="4347.9994" cy="3115.9989" r="1.9685" stroke-width="0" /></g><g c_partid="part_pad" c_etype="pinpart" c_origin="4348,3106" layerid="11" number="2" net="O3" plated ="Y" c_shapetype="group" id="gge130" locked="0" c_rotation="0" c_width="6.2992" c_height="6.2992" title="O3" c_shape="ELLIPSE" pasteExpansion="0" solderExpansion="0.4"><ellipse cx="4348" cy="3106" rx="3.1496" ry="3.1496" stroke-width="0" /><circle c_padhole="1" cx="4347.9994" cy="3105.9989" r="1.9685" stroke-width="0" /></g><g c_partid="part_pad" c_etype="pinpart" c_origin="4348,3096" layerid="11" number="1" net="O2" plated ="Y" c_shapetype="group" id="gge131" locked="0" c_rotation="0" c_width="6.2992" c_height="6.2992" title="O2" c_shape="RECT" pasteExpansion="0" solderExpansion="0.4"><polygon points="4351.15 3092.85 4344.85 3092.85 4344.85 3099.15 4351.15 3099.15" stroke-width="0" /><circle c_padhole="1" cx="4348" cy="3096" r="1.9685" stroke-width="0" /></g><g c_partid="part_pad" c_etype="pinpart" c_origin="4331.45,3217.52" layerid="11" number="1" net="J1_1" plated ="Y" c_shapetype="group" id="gge175" locked="0" c_rotation="0" c_width="11.811" c_height="13.7795" title="J1_1" c_shape="RECT" pasteExpansion="0" solderExpansion="0.4"><polygon points="4325.54 3210.626 4337.351 3210.626 4337.351 3224.405 4325.54 3224.405" stroke-width="0" /><circle c_padhole="1" cx="4331.4454" cy="3217.5158" r="2.3622" stroke-width="0" /></g><g c_partid="part_pad" c_etype="pinpart" c_origin="4351.5,3217.5" layerid="11" number="2" net="GND" plated ="Y" c_shapetype="group" id="gge176" locked="0" c_rotation="0" c_width="11.811" c_height="13.7795" title="GND" c_shape="OVAL" pasteExpansion="0" solderExpansion="0.4"><polyline points="4351.5 3216.516 4351.5 3218.484" stroke-width="11.811" /><circle c_padhole="1" cx="4351.5004" cy="3217.4998" r="2.3622" stroke-width="0" /></g><g c_partid="part_pad" c_etype="pinpart" c_origin="4371.5,3217.5" layerid="11" number="3" net="J1_3" plated ="Y" c_shapetype="group" id="gge177" locked="0" c_rotation="0" c_width="11.811" c_height="13.7795" title="J1_3" c_shape="OVAL" pasteExpansion="0" solderExpansion="0.4"><polyline points="4371.5 3216.516 4371.5 3218.484" stroke-width="11.811" /><circle c_padhole="1" cx="4371.5004" cy="3217.4998" r="2.3622" stroke-width="0" /></g><g c_partid="part_pad" c_etype="pinpart" c_origin="4369,3086" layerid="11" number="1" net="O1" plated ="Y" c_shapetype="group" id="gge193" locked="0" c_rotation="270" c_width="6.3" c_height="6.3" title="O1" c_shape="RECT" pasteExpansion="0" solderExpansion="0.4"><polygon points="4372.15 3082.85 4372.15 3089.15 4365.85 3089.15 4365.85 3082.85" stroke-width="0" /><circle c_padhole="1" cx="4369" cy="3086" r="1.6" stroke-width="0" /></g><g c_partid="part_pad" c_etype="pinpart" c_origin="4369,3096" layerid="11" number="2" net="O2" plated ="Y" c_shapetype="group" id="gge194" locked="0" c_rotation="270" c_width="6.3" c_height="6.3" title="O2" c_shape="RECT" pasteExpansion="0" solderExpansion="0.4"><polygon points="4372.15 3092.85 4372.15 3099.15 4365.85 3099.15 4365.85 3092.85" stroke-width="0" /><circle c_padhole="1" cx="4369" cy="3096" r="1.6" stroke-width="0" /></g><g c_partid="part_pad" c_etype="pinpart" c_origin="4369,3146" layerid="11" number="7" net="O7" plated ="Y" c_shapetype="group" id="gge195" locked="0" c_rotation="270" c_width="6.3" c_height="6.3" title="O7" c_shape="RECT" pasteExpansion="0" solderExpansion="0.4"><polygon points="4372.15 3142.85 4372.15 3149.15 4365.85 3149.15 4365.85 3142.85" stroke-width="0" /><circle c_padhole="1" cx="4369" cy="3146" r="1.6" stroke-width="0" /></g><g c_partid="part_pad" c_etype="pinpart" c_origin="4369,3156" layerid="11" number="8" net="O8" plated ="Y" c_shapetype="group" id="gge196" locked="0" c_rotation="270" c_width="6.3" c_height="6.3" title="O8" c_shape="RECT" pasteExpansion="0" solderExpansion="0.4"><polygon points="4372.15 3152.85 4372.15 3159.15 4365.85 3159.15 4365.85 3152.85" stroke-width="0" /><circle c_padhole="1" cx="4369" cy="3156" r="1.6" stroke-width="0" /></g><g c_partid="part_pad" c_etype="pinpart" c_origin="4369,3106" layerid="11" number="3" net="O3" plated ="Y" c_shapetype="group" id="gge197" locked="0" c_rotation="270" c_width="6.3" c_height="6.3" title="O3" c_shape="RECT" pasteExpansion="0" solderExpansion="0.4"><polygon points="4372.15 3102.85 4372.15 3109.15 4365.85 3109.15 4365.85 3102.85" stroke-width="0" /><circle c_padhole="1" cx="4369" cy="3106" r="1.6" stroke-width="0" /></g><g c_partid="part_pad" c_etype="pinpart" c_origin="4369,3116" layerid="11" number="4" net="O4" plated ="Y" c_shapetype="group" id="gge198" locked="0" c_rotation="270" c_width="6.3" c_height="6.3" title="O4" c_shape="RECT" pasteExpansion="0" solderExpansion="0.4"><polygon points="4372.15 3112.85 4372.15 3119.15 4365.85 3119.15 4365.85 3112.85" stroke-width="0" /><circle c_padhole="1" cx="4369" cy="3116" r="1.6" stroke-width="0" /></g><g c_partid="part_pad" c_etype="pinpart" c_origin="4369,3136" layerid="11" number="6" net="O6" plated ="Y" c_shapetype="group" id="gge199" locked="0" c_rotation="270" c_width="6.3" c_height="6.3" title="O6" c_shape="RECT" pasteExpansion="0" solderExpansion="0.4"><polygon points="4372.15 3132.85 4372.15 3139.15 4365.85 3139.15 4365.85 3132.85" stroke-width="0" /><circle c_padhole="1" cx="4369" cy="3136" r="1.6" stroke-width="0" /></g><g c_partid="part_pad" c_etype="pinpart" c_origin="4369,3126" layerid="11" number="5" net="O5" plated ="Y" c_shapetype="group" id="gge200" locked="0" c_rotation="270" c_width="6.3" c_height="6.3" title="O5" c_shape="RECT" pasteExpansion="0" solderExpansion="0.4"><polygon points="4372.15 3122.85 4372.15 3129.15 4365.85 3129.15 4365.85 3122.85" stroke-width="0" /><circle c_padhole="1" cx="4369" cy="3126" r="1.6" stroke-width="0" /></g><g c_partid="part_pad" c_etype="pinpart" c_origin="4369,3166" layerid="11" number="9" net="GND" plated ="Y" c_shapetype="group" id="gge201" locked="0" c_rotation="270" c_width="6.3" c_height="6.3" title="GND" c_shape="RECT" pasteExpansion="0" solderExpansion="0.4"><polygon points="4372.15 3162.85 4372.15 3169.15 4365.85 3169.15 4365.85 3162.85" stroke-width="0" /><circle c_padhole="1" cx="4369" cy="3166" r="1.6" stroke-width="0" /></g><g c_partid="part_pad" c_etype="pinpart" c_origin="4399,3166" layerid="11" number="10" net="+12V" plated ="Y" c_shapetype="group" id="gge202" locked="0" c_rotation="270" c_width="6.3" c_height="6.3" title="+12V" c_shape="RECT" pasteExpansion="0" solderExpansion="0.4"><polygon points="4402.15 3162.85 4402.15 3169.15 4395.85 3169.15 4395.85 3162.85" stroke-width="0" /><circle c_padhole="1" cx="4399" cy="3166" r="1.6" stroke-width="0" /></g><g c_partid="part_pad" c_etype="pinpart" c_origin="4399,3156" layerid="11" number="11" net="U1_11" plated ="Y" c_shapetype="group" id="gge203" locked="0" c_rotation="270" c_width="6.3" c_height="6.3" title="U1_11" c_shape="RECT" pasteExpansion="0" solderExpansion="0.4"><polygon points="4402.15 3152.85 4402.15 3159.15 4395.85 3159.15 4395.85 3152.85" stroke-width="0" /><circle c_padhole="1" cx="4399" cy="3156" r="1.6" stroke-width="0" /></g><g c_partid="part_pad" c_etype="pinpart" c_origin="4399,3146" layerid="11" number="12" net="U1_12" plated ="Y" c_shapetype="group" id="gge204" locked="0" c_rotation="270" c_width="6.3" c_height="6.3" title="U1_12" c_shape="RECT" pasteExpansion="0" solderExpansion="0.4"><polygon points="4402.15 3142.85 4402.15 3149.15 4395.85 3149.15 4395.85 3142.85" stroke-width="0" /><circle c_padhole="1" cx="4399" cy="3146" r="1.6" stroke-width="0" /></g><g c_partid="part_pad" c_etype="pinpart" c_origin="4399,3136" layerid="11" number="13" net="U1_13" plated ="Y" c_shapetype="group" id="gge205" locked="0" c_rotation="270" c_width="6.3" c_height="6.3" title="U1_13" c_shape="RECT" pasteExpansion="0" solderExpansion="0.4"><polygon points="4402.15 3132.85 4402.15 3139.15 4395.85 3139.15 4395.85 3132.85" stroke-width="0" /><circle c_padhole="1" cx="4399" cy="3136" r="1.6" stroke-width="0" /></g><g c_partid="part_pad" c_etype="pinpart" c_origin="4399,3126" layerid="11" number="14" net="U1_14" plated ="Y" c_shapetype="group" id="gge206" locked="0" c_rotation="270" c_width="6.3" c_height="6.3" title="U1_14" c_shape="RECT" pasteExpansion="0" solderExpansion="0.4"><polygon points="4402.15 3122.85 4402.15 3129.15 4395.85 3129.15 4395.85 3122.85" stroke-width="0" /><circle c_padhole="1" cx="4399" cy="3126" r="1.6" stroke-width="0" /></g><g c_partid="part_pad" c_etype="pinpart" c_origin="4399,3116" layerid="11" number="15" net="U1_15" plated ="Y" c_shapetype="group" id="gge207" locked="0" c_rotation="270" c_width="6.3" c_height="6.3" title="U1_15" c_shape="RECT" pasteExpansion="0" solderExpansion="0.4"><polygon points="4402.15 3112.85 4402.15 3119.15 4395.85 3119.15 4395.85 3112.85" stroke-width="0" /><circle c_padhole="1" cx="4399" cy="3116" r="1.6" stroke-width="0" /></g><g c_partid="part_pad" c_etype="pinpart" c_origin="4399,3106" layerid="11" number="16" net="U1_16" plated ="Y" c_shapetype="group" id="gge208" locked="0" c_rotation="270" c_width="6.3" c_height="6.3" title="U1_16" c_shape="RECT" pasteExpansion="0" solderExpansion="0.4"><polygon points="4402.15 3102.85 4402.15 3109.15 4395.85 3109.15 4395.85 3102.85" stroke-width="0" /><circle c_padhole="1" cx="4399" cy="3106" r="1.6" stroke-width="0" /></g><g c_partid="part_pad" c_etype="pinpart" c_origin="4399,3096" layerid="11" number="17" net="U1_17" plated ="Y" c_shapetype="group" id="gge209" locked="0" c_rotation="270" c_width="6.3" c_height="6.3" title="U1_17" c_shape="RECT" pasteExpansion="0" solderExpansion="0.4"><polygon points="4402.15 3092.85 4402.15 3099.15 4395.85 3099.15 4395.85 3092.85" stroke-width="0" /><circle c_padhole="1" cx="4399" cy="3096" r="1.6" stroke-width="0" /></g><g c_partid="part_pad" c_etype="pinpart" c_origin="4399,3086" layerid="11" number="18" net="U1_18" plated ="Y" c_shapetype="group" id="gge210" locked="0" c_rotation="270" c_width="6.3" c_height="6.3" title="U1_18" c_shape="RECT" pasteExpansion="0" solderExpansion="0.4"><polygon points="4402.15 3082.85 4402.15 3089.15 4395.85 3089.15 4395.85 3082.85" stroke-width="0" /><circle c_padhole="1" cx="4399" cy="3086" r="1.6" stroke-width="0" /></g><g c_partid="part_pad" c_etype="pinpart" c_origin="4239,3162" layerid="11" number="1" net="C2/BTN2/RIGHT" plated ="Y" c_shapetype="group" id="gge234" locked="0" c_rotation="270" c_width="14.5669" c_height="14.5669" title="C2/BTN2/RIGHT" c_shape="RECT" pasteExpansion="0" solderExpansion="0.4"><polygon points="4246.28 3154.72 4246.28 3169.28 4231.72 3169.28 4231.72 3154.72" stroke-width="0" /><circle c_padhole="1" cx="4239" cy="3162" r="2.5591" stroke-width="0" /></g><g c_partid="part_pad" c_etype="pinpart" c_origin="4239,3182" layerid="11" number="2" net="+5V" plated ="Y" c_shapetype="group" id="gge235" locked="0" c_rotation="270" c_width="14.5669" c_height="14.5669" title="+5V" c_shape="ELLIPSE" pasteExpansion="0" solderExpansion="0.4"><ellipse cx="4239" cy="3182" rx="7.28345" ry="7.28345" stroke-width="0" /><circle c_padhole="1" cx="4239" cy="3182" r="2.5591" stroke-width="0" /></g><g c_partid="part_pad" c_etype="pinpart" c_origin="4239,3205" layerid="11" number="1" net="C1/BTN1/LEFT" plated ="Y" c_shapetype="group" id="gge243" locked="0" c_rotation="270" c_width="14.5669" c_height="14.5669" title="C1/BTN1/LEFT" c_shape="RECT" pasteExpansion="0" solderExpansion="0.4"><polygon points="4246.28 3197.72 4246.28 3212.28 4231.72 3212.28 4231.72 3197.72" stroke-width="0" /><circle c_padhole="1" cx="4239" cy="3205" r="2.5591" stroke-width="0" /></g><g c_partid="part_pad" c_etype="pinpart" c_origin="4239,3225" layerid="11" number="2" net="+5V" plated ="Y" c_shapetype="group" id="gge244" locked="0" c_rotation="270" c_width="14.5669" c_height="14.5669" title="+5V" c_shape="ELLIPSE" pasteExpansion="0" solderExpansion="0.4"><ellipse cx="4239" cy="3225" rx="7.28345" ry="7.28345" stroke-width="0" /><circle c_padhole="1" cx="4239" cy="3225" r="2.5591" stroke-width="0" /></g><g c_partid="part_pad" c_etype="pinpart" c_origin="4466.3,3057.07" layerid="11" number="1" net="RFGREEN" plated ="Y" c_shapetype="group" id="gge257" locked="0" c_rotation="0" c_width="15.748" c_height="11.811" title="RFGREEN" c_shape="RECT" pasteExpansion="0" solderExpansion="0.4"><polygon points="4458.425 3051.165 4474.173 3051.165 4474.173 3062.976 4458.425 3062.976" stroke-width="0" /><circle c_padhole="1" cx="4466.299" cy="3057.0709" r="2.5591" stroke-width="0" /></g><g c_partid="part_pad" c_etype="pinpart" c_origin="4466.3,3076.76" layerid="11" number="2" net="RFYELLOW" plated ="Y" c_shapetype="group" id="gge258" locked="0" c_rotation="0" c_width="11.811" c_height="11.811" title="RFYELLOW" c_shape="RECT" pasteExpansion="0" solderExpansion="0.4"><polygon points="4460.394 3070.85 4472.205 3070.85 4472.205 3082.661 4460.394 3082.661" stroke-width="0" /><circle c_padhole="1" cx="4466.299" cy="3076.7559" r="2.5591" stroke-width="0" /></g><g c_partid="part_pad" c_etype="pinpart" c_origin="4466.3,3096.44" layerid="11" number="3" net="RFRED" plated ="Y" c_shapetype="group" id="gge259" locked="0" c_rotation="0" c_width="11.811" c_height="11.811" title="RFRED" c_shape="RECT" pasteExpansion="0" solderExpansion="0.4"><polygon points="4460.394 3090.536 4472.205 3090.536 4472.205 3102.347 4460.394 3102.347" stroke-width="0" /><circle c_padhole="1" cx="4466.299" cy="3096.441" r="2.5591" stroke-width="0" /></g><g c_partid="part_pad" c_etype="pinpart" c_origin="4466.3,3116.13" layerid="11" number="4" net="VGREEN" plated ="Y" c_shapetype="group" id="gge260" locked="0" c_rotation="0" c_width="11.811" c_height="11.811" title="VGREEN" c_shape="RECT" pasteExpansion="0" solderExpansion="0.4"><polygon points="4460.394 3110.221 4472.205 3110.221 4472.205 3122.032 4460.394 3122.032" stroke-width="0" /><circle c_padhole="1" cx="4466.299" cy="3116.126" r="2.5591" stroke-width="0" /></g><g c_partid="part_pad" c_etype="pinpart" c_origin="4466.3,3135.81" layerid="11" number="5" net="VYELLOW" plated ="Y" c_shapetype="group" id="gge261" locked="0" c_rotation="0" c_width="11.811" c_height="11.811" title="VYELLOW" c_shape="RECT" pasteExpansion="0" solderExpansion="0.4"><polygon points="4460.394 3129.906 4472.205 3129.906 4472.205 3141.717 4460.394 3141.717" stroke-width="0" /><circle c_padhole="1" cx="4466.299" cy="3135.811" r="2.5591" stroke-width="0" /></g><g c_partid="part_pad" c_etype="pinpart" c_origin="4466.3,3155.5" layerid="11" number="6" net="VRED" plated ="Y" c_shapetype="group" id="gge262" locked="0" c_rotation="0" c_width="11.811" c_height="11.811" title="VRED" c_shape="RECT" pasteExpansion="0" solderExpansion="0.4"><polygon points="4460.394 3149.591 4472.205 3149.591 4472.205 3161.402 4460.394 3161.402" stroke-width="0" /><circle c_padhole="1" cx="4466.299" cy="3155.4961" r="2.5591" stroke-width="0" /></g><g c_partid="part_pad" c_etype="pinpart" c_origin="4466.3,3175.18" layerid="11" number="7" net="FHGREEN" plated ="Y" c_shapetype="group" id="gge263" locked="0" c_rotation="0" c_width="11.811" c_height="11.811" title="FHGREEN" c_shape="RECT" pasteExpansion="0" solderExpansion="0.4"><polygon points="4460.394 3169.276 4472.205 3169.276 4472.205 3181.087 4460.394 3181.087" stroke-width="0" /><circle c_padhole="1" cx="4466.299" cy="3175.1811" r="2.5591" stroke-width="0" /></g><g c_partid="part_pad" c_etype="pinpart" c_origin="4466.3,3194.87" layerid="11" number="8" net="FHRED" plated ="Y" c_shapetype="group" id="gge264" locked="0" c_rotation="0" c_width="11.811" c_height="11.811" title="FHRED" c_shape="RECT" pasteExpansion="0" solderExpansion="0.4"><polygon points="4460.394 3188.961 4472.205 3188.961 4472.205 3200.772 4460.394 3200.772" stroke-width="0" /><circle c_padhole="1" cx="4466.299" cy="3194.8662" r="2.5591" stroke-width="0" /></g><g c_partid="part_hole" c_etype="pinpart" c_shapetype="group" c_origin="4465,3225" layerid="11" id="gge1253" ><circle cx="4465" cy="3225" r="6.1"   stroke-width="0" /></g><g c_partid="part_hole" c_etype="pinpart" c_shapetype="group" c_origin="4310,3060" layerid="11" id="gge1257" ><circle cx="4310" cy="3060" r="6.1"   stroke-width="0" /></g><g c_partid="part_hole" c_etype="pinpart" c_shapetype="group" c_origin="4281,3225.5" layerid="11" id="gge1261" ><circle cx="4281" cy="3225.5" r="6.1"   stroke-width="0" /></g><g c_partid="part_hole" c_etype="pinpart" c_shapetype="group" c_origin="4400,3060" layerid="11" id="gge1265" ><circle cx="4400" cy="3060" r="6.1"   stroke-width="0" /></g><polyline points="4247.5 3130.6 4258.8 3130.6 4258.8 3117.5 4247.5 3117.5 4247.5 3117.5" stroke-width="1.06299" c_shapetype="line" stroke-linecap="round" fill="none" layerid="3" net="" id="gge165" /><polyline points="4243.9 3117.5 4244 3117.5 4232.9 3117.5 4232.9 3130.6 4244.2 3130.6" stroke-width="1.06299" c_shapetype="line" stroke-linecap="round" fill="none" layerid="3" net="" id="gge166" /><polyline points="4380.658 3232.279 4319.634 3232.279" stroke-width="1" c_shapetype="line" stroke-linecap="round" fill="none" layerid="3" net="S$71" id="gge170" /><polyline points="4380.657 3202.358 4380.657 3234.642 4319.633 3234.642 4319.633 3202.358 4380.657 3202.358" stroke-width="1" c_shapetype="line" stroke-linecap="round" fill="none" layerid="3" net="" id="gge171" /><polyline points="4404 3171 4404 3081" stroke-width="1" c_shapetype="line" stroke-linecap="round" fill="none" layerid="3" net="" id="gge181" /><polyline points="4364 3081 4364 3171" stroke-width="1" c_shapetype="line" stroke-linecap="round" fill="none" layerid="3" net="" id="gge182" /><polyline points="4404 3171 4394 3171" stroke-width="1" c_shapetype="line" stroke-linecap="round" fill="none" layerid="3" net="" id="gge183" /><polyline points="4404 3081 4394 3081" stroke-width="1" c_shapetype="line" stroke-linecap="round" fill="none" layerid="3" net="" id="gge184" /><polyline points="4364 3081 4374 3081" stroke-width="1" c_shapetype="line" stroke-linecap="round" fill="none" layerid="3" net="" id="gge185" /><polyline points="4394 3081 4394 3171" stroke-width="1" c_shapetype="line" stroke-linecap="round" fill="none" layerid="3" net="" id="gge186" /><polyline points="4394 3081 4388 3081" stroke-width="1" c_shapetype="line" stroke-linecap="round" fill="none" layerid="3" net="" id="gge187" /><polyline points="4394 3171 4374 3171" stroke-width="1" c_shapetype="line" stroke-linecap="round" fill="none" layerid="3" net="" id="gge188" /><polyline points="4374 3081 4374 3171" stroke-width="1" c_shapetype="line" stroke-linecap="round" fill="none" layerid="3" net="" id="gge189" /><polyline points="4374 3081 4380 3081" stroke-width="1" c_shapetype="line" stroke-linecap="round" fill="none" layerid="3" net="" id="gge190" /><polyline points="4374 3171 4364 3171" stroke-width="1" c_shapetype="line" stroke-linecap="round" fill="none" layerid="3" net="" id="gge191" /><polyline points="4226.189 3152.496 4226.197 3191.108" stroke-width="1" c_shapetype="line" stroke-linecap="round" fill="none" layerid="3" net="S$22" id="gge230" /><polyline points="4223.433 3152.102 4255.717 3152.102 4255.717 3191.078 4223.433 3191.078 4223.433 3152.102" stroke-width="1" c_shapetype="line" stroke-linecap="round" fill="none" layerid="3" net="" id="gge231" /><polyline points="4226.189 3195.496 4226.197 3234.108" stroke-width="1" c_shapetype="line" stroke-linecap="round" fill="none" layerid="3" net="S$22" id="gge239" /><polyline points="4223.433 3195.102 4255.717 3195.102 4255.717 3234.078 4223.433 3234.078 4223.433 3195.102" stroke-width="1" c_shapetype="line" stroke-linecap="round" fill="none" layerid="3" net="" id="gge240" /><polyline points="4452.52 3047.228 4485.591 3047.228 4485.591 3204.708 4452.52 3204.708 4452.52 3047.228" stroke-width="1" c_shapetype="line" stroke-linecap="round" fill="none" layerid="3" net="" id="gge248" /><polyline points="4482.834 3071.244 4485.196 3071.244 4485.196 3082.268 4482.834 3082.268 4482.834 3071.244" stroke-width="1" c_shapetype="line" stroke-linecap="round" fill="none" layerid="3" net="" id="gge249" /><polyline points="4482.834 3051.559 4485.196 3051.559 4485.196 3062.583 4482.834 3062.583 4482.834 3051.559" stroke-width="1" c_shapetype="line" stroke-linecap="round" fill="none" layerid="3" net="" id="gge250" /><polyline points="4482.834 3090.929 4485.196 3090.929 4485.196 3101.953 4482.834 3101.953 4482.834 3090.929" stroke-width="1" c_shapetype="line" stroke-linecap="round" fill="none" layerid="3" net="" id="gge251" /><polyline points="4482.834 3110.614 4485.196 3110.614 4485.196 3121.638 4482.834 3121.638 4482.834 3110.614" stroke-width="1" c_shapetype="line" stroke-linecap="round" fill="none" layerid="3" net="" id="gge252" /><polyline points="4482.834 3130.299 4485.196 3130.299 4485.196 3141.323 4482.834 3141.323 4482.834 3130.299" stroke-width="1" c_shapetype="line" stroke-linecap="round" fill="none" layerid="3" net="" id="gge253" /><polyline points="4482.834 3149.984 4485.196 3149.984 4485.196 3161.008 4482.834 3161.008 4482.834 3149.984" stroke-width="1" c_shapetype="line" stroke-linecap="round" fill="none" layerid="3" net="" id="gge254" /><polyline points="4482.834 3169.669 4485.196 3169.669 4485.196 3180.693 4482.834 3180.693 4482.834 3169.669" stroke-width="1" c_shapetype="line" stroke-linecap="round" fill="none" layerid="3" net="" id="gge255" /><polyline points="4482.834 3189.354 4485.196 3189.354 4485.196 3200.378 4482.834 3200.378 4482.834 3189.354" stroke-width="1" c_shapetype="line" stroke-linecap="round" fill="none" layerid="3" net="" id="gge256" /><polyline points="4222.674 3045.687 4291.334 3045.687 4291.334 3111.237 4277.434 3111.237 4277.434 3096.277 4236.564 3096.277 4236.564 3111.237 4222.674 3111.237 4222.674 3045.687" stroke-width="0.4724" c_shapetype="line" stroke-linecap="round" fill="none" layerid="3" net="" id="gge1008" /><g c_partid="part_pcbtext" c_origin="4249,3138.65" c_rotation="0" c_mirror="" id="gge163" layerid="3" c_shapetype="group" display="none"><path c_fontSize="4.5" c_fontFamily="" c_text="C1" d="M 4252.0702 3133.52 L 4251.8602 3133.11 L 4251.4502 3132.7 L 4251.0502 3132.5 L 4250.2302 3132.5 L 4249.8202 3132.7 L 4249.4102 3133.11 L 4249.2002 3133.52 L 4249.0002 3134.13 L 4249.0002 3135.15 L 4249.2002 3135.77 L 4249.4102 3136.18 L 4249.8202 3136.59 L 4250.2302 3136.79 L 4251.0502 3136.79 L 4251.4502 3136.59 L 4251.8602 3136.18 L 4252.0702 3135.77 M 4253.4202 3133.31 L 4253.8302 3133.11 L 4254.4402 3132.5 L 4254.4402 3136.79" fill="none"  stroke-width="0.6" c_note="note_pre" /></g><g c_partid="part_pcbtext" c_origin="4246.8,3135.24" c_rotation="180" c_mirror="" id="gge164" layerid="3" c_shapetype="group" display="none"><path c_fontSize="4.5" c_fontFamily="" c_text="100nF" d="M 4246.8 3140.58 L 4246.39 3140.78 L 4245.78 3141.39 L 4245.78 3137.1 M 4243.2 3141.39 L 4243.81 3141.19 L 4244.22 3140.58 L 4244.43 3139.55 L 4244.43 3138.94 L 4244.22 3137.92 L 4243.81 3137.3 L 4243.2 3137.1 L 4242.79 3137.1 L 4242.18 3137.3 L 4241.77 3137.92 L 4241.56 3138.94 L 4241.56 3139.55 L 4241.77 3140.58 L 4242.18 3141.19 L 4242.79 3141.39 L 4243.2 3141.39 M 4238.99 3141.39 L 4239.6 3141.19 L 4240.01 3140.58 L 4240.21 3139.55 L 4240.21 3138.94 L 4240.01 3137.92 L 4239.6 3137.3 L 4238.99 3137.1 L 4238.58 3137.1 L 4237.96 3137.3 L 4237.55 3137.92 L 4237.35 3138.94 L 4237.35 3139.55 L 4237.55 3140.58 L 4237.96 3141.19 L 4238.58 3141.39 L 4238.99 3141.39 M 4236 3139.96 L 4236 3137.1 M 4236 3139.14 L 4235.39 3139.76 L 4234.98 3139.96 L 4234.36 3139.96 L 4233.95 3139.76 L 4233.75 3139.14 L 4233.75 3137.1 M 4232.4 3141.39 L 4232.4 3137.1 M 4232.4 3141.39 L 4229.74 3141.39 M 4232.4 3139.35 L 4230.76 3139.35" fill="none"  stroke-width="0.6"  /></g><g c_partid="part_pcbtext" c_origin="4339,3200.65" c_rotation="0" c_mirror="" id="gge168" layerid="3" c_shapetype="group" display="none"><path c_fontSize="4.5" c_fontFamily="" c_text="J1" d="M 4341.0498 3194.5 L 4341.0498 3197.77 L 4340.8398 3198.38 L 4340.6398 3198.59 L 4340.2298 3198.79 L 4339.8198 3198.79 L 4339.4098 3198.59 L 4339.1998 3198.38 L 4338.9998 3197.77 L 4338.9998 3197.36 M 4342.3998 3195.32 L 4342.7998 3195.11 L 4343.4198 3194.5 L 4343.4198 3198.79" fill="none"  stroke-width="0.6" c_note="note_pre" /></g><g c_partid="part_pcbtext" c_origin="4385.3,3218.5" c_rotation="270" c_mirror="" id="gge169" layerid="3" c_shapetype="group" display="none"><path c_fontSize="4.5" c_fontFamily="" c_text="KF127_3P_5.08" d="M 4391.4504 3218.4998 L 4387.1604 3218.4998 M 4391.4504 3221.3598 L 4388.5904 3218.4998 M 4389.6104 3219.5198 L 4387.1604 3221.3598 M 4391.4504 3222.7098 L 4387.1604 3222.7098 M 4391.4504 3222.7098 L 4391.4504 3225.3698 M 4389.4104 3222.7098 L 4389.4104 3224.3498 M 4390.6304 3226.7198 L 4390.8404 3227.1298 L 4391.4504 3227.7498 L 4387.1604 3227.7498 M 4390.4304 3229.2998 L 4390.6304 3229.2998 L 4391.0404 3229.4998 L 4391.2504 3229.7098 L 4391.4504 3230.1198 L 4391.4504 3230.9398 L 4391.2504 3231.3498 L 4391.0404 3231.5498 L 4390.6304 3231.7498 L 4390.2204 3231.7498 L 4389.8204 3231.5498 L 4389.2004 3231.1398 L 4387.1604 3229.0998 L 4387.1604 3231.9598 M 4391.4504 3236.1698 L 4387.1604 3234.1298 M 4391.4504 3233.3098 L 4391.4504 3236.1698 M 4385.7204 3237.5198 L 4385.7204 3241.1998 M 4391.4504 3242.9598 L 4391.4504 3245.2098 L 4389.8204 3243.9898 L 4389.8204 3244.5998 L 4389.6104 3245.0098 L 4389.4104 3245.2098 L 4388.7904 3245.4198 L 4388.3804 3245.4198 L 4387.7704 3245.2098 L 4387.3604 3244.7998 L 4387.1604 3244.1898 L 4387.1604 3243.5798 L 4387.3604 3242.9598 L 4387.5704 3242.7598 L 4387.9704 3242.5498 M 4391.4504 3246.7698 L 4387.1604 3246.7698 M 4391.4504 3246.7698 L 4391.4504 3248.6098 L 4391.2504 3249.2198 L 4391.0404 3249.4298 L 4390.6304 3249.6298 L 4390.0204 3249.6298 L 4389.6104 3249.4298 L 4389.4104 3249.2198 L 4389.2004 3248.6098 L 4389.2004 3246.7698 M 4385.7204 3250.9798 L 4385.7204 3254.6598 M 4391.4504 3258.4698 L 4391.4504 3256.4198 L 4389.6104 3256.2198 L 4389.8204 3256.4198 L 4390.0204 3257.0398 L 4390.0204 3257.6498 L 4389.8204 3258.2598 L 4389.4104 3258.6698 L 4388.7904 3258.8798 L 4388.3804 3258.8798 L 4387.7704 3258.6698 L 4387.3604 3258.2598 L 4387.1604 3257.6498 L 4387.1604 3257.0398 L 4387.3604 3256.4198 L 4387.5704 3256.2198 L 4387.9704 3256.0098 M 4388.1804 3260.4298 L 4387.9704 3260.2298 L 4387.7704 3260.4298 L 4387.9704 3260.6398 L 4388.1804 3260.4298 M 4391.4504 3263.2098 L 4391.2504 3262.5998 L 4390.6304 3262.1898 L 4389.6104 3261.9898 L 4389.0004 3261.9898 L 4387.9704 3262.1898 L 4387.3604 3262.5998 L 4387.1604 3263.2098 L 4387.1604 3263.6198 L 4387.3604 3264.2398 L 4387.9704 3264.6498 L 4389.0004 3264.8498 L 4389.6104 3264.8498 L 4390.6304 3264.6498 L 4391.2504 3264.2398 L 4391.4504 3263.6198 L 4391.4504 3263.2098 M 4391.4504 3267.2198 L 4391.2504 3266.6098 L 4390.8404 3266.3998 L 4390.4304 3266.3998 L 4390.0204 3266.6098 L 4389.8204 3267.0198 L 4389.6104 3267.8398 L 4389.4104 3268.4498 L 4389.0004 3268.8598 L 4388.5904 3269.0598 L 4387.9704 3269.0598 L 4387.5704 3268.8598 L 4387.3604 3268.6498 L 4387.1604 3268.0398 L 4387.1604 3267.2198 L 4387.3604 3266.6098 L 4387.5704 3266.3998 L 4387.9704 3266.1998 L 4388.5904 3266.1998 L 4389.0004 3266.3998 L 4389.4104 3266.8098 L 4389.6104 3267.4298 L 4389.8204 3268.2498 L 4390.0204 3268.6498 L 4390.4304 3268.8598 L 4390.8404 3268.8598 L 4391.2504 3268.6498 L 4391.4504 3268.0398 L 4391.4504 3267.2198" fill="none"  stroke-width="0.6"  /></g><g c_partid="part_pcbtext" c_origin="4331.05,3206.69" c_rotation="0" c_mirror="" id="gge172" layerid="3" c_shapetype="group" ><path c_fontSize="3.937" c_fontFamily="" c_text="1" d="M 4331.0525 3205.2567 L 4331.4125 3205.0767 L 4331.9425 3204.5367 L 4331.9425 3208.2967" fill="none"  stroke-width="0.8"  /></g><g c_partid="part_pcbtext" c_origin="4351.13,3206.69" c_rotation="0" c_mirror="" id="gge173" layerid="3" c_shapetype="group" ><path c_fontSize="3.937" c_fontFamily="" c_text="2" d="M 4351.3113 3205.4357 L 4351.3113 3205.2557 L 4351.4913 3204.8957 L 4351.6713 3204.7157 L 4352.0213 3204.5457 L 4352.7413 3204.5457 L 4353.1013 3204.7157 L 4353.2813 3204.8957 L 4353.4613 3205.2557 L 4353.4613 3205.6157 L 4353.2813 3205.9757 L 4352.9213 3206.5057 L 4351.1313 3208.2957 L 4353.6313 3208.2957" fill="none"  stroke-width="0.8"  /></g><g c_partid="part_pcbtext" c_origin="4370,3207" c_rotation="0" c_mirror="" id="gge174" layerid="3" c_shapetype="group" ><path c_fontSize="3.937" c_fontFamily="" c_text="3" d="M 4370.361 3204.8521 L 4372.331 3204.8521 L 4371.251 3206.2821 L 4371.791 3206.2821 L 4372.151 3206.4621 L 4372.331 3206.6421 L 4372.501 3207.1821 L 4372.501 3207.5321 L 4372.331 3208.0721 L 4371.971 3208.4321 L 4371.431 3208.6121 L 4370.891 3208.6121 L 4370.361 3208.4321 L 4370.181 3208.2521 L 4370.001 3207.8921" fill="none"  stroke-width="0.8"  /></g><g c_partid="part_pcbtext" c_origin="4381,3080.15" c_rotation="0" c_mirror="" id="gge179" layerid="3" c_shapetype="group" display="none"><path c_fontSize="4.5" c_fontFamily="" c_text="U1" d="M 4381 3073.9999 L 4381 3077.0599 L 4381.2 3077.6799 L 4381.61 3078.0899 L 4382.23 3078.2899 L 4382.64 3078.2899 L 4383.25 3078.0899 L 4383.66 3077.6799 L 4383.86 3077.0599 L 4383.86 3073.9999 M 4385.21 3074.8099 L 4385.62 3074.6099 L 4386.24 3073.9999 L 4386.24 3078.2899" fill="none"  stroke-width="0.6" c_note="note_pre" /></g><g c_partid="part_pcbtext" c_origin="4408.64,3126" c_rotation="270" c_mirror="" id="gge180" layerid="3" c_shapetype="group" display="none"><path c_fontSize="4.5" c_fontFamily="" c_text="TBD62083APG" d="M 4414.79 3127.43 L 4410.5 3127.43 M 4414.79 3126 L 4414.79 3128.86 M 4414.79 3130.21 L 4410.5 3130.21 M 4414.79 3130.21 L 4414.79 3132.05 L 4414.59 3132.67 L 4414.39 3132.87 L 4413.98 3133.08 L 4413.57 3133.08 L 4413.16 3132.87 L 4412.95 3132.67 L 4412.75 3132.05 M 4412.75 3130.21 L 4412.75 3132.05 L 4412.54 3132.67 L 4412.34 3132.87 L 4411.93 3133.08 L 4411.32 3133.08 L 4410.91 3132.87 L 4410.7 3132.67 L 4410.5 3132.05 L 4410.5 3130.21 M 4414.79 3134.43 L 4410.5 3134.43 M 4414.79 3134.43 L 4414.79 3135.86 L 4414.59 3136.47 L 4414.18 3136.88 L 4413.77 3137.09 L 4413.16 3137.29 L 4412.14 3137.29 L 4411.52 3137.09 L 4411.11 3136.88 L 4410.7 3136.47 L 4410.5 3135.86 L 4410.5 3134.43 M 4414.18 3141.1 L 4414.59 3140.89 L 4414.79 3140.28 L 4414.79 3139.87 L 4414.59 3139.25 L 4413.98 3138.85 L 4412.95 3138.64 L 4411.93 3138.64 L 4411.11 3138.85 L 4410.7 3139.25 L 4410.5 3139.87 L 4410.5 3140.07 L 4410.7 3140.69 L 4411.11 3141.1 L 4411.73 3141.3 L 4411.93 3141.3 L 4412.54 3141.1 L 4412.95 3140.69 L 4413.16 3140.07 L 4413.16 3139.87 L 4412.95 3139.25 L 4412.54 3138.85 L 4411.93 3138.64 M 4413.77 3142.85 L 4413.98 3142.85 L 4414.39 3143.06 L 4414.59 3143.26 L 4414.79 3143.67 L 4414.79 3144.49 L 4414.59 3144.9 L 4414.39 3145.1 L 4413.98 3145.31 L 4413.57 3145.31 L 4413.16 3145.1 L 4412.54 3144.7 L 4410.5 3142.65 L 4410.5 3145.51 M 4414.79 3148.09 L 4414.59 3147.48 L 4413.98 3147.07 L 4412.95 3146.86 L 4412.34 3146.86 L 4411.32 3147.07 L 4410.7 3147.48 L 4410.5 3148.09 L 4410.5 3148.5 L 4410.7 3149.11 L 4411.32 3149.52 L 4412.34 3149.73 L 4412.95 3149.73 L 4413.98 3149.52 L 4414.59 3149.11 L 4414.79 3148.5 L 4414.79 3148.09 M 4414.79 3152.1 L 4414.59 3151.49 L 4414.18 3151.28 L 4413.77 3151.28 L 4413.36 3151.49 L 4413.16 3151.9 L 4412.95 3152.71 L 4412.75 3153.33 L 4412.34 3153.74 L 4411.93 3153.94 L 4411.32 3153.94 L 4410.91 3153.74 L 4410.7 3153.53 L 4410.5 3152.92 L 4410.5 3152.1 L 4410.7 3151.49 L 4410.91 3151.28 L 4411.32 3151.08 L 4411.93 3151.08 L 4412.34 3151.28 L 4412.75 3151.69 L 4412.95 3152.3 L 4413.16 3153.12 L 4413.36 3153.53 L 4413.77 3153.74 L 4414.18 3153.74 L 4414.59 3153.53 L 4414.79 3152.92 L 4414.79 3152.1 M 4414.79 3155.7 L 4414.79 3157.95 L 4413.16 3156.72 L 4413.16 3157.34 L 4412.95 3157.75 L 4412.75 3157.95 L 4412.14 3158.15 L 4411.73 3158.15 L 4411.11 3157.95 L 4410.7 3157.54 L 4410.5 3156.93 L 4410.5 3156.31 L 4410.7 3155.7 L 4410.91 3155.5 L 4411.32 3155.29 M 4414.79 3161.14 L 4410.5 3159.5 M 4414.79 3161.14 L 4410.5 3162.78 M 4411.93 3160.12 L 4411.93 3162.16 M 4414.79 3164.13 L 4410.5 3164.13 M 4414.79 3164.13 L 4414.79 3165.97 L 4414.59 3166.58 L 4414.39 3166.79 L 4413.98 3166.99 L 4413.36 3166.99 L 4412.95 3166.79 L 4412.75 3166.58 L 4412.54 3165.97 L 4412.54 3164.13 M 4413.77 3171.41 L 4414.18 3171.2 L 4414.59 3170.8 L 4414.79 3170.39 L 4414.79 3169.57 L 4414.59 3169.16 L 4414.18 3168.75 L 4413.77 3168.55 L 4413.16 3168.34 L 4412.14 3168.34 L 4411.52 3168.55 L 4411.11 3168.75 L 4410.7 3169.16 L 4410.5 3169.57 L 4410.5 3170.39 L 4410.7 3170.8 L 4411.11 3171.2 L 4411.52 3171.41 L 4412.14 3171.41 M 4412.14 3170.39 L 4412.14 3171.41" fill="none"  stroke-width="0.6"  /></g><g c_partid="part_pcbtext" c_origin="4265.15,3176.26" c_rotation="90" c_mirror="" id="gge228" layerid="3" c_shapetype="group" display="none"><path c_fontSize="4.5" c_fontFamily="" c_text="J3" d="M 4258.9999 3174.21 L 4262.2699 3174.21 L 4262.8799 3174.42 L 4263.0899 3174.62 L 4263.2899 3175.03 L 4263.2899 3175.44 L 4263.0899 3175.85 L 4262.8799 3176.06 L 4262.2699 3176.26 L 4261.8599 3176.26 M 4258.9999 3172.46 L 4258.9999 3170.21 L 4260.6299 3171.43 L 4260.6299 3170.82 L 4260.8399 3170.41 L 4261.0399 3170.21 L 4261.6599 3170 L 4262.0699 3170 L 4262.6799 3170.21 L 4263.0899 3170.61 L 4263.2899 3171.23 L 4263.2899 3171.84 L 4263.0899 3172.46 L 4262.8799 3172.66 L 4262.4699 3172.86" fill="none"  stroke-width="0.6" c_note="note_pre" /></g><g c_partid="part_pcbtext" c_origin="4239,3147.46" c_rotation="0" c_mirror="" id="gge229" layerid="3" c_shapetype="group" display="none"><path c_fontSize="4.5" c_fontFamily="" c_text="Fotgjengerovergangknapp 2" d="M 4239 3141.31 L 4239 3145.6 M 4239 3141.31 L 4241.66 3141.31 M 4239 3143.35 L 4240.64 3143.35 M 4244.03 3142.74 L 4243.62 3142.94 L 4243.21 3143.35 L 4243.01 3143.97 L 4243.01 3144.38 L 4243.21 3144.99 L 4243.62 3145.4 L 4244.03 3145.6 L 4244.65 3145.6 L 4245.05 3145.4 L 4245.46 3144.99 L 4245.67 3144.38 L 4245.67 3143.97 L 4245.46 3143.35 L 4245.05 3142.94 L 4244.65 3142.74 L 4244.03 3142.74 M 4247.63 3141.31 L 4247.63 3144.78 L 4247.84 3145.4 L 4248.25 3145.6 L 4248.65 3145.6 M 4247.02 3142.74 L 4248.45 3142.74 M 4252.46 3142.74 L 4252.46 3146.01 L 4252.25 3146.63 L 4252.05 3146.83 L 4251.64 3147.03 L 4251.03 3147.03 L 4250.62 3146.83 M 4252.46 3143.35 L 4252.05 3142.94 L 4251.64 3142.74 L 4251.03 3142.74 L 4250.62 3142.94 L 4250.21 3143.35 L 4250 3143.97 L 4250 3144.38 L 4250.21 3144.99 L 4250.62 3145.4 L 4251.03 3145.6 L 4251.64 3145.6 L 4252.05 3145.4 L 4252.46 3144.99 M 4254.63 3141.31 L 4254.83 3141.51 L 4255.04 3141.31 L 4254.83 3141.1 L 4254.63 3141.31 M 4254.83 3142.74 L 4254.83 3146.22 L 4254.63 3146.83 L 4254.22 3147.03 L 4253.81 3147.03 M 4256.39 3143.97 L 4258.84 3143.97 L 4258.84 3143.56 L 4258.64 3143.15 L 4258.43 3142.94 L 4258.02 3142.74 L 4257.41 3142.74 L 4257 3142.94 L 4256.59 3143.35 L 4256.39 3143.97 L 4256.39 3144.38 L 4256.59 3144.99 L 4257 3145.4 L 4257.41 3145.6 L 4258.02 3145.6 L 4258.43 3145.4 L 4258.84 3144.99 M 4260.19 3142.74 L 4260.19 3145.6 M 4260.19 3143.56 L 4260.8 3142.94 L 4261.21 3142.74 L 4261.83 3142.74 L 4262.24 3142.94 L 4262.44 3143.56 L 4262.44 3145.6 M 4266.25 3142.74 L 4266.25 3146.01 L 4266.04 3146.63 L 4265.84 3146.83 L 4265.43 3147.03 L 4264.81 3147.03 L 4264.4 3146.83 M 4266.25 3143.35 L 4265.84 3142.94 L 4265.43 3142.74 L 4264.81 3142.74 L 4264.4 3142.94 L 4264 3143.35 L 4263.79 3143.97 L 4263.79 3144.38 L 4264 3144.99 L 4264.4 3145.4 L 4264.81 3145.6 L 4265.43 3145.6 L 4265.84 3145.4 L 4266.25 3144.99 M 4267.6 3143.97 L 4270.05 3143.97 L 4270.05 3143.56 L 4269.85 3143.15 L 4269.64 3142.94 L 4269.23 3142.74 L 4268.62 3142.74 L 4268.21 3142.94 L 4267.8 3143.35 L 4267.6 3143.97 L 4267.6 3144.38 L 4267.8 3144.99 L 4268.21 3145.4 L 4268.62 3145.6 L 4269.23 3145.6 L 4269.64 3145.4 L 4270.05 3144.99 M 4271.4 3142.74 L 4271.4 3145.6 M 4271.4 3143.97 L 4271.6 3143.35 L 4272.01 3142.94 L 4272.42 3142.74 L 4273.04 3142.74 M 4275.41 3142.74 L 4275 3142.94 L 4274.59 3143.35 L 4274.39 3143.97 L 4274.39 3144.38 L 4274.59 3144.99 L 4275 3145.4 L 4275.41 3145.6 L 4276.02 3145.6 L 4276.43 3145.4 L 4276.84 3144.99 L 4277.05 3144.38 L 4277.05 3143.97 L 4276.84 3143.35 L 4276.43 3142.94 L 4276.02 3142.74 L 4275.41 3142.74 M 4278.4 3142.74 L 4279.62 3145.6 M 4280.85 3142.74 L 4279.62 3145.6 M 4282.2 3143.97 L 4284.65 3143.97 L 4284.65 3143.56 L 4284.45 3143.15 L 4284.25 3142.94 L 4283.84 3142.74 L 4283.22 3142.74 L 4282.81 3142.94 L 4282.4 3143.35 L 4282.2 3143.97 L 4282.2 3144.38 L 4282.4 3144.99 L 4282.81 3145.4 L 4283.22 3145.6 L 4283.84 3145.6 L 4284.25 3145.4 L 4284.65 3144.99 M 4286 3142.74 L 4286 3145.6 M 4286 3143.97 L 4286.21 3143.35 L 4286.62 3142.94 L 4287.03 3142.74 L 4287.64 3142.74 M 4291.45 3142.74 L 4291.45 3146.01 L 4291.24 3146.63 L 4291.04 3146.83 L 4290.63 3147.03 L 4290.01 3147.03 L 4289.6 3146.83 M 4291.45 3143.35 L 4291.04 3142.94 L 4290.63 3142.74 L 4290.01 3142.74 L 4289.6 3142.94 L 4289.2 3143.35 L 4288.99 3143.97 L 4288.99 3144.38 L 4289.2 3144.99 L 4289.6 3145.4 L 4290.01 3145.6 L 4290.63 3145.6 L 4291.04 3145.4 L 4291.45 3144.99 M 4295.25 3142.74 L 4295.25 3145.6 M 4295.25 3143.35 L 4294.84 3142.94 L 4294.43 3142.74 L 4293.82 3142.74 L 4293.41 3142.94 L 4293 3143.35 L 4292.8 3143.97 L 4292.8 3144.38 L 4293 3144.99 L 4293.41 3145.4 L 4293.82 3145.6 L 4294.43 3145.6 L 4294.84 3145.4 L 4295.25 3144.99 M 4296.6 3142.74 L 4296.6 3145.6 M 4296.6 3143.56 L 4297.21 3142.94 L 4297.62 3142.74 L 4298.24 3142.74 L 4298.65 3142.94 L 4298.85 3143.56 L 4298.85 3145.6 M 4302.65 3142.74 L 4302.65 3146.01 L 4302.45 3146.63 L 4302.25 3146.83 L 4301.84 3147.03 L 4301.22 3147.03 L 4300.81 3146.83 M 4302.65 3143.35 L 4302.25 3142.94 L 4301.84 3142.74 L 4301.22 3142.74 L 4300.81 3142.94 L 4300.4 3143.35 L 4300.2 3143.97 L 4300.2 3144.38 L 4300.4 3144.99 L 4300.81 3145.4 L 4301.22 3145.6 L 4301.84 3145.6 L 4302.25 3145.4 L 4302.65 3144.99 M 4304 3141.31 L 4304 3145.6 M 4306.05 3142.74 L 4304 3144.78 M 4304.82 3143.97 L 4306.25 3145.6 M 4307.6 3142.74 L 4307.6 3145.6 M 4307.6 3143.56 L 4308.22 3142.94 L 4308.63 3142.74 L 4309.24 3142.74 L 4309.65 3142.94 L 4309.85 3143.56 L 4309.85 3145.6 M 4313.66 3142.74 L 4313.66 3145.6 M 4313.66 3143.35 L 4313.25 3142.94 L 4312.84 3142.74 L 4312.23 3142.74 L 4311.82 3142.94 L 4311.41 3143.35 L 4311.2 3143.97 L 4311.2 3144.38 L 4311.41 3144.99 L 4311.82 3145.4 L 4312.23 3145.6 L 4312.84 3145.6 L 4313.25 3145.4 L 4313.66 3144.99 M 4315.01 3142.74 L 4315.01 3147.03 M 4315.01 3143.35 L 4315.42 3142.94 L 4315.83 3142.74 L 4316.44 3142.74 L 4316.85 3142.94 L 4317.26 3143.35 L 4317.46 3143.97 L 4317.46 3144.38 L 4317.26 3144.99 L 4316.85 3145.4 L 4316.44 3145.6 L 4315.83 3145.6 L 4315.42 3145.4 L 4315.01 3144.99 M 4318.81 3142.74 L 4318.81 3147.03 M 4318.81 3143.35 L 4319.22 3142.94 L 4319.63 3142.74 L 4320.25 3142.74 L 4320.65 3142.94 L 4321.06 3143.35 L 4321.27 3143.97 L 4321.27 3144.38 L 4321.06 3144.99 L 4320.65 3145.4 L 4320.25 3145.6 L 4319.63 3145.6 L 4319.22 3145.4 L 4318.81 3144.99 M 4325.97 3142.33 L 4325.97 3142.13 L 4326.18 3141.72 L 4326.38 3141.51 L 4326.79 3141.31 L 4327.61 3141.31 L 4328.02 3141.51 L 4328.22 3141.72 L 4328.43 3142.13 L 4328.43 3142.53 L 4328.22 3142.94 L 4327.81 3143.56 L 4325.77 3145.6 L 4328.63 3145.6" fill="none"  stroke-width="0.6"  /></g><g c_partid="part_pcbtext" c_origin="4252,3161" c_rotation="270" c_mirror="none" id="gge232" layerid="3" c_shapetype="group" ><path c_fontSize="3.937" c_fontFamily="" c_text="1" d="M 4253.4301 3161 L 4253.6101 3161.36 L 4254.1501 3161.89 L 4250.3901 3161.89" fill="none"  stroke-width="0.8"  /></g><g c_partid="part_pcbtext" c_origin="4252,3181" c_rotation="270" c_mirror="none" id="gge233" layerid="3" c_shapetype="group" ><path c_fontSize="3.937" c_fontFamily="" c_text="2" d="M 4253.2503 3181.1801 L 4253.4303 3181.1801 L 4253.7903 3181.3601 L 4253.9703 3181.5401 L 4254.1503 3181.8901 L 4254.1503 3182.6101 L 4253.9703 3182.9701 L 4253.7903 3183.1501 L 4253.4303 3183.3301 L 4253.0703 3183.3301 L 4252.7203 3183.1501 L 4252.1803 3182.7901 L 4250.3903 3181.0001 L 4250.3903 3183.5101" fill="none"  stroke-width="0.8"  /></g><g c_partid="part_pcbtext" c_origin="4264.65,3224.26" c_rotation="90" c_mirror="" id="gge237" layerid="3" c_shapetype="group" display="none"><path c_fontSize="4.5" c_fontFamily="" c_text="J7" d="M 4258.4999 3222.2101 L 4261.7699 3222.2101 L 4262.3799 3222.4201 L 4262.5899 3222.6201 L 4262.7899 3223.0301 L 4262.7899 3223.4401 L 4262.5899 3223.8501 L 4262.3799 3224.0601 L 4261.7699 3224.2601 L 4261.3599 3224.2601 M 4258.4999 3218.0001 L 4262.7899 3220.0501 M 4258.4999 3220.8601 L 4258.4999 3218.0001" fill="none"  stroke-width="0.6" c_note="note_pre" /></g><g c_partid="part_pcbtext" c_origin="4239,3190.46" c_rotation="0" c_mirror="" id="gge238" layerid="3" c_shapetype="group" display="none"><path c_fontSize="4.5" c_fontFamily="" c_text="Fotgjengerovergang knapp 1" d="M 4239 3184.31 L 4239 3188.6 M 4239 3184.31 L 4241.66 3184.31 M 4239 3186.35 L 4240.64 3186.35 M 4244.03 3185.74 L 4243.62 3185.94 L 4243.21 3186.35 L 4243.01 3186.97 L 4243.01 3187.38 L 4243.21 3187.99 L 4243.62 3188.4 L 4244.03 3188.6 L 4244.65 3188.6 L 4245.05 3188.4 L 4245.46 3187.99 L 4245.67 3187.38 L 4245.67 3186.97 L 4245.46 3186.35 L 4245.05 3185.94 L 4244.65 3185.74 L 4244.03 3185.74 M 4247.63 3184.31 L 4247.63 3187.78 L 4247.84 3188.4 L 4248.25 3188.6 L 4248.65 3188.6 M 4247.02 3185.74 L 4248.45 3185.74 M 4252.46 3185.74 L 4252.46 3189.01 L 4252.25 3189.63 L 4252.05 3189.83 L 4251.64 3190.03 L 4251.03 3190.03 L 4250.62 3189.83 M 4252.46 3186.35 L 4252.05 3185.94 L 4251.64 3185.74 L 4251.03 3185.74 L 4250.62 3185.94 L 4250.21 3186.35 L 4250 3186.97 L 4250 3187.38 L 4250.21 3187.99 L 4250.62 3188.4 L 4251.03 3188.6 L 4251.64 3188.6 L 4252.05 3188.4 L 4252.46 3187.99 M 4254.63 3184.31 L 4254.83 3184.51 L 4255.04 3184.31 L 4254.83 3184.1 L 4254.63 3184.31 M 4254.83 3185.74 L 4254.83 3189.22 L 4254.63 3189.83 L 4254.22 3190.03 L 4253.81 3190.03 M 4256.39 3186.97 L 4258.84 3186.97 L 4258.84 3186.56 L 4258.64 3186.15 L 4258.43 3185.94 L 4258.02 3185.74 L 4257.41 3185.74 L 4257 3185.94 L 4256.59 3186.35 L 4256.39 3186.97 L 4256.39 3187.38 L 4256.59 3187.99 L 4257 3188.4 L 4257.41 3188.6 L 4258.02 3188.6 L 4258.43 3188.4 L 4258.84 3187.99 M 4260.19 3185.74 L 4260.19 3188.6 M 4260.19 3186.56 L 4260.8 3185.94 L 4261.21 3185.74 L 4261.83 3185.74 L 4262.24 3185.94 L 4262.44 3186.56 L 4262.44 3188.6 M 4266.25 3185.74 L 4266.25 3189.01 L 4266.04 3189.63 L 4265.84 3189.83 L 4265.43 3190.03 L 4264.81 3190.03 L 4264.4 3189.83 M 4266.25 3186.35 L 4265.84 3185.94 L 4265.43 3185.74 L 4264.81 3185.74 L 4264.4 3185.94 L 4264 3186.35 L 4263.79 3186.97 L 4263.79 3187.38 L 4264 3187.99 L 4264.4 3188.4 L 4264.81 3188.6 L 4265.43 3188.6 L 4265.84 3188.4 L 4266.25 3187.99 M 4267.6 3186.97 L 4270.05 3186.97 L 4270.05 3186.56 L 4269.85 3186.15 L 4269.64 3185.94 L 4269.23 3185.74 L 4268.62 3185.74 L 4268.21 3185.94 L 4267.8 3186.35 L 4267.6 3186.97 L 4267.6 3187.38 L 4267.8 3187.99 L 4268.21 3188.4 L 4268.62 3188.6 L 4269.23 3188.6 L 4269.64 3188.4 L 4270.05 3187.99 M 4271.4 3185.74 L 4271.4 3188.6 M 4271.4 3186.97 L 4271.6 3186.35 L 4272.01 3185.94 L 4272.42 3185.74 L 4273.04 3185.74 M 4275.41 3185.74 L 4275 3185.94 L 4274.59 3186.35 L 4274.39 3186.97 L 4274.39 3187.38 L 4274.59 3187.99 L 4275 3188.4 L 4275.41 3188.6 L 4276.02 3188.6 L 4276.43 3188.4 L 4276.84 3187.99 L 4277.05 3187.38 L 4277.05 3186.97 L 4276.84 3186.35 L 4276.43 3185.94 L 4276.02 3185.74 L 4275.41 3185.74 M 4278.4 3185.74 L 4279.62 3188.6 M 4280.85 3185.74 L 4279.62 3188.6 M 4282.2 3186.97 L 4284.65 3186.97 L 4284.65 3186.56 L 4284.45 3186.15 L 4284.25 3185.94 L 4283.84 3185.74 L 4283.22 3185.74 L 4282.81 3185.94 L 4282.4 3186.35 L 4282.2 3186.97 L 4282.2 3187.38 L 4282.4 3187.99 L 4282.81 3188.4 L 4283.22 3188.6 L 4283.84 3188.6 L 4284.25 3188.4 L 4284.65 3187.99 M 4286 3185.74 L 4286 3188.6 M 4286 3186.97 L 4286.21 3186.35 L 4286.62 3185.94 L 4287.03 3185.74 L 4287.64 3185.74 M 4291.45 3185.74 L 4291.45 3189.01 L 4291.24 3189.63 L 4291.04 3189.83 L 4290.63 3190.03 L 4290.01 3190.03 L 4289.6 3189.83 M 4291.45 3186.35 L 4291.04 3185.94 L 4290.63 3185.74 L 4290.01 3185.74 L 4289.6 3185.94 L 4289.2 3186.35 L 4288.99 3186.97 L 4288.99 3187.38 L 4289.2 3187.99 L 4289.6 3188.4 L 4290.01 3188.6 L 4290.63 3188.6 L 4291.04 3188.4 L 4291.45 3187.99 M 4295.25 3185.74 L 4295.25 3188.6 M 4295.25 3186.35 L 4294.84 3185.94 L 4294.43 3185.74 L 4293.82 3185.74 L 4293.41 3185.94 L 4293 3186.35 L 4292.8 3186.97 L 4292.8 3187.38 L 4293 3187.99 L 4293.41 3188.4 L 4293.82 3188.6 L 4294.43 3188.6 L 4294.84 3188.4 L 4295.25 3187.99 M 4296.6 3185.74 L 4296.6 3188.6 M 4296.6 3186.56 L 4297.21 3185.94 L 4297.62 3185.74 L 4298.24 3185.74 L 4298.65 3185.94 L 4298.85 3186.56 L 4298.85 3188.6 M 4302.65 3185.74 L 4302.65 3189.01 L 4302.45 3189.63 L 4302.25 3189.83 L 4301.84 3190.03 L 4301.22 3190.03 L 4300.81 3189.83 M 4302.65 3186.35 L 4302.25 3185.94 L 4301.84 3185.74 L 4301.22 3185.74 L 4300.81 3185.94 L 4300.4 3186.35 L 4300.2 3186.97 L 4300.2 3187.38 L 4300.4 3187.99 L 4300.81 3188.4 L 4301.22 3188.6 L 4301.84 3188.6 L 4302.25 3188.4 L 4302.65 3187.99 M 4307.15 3184.31 L 4307.15 3188.6 M 4309.2 3185.74 L 4307.15 3187.78 M 4307.97 3186.97 L 4309.4 3188.6 M 4310.75 3185.74 L 4310.75 3188.6 M 4310.75 3186.56 L 4311.37 3185.94 L 4311.78 3185.74 L 4312.39 3185.74 L 4312.8 3185.94 L 4313 3186.56 L 4313 3188.6 M 4316.81 3185.74 L 4316.81 3188.6 M 4316.81 3186.35 L 4316.4 3185.94 L 4315.99 3185.74 L 4315.38 3185.74 L 4314.97 3185.94 L 4314.56 3186.35 L 4314.35 3186.97 L 4314.35 3187.38 L 4314.56 3187.99 L 4314.97 3188.4 L 4315.38 3188.6 L 4315.99 3188.6 L 4316.4 3188.4 L 4316.81 3187.99 M 4318.16 3185.74 L 4318.16 3190.03 M 4318.16 3186.35 L 4318.57 3185.94 L 4318.98 3185.74 L 4319.59 3185.74 L 4320 3185.94 L 4320.41 3186.35 L 4320.61 3186.97 L 4320.61 3187.38 L 4320.41 3187.99 L 4320 3188.4 L 4319.59 3188.6 L 4318.98 3188.6 L 4318.57 3188.4 L 4318.16 3187.99 M 4321.96 3185.74 L 4321.96 3190.03 M 4321.96 3186.35 L 4322.37 3185.94 L 4322.78 3185.74 L 4323.4 3185.74 L 4323.8 3185.94 L 4324.21 3186.35 L 4324.42 3186.97 L 4324.42 3187.38 L 4324.21 3187.99 L 4323.8 3188.4 L 4323.4 3188.6 L 4322.78 3188.6 L 4322.37 3188.4 L 4321.96 3187.99 M 4328.92 3185.13 L 4329.33 3184.92 L 4329.94 3184.31 L 4329.94 3188.6" fill="none"  stroke-width="0.6"  /></g><g c_partid="part_pcbtext" c_origin="4252,3204" c_rotation="270" c_mirror="none" id="gge241" layerid="3" c_shapetype="group" ><path c_fontSize="3.937" c_fontFamily="" c_text="1" d="M 4253.4301 3204 L 4253.6101 3204.36 L 4254.1501 3204.89 L 4250.3901 3204.89" fill="none"  stroke-width="0.8"  /></g><g c_partid="part_pcbtext" c_origin="4251,3225" c_rotation="270" c_mirror="none" id="gge242" layerid="3" c_shapetype="group" ><path c_fontSize="3.937" c_fontFamily="" c_text="2" d="M 4252.2503 3225.1801 L 4252.4303 3225.1801 L 4252.7903 3225.3601 L 4252.9703 3225.5401 L 4253.1503 3225.8901 L 4253.1503 3226.6101 L 4252.9703 3226.9701 L 4252.7903 3227.1501 L 4252.4303 3227.3301 L 4252.0703 3227.3301 L 4251.7203 3227.1501 L 4251.1803 3226.7901 L 4249.3903 3225.0001 L 4249.3903 3227.5101" fill="none"  stroke-width="0.8"  /></g><g c_partid="part_pcbtext" c_origin="4466.5,3213" c_rotation="0" c_mirror="" id="gge246" layerid="3" c_shapetype="group" display="none"><path c_fontSize="4.5" c_fontFamily="" c_text="J2" d="M 4468.55 3206.842 L 4468.55 3210.122 L 4468.34 3210.732 L 4468.14 3210.932 L 4467.73 3211.142 L 4467.32 3211.142 L 4466.91 3210.932 L 4466.7 3210.732 L 4466.5 3210.122 L 4466.5 3209.712 M 4470.1 3207.872 L 4470.1 3207.662 L 4470.3 3207.252 L 4470.51 3207.052 L 4470.92 3206.842 L 4471.74 3206.842 L 4472.15 3207.052 L 4472.35 3207.252 L 4472.55 3207.662 L 4472.55 3208.072 L 4472.35 3208.482 L 4471.94 3209.092 L 4469.9 3211.142 L 4472.76 3211.142" fill="none"  stroke-width="0.6" c_note="note_pre" /></g><g c_partid="part_pcbtext" c_origin="4468.3,3042.59" c_rotation="0" c_mirror="" id="gge247" layerid="3" c_shapetype="group" display="none"><path c_fontSize="4.5" c_fontFamily="" c_text="KF127-8P" d="M 4468.299 3036.43 L 4468.299 3040.73 M 4471.159 3036.43 L 4468.299 3039.3 M 4469.319 3038.27 L 4471.159 3040.73 M 4472.509 3036.43 L 4472.509 3040.73 M 4472.509 3036.43 L 4475.169 3036.43 M 4472.509 3038.48 L 4474.149 3038.48 M 4476.519 3037.25 L 4476.929 3037.05 L 4477.549 3036.43 L 4477.549 3040.73 M 4479.099 3037.46 L 4479.099 3037.25 L 4479.299 3036.84 L 4479.509 3036.64 L 4479.919 3036.43 L 4480.739 3036.43 L 4481.149 3036.64 L 4481.349 3036.84 L 4481.549 3037.25 L 4481.549 3037.66 L 4481.349 3038.07 L 4480.939 3038.68 L 4478.899 3040.73 L 4481.759 3040.73 M 4485.969 3036.43 L 4483.929 3040.73 M 4483.109 3036.43 L 4485.969 3036.43 M 4487.319 3038.89 L 4490.999 3038.89 M 4493.379 3036.43 L 4492.759 3036.64 L 4492.559 3037.05 L 4492.559 3037.46 L 4492.759 3037.87 L 4493.169 3038.07 L 4493.989 3038.27 L 4494.599 3038.48 L 4495.009 3038.89 L 4495.219 3039.3 L 4495.219 3039.91 L 4495.009 3040.32 L 4494.809 3040.52 L 4494.199 3040.73 L 4493.379 3040.73 L 4492.759 3040.52 L 4492.559 3040.32 L 4492.349 3039.91 L 4492.349 3039.3 L 4492.559 3038.89 L 4492.969 3038.48 L 4493.579 3038.27 L 4494.399 3038.07 L 4494.809 3037.87 L 4495.009 3037.46 L 4495.009 3037.05 L 4494.809 3036.64 L 4494.199 3036.43 L 4493.379 3036.43 M 4496.569 3036.43 L 4496.569 3040.73 M 4496.569 3036.43 L 4498.409 3036.43 L 4499.019 3036.64 L 4499.229 3036.84 L 4499.429 3037.25 L 4499.429 3037.87 L 4499.229 3038.27 L 4499.019 3038.48 L 4498.409 3038.68 L 4496.569 3038.68" fill="none"  stroke-width="0.6"  /></g><g c_partid="part_pcbtext" c_origin="4264.5,3100.96" c_rotation="0" c_mirror="" id="gge961" layerid="3" c_shapetype="group" display="none"><path c_fontSize="4.5" c_fontFamily="" c_text="IC2" d="M 4264.5 3098.5 L 4264.5 3102.8 M 4268.92 3099.52 L 4268.72 3099.12 L 4268.31 3098.71 L 4267.9 3098.5 L 4267.08 3098.5 L 4266.67 3098.71 L 4266.26 3099.12 L 4266.06 3099.52 L 4265.85 3100.14 L 4265.85 3101.16 L 4266.06 3101.77 L 4266.26 3102.18 L 4266.67 3102.59 L 4267.08 3102.8 L 4267.9 3102.8 L 4268.31 3102.59 L 4268.72 3102.18 L 4268.92 3101.77 M 4270.47 3099.52 L 4270.47 3099.32 L 4270.68 3098.91 L 4270.88 3098.71 L 4271.29 3098.5 L 4272.11 3098.5 L 4272.52 3098.71 L 4272.72 3098.91 L 4272.93 3099.32 L 4272.93 3099.73 L 4272.72 3100.14 L 4272.32 3100.75 L 4270.27 3102.8 L 4273.13 3102.8" fill="none"  stroke-width="0.6" c_note="note_pre" /></g><g c_partid="part_pcbtext" c_origin="4257.35,3115.88" c_rotation="180" c_mirror="" id="gge963" layerid="3" c_shapetype="group" display="none"><path c_fontSize="4.5" c_fontFamily="" c_text="TR-72D" d="M 4255.924 3122.027 L 4255.924 3117.737 M 4257.354 3122.027 L 4254.494 3122.027 M 4253.144 3122.027 L 4253.144 3117.737 M 4253.144 3122.027 L 4251.304 3122.027 L 4250.684 3121.827 L 4250.484 3121.627 L 4250.274 3121.217 L 4250.274 3120.807 L 4250.484 3120.397 L 4250.684 3120.187 L 4251.304 3119.987 L 4253.144 3119.987 M 4251.704 3119.987 L 4250.274 3117.737 M 4248.924 3119.577 L 4245.244 3119.577 M 4241.034 3122.027 L 4243.074 3117.737 M 4243.894 3122.027 L 4241.034 3122.027 M 4239.474 3121.007 L 4239.474 3121.217 L 4239.274 3121.627 L 4239.064 3121.827 L 4238.654 3122.027 L 4237.844 3122.027 L 4237.434 3121.827 L 4237.224 3121.627 L 4237.024 3121.217 L 4237.024 3120.807 L 4237.224 3120.397 L 4237.634 3119.777 L 4239.684 3117.737 L 4236.814 3117.737 M 4235.464 3122.027 L 4235.464 3117.737 M 4235.464 3122.027 L 4234.034 3122.027 L 4233.424 3121.827 L 4233.014 3121.417 L 4232.804 3121.007 L 4232.604 3120.397 L 4232.604 3119.377 L 4232.804 3118.757 L 4233.014 3118.347 L 4233.424 3117.937 L 4234.034 3117.737 L 4235.464 3117.737" fill="none"  stroke-width="0.6"  /></g><path d="M 4388 3081.0001 A 4 4 0 0 1 4380 3081.0001" c_shapetype="line" fill="none" stroke-width="1" c_helper_type="arc2" net="" layerid="3" id="gge192" /><polyline points="4220.7 3043.7 4487.6 3043.7 4487.6 3236.7 4220.7 3236.7 4220.7 3043.7" stroke-width="1" c_shapetype="line" stroke-linecap="round" fill="none" layerid="10" net="" id="gge1378" /></g></svg>